%
M48
M72
T01C0.03937
T02C0.11811
%
T01
X61000Y21000
X61000Y31000
X91000Y31000
X111000Y21000
X91000Y11000
X71000Y61000
X61000Y61000
X61000Y71000
X71000Y71000
X71000Y81000
X61000Y81000
X61000Y91000
X71000Y91000
X71000Y101000
X61000Y101000
X61000Y111000
X71000Y111000
X71000Y121000
X61000Y121000
X141000Y121000
X151000Y121000
X151000Y111000
X141000Y111000
X141000Y101000
X151000Y101000
X151000Y91000
X141000Y91000
X141000Y81000
X151000Y81000
X151000Y71000
X141000Y71000
X141000Y61000
X151000Y61000
T02
X26000Y26000
X26000Y156000
X486000Y156000
X486000Y26000
M30
