%
M48
M72
T01C0.03937
T02C0.11811
%
T01
X51000Y21000
X51000Y31000
X81000Y31000
X101000Y21000
X81000Y11000
X71000Y61000
X61000Y61000
X61000Y71000
X71000Y71000
X71000Y81000
X61000Y81000
X61000Y91000
X71000Y91000
X71000Y101000
X61000Y101000
X61000Y111000
X71000Y111000
X71000Y121000
X61000Y121000
X121000Y121000
X131000Y121000
X131000Y111000
X121000Y111000
X121000Y101000
X131000Y101000
X131000Y91000
X121000Y91000
X121000Y81000
X131000Y81000
X131000Y71000
X121000Y71000
X121000Y61000
X131000Y61000
T02
X21000Y46000
X21000Y136000
X431000Y91000
X471000Y136000
X471000Y46000
M30
