  0
SECTION
  2
HEADER
  9
$ACADVER
  1
AC1009
  9
$INSBASE
 10
0
 20
0
 30
0
  9
$EXTMIN
 10
0
 20
0
  9
$EXTMAX
 10
841
 20
594
  9
$LIMMIN
 10
0
 20
0
  9
$LIMMAX
 10
841
 20
594
  9
$LTSCALE
 40
1
  0
ENDSEC
  0
SECTION
  2
TABLES
  0
TABLE
  2
LTYPE
 70
     9
  0
LTYPE
  2
CONTINUOUS
 70
    64
  3
é¿ê¸
 72
    65
 73
     0
 40
0.0
  0
LTYPE
  2
DASHED1
 70
    64
  3
--  --  --  --  --  --  --  --  
 72
    65
 73
     2
 40
2.5
 49
1.25
 49
-1.25
  0
LTYPE
  2
DASHED2
 70
    64
  3
----    ----    ----    ----    
 72
    65
 73
     2
 40
5.0
 49
2.5
 49
-2.5
  0
LTYPE
  2
DASHED3
 70
    64
  3
------  ------  ------  ------  
 72
    65
 73
     2
 40
5.0
 49
3.75
 49
-1.25
  0
LTYPE
  2
CENTER1
 70
    64
  3
----- - ----- - ----- - ----- - 
 72
    65
 73
     4
 40
10.0
 49
6.25
 49
-1.25
 49
1.25
 49
-1.25
  0
LTYPE
  2
CENTER2
 70
    64
  3
----------  --  ----------  --  
 72
    65
 73
     4
 40
20.0
 49
12.5
 49
-2.5
 49
2.5
 49
-2.5
  0
LTYPE
  2
PHANTOM1
 70
    64
  3
--- - - --- - - --- - - --- - - 
 72
    65
 73
     6
 40
10.0
 49
3.25
 49
-1.25
 49
1.25
 49
-1.25
 49
1.25
 49
-1.25
  0
LTYPE
  2
PHANTOM2
 70
    64
  3
--------  -  -  --------  -  -  
 72
    65
 73
     6
 40
20.0
 49
10.0
 49
-2.5
 49
1.25
 49
-2.5
 49
1.25
 49
-2.5
  0
LTYPE
  2
DOT
 70
    64
  3
-   -   -   -   -   -   -   -   
 72
    65
 73
     2
 40
2.5
 49
0.625
 49
-1.875
  0
LTYPE
  2
DUMMY
 70
    64
  3
É_É~Å[
 72
    65
 73
     0
 40
0.0
  0
LTYPE
  2
RAND1
 70
    64
  3
----- - ----- - ----- - ----- - 
 72
    65
 73
     4
 40
10.0
 49
6.25
 49
-1.25
 49
1.25
 49
-1.25
  0
LTYPE
  2
RAND2
 70
    64
  3
----------  --  ----------  --  
 72
    65
 73
     4
 40
20.0
 49
12.5
 49
-2.5
 49
2.5
 49
-2.5
  0
LTYPE
  2
RAND3
 70
    64
  3
--- - - --- - - --- - - --- - - 
 72
    65
 73
     6
 40
10.0
 49
3.25
 49
-1.25
 49
1.25
 49
-1.25
 49
1.25
 49
-1.25
  0
LTYPE
  2
RAND4
 70
    64
  3
--------  -  -  --------  -  -  
 72
    65
 73
     6
 40
20.0
 49
10.0
 49
-2.5
 49
1.25
 49
-2.5
 49
1.25
 49
-2.5
  0
LTYPE
  2
RAND5
 70
    64
  3
----- - ----- - ----- - ----- - 
 72
    65
 73
     4
 40
10.0
 49
6.25
 49
-1.25
 49
1.25
 49
-1.25
  0
LTYPE
  2
LONG1
 70
    64
  3
----------  --  ----------  --  
 72
    65
 73
     4
 40
20.0
 49
12.5
 49
-2.5
 49
2.5
 49
-2.5
  0
LTYPE
  2
LONG2
 70
    64
  3
--- - - --- - - --- - - --- - - 
 72
    65
 73
     6
 40
10.0
 49
3.25
 49
-1.25
 49
1.25
 49
-1.25
 49
1.25
 49
-1.25
  0
LTYPE
  2
LONG3
 70
    64
  3
--------  -  -  --------  -  -  
 72
    65
 73
     6
 40
20.0
 49
10.0
 49
-2.5
 49
1.25
 49
-2.5
 49
1.25
 49
-2.5
  0
LTYPE
  2
LONG4
 70
    64
  3
----- - ----- - ----- - ----- - 
 72
    65
 73
     4
 40
10.0
 49
6.25
 49
-1.25
 49
1.25
 49
-1.25
  0
LTYPE
  2
LONG5
 70
    64
  3
----------  --  ----------  --  
 72
    65
 73
     4
 40
20.0
 49
12.5
 49
-2.5
 49
2.5
 49
-2.5
  0
ENDTAB
  0
TABLE
  2
STYLE
  5
3
100
AcDbSymbolTable
 70
     1
  0
STYLE
  5
10
100
AcDbSymbolTableRecord
100
AcDbTextStyleTableRecord
  2
STANDARD
 70
     0
 40
0.0
 41
1.0
 50
0.0
 71
     0
 42
0.2
  3
txt
  4
bigfont.shx
  0
ENDTAB
  0
TABLE
  2
LAYER
 70
    2
  0
LAYER
  2
_0-0_
 70
   64
 62
    7
  6
CONTINUOUS
  0
LAYER
  2
ADD_LINE
 70
   64
 62
    7
  6
CONTINUOUS
  0
ENDTAB
  0
ENDSEC
  0
SECTION
  2
BLOCKS
  0
ENDSEC
  0
SECTION
  2
ENTITIES
  0
POLYLINE
  8
_0-0_
 66
     1
 40
0.000000
 41
0.000000
  0
VERTEX
  8
_0-0_
 10
0
 20
151
  0
VERTEX
  8
_0-0_
 10
2
 20
150
  0
VERTEX
  8
_0-0_
 10
10
 20
149
  0
VERTEX
  8
_0-0_
 10
12
 20
147
  0
VERTEX
  8
_0-0_
 10
10
 20
144
  0
VERTEX
  8
_0-0_
 10
9
 20
138
  0
VERTEX
  8
_0-0_
 10
11
 20
137
  0
VERTEX
  8
_0-0_
 10
12
 20
136
  0
VERTEX
  8
_0-0_
 10
11
 20
133
  0
VERTEX
  8
_0-0_
 10
9
 20
132
  0
VERTEX
  8
_0-0_
 10
6
 20
131
  0
VERTEX
  8
_0-0_
 10
4
 20
129
  0
VERTEX
  8
_0-0_
 10
5
 20
125
  0
VERTEX
  8
_0-0_
 10
9
 20
126
  0
VERTEX
  8
_0-0_
 10
11
 20
127
  0
VERTEX
  8
_0-0_
 10
12
 20
130
  0
VERTEX
  8
_0-0_
 10
15
 20
131
  0
VERTEX
  8
_0-0_
 10
16
 20
132
  0
VERTEX
  8
_0-0_
 10
18
 20
133
  0
VERTEX
  8
_0-0_
 10
25
 20
132
  0
VERTEX
  8
_0-0_
 10
26
 20
127
  0
VERTEX
  8
_0-0_
 10
25
 20
121
  0
VERTEX
  8
_0-0_
 10
27
 20
120
  0
VERTEX
  8
_0-0_
 10
28
 20
124
  0
VERTEX
  8
_0-0_
 10
29
 20
128
  0
VERTEX
  8
_0-0_
 10
31
 20
126
  0
VERTEX
  8
_0-0_
 10
33
 20
124
  0
VERTEX
  8
_0-0_
 10
34
 20
125
  0
VERTEX
  8
_0-0_
 10
34
 20
128
  0
VERTEX
  8
_0-0_
 10
36
 20
129
  0
VERTEX
  8
_0-0_
 10
38
 20
129
  0
VERTEX
  8
_0-0_
 10
41
 20
128
  0
VERTEX
  8
_0-0_
 10
45
 20
130
  0
VERTEX
  8
_0-0_
 10
43
 20
130
  0
SEQEND
  8
A
  0
POLYLINE
  8
_0-0_
 66
     1
 40
0.000000
 41
0.000000
  0
VERTEX
  8
_0-0_
 10
1
 20
151
  0
VERTEX
  8
_0-0_
 10
1
 20
151
  0
VERTEX
  8
_0-0_
 10
0
 20
151
  0
VERTEX
  8
_0-0_
 10
0
 20
151
  0
VERTEX
  8
_0-0_
 10
1
 20
151
  0
VERTEX
  8
_0-0_
 10
1
 20
151
  0
VERTEX
  8
_0-0_
 10
0
 20
151
  0
SEQEND
  8
A
  0
POLYLINE
  8
_0-0_
 66
     1
 40
0.000000
 41
0.000000
  0
VERTEX
  8
_0-0_
 10
3
 20
151
  0
VERTEX
  8
_0-0_
 10
3
 20
151
  0
VERTEX
  8
_0-0_
 10
4
 20
151
  0
VERTEX
  8
_0-0_
 10
4
 20
151
  0
VERTEX
  8
_0-0_
 10
4
 20
152
  0
VERTEX
  8
_0-0_
 10
4
 20
152
  0
VERTEX
  8
_0-0_
 10
4
 20
151
  0
VERTEX
  8
_0-0_
 10
4
 20
151
  0
VERTEX
  8
_0-0_
 10
3
 20
151
  0
VERTEX
  8
_0-0_
 10
3
 20
151
  0
SEQEND
  8
A
  0
POINT
  8
_0-0_
 62
    7
 10
3
 20
125
  0
POLYLINE
  8
_0-0_
 66
     1
 40
0.000000
 41
0.000000
  0
VERTEX
  8
_0-0_
 10
4
 20
160
  0
VERTEX
  8
_0-0_
 10
4
 20
160
  0
VERTEX
  8
_0-0_
 10
5
 20
160
  0
VERTEX
  8
_0-0_
 10
5
 20
160
  0
VERTEX
  8
_0-0_
 10
5
 20
159
  0
VERTEX
  8
_0-0_
 10
5
 20
157
  0
VERTEX
  8
_0-0_
 10
6
 20
157
  0
VERTEX
  8
_0-0_
 10
7
 20
157
  0
VERTEX
  8
_0-0_
 10
7
 20
156
  0
VERTEX
  8
_0-0_
 10
7
 20
156
  0
VERTEX
  8
_0-0_
 10
8
 20
156
  0
VERTEX
  8
_0-0_
 10
8
 20
156
  0
VERTEX
  8
_0-0_
 10
8
 20
155
  0
VERTEX
  8
_0-0_
 10
8
 20
153
  0
VERTEX
  8
_0-0_
 10
7
 20
153
  0
VERTEX
  8
_0-0_
 10
6
 20
153
  0
VERTEX
  8
_0-0_
 10
6
 20
152
  0
VERTEX
  8
_0-0_
 10
6
 20
152
  0
VERTEX
  8
_0-0_
 10
5
 20
152
  0
VERTEX
  8
_0-0_
 10
5
 20
152
  0
SEQEND
  8
A
  0
POINT
  8
_0-0_
 62
    7
 10
4
 20
158
  0
POINT
  8
_0-0_
 62
    7
 10
4
 20
132
  0
POLYLINE
  8
_0-0_
 66
     1
 40
0.000000
 41
0.000000
  0
VERTEX
  8
_0-0_
 10
5
 20
161
  0
VERTEX
  8
_0-0_
 10
7
 20
160
  0
VERTEX
  8
_0-0_
 10
11
 20
160
  0
VERTEX
  8
_0-0_
 10
12
 20
161
  0
VERTEX
  8
_0-0_
 10
15
 20
163
  0
VERTEX
  8
_0-0_
 10
14
 20
165
  0
VERTEX
  8
_0-0_
 10
22
 20
168
  0
VERTEX
  8
_0-0_
 10
24
 20
169
  0
VERTEX
  8
_0-0_
 10
26
 20
170
  0
VERTEX
  8
_0-0_
 10
28
 20
171
  0
VERTEX
  8
_0-0_
 10
30
 20
173
  0
VERTEX
  8
_0-0_
 10
33
 20
174
  0
VERTEX
  8
_0-0_
 10
36
 20
176
  0
VERTEX
  8
_0-0_
 10
37
 20
177
  0
VERTEX
  8
_0-0_
 10
38
 20
182
  0
VERTEX
  8
_0-0_
 10
42
 20
187
  0
VERTEX
  8
_0-0_
 10
46
 20
185
  0
VERTEX
  8
_0-0_
 10
51
 20
186
  0
VERTEX
  8
_0-0_
 10
52
 20
188
  0
VERTEX
  8
_0-0_
 10
53
 20
189
  0
VERTEX
  8
_0-0_
 10
55
 20
190
  0
VERTEX
  8
_0-0_
 10
56
 20
191
  0
VERTEX
  8
_0-0_
 10
57
 20
193
  0
VERTEX
  8
_0-0_
 10
58
 20
195
  0
VERTEX
  8
_0-0_
 10
60
 20
196
  0
VERTEX
  8
_0-0_
 10
61
 20
197
  0
VERTEX
  8
_0-0_
 10
62
 20
199
  0
VERTEX
  8
_0-0_
 10
63
 20
200
  0
VERTEX
  8
_0-0_
 10
65
 20
201
  0
VERTEX
  8
_0-0_
 10
66
 20
202
  0
VERTEX
  8
_0-0_
 10
67
 20
204
  0
VERTEX
  8
_0-0_
 10
68
 20
205
  0
VERTEX
  8
_0-0_
 10
70
 20
207
  0
VERTEX
  8
_0-0_
 10
71
 20
208
  0
VERTEX
  8
_0-0_
 10
72
 20
210
  0
VERTEX
  8
_0-0_
 10
73
 20
211
  0
VERTEX
  8
_0-0_
 10
75
 20
212
  0
VERTEX
  8
_0-0_
 10
76
 20
213
  0
VERTEX
  8
_0-0_
 10
77
 20
215
  0
VERTEX
  8
_0-0_
 10
78
 20
218
  0
VERTEX
  8
_0-0_
 10
81
 20
219
  0
VERTEX
  8
_0-0_
 10
82
 20
220
  0
VERTEX
  8
_0-0_
 10
83
 20
222
  0
VERTEX
  8
_0-0_
 10
84
 20
223
  0
VERTEX
  8
_0-0_
 10
89
 20
224
  0
VERTEX
  8
_0-0_
 10
93
 20
222
  0
VERTEX
  8
_0-0_
 10
94
 20
224
  0
VERTEX
  8
_0-0_
 10
99
 20
228
  0
VERTEX
  8
_0-0_
 10
99
 20
230
  0
VERTEX
  8
_0-0_
 10
96
 20
230
  0
VERTEX
  8
_0-0_
 10
97
 20
234
  0
VERTEX
  8
_0-0_
 10
98
 20
236
  0
VERTEX
  8
_0-0_
 10
100
 20
237
  0
VERTEX
  8
_0-0_
 10
101
 20
238
  0
VERTEX
  8
_0-0_
 10
102
 20
245
  0
VERTEX
  8
_0-0_
 10
100
 20
255
  0
VERTEX
  8
_0-0_
 10
97
 20
254
  0
VERTEX
  8
_0-0_
 10
94
 20
253
  0
VERTEX
  8
_0-0_
 10
93
 20
251
  0
VERTEX
  8
_0-0_
 10
92
 20
250
  0
VERTEX
  8
_0-0_
 10
90
 20
249
  0
VERTEX
  8
_0-0_
 10
89
 20
246
  0
VERTEX
  8
_0-0_
 10
88
 20
244
  0
VERTEX
  8
_0-0_
 10
87
 20
245
  0
VERTEX
  8
_0-0_
 10
85
 20
246
  0
VERTEX
  8
_0-0_
 10
79
 20
246
  0
VERTEX
  8
_0-0_
 10
80
 20
248
  0
VERTEX
  8
_0-0_
 10
81
 20
253
  0
VERTEX
  8
_0-0_
 10
79
 20
254
  0
VERTEX
  8
_0-0_
 10
78
 20
256
  0
VERTEX
  8
_0-0_
 10
77
 20
260
  0
VERTEX
  8
_0-0_
 10
74
 20
261
  0
VERTEX
  8
_0-0_
 10
71
 20
262
  0
VERTEX
  8
_0-0_
 10
73
 20
264
  0
VERTEX
  8
_0-0_
 10
76
 20
266
  0
VERTEX
  8
_0-0_
 10
78
 20
267
  0
VERTEX
  8
_0-0_
 10
80
 20
269
  0
VERTEX
  8
_0-0_
 10
81
 20
271
  0
VERTEX
  8
_0-0_
 10
82
 20
273
  0
VERTEX
  8
_0-0_
 10
81
 20
279
  0
VERTEX
  8
_0-0_
 10
85
 20
280
  0
VERTEX
  8
_0-0_
 10
88
 20
279
  0
VERTEX
  8
_0-0_
 10
91
 20
279
  0
VERTEX
  8
_0-0_
 10
92
 20
274
  0
VERTEX
  8
_0-0_
 10
95
 20
273
  0
VERTEX
  8
_0-0_
 10
97
 20
272
  0
VERTEX
  8
_0-0_
 10
99
 20
270
  0
VERTEX
  8
_0-0_
 10
101
 20
269
  0
VERTEX
  8
_0-0_
 10
104
 20
281
  0
VERTEX
  8
_0-0_
 10
103
 20
283
  0
VERTEX
  8
_0-0_
 10
102
 20
285
  0
VERTEX
  8
_0-0_
 10
101
 20
287
  0
VERTEX
  8
_0-0_
 10
100
 20
290
  0
VERTEX
  8
_0-0_
 10
101
 20
291
  0
VERTEX
  8
_0-0_
 10
103
 20
293
  0
VERTEX
  8
_0-0_
 10
104
 20
295
  0
VERTEX
  8
_0-0_
 10
106
 20
297
  0
VERTEX
  8
_0-0_
 10
108
 20
302
  0
VERTEX
  8
_0-0_
 10
109
 20
299
  0
VERTEX
  8
_0-0_
 10
110
 20
294
  0
VERTEX
  8
_0-0_
 10
112
 20
292
  0
VERTEX
  8
_0-0_
 10
115
 20
291
  0
VERTEX
  8
_0-0_
 10
116
 20
289
  0
VERTEX
  8
_0-0_
 10
115
 20
287
  0
VERTEX
  8
_0-0_
 10
112
 20
286
  0
VERTEX
  8
_0-0_
 10
111
 20
284
  0
VERTEX
  8
_0-0_
 10
110
 20
282
  0
VERTEX
  8
_0-0_
 10
112
 20
270
  0
VERTEX
  8
_0-0_
 10
116
 20
271
  0
VERTEX
  8
_0-0_
 10
119
 20
272
  0
VERTEX
  8
_0-0_
 10
121
 20
274
  0
VERTEX
  8
_0-0_
 10
122
 20
295
  0
VERTEX
  8
_0-0_
 10
120
 20
297
  0
VERTEX
  8
_0-0_
 10
124
 20
299
  0
VERTEX
  8
_0-0_
 10
126
 20
297
  0
VERTEX
  8
_0-0_
 10
128
 20
295
  0
VERTEX
  8
_0-0_
 10
130
 20
294
  0
VERTEX
  8
_0-0_
 10
131
 20
292
  0
VERTEX
  8
_0-0_
 10
132
 20
280
  0
VERTEX
  8
_0-0_
 10
133
 20
279
  0
VERTEX
  8
_0-0_
 10
136
 20
278
  0
VERTEX
  8
_0-0_
 10
138
 20
279
  0
VERTEX
  8
_0-0_
 10
147
 20
279
  0
VERTEX
  8
_0-0_
 10
148
 20
278
  0
VERTEX
  8
_0-0_
 10
150
 20
275
  0
VERTEX
  8
_0-0_
 10
149
 20
268
  0
VERTEX
  8
_0-0_
 10
148
 20
264
  0
VERTEX
  8
_0-0_
 10
147
 20
260
  0
VERTEX
  8
_0-0_
 10
147
 20
253
  0
VERTEX
  8
_0-0_
 10
148
 20
252
  0
VERTEX
  8
_0-0_
 10
149
 20
250
  0
VERTEX
  8
_0-0_
 10
150
 20
217
  0
VERTEX
  8
_0-0_
 10
150
 20
143
  0
VERTEX
  8
_0-0_
 10
152
 20
138
  0
VERTEX
  8
_0-0_
 10
153
 20
135
  0
VERTEX
  8
_0-0_
 10
154
 20
132
  0
VERTEX
  8
_0-0_
 10
156
 20
131
  0
VERTEX
  8
_0-0_
 10
153
 20
129
  0
VERTEX
  8
_0-0_
 10
148
 20
129
  0
VERTEX
  8
_0-0_
 10
147
 20
130
  0
VERTEX
  8
_0-0_
 10
145
 20
131
  0
VERTEX
  8
_0-0_
 10
153
 20
133
  0
VERTEX
  8
_0-0_
 10
153
 20
132
  0
SEQEND
  8
A
  0
POLYLINE
  8
_0-0_
 66
     1
 40
0.000000
 41
0.000000
  0
VERTEX
  8
_0-0_
 10
5
 20
160
  0
VERTEX
  8
_0-0_
 10
5
 20
160
  0
VERTEX
  8
_0-0_
 10
5
 20
161
  0
VERTEX
  8
_0-0_
 10
5
 20
161
  0
VERTEX
  8
_0-0_
 10
5
 20
160
  0
VERTEX
  8
_0-0_
 10
5
 20
160
  0
VERTEX
  8
_0-0_
 10
5
 20
161
  0
VERTEX
  8
_0-0_
 10
5
 20
161
  0
VERTEX
  8
_0-0_
 10
4
 20
160
  0
VERTEX
  8
_0-0_
 10
4
 20
160
  0
SEQEND
  8
A
  0
POINT
  8
_0-0_
 62
    7
 10
8
 20
142
  0
POLYLINE
  8
_0-0_
 66
     1
 40
0.000000
 41
0.000000
  0
VERTEX
  8
_0-0_
 10
12
 20
167
  0
VERTEX
  8
_0-0_
 10
12
 20
167
  0
VERTEX
  8
_0-0_
 10
13
 20
167
  0
VERTEX
  8
_0-0_
 10
13
 20
167
  0
VERTEX
  8
_0-0_
 10
13
 20
166
  0
VERTEX
  8
_0-0_
 10
13
 20
166
  0
VERTEX
  8
_0-0_
 10
13
 20
167
  0
VERTEX
  8
_0-0_
 10
13
 20
167
  0
VERTEX
  8
_0-0_
 10
12
 20
167
  0
VERTEX
  8
_0-0_
 10
12
 20
167
  0
SEQEND
  8
A
  0
POLYLINE
  8
_0-0_
 66
     1
 40
0.000000
 41
0.000000
  0
VERTEX
  8
_0-0_
 10
14
 20
150
  0
VERTEX
  8
_0-0_
 10
15
 20
147
  0
VERTEX
  8
_0-0_
 10
14
 20
144
  0
VERTEX
  8
_0-0_
 10
15
 20
141
  0
VERTEX
  8
_0-0_
 10
18
 20
143
  0
VERTEX
  8
_0-0_
 10
22
 20
147
  0
VERTEX
  8
_0-0_
 10
23
 20
149
  0
VERTEX
  8
_0-0_
 10
24
 20
150
  0
VERTEX
  8
_0-0_
 10
26
 20
154
  0
VERTEX
  8
_0-0_
 10
28
 20
157
  0
VERTEX
  8
_0-0_
 10
29
 20
160
  0
VERTEX
  8
_0-0_
 10
30
 20
161
  0
VERTEX
  8
_0-0_
 10
32
 20
164
  0
VERTEX
  8
_0-0_
 10
38
 20
165
  0
VERTEX
  8
_0-0_
 10
37
 20
169
  0
VERTEX
  8
_0-0_
 10
33
 20
169
  0
VERTEX
  8
_0-0_
 10
31
 20
167
  0
VERTEX
  8
_0-0_
 10
28
 20
166
  0
VERTEX
  8
_0-0_
 10
27
 20
164
  0
VERTEX
  8
_0-0_
 10
26
 20
163
  0
VERTEX
  8
_0-0_
 10
24
 20
162
  0
VERTEX
  8
_0-0_
 10
23
 20
161
  0
VERTEX
  8
_0-0_
 10
22
 20
159
  0
VERTEX
  8
_0-0_
 10
21
 20
155
  0
VERTEX
  8
_0-0_
 10
19
 20
148
  0
VERTEX
  8
_0-0_
 10
19
 20
150
  0
VERTEX
  8
_0-0_
 10
18
 20
151
  0
SEQEND
  8
A
  0
POLYLINE
  8
_0-0_
 66
     1
 40
0.000000
 41
0.000000
  0
VERTEX
  8
_0-0_
 10
14
 20
149
  0
VERTEX
  8
_0-0_
 10
14
 20
149
  0
VERTEX
  8
_0-0_
 10
14
 20
150
  0
VERTEX
  8
_0-0_
 10
14
 20
150
  0
VERTEX
  8
_0-0_
 10
14
 20
149
  0
VERTEX
  8
_0-0_
 10
14
 20
149
  0
VERTEX
  8
_0-0_
 10
14
 20
150
  0
VERTEX
  8
_0-0_
 10
14
 20
150
  0
VERTEX
  8
_0-0_
 10
15
 20
150
  0
VERTEX
  8
_0-0_
 10
16
 20
150
  0
VERTEX
  8
_0-0_
 10
16
 20
149
  0
VERTEX
  8
_0-0_
 10
16
 20
149
  0
SEQEND
  8
A
  0
POINT
  8
_0-0_
 62
    7
 10
14
 20
130
  0
POLYLINE
  8
_0-0_
 66
     1
 40
0.000000
 41
0.000000
  0
VERTEX
  8
_0-0_
 10
15
 20
153
  0
VERTEX
  8
_0-0_
 10
15
 20
153
  0
VERTEX
  8
_0-0_
 10
15
 20
152
  0
VERTEX
  8
_0-0_
 10
15
 20
151
  0
VERTEX
  8
_0-0_
 10
16
 20
151
  0
VERTEX
  8
_0-0_
 10
16
 20
151
  0
VERTEX
  8
_0-0_
 10
15
 20
152
  0
VERTEX
  8
_0-0_
 10
15
 20
152
  0
VERTEX
  8
_0-0_
 10
15
 20
153
  0
VERTEX
  8
_0-0_
 10
15
 20
153
  0
VERTEX
  8
_0-0_
 10
16
 20
153
  0
VERTEX
  8
_0-0_
 10
16
 20
153
  0
VERTEX
  8
_0-0_
 10
16
 20
154
  0
VERTEX
  8
_0-0_
 10
16
 20
154
  0
VERTEX
  8
_0-0_
 10
17
 20
154
  0
VERTEX
  8
_0-0_
 10
17
 20
154
  0
VERTEX
  8
_0-0_
 10
17
 20
155
  0
VERTEX
  8
_0-0_
 10
17
 20
155
  0
VERTEX
  8
_0-0_
 10
18
 20
155
  0
VERTEX
  8
_0-0_
 10
18
 20
155
  0
VERTEX
  8
_0-0_
 10
18
 20
156
  0
VERTEX
  8
_0-0_
 10
18
 20
156
  0
VERTEX
  8
_0-0_
 10
19
 20
156
  0
VERTEX
  8
_0-0_
 10
20
 20
156
  0
SEQEND
  8
A
  0
POINT
  8
_0-0_
 62
    7
 10
16
 20
146
  0
POLYLINE
  8
_0-0_
 66
     1
 40
0.000000
 41
0.000000
  0
VERTEX
  8
_0-0_
 10
19
 20
138
  0
VERTEX
  8
_0-0_
 10
19
 20
138
  0
VERTEX
  8
_0-0_
 10
19
 20
137
  0
VERTEX
  8
_0-0_
 10
19
 20
136
  0
VERTEX
  8
_0-0_
 10
20
 20
136
  0
VERTEX
  8
_0-0_
 10
20
 20
136
  0
VERTEX
  8
_0-0_
 10
20
 20
135
  0
VERTEX
  8
_0-0_
 10
20
 20
135
  0
VERTEX
  8
_0-0_
 10
21
 20
135
  0
VERTEX
  8
_0-0_
 10
22
 20
135
  0
VERTEX
  8
_0-0_
 10
22
 20
136
  0
VERTEX
  8
_0-0_
 10
22
 20
136
  0
VERTEX
  8
_0-0_
 10
23
 20
136
  0
VERTEX
  8
_0-0_
 10
23
 20
136
  0
VERTEX
  8
_0-0_
 10
23
 20
137
  0
VERTEX
  8
_0-0_
 10
23
 20
137
  0
VERTEX
  8
_0-0_
 10
24
 20
137
  0
VERTEX
  8
_0-0_
 10
30
 20
137
  0
VERTEX
  8
_0-0_
 10
30
 20
138
  0
VERTEX
  8
_0-0_
 10
30
 20
139
  0
VERTEX
  8
_0-0_
 10
31
 20
139
  0
VERTEX
  8
_0-0_
 10
31
 20
139
  0
VERTEX
  8
_0-0_
 10
31
 20
140
  0
VERTEX
  8
_0-0_
 10
31
 20
140
  0
VERTEX
  8
_0-0_
 10
32
 20
140
  0
VERTEX
  8
_0-0_
 10
33
 20
140
  0
VERTEX
  8
_0-0_
 10
33
 20
141
  0
VERTEX
  8
_0-0_
 10
33
 20
142
  0
VERTEX
  8
_0-0_
 10
34
 20
142
  0
VERTEX
  8
_0-0_
 10
34
 20
142
  0
VERTEX
  8
_0-0_
 10
34
 20
143
  0
VERTEX
  8
_0-0_
 10
34
 20
144
  0
VERTEX
  8
_0-0_
 10
35
 20
144
  0
VERTEX
  8
_0-0_
 10
35
 20
144
  0
VERTEX
  8
_0-0_
 10
35
 20
145
  0
VERTEX
  8
_0-0_
 10
35
 20
146
  0
VERTEX
  8
_0-0_
 10
36
 20
146
  0
VERTEX
  8
_0-0_
 10
37
 20
146
  0
VERTEX
  8
_0-0_
 10
37
 20
147
  0
VERTEX
  8
_0-0_
 10
37
 20
148
  0
VERTEX
  8
_0-0_
 10
36
 20
148
  0
VERTEX
  8
_0-0_
 10
35
 20
148
  0
VERTEX
  8
_0-0_
 10
35
 20
147
  0
VERTEX
  8
_0-0_
 10
35
 20
147
  0
VERTEX
  8
_0-0_
 10
34
 20
148
  0
VERTEX
  8
_0-0_
 10
34
 20
148
  0
VERTEX
  8
_0-0_
 10
33
 20
148
  0
VERTEX
  8
_0-0_
 10
33
 20
148
  0
VERTEX
  8
_0-0_
 10
33
 20
147
  0
VERTEX
  8
_0-0_
 10
33
 20
146
  0
VERTEX
  8
_0-0_
 10
34
 20
146
  0
VERTEX
  8
_0-0_
 10
34
 20
146
  0
SEQEND
  8
A
  0
POLYLINE
  8
_0-0_
 66
     1
 40
0.000000
 41
0.000000
  0
VERTEX
  8
_0-0_
 10
19
 20
137
  0
VERTEX
  8
_0-0_
 10
19
 20
137
  0
VERTEX
  8
_0-0_
 10
19
 20
138
  0
VERTEX
  8
_0-0_
 10
19
 20
138
  0
VERTEX
  8
_0-0_
 10
19
 20
137
  0
VERTEX
  8
_0-0_
 10
19
 20
137
  0
VERTEX
  8
_0-0_
 10
19
 20
138
  0
VERTEX
  8
_0-0_
 10
19
 20
138
  0
VERTEX
  8
_0-0_
 10
20
 20
138
  0
VERTEX
  8
_0-0_
 10
21
 20
138
  0
VERTEX
  8
_0-0_
 10
21
 20
137
  0
VERTEX
  8
_0-0_
 10
21
 20
137
  0
SEQEND
  8
A
  0
POLYLINE
  8
_0-0_
 66
     1
 40
0.000000
 41
0.000000
  0
VERTEX
  8
_0-0_
 10
21
 20
139
  0
VERTEX
  8
_0-0_
 10
21
 20
139
  0
VERTEX
  8
_0-0_
 10
22
 20
139
  0
VERTEX
  8
_0-0_
 10
23
 20
139
  0
VERTEX
  8
_0-0_
 10
23
 20
138
  0
VERTEX
  8
_0-0_
 10
23
 20
138
  0
VERTEX
  8
_0-0_
 10
24
 20
138
  0
VERTEX
  8
_0-0_
 10
24
 20
138
  0
SEQEND
  8
A
  0
POLYLINE
  8
_0-0_
 66
     1
 40
0.000000
 41
0.000000
  0
VERTEX
  8
_0-0_
 10
22
 20
139
  0
VERTEX
  8
_0-0_
 10
22
 20
139
  0
VERTEX
  8
_0-0_
 10
21
 20
139
  0
VERTEX
  8
_0-0_
 10
21
 20
139
  0
VERTEX
  8
_0-0_
 10
22
 20
139
  0
VERTEX
  8
_0-0_
 10
22
 20
139
  0
VERTEX
  8
_0-0_
 10
21
 20
139
  0
VERTEX
  8
_0-0_
 10
21
 20
139
  0
SEQEND
  8
A
  0
POLYLINE
  8
_0-0_
 66
     1
 40
0.000000
 41
0.000000
  0
VERTEX
  8
_0-0_
 10
23
 20
143
  0
VERTEX
  8
_0-0_
 10
23
 20
143
  0
VERTEX
  8
_0-0_
 10
23
 20
142
  0
VERTEX
  8
_0-0_
 10
23
 20
140
  0
SEQEND
  8
A
  0
POLYLINE
  8
_0-0_
 66
     1
 40
0.000000
 41
0.000000
  0
VERTEX
  8
_0-0_
 10
23
 20
142
  0
VERTEX
  8
_0-0_
 10
23
 20
142
  0
VERTEX
  8
_0-0_
 10
23
 20
143
  0
VERTEX
  8
_0-0_
 10
23
 20
143
  0
VERTEX
  8
_0-0_
 10
23
 20
142
  0
VERTEX
  8
_0-0_
 10
23
 20
142
  0
VERTEX
  8
_0-0_
 10
23
 20
143
  0
VERTEX
  8
_0-0_
 10
23
 20
143
  0
VERTEX
  8
_0-0_
 10
24
 20
143
  0
VERTEX
  8
_0-0_
 10
24
 20
143
  0
VERTEX
  8
_0-0_
 10
24
 20
144
  0
VERTEX
  8
_0-0_
 10
24
 20
144
  0
VERTEX
  8
_0-0_
 10
25
 20
144
  0
VERTEX
  8
_0-0_
 10
25
 20
144
  0
VERTEX
  8
_0-0_
 10
25
 20
145
  0
VERTEX
  8
_0-0_
 10
25
 20
145
  0
VERTEX
  8
_0-0_
 10
26
 20
145
  0
VERTEX
  8
_0-0_
 10
26
 20
145
  0
VERTEX
  8
_0-0_
 10
26
 20
146
  0
VERTEX
  8
_0-0_
 10
26
 20
146
  0
VERTEX
  8
_0-0_
 10
27
 20
146
  0
VERTEX
  8
_0-0_
 10
27
 20
146
  0
VERTEX
  8
_0-0_
 10
27
 20
147
  0
VERTEX
  8
_0-0_
 10
27
 20
147
  0
VERTEX
  8
_0-0_
 10
28
 20
147
  0
VERTEX
  8
_0-0_
 10
29
 20
147
  0
VERTEX
  8
_0-0_
 10
30
 20
148
  0
VERTEX
  8
_0-0_
 10
30
 20
148
  0
VERTEX
  8
_0-0_
 10
31
 20
148
  0
VERTEX
  8
_0-0_
 10
31
 20
148
  0
VERTEX
  8
_0-0_
 10
31
 20
147
  0
VERTEX
  8
_0-0_
 10
31
 20
147
  0
VERTEX
  8
_0-0_
 10
32
 20
148
  0
VERTEX
  8
_0-0_
 10
32
 20
148
  0
SEQEND
  8
A
  0
POLYLINE
  8
_0-0_
 66
     1
 40
0.000000
 41
0.000000
  0
VERTEX
  8
_0-0_
 10
28
 20
149
  0
VERTEX
  8
_0-0_
 10
28
 20
149
  0
VERTEX
  8
_0-0_
 10
28
 20
148
  0
VERTEX
  8
_0-0_
 10
28
 20
148
  0
VERTEX
  8
_0-0_
 10
28
 20
149
  0
VERTEX
  8
_0-0_
 10
28
 20
149
  0
VERTEX
  8
_0-0_
 10
28
 20
148
  0
VERTEX
  8
_0-0_
 10
28
 20
148
  0
VERTEX
  8
_0-0_
 10
29
 20
149
  0
VERTEX
  8
_0-0_
 10
29
 20
149
  0
VERTEX
  8
_0-0_
 10
30
 20
149
  0
VERTEX
  8
_0-0_
 10
30
 20
149
  0
SEQEND
  8
A
  0
POLYLINE
  8
_0-0_
 66
     1
 40
0.000000
 41
0.000000
  0
VERTEX
  8
_0-0_
 10
28
 20
88
  0
VERTEX
  8
_0-0_
 10
28
 20
88
  0
VERTEX
  8
_0-0_
 10
28
 20
87
  0
VERTEX
  8
_0-0_
 10
28
 20
72
  0
VERTEX
  8
_0-0_
 10
29
 20
72
  0
VERTEX
  8
_0-0_
 10
29
 20
72
  0
VERTEX
  8
_0-0_
 10
29
 20
71
  0
VERTEX
  8
_0-0_
 10
29
 20
67
  0
VERTEX
  8
_0-0_
 10
30
 20
67
  0
VERTEX
  8
_0-0_
 10
30
 20
67
  0
VERTEX
  8
_0-0_
 10
30
 20
66
  0
VERTEX
  8
_0-0_
 10
30
 20
66
  0
VERTEX
  8
_0-0_
 10
31
 20
67
  0
VERTEX
  8
_0-0_
 10
31
 20
67
  0
VERTEX
  8
_0-0_
 10
32
 20
67
  0
VERTEX
  8
_0-0_
 10
66
 20
67
  0
VERTEX
  8
_0-0_
 10
66
 20
68
  0
VERTEX
  8
_0-0_
 10
66
 20
83
  0
VERTEX
  8
_0-0_
 10
65
 20
83
  0
VERTEX
  8
_0-0_
 10
65
 20
83
  0
VERTEX
  8
_0-0_
 10
65
 20
84
  0
VERTEX
  8
_0-0_
 10
65
 20
86
  0
VERTEX
  8
_0-0_
 10
64
 20
86
  0
VERTEX
  8
_0-0_
 10
64
 20
86
  0
VERTEX
  8
_0-0_
 10
64
 20
87
  0
VERTEX
  8
_0-0_
 10
64
 20
91
  0
VERTEX
  8
_0-0_
 10
65
 20
91
  0
VERTEX
  8
_0-0_
 10
65
 20
91
  0
VERTEX
  8
_0-0_
 10
64
 20
92
  0
VERTEX
  8
_0-0_
 10
64
 20
92
  0
VERTEX
  8
_0-0_
 10
64
 20
93
  0
VERTEX
  8
_0-0_
 10
64
 20
93
  0
VERTEX
  8
_0-0_
 10
65
 20
93
  0
VERTEX
  8
_0-0_
 10
65
 20
93
  0
VERTEX
  8
_0-0_
 10
65
 20
94
  0
VERTEX
  8
_0-0_
 10
65
 20
94
  0
VERTEX
  8
_0-0_
 10
66
 20
94
  0
VERTEX
  8
_0-0_
 10
66
 20
94
  0
VERTEX
  8
_0-0_
 10
66
 20
95
  0
VERTEX
  8
_0-0_
 10
66
 20
95
  0
VERTEX
  8
_0-0_
 10
67
 20
95
  0
VERTEX
  8
_0-0_
 10
67
 20
95
  0
VERTEX
  8
_0-0_
 10
67
 20
96
  0
VERTEX
  8
_0-0_
 10
67
 20
97
  0
VERTEX
  8
_0-0_
 10
68
 20
97
  0
VERTEX
  8
_0-0_
 10
69
 20
97
  0
VERTEX
  8
_0-0_
 10
69
 20
98
  0
VERTEX
  8
_0-0_
 10
69
 20
101
  0
VERTEX
  8
_0-0_
 10
70
 20
101
  0
VERTEX
  8
_0-0_
 10
70
 20
101
  0
VERTEX
  8
_0-0_
 10
70
 20
102
  0
VERTEX
  8
_0-0_
 10
70
 20
106
  0
VERTEX
  8
_0-0_
 10
71
 20
106
  0
VERTEX
  8
_0-0_
 10
71
 20
106
  0
VERTEX
  8
_0-0_
 10
71
 20
107
  0
VERTEX
  8
_0-0_
 10
71
 20
119
  0
VERTEX
  8
_0-0_
 10
70
 20
119
  0
VERTEX
  8
_0-0_
 10
70
 20
119
  0
VERTEX
  8
_0-0_
 10
70
 20
120
  0
VERTEX
  8
_0-0_
 10
70
 20
124
  0
VERTEX
  8
_0-0_
 10
69
 20
124
  0
VERTEX
  8
_0-0_
 10
69
 20
124
  0
VERTEX
  8
_0-0_
 10
69
 20
125
  0
VERTEX
  8
_0-0_
 10
69
 20
127
  0
VERTEX
  8
_0-0_
 10
70
 20
127
  0
VERTEX
  8
_0-0_
 10
70
 20
127
  0
SEQEND
  8
A
  0
POLYLINE
  8
_0-0_
 66
     1
 40
0.000000
 41
0.000000
  0
VERTEX
  8
_0-0_
 10
28
 20
87
  0
VERTEX
  8
_0-0_
 10
28
 20
87
  0
VERTEX
  8
_0-0_
 10
29
 20
89
  0
VERTEX
  8
_0-0_
 10
30
 20
97
  0
VERTEX
  8
_0-0_
 10
32
 20
98
  0
VERTEX
  8
_0-0_
 10
33
 20
99
  0
VERTEX
  8
_0-0_
 10
34
 20
101
  0
VERTEX
  8
_0-0_
 10
35
 20
102
  0
VERTEX
  8
_0-0_
 10
37
 20
104
  0
VERTEX
  8
_0-0_
 10
38
 20
106
  0
VERTEX
  8
_0-0_
 10
39
 20
108
  0
VERTEX
  8
_0-0_
 10
40
 20
111
  0
VERTEX
  8
_0-0_
 10
42
 20
113
  0
VERTEX
  8
_0-0_
 10
43
 20
115
  0
VERTEX
  8
_0-0_
 10
44
 20
117
  0
VERTEX
  8
_0-0_
 10
45
 20
121
  0
VERTEX
  8
_0-0_
 10
47
 20
122
  0
VERTEX
  8
_0-0_
 10
48
 20
124
  0
VERTEX
  8
_0-0_
 10
49
 20
127
  0
VERTEX
  8
_0-0_
 10
48
 20
134
  0
VERTEX
  8
_0-0_
 10
46
 20
143
  0
VERTEX
  8
_0-0_
 10
45
 20
144
  0
VERTEX
  8
_0-0_
 10
42
 20
144
  0
VERTEX
  8
_0-0_
 10
41
 20
142
  0
VERTEX
  8
_0-0_
 10
39
 20
137
  0
VERTEX
  8
_0-0_
 10
39
 20
133
  0
SEQEND
  8
A
  0
POLYLINE
  8
_0-0_
 66
     1
 40
0.000000
 41
0.000000
  0
VERTEX
  8
_0-0_
 10
33
 20
166
  0
VERTEX
  8
_0-0_
 10
33
 20
166
  0
VERTEX
  8
_0-0_
 10
34
 20
167
  0
VERTEX
  8
_0-0_
 10
34
 20
167
  0
VERTEX
  8
_0-0_
 10
33
 20
166
  0
VERTEX
  8
_0-0_
 10
33
 20
166
  0
VERTEX
  8
_0-0_
 10
34
 20
167
  0
VERTEX
  8
_0-0_
 10
34
 20
167
  0
SEQEND
  8
A
  0
POINT
  8
_0-0_
 62
    7
 10
33
 20
144
  0
POLYLINE
  8
_0-0_
 66
     1
 40
0.000000
 41
0.000000
  0
VERTEX
  8
_0-0_
 10
34
 20
132
  0
VERTEX
  8
_0-0_
 10
34
 20
132
  0
VERTEX
  8
_0-0_
 10
34
 20
131
  0
VERTEX
  8
_0-0_
 10
34
 20
130
  0
VERTEX
  8
_0-0_
 10
35
 20
130
  0
VERTEX
  8
_0-0_
 10
37
 20
130
  0
SEQEND
  8
A
  0
POLYLINE
  8
_0-0_
 66
     1
 40
0.000000
 41
0.000000
  0
VERTEX
  8
_0-0_
 10
34
 20
131
  0
VERTEX
  8
_0-0_
 10
34
 20
131
  0
VERTEX
  8
_0-0_
 10
34
 20
132
  0
VERTEX
  8
_0-0_
 10
34
 20
132
  0
VERTEX
  8
_0-0_
 10
34
 20
131
  0
VERTEX
  8
_0-0_
 10
34
 20
131
  0
VERTEX
  8
_0-0_
 10
34
 20
132
  0
VERTEX
  8
_0-0_
 10
34
 20
132
  0
VERTEX
  8
_0-0_
 10
35
 20
132
  0
VERTEX
  8
_0-0_
 10
35
 20
132
  0
VERTEX
  8
_0-0_
 10
35
 20
133
  0
VERTEX
  8
_0-0_
 10
35
 20
134
  0
VERTEX
  8
_0-0_
 10
36
 20
134
  0
VERTEX
  8
_0-0_
 10
36
 20
134
  0
VERTEX
  8
_0-0_
 10
36
 20
135
  0
VERTEX
  8
_0-0_
 10
36
 20
135
  0
VERTEX
  8
_0-0_
 10
37
 20
135
  0
VERTEX
  8
_0-0_
 10
37
 20
135
  0
VERTEX
  8
_0-0_
 10
37
 20
136
  0
VERTEX
  8
_0-0_
 10
37
 20
136
  0
VERTEX
  8
_0-0_
 10
38
 20
136
  0
VERTEX
  8
_0-0_
 10
38
 20
136
  0
SEQEND
  8
A
  0
POINT
  8
_0-0_
 62
    7
 10
39
 20
187
  0
POLYLINE
  8
_0-0_
 66
     1
 40
0.000000
 41
0.000000
  0
VERTEX
  8
_0-0_
 10
39
 20
130
  0
VERTEX
  8
_0-0_
 10
39
 20
130
  0
VERTEX
  8
_0-0_
 10
39
 20
129
  0
VERTEX
  8
_0-0_
 10
39
 20
129
  0
VERTEX
  8
_0-0_
 10
40
 20
129
  0
VERTEX
  8
_0-0_
 10
40
 20
129
  0
VERTEX
  8
_0-0_
 10
39
 20
129
  0
VERTEX
  8
_0-0_
 10
39
 20
129
  0
VERTEX
  8
_0-0_
 10
39
 20
130
  0
VERTEX
  8
_0-0_
 10
39
 20
130
  0
SEQEND
  8
A
  0
POLYLINE
  8
_0-0_
 66
     1
 40
0.000000
 41
0.000000
  0
VERTEX
  8
_0-0_
 10
42
 20
188
  0
VERTEX
  8
_0-0_
 10
42
 20
188
  0
VERTEX
  8
_0-0_
 10
43
 20
188
  0
VERTEX
  8
_0-0_
 10
43
 20
188
  0
VERTEX
  8
_0-0_
 10
42
 20
188
  0
VERTEX
  8
_0-0_
 10
42
 20
188
  0
VERTEX
  8
_0-0_
 10
43
 20
188
  0
VERTEX
  8
_0-0_
 10
43
 20
188
  0
SEQEND
  8
A
  0
POLYLINE
  8
_0-0_
 66
     1
 40
0.000000
 41
0.000000
  0
VERTEX
  8
_0-0_
 10
47
 20
186
  0
VERTEX
  8
_0-0_
 10
47
 20
186
  0
VERTEX
  8
_0-0_
 10
48
 20
186
  0
VERTEX
  8
_0-0_
 10
48
 20
186
  0
VERTEX
  8
_0-0_
 10
47
 20
186
  0
VERTEX
  8
_0-0_
 10
47
 20
186
  0
VERTEX
  8
_0-0_
 10
48
 20
186
  0
VERTEX
  8
_0-0_
 10
48
 20
186
  0
SEQEND
  8
A
  0
POLYLINE
  8
_0-0_
 66
     1
 40
0.000000
 41
0.000000
  0
VERTEX
  8
_0-0_
 10
51
 20
182
  0
VERTEX
  8
_0-0_
 10
52
 20
180
  0
VERTEX
  8
_0-0_
 10
53
 20
178
  0
VERTEX
  8
_0-0_
 10
54
 20
177
  0
VERTEX
  8
_0-0_
 10
57
 20
178
  0
VERTEX
  8
_0-0_
 10
58
 20
179
  0
VERTEX
  8
_0-0_
 10
59
 20
181
  0
VERTEX
  8
_0-0_
 10
60
 20
182
  0
VERTEX
  8
_0-0_
 10
62
 20
183
  0
VERTEX
  8
_0-0_
 10
63
 20
184
  0
VERTEX
  8
_0-0_
 10
64
 20
187
  0
VERTEX
  8
_0-0_
 10
65
 20
188
  0
VERTEX
  8
_0-0_
 10
67
 20
189
  0
VERTEX
  8
_0-0_
 10
68
 20
190
  0
VERTEX
  8
_0-0_
 10
69
 20
192
  0
VERTEX
  8
_0-0_
 10
70
 20
194
  0
VERTEX
  8
_0-0_
 10
72
 20
195
  0
VERTEX
  8
_0-0_
 10
73
 20
196
  0
VERTEX
  8
_0-0_
 10
74
 20
198
  0
VERTEX
  8
_0-0_
 10
75
 20
199
  0
VERTEX
  8
_0-0_
 10
77
 20
201
  0
VERTEX
  8
_0-0_
 10
78
 20
202
  0
VERTEX
  8
_0-0_
 10
79
 20
204
  0
VERTEX
  8
_0-0_
 10
80
 20
205
  0
VERTEX
  8
_0-0_
 10
82
 20
206
  0
VERTEX
  8
_0-0_
 10
83
 20
207
  0
VERTEX
  8
_0-0_
 10
84
 20
209
  0
VERTEX
  8
_0-0_
 10
85
 20
211
  0
VERTEX
  8
_0-0_
 10
85
 20
213
  0
VERTEX
  8
_0-0_
 10
83
 20
212
  0
VERTEX
  8
_0-0_
 10
84
 20
215
  0
VERTEX
  8
_0-0_
 10
86
 20
219
  0
VERTEX
  8
_0-0_
 10
84
 20
218
  0
SEQEND
  8
A
  0
POLYLINE
  8
_0-0_
 66
     1
 40
0.000000
 41
0.000000
  0
VERTEX
  8
_0-0_
 10
51
 20
181
  0
VERTEX
  8
_0-0_
 10
51
 20
181
  0
VERTEX
  8
_0-0_
 10
52
 20
183
  0
VERTEX
  8
_0-0_
 10
53
 20
184
  0
VERTEX
  8
_0-0_
 10
55
 20
185
  0
VERTEX
  8
_0-0_
 10
56
 20
187
  0
VERTEX
  8
_0-0_
 10
57
 20
189
  0
VERTEX
  8
_0-0_
 10
58
 20
190
  0
VERTEX
  8
_0-0_
 10
60
 20
191
  0
VERTEX
  8
_0-0_
 10
61
 20
192
  0
VERTEX
  8
_0-0_
 10
62
 20
194
  0
VERTEX
  8
_0-0_
 10
63
 20
195
  0
VERTEX
  8
_0-0_
 10
65
 20
197
  0
VERTEX
  8
_0-0_
 10
66
 20
198
  0
VERTEX
  8
_0-0_
 10
67
 20
200
  0
VERTEX
  8
_0-0_
 10
68
 20
201
  0
VERTEX
  8
_0-0_
 10
70
 20
202
  0
VERTEX
  8
_0-0_
 10
71
 20
203
  0
VERTEX
  8
_0-0_
 10
73
 20
205
  0
VERTEX
  8
_0-0_
 10
74
 20
208
  0
VERTEX
  8
_0-0_
 10
76
 20
209
  0
VERTEX
  8
_0-0_
 10
77
 20
210
  0
VERTEX
  8
_0-0_
 10
78
 20
212
  0
VERTEX
  8
_0-0_
 10
79
 20
213
  0
VERTEX
  8
_0-0_
 10
81
 20
214
  0
VERTEX
  8
_0-0_
 10
82
 20
215
  0
VERTEX
  8
_0-0_
 10
83
 20
216
  0
SEQEND
  8
A
  0
POLYLINE
  8
_0-0_
 66
     1
 40
0.000000
 41
0.000000
  0
VERTEX
  8
_0-0_
 10
56
 20
173
  0
VERTEX
  8
_0-0_
 10
56
 20
173
  0
VERTEX
  8
_0-0_
 10
56
 20
172
  0
VERTEX
  8
_0-0_
 10
56
 20
170
  0
VERTEX
  8
_0-0_
 10
57
 20
170
  0
VERTEX
  8
_0-0_
 10
57
 20
170
  0
VERTEX
  8
_0-0_
 10
57
 20
169
  0
VERTEX
  8
_0-0_
 10
57
 20
167
  0
VERTEX
  8
_0-0_
 10
58
 20
167
  0
VERTEX
  8
_0-0_
 10
58
 20
167
  0
VERTEX
  8
_0-0_
 10
58
 20
166
  0
VERTEX
  8
_0-0_
 10
58
 20
166
  0
VERTEX
  8
_0-0_
 10
59
 20
166
  0
VERTEX
  8
_0-0_
 10
59
 20
166
  0
VERTEX
  8
_0-0_
 10
59
 20
165
  0
VERTEX
  8
_0-0_
 10
59
 20
164
  0
VERTEX
  8
_0-0_
 10
60
 20
164
  0
VERTEX
  8
_0-0_
 10
60
 20
164
  0
VERTEX
  8
_0-0_
 10
60
 20
163
  0
VERTEX
  8
_0-0_
 10
60
 20
163
  0
VERTEX
  8
_0-0_
 10
61
 20
163
  0
VERTEX
  8
_0-0_
 10
62
 20
163
  0
VERTEX
  8
_0-0_
 10
62
 20
162
  0
VERTEX
  8
_0-0_
 10
62
 20
161
  0
VERTEX
  8
_0-0_
 10
63
 20
161
  0
VERTEX
  8
_0-0_
 10
63
 20
161
  0
VERTEX
  8
_0-0_
 10
63
 20
160
  0
VERTEX
  8
_0-0_
 10
63
 20
159
  0
VERTEX
  8
_0-0_
 10
64
 20
159
  0
VERTEX
  8
_0-0_
 10
64
 20
159
  0
VERTEX
  8
_0-0_
 10
64
 20
158
  0
VERTEX
  8
_0-0_
 10
64
 20
154
  0
VERTEX
  8
_0-0_
 10
63
 20
154
  0
VERTEX
  8
_0-0_
 10
63
 20
154
  0
VERTEX
  8
_0-0_
 10
63
 20
153
  0
VERTEX
  8
_0-0_
 10
63
 20
147
  0
VERTEX
  8
_0-0_
 10
64
 20
147
  0
VERTEX
  8
_0-0_
 10
64
 20
147
  0
VERTEX
  8
_0-0_
 10
64
 20
146
  0
VERTEX
  8
_0-0_
 10
64
 20
145
  0
VERTEX
  8
_0-0_
 10
65
 20
145
  0
VERTEX
  8
_0-0_
 10
65
 20
145
  0
VERTEX
  8
_0-0_
 10
65
 20
144
  0
VERTEX
  8
_0-0_
 10
65
 20
143
  0
VERTEX
  8
_0-0_
 10
66
 20
143
  0
VERTEX
  8
_0-0_
 10
67
 20
143
  0
VERTEX
  8
_0-0_
 10
67
 20
144
  0
VERTEX
  8
_0-0_
 10
67
 20
144
  0
VERTEX
  8
_0-0_
 10
68
 20
144
  0
VERTEX
  8
_0-0_
 10
69
 20
144
  0
VERTEX
  8
_0-0_
 10
69
 20
143
  0
VERTEX
  8
_0-0_
 10
69
 20
143
  0
VERTEX
  8
_0-0_
 10
70
 20
143
  0
VERTEX
  8
_0-0_
 10
70
 20
143
  0
VERTEX
  8
_0-0_
 10
70
 20
142
  0
VERTEX
  8
_0-0_
 10
70
 20
133
  0
VERTEX
  8
_0-0_
 10
71
 20
133
  0
VERTEX
  8
_0-0_
 10
71
 20
133
  0
VERTEX
  8
_0-0_
 10
71
 20
134
  0
VERTEX
  8
_0-0_
 10
71
 20
136
  0
SEQEND
  8
A
  0
POLYLINE
  8
_0-0_
 66
     1
 40
0.000000
 41
0.000000
  0
VERTEX
  8
_0-0_
 10
56
 20
172
  0
VERTEX
  8
_0-0_
 10
56
 20
172
  0
VERTEX
  8
_0-0_
 10
57
 20
174
  0
VERTEX
  8
_0-0_
 10
58
 20
176
  0
VERTEX
  8
_0-0_
 10
60
 20
177
  0
VERTEX
  8
_0-0_
 10
61
 20
178
  0
VERTEX
  8
_0-0_
 10
62
 20
180
  0
VERTEX
  8
_0-0_
 10
63
 20
182
  0
VERTEX
  8
_0-0_
 10
65
 20
183
  0
VERTEX
  8
_0-0_
 10
66
 20
184
  0
VERTEX
  8
_0-0_
 10
67
 20
186
  0
VERTEX
  8
_0-0_
 10
68
 20
187
  0
VERTEX
  8
_0-0_
 10
70
 20
189
  0
VERTEX
  8
_0-0_
 10
71
 20
190
  0
VERTEX
  8
_0-0_
 10
72
 20
192
  0
VERTEX
  8
_0-0_
 10
73
 20
193
  0
VERTEX
  8
_0-0_
 10
75
 20
194
  0
VERTEX
  8
_0-0_
 10
76
 20
196
  0
VERTEX
  8
_0-0_
 10
77
 20
198
  0
VERTEX
  8
_0-0_
 10
78
 20
199
  0
VERTEX
  8
_0-0_
 10
80
 20
200
  0
VERTEX
  8
_0-0_
 10
81
 20
201
  0
VERTEX
  8
_0-0_
 10
82
 20
203
  0
VERTEX
  8
_0-0_
 10
83
 20
205
  0
VERTEX
  8
_0-0_
 10
85
 20
206
  0
VERTEX
  8
_0-0_
 10
86
 20
207
  0
VERTEX
  8
_0-0_
 10
87
 20
209
  0
VERTEX
  8
_0-0_
 10
88
 20
210
  0
VERTEX
  8
_0-0_
 10
90
 20
211
  0
VERTEX
  8
_0-0_
 10
93
 20
212
  0
VERTEX
  8
_0-0_
 10
96
 20
210
  0
VERTEX
  8
_0-0_
 10
95
 20
204
  0
VERTEX
  8
_0-0_
 10
93
 20
203
  0
VERTEX
  8
_0-0_
 10
94
 20
201
  0
VERTEX
  8
_0-0_
 10
95
 20
200
  0
SEQEND
  8
A
  0
POINT
  8
_0-0_
 62
    7
 10
59
 20
168
  0
POINT
  8
_0-0_
 62
    7
 10
61
 20
165
  0
POINT
  8
_0-0_
 62
    7
 10
62
 20
191
  0
POINT
  8
_0-0_
 62
    7
 10
64
 20
149
  0
POINT
  8
_0-0_
 62
    7
 10
65
 20
190
  0
POLYLINE
  8
_0-0_
 66
     1
 40
0.000000
 41
0.000000
  0
VERTEX
  8
_0-0_
 10
65
 20
168
  0
VERTEX
  8
_0-0_
 10
65
 20
168
  0
VERTEX
  8
_0-0_
 10
65
 20
167
  0
VERTEX
  8
_0-0_
 10
65
 20
164
  0
VERTEX
  8
_0-0_
 10
66
 20
164
  0
VERTEX
  8
_0-0_
 10
66
 20
164
  0
VERTEX
  8
_0-0_
 10
66
 20
163
  0
VERTEX
  8
_0-0_
 10
66
 20
155
  0
VERTEX
  8
_0-0_
 10
67
 20
155
  0
VERTEX
  8
_0-0_
 10
67
 20
155
  0
VERTEX
  8
_0-0_
 10
67
 20
154
  0
VERTEX
  8
_0-0_
 10
67
 20
152
  0
VERTEX
  8
_0-0_
 10
68
 20
152
  0
VERTEX
  8
_0-0_
 10
68
 20
152
  0
VERTEX
  8
_0-0_
 10
68
 20
151
  0
VERTEX
  8
_0-0_
 10
68
 20
145
  0
VERTEX
  8
_0-0_
 10
69
 20
145
  0
VERTEX
  8
_0-0_
 10
69
 20
145
  0
VERTEX
  8
_0-0_
 10
69
 20
146
  0
VERTEX
  8
_0-0_
 10
69
 20
151
  0
SEQEND
  8
A
  0
POLYLINE
  8
_0-0_
 66
     1
 40
0.000000
 41
0.000000
  0
VERTEX
  8
_0-0_
 10
65
 20
167
  0
VERTEX
  8
_0-0_
 10
65
 20
167
  0
VERTEX
  8
_0-0_
 10
66
 20
167
  0
VERTEX
  8
_0-0_
 10
66
 20
167
  0
VERTEX
  8
_0-0_
 10
66
 20
166
  0
VERTEX
  8
_0-0_
 10
66
 20
165
  0
VERTEX
  8
_0-0_
 10
67
 20
165
  0
VERTEX
  8
_0-0_
 10
67
 20
165
  0
VERTEX
  8
_0-0_
 10
67
 20
164
  0
VERTEX
  8
_0-0_
 10
67
 20
157
  0
VERTEX
  8
_0-0_
 10
68
 20
157
  0
VERTEX
  8
_0-0_
 10
68
 20
157
  0
VERTEX
  8
_0-0_
 10
68
 20
156
  0
VERTEX
  8
_0-0_
 10
68
 20
153
  0
SEQEND
  8
A
  0
POINT
  8
_0-0_
 62
    7
 10
65
 20
162
  0
POLYLINE
  8
_0-0_
 66
     1
 40
0.000000
 41
0.000000
  0
VERTEX
  8
_0-0_
 10
65
 20
156
  0
VERTEX
  8
_0-0_
 10
65
 20
156
  0
VERTEX
  8
_0-0_
 10
65
 20
155
  0
VERTEX
  8
_0-0_
 10
65
 20
155
  0
VERTEX
  8
_0-0_
 10
65
 20
156
  0
VERTEX
  8
_0-0_
 10
65
 20
156
  0
VERTEX
  8
_0-0_
 10
65
 20
155
  0
VERTEX
  8
_0-0_
 10
65
 20
155
  0
SEQEND
  8
A
  0
POLYLINE
  8
_0-0_
 66
     1
 40
0.000000
 41
0.000000
  0
VERTEX
  8
_0-0_
 10
66
 20
168
  0
VERTEX
  8
_0-0_
 10
66
 20
168
  0
VERTEX
  8
_0-0_
 10
66
 20
167
  0
VERTEX
  8
_0-0_
 10
66
 20
167
  0
VERTEX
  8
_0-0_
 10
66
 20
168
  0
VERTEX
  8
_0-0_
 10
66
 20
168
  0
VERTEX
  8
_0-0_
 10
66
 20
167
  0
VERTEX
  8
_0-0_
 10
66
 20
167
  0
VERTEX
  8
_0-0_
 10
65
 20
167
  0
VERTEX
  8
_0-0_
 10
65
 20
167
  0
VERTEX
  8
_0-0_
 10
65
 20
168
  0
VERTEX
  8
_0-0_
 10
65
 20
168
  0
SEQEND
  8
A
  0
POLYLINE
  8
_0-0_
 66
     1
 40
0.000000
 41
0.000000
  0
VERTEX
  8
_0-0_
 10
67
 20
148
  0
VERTEX
  8
_0-0_
 10
67
 20
148
  0
VERTEX
  8
_0-0_
 10
67
 20
147
  0
VERTEX
  8
_0-0_
 10
67
 20
147
  0
VERTEX
  8
_0-0_
 10
67
 20
148
  0
VERTEX
  8
_0-0_
 10
67
 20
148
  0
VERTEX
  8
_0-0_
 10
67
 20
147
  0
VERTEX
  8
_0-0_
 10
67
 20
147
  0
SEQEND
  8
A
  0
POLYLINE
  8
_0-0_
 66
     1
 40
0.000000
 41
0.000000
  0
VERTEX
  8
_0-0_
 10
67
 20
137
  0
VERTEX
  8
_0-0_
 10
67
 20
137
  0
VERTEX
  8
_0-0_
 10
67
 20
136
  0
VERTEX
  8
_0-0_
 10
67
 20
135
  0
VERTEX
  8
_0-0_
 10
68
 20
135
  0
VERTEX
  8
_0-0_
 10
68
 20
135
  0
VERTEX
  8
_0-0_
 10
68
 20
134
  0
VERTEX
  8
_0-0_
 10
68
 20
133
  0
VERTEX
  8
_0-0_
 10
69
 20
133
  0
VERTEX
  8
_0-0_
 10
69
 20
133
  0
VERTEX
  8
_0-0_
 10
69
 20
132
  0
VERTEX
  8
_0-0_
 10
69
 20
130
  0
VERTEX
  8
_0-0_
 10
68
 20
130
  0
VERTEX
  8
_0-0_
 10
68
 20
130
  0
VERTEX
  8
_0-0_
 10
68
 20
129
  0
VERTEX
  8
_0-0_
 10
68
 20
127
  0
SEQEND
  8
A
  0
POLYLINE
  8
_0-0_
 66
     1
 40
0.000000
 41
0.000000
  0
VERTEX
  8
_0-0_
 10
67
 20
136
  0
VERTEX
  8
_0-0_
 10
67
 20
136
  0
VERTEX
  8
_0-0_
 10
67
 20
137
  0
VERTEX
  8
_0-0_
 10
67
 20
137
  0
VERTEX
  8
_0-0_
 10
67
 20
136
  0
VERTEX
  8
_0-0_
 10
67
 20
136
  0
VERTEX
  8
_0-0_
 10
67
 20
137
  0
VERTEX
  8
_0-0_
 10
67
 20
137
  0
VERTEX
  8
_0-0_
 10
68
 20
137
  0
VERTEX
  8
_0-0_
 10
69
 20
137
  0
SEQEND
  8
A
  0
POINT
  8
_0-0_
 62
    7
 10
69
 20
135
  0
POINT
  8
_0-0_
 62
    7
 10
70
 20
263
  0
POINT
  8
_0-0_
 62
    7
 10
70
 20
131
  0
POINT
  8
_0-0_
 62
    7
 10
77
 20
257
  0
POINT
  8
_0-0_
 62
    7
 10
78
 20
246
  0
POLYLINE
  8
_0-0_
 66
     1
 40
0.000000
 41
0.000000
  0
VERTEX
  8
_0-0_
 10
80
 20
51
  0
VERTEX
  8
_0-0_
 10
80
 20
51
  0
VERTEX
  8
_0-0_
 10
81
 20
51
  0
VERTEX
  8
_0-0_
 10
81
 20
51
  0
VERTEX
  8
_0-0_
 10
81
 20
50
  0
VERTEX
  8
_0-0_
 10
81
 20
49
  0
VERTEX
  8
_0-0_
 10
82
 20
49
  0
VERTEX
  8
_0-0_
 10
86
 20
49
  0
VERTEX
  8
_0-0_
 10
86
 20
48
  0
VERTEX
  8
_0-0_
 10
86
 20
48
  0
VERTEX
  8
_0-0_
 10
87
 20
48
  0
VERTEX
  8
_0-0_
 10
91
 20
48
  0
VERTEX
  8
_0-0_
 10
91
 20
49
  0
VERTEX
  8
_0-0_
 10
91
 20
49
  0
VERTEX
  8
_0-0_
 10
92
 20
49
  0
VERTEX
  8
_0-0_
 10
94
 20
49
  0
VERTEX
  8
_0-0_
 10
94
 20
48
  0
VERTEX
  8
_0-0_
 10
94
 20
48
  0
VERTEX
  8
_0-0_
 10
95
 20
49
  0
VERTEX
  8
_0-0_
 10
95
 20
49
  0
VERTEX
  8
_0-0_
 10
96
 20
49
  0
VERTEX
  8
_0-0_
 10
96
 20
49
  0
VERTEX
  8
_0-0_
 10
96
 20
50
  0
VERTEX
  8
_0-0_
 10
96
 20
50
  0
VERTEX
  8
_0-0_
 10
97
 20
50
  0
VERTEX
  8
_0-0_
 10
98
 20
50
  0
VERTEX
  8
_0-0_
 10
98
 20
49
  0
VERTEX
  8
_0-0_
 10
98
 20
43
  0
VERTEX
  8
_0-0_
 10
97
 20
43
  0
VERTEX
  8
_0-0_
 10
97
 20
43
  0
VERTEX
  8
_0-0_
 10
97
 20
42
  0
VERTEX
  8
_0-0_
 10
97
 20
39
  0
VERTEX
  8
_0-0_
 10
96
 20
39
  0
VERTEX
  8
_0-0_
 10
96
 20
39
  0
VERTEX
  8
_0-0_
 10
96
 20
38
  0
VERTEX
  8
_0-0_
 10
96
 20
37
  0
VERTEX
  8
_0-0_
 10
95
 20
37
  0
VERTEX
  8
_0-0_
 10
95
 20
37
  0
VERTEX
  8
_0-0_
 10
95
 20
36
  0
VERTEX
  8
_0-0_
 10
95
 20
36
  0
VERTEX
  8
_0-0_
 10
94
 20
36
  0
VERTEX
  8
_0-0_
 10
94
 20
36
  0
VERTEX
  8
_0-0_
 10
94
 20
35
  0
VERTEX
  8
_0-0_
 10
94
 20
34
  0
VERTEX
  8
_0-0_
 10
93
 20
34
  0
VERTEX
  8
_0-0_
 10
93
 20
34
  0
VERTEX
  8
_0-0_
 10
93
 20
33
  0
VERTEX
  8
_0-0_
 10
93
 20
31
  0
VERTEX
  8
_0-0_
 10
94
 20
32
  0
VERTEX
  8
_0-0_
 10
94
 20
32
  0
VERTEX
  8
_0-0_
 10
95
 20
32
  0
VERTEX
  8
_0-0_
 10
95
 20
32
  0
VERTEX
  8
_0-0_
 10
95
 20
33
  0
VERTEX
  8
_0-0_
 10
95
 20
33
  0
VERTEX
  8
_0-0_
 10
96
 20
33
  0
VERTEX
  8
_0-0_
 10
97
 20
33
  0
VERTEX
  8
_0-0_
 10
97
 20
34
  0
VERTEX
  8
_0-0_
 10
97
 20
35
  0
VERTEX
  8
_0-0_
 10
98
 20
35
  0
VERTEX
  8
_0-0_
 10
98
 20
35
  0
VERTEX
  8
_0-0_
 10
98
 20
36
  0
VERTEX
  8
_0-0_
 10
98
 20
36
  0
VERTEX
  8
_0-0_
 10
99
 20
36
  0
VERTEX
  8
_0-0_
 10
100
 20
36
  0
VERTEX
  8
_0-0_
 10
100
 20
35
  0
VERTEX
  8
_0-0_
 10
100
 20
35
  0
SEQEND
  8
A
  0
POINT
  8
_0-0_
 62
    7
 10
81
 20
212
  0
POINT
  8
_0-0_
 62
    7
 10
81
 20
199
  0
POLYLINE
  8
_0-0_
 66
     1
 40
0.000000
 41
0.000000
  0
VERTEX
  8
_0-0_
 10
81
 20
51
  0
VERTEX
  8
_0-0_
 10
81
 20
51
  0
VERTEX
  8
_0-0_
 10
82
 20
51
  0
VERTEX
  8
_0-0_
 10
82
 20
51
  0
VERTEX
  8
_0-0_
 10
82
 20
52
  0
VERTEX
  8
_0-0_
 10
82
 20
52
  0
VERTEX
  8
_0-0_
 10
82
 20
51
  0
VERTEX
  8
_0-0_
 10
82
 20
51
  0
VERTEX
  8
_0-0_
 10
81
 20
51
  0
VERTEX
  8
_0-0_
 10
80
 20
51
  0
SEQEND
  8
A
  0
POLYLINE
  8
_0-0_
 66
     1
 40
0.000000
 41
0.000000
  0
VERTEX
  8
_0-0_
 10
83
 20
271
  0
VERTEX
  8
_0-0_
 10
83
 20
271
  0
VERTEX
  8
_0-0_
 10
83
 20
270
  0
VERTEX
  8
_0-0_
 10
83
 20
269
  0
VERTEX
  8
_0-0_
 10
84
 20
269
  0
VERTEX
  8
_0-0_
 10
84
 20
269
  0
VERTEX
  8
_0-0_
 10
84
 20
268
  0
VERTEX
  8
_0-0_
 10
84
 20
267
  0
VERTEX
  8
_0-0_
 10
85
 20
267
  0
VERTEX
  8
_0-0_
 10
87
 20
267
  0
VERTEX
  8
_0-0_
 10
87
 20
266
  0
VERTEX
  8
_0-0_
 10
87
 20
266
  0
VERTEX
  8
_0-0_
 10
88
 20
266
  0
VERTEX
  8
_0-0_
 10
94
 20
266
  0
VERTEX
  8
_0-0_
 10
94
 20
267
  0
VERTEX
  8
_0-0_
 10
94
 20
268
  0
VERTEX
  8
_0-0_
 10
93
 20
268
  0
VERTEX
  8
_0-0_
 10
93
 20
268
  0
VERTEX
  8
_0-0_
 10
93
 20
269
  0
VERTEX
  8
_0-0_
 10
93
 20
269
  0
VERTEX
  8
_0-0_
 10
92
 20
269
  0
VERTEX
  8
_0-0_
 10
92
 20
269
  0
VERTEX
  8
_0-0_
 10
92
 20
270
  0
VERTEX
  8
_0-0_
 10
92
 20
270
  0
VERTEX
  8
_0-0_
 10
91
 20
270
  0
VERTEX
  8
_0-0_
 10
90
 20
270
  0
VERTEX
  8
_0-0_
 10
90
 20
271
  0
VERTEX
  8
_0-0_
 10
90
 20
271
  0
VERTEX
  8
_0-0_
 10
89
 20
271
  0
VERTEX
  8
_0-0_
 10
83
 20
271
  0
VERTEX
  8
_0-0_
 10
83
 20
270
  0
VERTEX
  8
_0-0_
 10
83
 20
270
  0
SEQEND
  8
A
  0
POLYLINE
  8
_0-0_
 66
     1
 40
0.000000
 41
0.000000
  0
VERTEX
  8
_0-0_
 10
83
 20
258
  0
VERTEX
  8
_0-0_
 10
83
 20
258
  0
VERTEX
  8
_0-0_
 10
83
 20
257
  0
VERTEX
  8
_0-0_
 10
83
 20
255
  0
VERTEX
  8
_0-0_
 10
84
 20
255
  0
VERTEX
  8
_0-0_
 10
87
 20
255
  0
VERTEX
  8
_0-0_
 10
87
 20
256
  0
VERTEX
  8
_0-0_
 10
87
 20
256
  0
VERTEX
  8
_0-0_
 10
88
 20
256
  0
VERTEX
  8
_0-0_
 10
91
 20
256
  0
VERTEX
  8
_0-0_
 10
91
 20
257
  0
VERTEX
  8
_0-0_
 10
91
 20
257
  0
VERTEX
  8
_0-0_
 10
92
 20
257
  0
VERTEX
  8
_0-0_
 10
93
 20
257
  0
VERTEX
  8
_0-0_
 10
93
 20
258
  0
VERTEX
  8
_0-0_
 10
93
 20
259
  0
VERTEX
  8
_0-0_
 10
92
 20
259
  0
VERTEX
  8
_0-0_
 10
85
 20
259
  0
VERTEX
  8
_0-0_
 10
85
 20
258
  0
VERTEX
  8
_0-0_
 10
85
 20
258
  0
VERTEX
  8
_0-0_
 10
84
 20
258
  0
VERTEX
  8
_0-0_
 10
83
 20
258
  0
VERTEX
  8
_0-0_
 10
83
 20
257
  0
VERTEX
  8
_0-0_
 10
83
 20
257
  0
SEQEND
  8
A
  0
POLYLINE
  8
_0-0_
 66
     1
 40
0.000000
 41
0.000000
  0
VERTEX
  8
_0-0_
 10
83
 20
169
  0
VERTEX
  8
_0-0_
 10
83
 20
169
  0
VERTEX
  8
_0-0_
 10
84
 20
169
  0
VERTEX
  8
_0-0_
 10
84
 20
169
  0
VERTEX
  8
_0-0_
 10
84
 20
168
  0
VERTEX
  8
_0-0_
 10
84
 20
168
  0
VERTEX
  8
_0-0_
 10
85
 20
168
  0
VERTEX
  8
_0-0_
 10
85
 20
168
  0
VERTEX
  8
_0-0_
 10
84
 20
169
  0
VERTEX
  8
_0-0_
 10
84
 20
169
  0
VERTEX
  8
_0-0_
 10
83
 20
169
  0
VERTEX
  8
_0-0_
 10
83
 20
169
  0
SEQEND
  8
A
  0
POLYLINE
  8
_0-0_
 66
     1
 40
0.000000
 41
0.000000
  0
VERTEX
  8
_0-0_
 10
83
 20
163
  0
VERTEX
  8
_0-0_
 10
83
 20
163
  0
VERTEX
  8
_0-0_
 10
83
 20
162
  0
VERTEX
  8
_0-0_
 10
83
 20
134
  0
VERTEX
  8
_0-0_
 10
84
 20
134
  0
VERTEX
  8
_0-0_
 10
84
 20
134
  0
VERTEX
  8
_0-0_
 10
84
 20
133
  0
VERTEX
  8
_0-0_
 10
84
 20
129
  0
VERTEX
  8
_0-0_
 10
85
 20
129
  0
VERTEX
  8
_0-0_
 10
86
 20
129
  0
VERTEX
  8
_0-0_
 10
86
 20
128
  0
VERTEX
  8
_0-0_
 10
86
 20
128
  0
SEQEND
  8
A
  0
POLYLINE
  8
_0-0_
 66
     1
 40
0.000000
 41
0.000000
  0
VERTEX
  8
_0-0_
 10
83
 20
162
  0
VERTEX
  8
_0-0_
 10
83
 20
162
  0
VERTEX
  8
_0-0_
 10
84
 20
162
  0
VERTEX
  8
_0-0_
 10
84
 20
162
  0
VERTEX
  8
_0-0_
 10
84
 20
161
  0
VERTEX
  8
_0-0_
 10
84
 20
135
  0
SEQEND
  8
A
  0
POLYLINE
  8
_0-0_
 66
     1
 40
0.000000
 41
0.000000
  0
VERTEX
  8
_0-0_
 10
83
 20
132
  0
VERTEX
  8
_0-0_
 10
83
 20
132
  0
VERTEX
  8
_0-0_
 10
83
 20
131
  0
VERTEX
  8
_0-0_
 10
83
 20
130
  0
VERTEX
  8
_0-0_
 10
83
 20
131
  0
VERTEX
  8
_0-0_
 10
83
 20
132
  0
SEQEND
  8
A
  0
POLYLINE
  8
_0-0_
 66
     1
 40
0.000000
 41
0.000000
  0
VERTEX
  8
_0-0_
 10
83
 20
52
  0
VERTEX
  8
_0-0_
 10
86
 20
53
  0
VERTEX
  8
_0-0_
 10
90
 20
55
  0
VERTEX
  8
_0-0_
 10
91
 20
56
  0
VERTEX
  8
_0-0_
 10
92
 20
58
  0
VERTEX
  8
_0-0_
 10
93
 20
61
  0
VERTEX
  8
_0-0_
 10
95
 20
63
  0
VERTEX
  8
_0-0_
 10
92
 20
69
  0
VERTEX
  8
_0-0_
 10
90
 20
67
  0
VERTEX
  8
_0-0_
 10
89
 20
66
  0
VERTEX
  8
_0-0_
 10
89
 20
68
  0
VERTEX
  8
_0-0_
 10
90
 20
69
  0
VERTEX
  8
_0-0_
 10
91
 20
71
  0
VERTEX
  8
_0-0_
 10
92
 20
73
  0
VERTEX
  8
_0-0_
 10
94
 20
74
  0
VERTEX
  8
_0-0_
 10
96
 20
77
  0
VERTEX
  8
_0-0_
 10
97
 20
80
  0
VERTEX
  8
_0-0_
 10
98
 20
86
  0
VERTEX
  8
_0-0_
 10
100
 20
89
  0
VERTEX
  8
_0-0_
 10
101
 20
93
  0
VERTEX
  8
_0-0_
 10
102
 20
98
  0
VERTEX
  8
_0-0_
 10
103
 20
100
  0
VERTEX
  8
_0-0_
 10
105
 20
103
  0
VERTEX
  8
_0-0_
 10
106
 20
105
  0
VERTEX
  8
_0-0_
 10
107
 20
107
  0
VERTEX
  8
_0-0_
 10
108
 20
110
  0
VERTEX
  8
_0-0_
 10
111
 20
111
  0
VERTEX
  8
_0-0_
 10
115
 20
112
  0
VERTEX
  8
_0-0_
 10
119
 20
112
  0
VERTEX
  8
_0-0_
 10
121
 20
113
  0
VERTEX
  8
_0-0_
 10
123
 20
115
  0
VERTEX
  8
_0-0_
 10
122
 20
117
  0
VERTEX
  8
_0-0_
 10
117
 20
117
  0
VERTEX
  8
_0-0_
 10
115
 20
118
  0
VERTEX
  8
_0-0_
 10
114
 20
121
  0
VERTEX
  8
_0-0_
 10
113
 20
123
  0
VERTEX
  8
_0-0_
 10
112
 20
126
  0
VERTEX
  8
_0-0_
 10
111
 20
127
  0
VERTEX
  8
_0-0_
 10
109
 20
128
  0
VERTEX
  8
_0-0_
 10
114
 20
130
  0
VERTEX
  8
_0-0_
 10
119
 20
129
  0
VERTEX
  8
_0-0_
 10
120
 20
130
  0
VERTEX
  8
_0-0_
 10
120
 20
133
  0
VERTEX
  8
_0-0_
 10
117
 20
130
  0
VERTEX
  8
_0-0_
 10
116
 20
129
  0
SEQEND
  8
A
  0
POLYLINE
  8
_0-0_
 66
     1
 40
0.000000
 41
0.000000
  0
VERTEX
  8
_0-0_
 10
84
 20
165
  0
VERTEX
  8
_0-0_
 10
84
 20
165
  0
VERTEX
  8
_0-0_
 10
84
 20
164
  0
VERTEX
  8
_0-0_
 10
84
 20
162
  0
VERTEX
  8
_0-0_
 10
83
 20
162
  0
VERTEX
  8
_0-0_
 10
83
 20
162
  0
VERTEX
  8
_0-0_
 10
83
 20
163
  0
VERTEX
  8
_0-0_
 10
83
 20
163
  0
VERTEX
  8
_0-0_
 10
84
 20
164
  0
VERTEX
  8
_0-0_
 10
84
 20
164
  0
VERTEX
  8
_0-0_
 10
84
 20
165
  0
VERTEX
  8
_0-0_
 10
84
 20
165
  0
SEQEND
  8
A
  0
POLYLINE
  8
_0-0_
 66
     1
 40
0.000000
 41
0.000000
  0
VERTEX
  8
_0-0_
 10
84
 20
52
  0
VERTEX
  8
_0-0_
 10
84
 20
52
  0
VERTEX
  8
_0-0_
 10
83
 20
52
  0
VERTEX
  8
_0-0_
 10
83
 20
52
  0
VERTEX
  8
_0-0_
 10
84
 20
52
  0
VERTEX
  8
_0-0_
 10
84
 20
52
  0
VERTEX
  8
_0-0_
 10
83
 20
52
  0
VERTEX
  8
_0-0_
 10
83
 20
52
  0
SEQEND
  8
A
  0
POLYLINE
  8
_0-0_
 66
     1
 40
0.000000
 41
0.000000
  0
VERTEX
  8
_0-0_
 10
85
 20
198
  0
VERTEX
  8
_0-0_
 10
85
 20
198
  0
VERTEX
  8
_0-0_
 10
86
 20
198
  0
VERTEX
  8
_0-0_
 10
86
 20
198
  0
VERTEX
  8
_0-0_
 10
86
 20
197
  0
VERTEX
  8
_0-0_
 10
86
 20
197
  0
VERTEX
  8
_0-0_
 10
87
 20
197
  0
VERTEX
  8
_0-0_
 10
87
 20
197
  0
VERTEX
  8
_0-0_
 10
87
 20
196
  0
VERTEX
  8
_0-0_
 10
87
 20
196
  0
VERTEX
  8
_0-0_
 10
88
 20
197
  0
VERTEX
  8
_0-0_
 10
88
 20
197
  0
VERTEX
  8
_0-0_
 10
89
 20
197
  0
VERTEX
  8
_0-0_
 10
89
 20
197
  0
VERTEX
  8
_0-0_
 10
89
 20
198
  0
VERTEX
  8
_0-0_
 10
89
 20
198
  0
VERTEX
  8
_0-0_
 10
90
 20
198
  0
VERTEX
  8
_0-0_
 10
91
 20
198
  0
VERTEX
  8
_0-0_
 10
91
 20
199
  0
VERTEX
  8
_0-0_
 10
91
 20
199
  0
VERTEX
  8
_0-0_
 10
92
 20
199
  0
VERTEX
  8
_0-0_
 10
92
 20
199
  0
VERTEX
  8
_0-0_
 10
92
 20
200
  0
VERTEX
  8
_0-0_
 10
92
 20
201
  0
SEQEND
  8
A
  0
POINT
  8
_0-0_
 62
    7
 10
86
 20
268
  0
POLYLINE
  8
_0-0_
 66
     1
 40
0.000000
 41
0.000000
  0
VERTEX
  8
_0-0_
 10
86
 20
200
  0
VERTEX
  8
_0-0_
 10
86
 20
200
  0
VERTEX
  8
_0-0_
 10
86
 20
199
  0
VERTEX
  8
_0-0_
 10
86
 20
198
  0
VERTEX
  8
_0-0_
 10
86
 20
199
  0
VERTEX
  8
_0-0_
 10
86
 20
200
  0
VERTEX
  8
_0-0_
 10
87
 20
200
  0
VERTEX
  8
_0-0_
 10
87
 20
200
  0
VERTEX
  8
_0-0_
 10
87
 20
201
  0
VERTEX
  8
_0-0_
 10
87
 20
202
  0
VERTEX
  8
_0-0_
 10
88
 20
202
  0
VERTEX
  8
_0-0_
 10
89
 20
202
  0
VERTEX
  8
_0-0_
 10
89
 20
203
  0
VERTEX
  8
_0-0_
 10
89
 20
203
  0
VERTEX
  8
_0-0_
 10
90
 20
203
  0
VERTEX
  8
_0-0_
 10
90
 20
203
  0
VERTEX
  8
_0-0_
 10
90
 20
204
  0
VERTEX
  8
_0-0_
 10
90
 20
204
  0
VERTEX
  8
_0-0_
 10
91
 20
204
  0
VERTEX
  8
_0-0_
 10
91
 20
204
  0
VERTEX
  8
_0-0_
 10
91
 20
205
  0
VERTEX
  8
_0-0_
 10
91
 20
205
  0
VERTEX
  8
_0-0_
 10
92
 20
205
  0
VERTEX
  8
_0-0_
 10
93
 20
205
  0
VERTEX
  8
_0-0_
 10
93
 20
206
  0
VERTEX
  8
_0-0_
 10
93
 20
207
  0
VERTEX
  8
_0-0_
 10
94
 20
207
  0
VERTEX
  8
_0-0_
 10
94
 20
207
  0
SEQEND
  8
A
  0
POLYLINE
  8
_0-0_
 66
     1
 40
0.000000
 41
0.000000
  0
VERTEX
  8
_0-0_
 10
88
 20
219
  0
VERTEX
  8
_0-0_
 10
88
 20
219
  0
VERTEX
  8
_0-0_
 10
88
 20
218
  0
VERTEX
  8
_0-0_
 10
88
 20
217
  0
VERTEX
  8
_0-0_
 10
89
 20
217
  0
VERTEX
  8
_0-0_
 10
91
 20
217
  0
VERTEX
  8
_0-0_
 10
91
 20
216
  0
VERTEX
  8
_0-0_
 10
91
 20
214
  0
VERTEX
  8
_0-0_
 10
92
 20
214
  0
VERTEX
  8
_0-0_
 10
93
 20
214
  0
VERTEX
  8
_0-0_
 10
93
 20
213
  0
VERTEX
  8
_0-0_
 10
93
 20
213
  0
VERTEX
  8
_0-0_
 10
94
 20
213
  0
VERTEX
  8
_0-0_
 10
96
 20
213
  0
VERTEX
  8
_0-0_
 10
96
 20
214
  0
VERTEX
  8
_0-0_
 10
96
 20
215
  0
VERTEX
  8
_0-0_
 10
97
 20
215
  0
VERTEX
  8
_0-0_
 10
98
 20
215
  0
VERTEX
  8
_0-0_
 10
98
 20
214
  0
VERTEX
  8
_0-0_
 10
98
 20
213
  0
VERTEX
  8
_0-0_
 10
99
 20
213
  0
VERTEX
  8
_0-0_
 10
100
 20
213
  0
VERTEX
  8
_0-0_
 10
100
 20
212
  0
VERTEX
  8
_0-0_
 10
100
 20
210
  0
VERTEX
  8
_0-0_
 10
101
 20
210
  0
VERTEX
  8
_0-0_
 10
103
 20
210
  0
VERTEX
  8
_0-0_
 10
103
 20
209
  0
VERTEX
  8
_0-0_
 10
103
 20
209
  0
VERTEX
  8
_0-0_
 10
104
 20
209
  0
VERTEX
  8
_0-0_
 10
106
 20
209
  0
VERTEX
  8
_0-0_
 10
106
 20
208
  0
VERTEX
  8
_0-0_
 10
106
 20
206
  0
VERTEX
  8
_0-0_
 10
107
 20
206
  0
VERTEX
  8
_0-0_
 10
107
 20
206
  0
VERTEX
  8
_0-0_
 10
107
 20
207
  0
VERTEX
  8
_0-0_
 10
107
 20
207
  0
SEQEND
  8
A
  0
POLYLINE
  8
_0-0_
 66
     1
 40
0.000000
 41
0.000000
  0
VERTEX
  8
_0-0_
 10
88
 20
218
  0
VERTEX
  8
_0-0_
 10
88
 20
218
  0
VERTEX
  8
_0-0_
 10
88
 20
219
  0
VERTEX
  8
_0-0_
 10
88
 20
219
  0
VERTEX
  8
_0-0_
 10
88
 20
218
  0
VERTEX
  8
_0-0_
 10
88
 20
218
  0
VERTEX
  8
_0-0_
 10
88
 20
219
  0
VERTEX
  8
_0-0_
 10
88
 20
219
  0
VERTEX
  8
_0-0_
 10
89
 20
219
  0
VERTEX
  8
_0-0_
 10
91
 20
219
  0
VERTEX
  8
_0-0_
 10
91
 20
218
  0
VERTEX
  8
_0-0_
 10
91
 20
218
  0
SEQEND
  8
A
  0
POLYLINE
  8
_0-0_
 66
     1
 40
0.000000
 41
0.000000
  0
VERTEX
  8
_0-0_
 10
88
 20
165
  0
VERTEX
  8
_0-0_
 10
88
 20
165
  0
VERTEX
  8
_0-0_
 10
88
 20
164
  0
VERTEX
  8
_0-0_
 10
88
 20
138
  0
VERTEX
  8
_0-0_
 10
89
 20
138
  0
VERTEX
  8
_0-0_
 10
89
 20
138
  0
VERTEX
  8
_0-0_
 10
89
 20
137
  0
VERTEX
  8
_0-0_
 10
89
 20
136
  0
VERTEX
  8
_0-0_
 10
90
 20
136
  0
VERTEX
  8
_0-0_
 10
90
 20
136
  0
VERTEX
  8
_0-0_
 10
90
 20
135
  0
VERTEX
  8
_0-0_
 10
90
 20
129
  0
VERTEX
  8
_0-0_
 10
91
 20
129
  0
VERTEX
  8
_0-0_
 10
91
 20
129
  0
SEQEND
  8
A
  0
POLYLINE
  8
_0-0_
 66
     1
 40
0.000000
 41
0.000000
  0
VERTEX
  8
_0-0_
 10
88
 20
164
  0
VERTEX
  8
_0-0_
 10
88
 20
164
  0
VERTEX
  8
_0-0_
 10
88
 20
165
  0
VERTEX
  8
_0-0_
 10
88
 20
165
  0
VERTEX
  8
_0-0_
 10
88
 20
164
  0
VERTEX
  8
_0-0_
 10
88
 20
164
  0
VERTEX
  8
_0-0_
 10
88
 20
165
  0
VERTEX
  8
_0-0_
 10
88
 20
165
  0
VERTEX
  8
_0-0_
 10
89
 20
165
  0
VERTEX
  8
_0-0_
 10
90
 20
165
  0
VERTEX
  8
_0-0_
 10
90
 20
164
  0
VERTEX
  8
_0-0_
 10
90
 20
137
  0
SEQEND
  8
A
  0
POLYLINE
  8
_0-0_
 66
     1
 40
0.000000
 41
0.000000
  0
VERTEX
  8
_0-0_
 10
88
 20
136
  0
VERTEX
  8
_0-0_
 10
88
 20
136
  0
VERTEX
  8
_0-0_
 10
88
 20
135
  0
VERTEX
  8
_0-0_
 10
88
 20
131
  0
VERTEX
  8
_0-0_
 10
89
 20
131
  0
VERTEX
  8
_0-0_
 10
89
 20
131
  0
VERTEX
  8
_0-0_
 10
89
 20
130
  0
VERTEX
  8
_0-0_
 10
89
 20
129
  0
SEQEND
  8
A
  0
POLYLINE
  8
_0-0_
 66
     1
 40
0.000000
 41
0.000000
  0
VERTEX
  8
_0-0_
 10
88
 20
135
  0
VERTEX
  8
_0-0_
 10
88
 20
135
  0
VERTEX
  8
_0-0_
 10
88
 20
136
  0
VERTEX
  8
_0-0_
 10
88
 20
136
  0
VERTEX
  8
_0-0_
 10
88
 20
135
  0
VERTEX
  8
_0-0_
 10
88
 20
135
  0
VERTEX
  8
_0-0_
 10
88
 20
136
  0
VERTEX
  8
_0-0_
 10
88
 20
136
  0
SEQEND
  8
A
  0
POLYLINE
  8
_0-0_
 66
     1
 40
0.000000
 41
0.000000
  0
VERTEX
  8
_0-0_
 10
89
 20
282
  0
VERTEX
  8
_0-0_
 10
89
 20
282
  0
VERTEX
  8
_0-0_
 10
89
 20
281
  0
VERTEX
  8
_0-0_
 10
89
 20
281
  0
VERTEX
  8
_0-0_
 10
90
 20
281
  0
VERTEX
  8
_0-0_
 10
90
 20
281
  0
VERTEX
  8
_0-0_
 10
89
 20
281
  0
VERTEX
  8
_0-0_
 10
89
 20
281
  0
VERTEX
  8
_0-0_
 10
89
 20
282
  0
VERTEX
  8
_0-0_
 10
89
 20
282
  0
SEQEND
  8
A
  0
POLYLINE
  8
_0-0_
 66
     1
 40
0.000000
 41
0.000000
  0
VERTEX
  8
_0-0_
 10
89
 20
227
  0
VERTEX
  8
_0-0_
 10
89
 20
227
  0
VERTEX
  8
_0-0_
 10
89
 20
226
  0
VERTEX
  8
_0-0_
 10
89
 20
225
  0
VERTEX
  8
_0-0_
 10
90
 20
225
  0
VERTEX
  8
_0-0_
 10
91
 20
225
  0
VERTEX
  8
_0-0_
 10
91
 20
226
  0
VERTEX
  8
_0-0_
 10
91
 20
227
  0
VERTEX
  8
_0-0_
 10
92
 20
227
  0
VERTEX
  8
_0-0_
 10
92
 20
227
  0
VERTEX
  8
_0-0_
 10
92
 20
228
  0
VERTEX
  8
_0-0_
 10
92
 20
228
  0
VERTEX
  8
_0-0_
 10
93
 20
228
  0
VERTEX
  8
_0-0_
 10
94
 20
228
  0
VERTEX
  8
_0-0_
 10
94
 20
227
  0
VERTEX
  8
_0-0_
 10
94
 20
227
  0
VERTEX
  8
_0-0_
 10
95
 20
227
  0
VERTEX
  8
_0-0_
 10
95
 20
227
  0
VERTEX
  8
_0-0_
 10
95
 20
228
  0
VERTEX
  8
_0-0_
 10
95
 20
230
  0
VERTEX
  8
_0-0_
 10
94
 20
230
  0
VERTEX
  8
_0-0_
 10
92
 20
230
  0
VERTEX
  8
_0-0_
 10
92
 20
229
  0
VERTEX
  8
_0-0_
 10
92
 20
229
  0
VERTEX
  8
_0-0_
 10
91
 20
229
  0
VERTEX
  8
_0-0_
 10
91
 20
229
  0
VERTEX
  8
_0-0_
 10
91
 20
228
  0
VERTEX
  8
_0-0_
 10
91
 20
228
  0
VERTEX
  8
_0-0_
 10
90
 20
228
  0
VERTEX
  8
_0-0_
 10
90
 20
228
  0
VERTEX
  8
_0-0_
 10
90
 20
227
  0
VERTEX
  8
_0-0_
 10
90
 20
227
  0
VERTEX
  8
_0-0_
 10
89
 20
227
  0
VERTEX
  8
_0-0_
 10
89
 20
227
  0
VERTEX
  8
_0-0_
 10
89
 20
226
  0
VERTEX
  8
_0-0_
 10
89
 20
226
  0
SEQEND
  8
A
  0
POLYLINE
  8
_0-0_
 66
     1
 40
0.000000
 41
0.000000
  0
VERTEX
  8
_0-0_
 10
89
 20
170
  0
VERTEX
  8
_0-0_
 10
89
 20
170
  0
VERTEX
  8
_0-0_
 10
89
 20
169
  0
VERTEX
  8
_0-0_
 10
89
 20
166
  0
VERTEX
  8
_0-0_
 10
90
 20
166
  0
VERTEX
  8
_0-0_
 10
90
 20
166
  0
VERTEX
  8
_0-0_
 10
90
 20
167
  0
VERTEX
  8
_0-0_
 10
90
 20
168
  0
VERTEX
  8
_0-0_
 10
89
 20
169
  0
VERTEX
  8
_0-0_
 10
89
 20
169
  0
VERTEX
  8
_0-0_
 10
89
 20
170
  0
VERTEX
  8
_0-0_
 10
89
 20
170
  0
SEQEND
  8
A
  0
POINT
  8
_0-0_
 62
    7
 10
91
 20
59
  0
POLYLINE
  8
_0-0_
 66
     1
 40
0.000000
 41
0.000000
  0
VERTEX
  8
_0-0_
 10
92
 20
216
  0
VERTEX
  8
_0-0_
 10
92
 20
216
  0
VERTEX
  8
_0-0_
 10
93
 20
216
  0
VERTEX
  8
_0-0_
 10
93
 20
216
  0
VERTEX
  8
_0-0_
 10
93
 20
217
  0
VERTEX
  8
_0-0_
 10
93
 20
217
  0
VERTEX
  8
_0-0_
 10
93
 20
216
  0
VERTEX
  8
_0-0_
 10
93
 20
216
  0
VERTEX
  8
_0-0_
 10
92
 20
216
  0
VERTEX
  8
_0-0_
 10
92
 20
216
  0
SEQEND
  8
A
  0
POINT
  8
_0-0_
 62
    7
 10
92
 20
35
  0
POINT
  8
_0-0_
 62
    7
 10
92
 20
32
  0
POLYLINE
  8
_0-0_
 66
     1
 40
0.000000
 41
0.000000
  0
VERTEX
  8
_0-0_
 10
93
 20
276
  0
VERTEX
  8
_0-0_
 10
93
 20
276
  0
VERTEX
  8
_0-0_
 10
94
 20
275
  0
VERTEX
  8
_0-0_
 10
94
 20
275
  0
VERTEX
  8
_0-0_
 10
93
 20
276
  0
VERTEX
  8
_0-0_
 10
93
 20
276
  0
VERTEX
  8
_0-0_
 10
94
 20
275
  0
VERTEX
  8
_0-0_
 10
94
 20
275
  0
SEQEND
  8
A
  0
POINT
  8
_0-0_
 62
    7
 10
93
 20
67
  0
POLYLINE
  8
_0-0_
 66
     1
 40
0.000000
 41
0.000000
  0
VERTEX
  8
_0-0_
 10
94
 20
217
  0
VERTEX
  8
_0-0_
 10
94
 20
217
  0
VERTEX
  8
_0-0_
 10
95
 20
217
  0
VERTEX
  8
_0-0_
 10
97
 20
217
  0
VERTEX
  8
_0-0_
 10
97
 20
216
  0
VERTEX
  8
_0-0_
 10
97
 20
216
  0
VERTEX
  8
_0-0_
 10
98
 20
216
  0
VERTEX
  8
_0-0_
 10
98
 20
216
  0
VERTEX
  8
_0-0_
 10
98
 20
217
  0
VERTEX
  8
_0-0_
 10
98
 20
220
  0
VERTEX
  8
_0-0_
 10
99
 20
220
  0
VERTEX
  8
_0-0_
 10
99
 20
220
  0
VERTEX
  8
_0-0_
 10
99
 20
221
  0
VERTEX
  8
_0-0_
 10
99
 20
222
  0
VERTEX
  8
_0-0_
 10
100
 20
222
  0
VERTEX
  8
_0-0_
 10
100
 20
222
  0
VERTEX
  8
_0-0_
 10
100
 20
223
  0
VERTEX
  8
_0-0_
 10
100
 20
223
  0
VERTEX
  8
_0-0_
 10
101
 20
223
  0
VERTEX
  8
_0-0_
 10
102
 20
223
  0
VERTEX
  8
_0-0_
 10
102
 20
222
  0
VERTEX
  8
_0-0_
 10
102
 20
220
  0
VERTEX
  8
_0-0_
 10
103
 20
220
  0
VERTEX
  8
_0-0_
 10
103
 20
220
  0
VERTEX
  8
_0-0_
 10
103
 20
219
  0
VERTEX
  8
_0-0_
 10
103
 20
215
  0
VERTEX
  8
_0-0_
 10
102
 20
215
  0
VERTEX
  8
_0-0_
 10
102
 20
215
  0
VERTEX
  8
_0-0_
 10
102
 20
214
  0
VERTEX
  8
_0-0_
 10
102
 20
214
  0
VERTEX
  8
_0-0_
 10
101
 20
214
  0
VERTEX
  8
_0-0_
 10
101
 20
214
  0
VERTEX
  8
_0-0_
 10
101
 20
213
  0
VERTEX
  8
_0-0_
 10
101
 20
213
  0
VERTEX
  8
_0-0_
 10
100
 20
214
  0
VERTEX
  8
_0-0_
 10
100
 20
214
  0
VERTEX
  8
_0-0_
 10
101
 20
215
  0
VERTEX
  8
_0-0_
 10
102
 20
216
  0
VERTEX
  8
_0-0_
 10
102
 20
217
  0
VERTEX
  8
_0-0_
 10
102
 20
217
  0
SEQEND
  8
A
  0
POLYLINE
  8
_0-0_
 66
     1
 40
0.000000
 41
0.000000
  0
VERTEX
  8
_0-0_
 10
94
 20
144
  0
VERTEX
  8
_0-0_
 10
94
 20
144
  0
VERTEX
  8
_0-0_
 10
94
 20
143
  0
VERTEX
  8
_0-0_
 10
94
 20
138
  0
VERTEX
  8
_0-0_
 10
95
 20
138
  0
VERTEX
  8
_0-0_
 10
95
 20
138
  0
VERTEX
  8
_0-0_
 10
95
 20
137
  0
VERTEX
  8
_0-0_
 10
95
 20
137
  0
VERTEX
  8
_0-0_
 10
96
 20
137
  0
VERTEX
  8
_0-0_
 10
96
 20
137
  0
VERTEX
  8
_0-0_
 10
96
 20
136
  0
VERTEX
  8
_0-0_
 10
96
 20
135
  0
VERTEX
  8
_0-0_
 10
97
 20
135
  0
VERTEX
  8
_0-0_
 10
97
 20
135
  0
VERTEX
  8
_0-0_
 10
97
 20
134
  0
VERTEX
  8
_0-0_
 10
97
 20
133
  0
VERTEX
  8
_0-0_
 10
98
 20
133
  0
VERTEX
  8
_0-0_
 10
98
 20
133
  0
VERTEX
  8
_0-0_
 10
98
 20
132
  0
VERTEX
  8
_0-0_
 10
98
 20
132
  0
VERTEX
  8
_0-0_
 10
99
 20
132
  0
VERTEX
  8
_0-0_
 10
99
 20
132
  0
VERTEX
  8
_0-0_
 10
99
 20
131
  0
VERTEX
  8
_0-0_
 10
99
 20
131
  0
VERTEX
  8
_0-0_
 10
100
 20
131
  0
VERTEX
  8
_0-0_
 10
100
 20
131
  0
VERTEX
  8
_0-0_
 10
100
 20
130
  0
VERTEX
  8
_0-0_
 10
100
 20
130
  0
VERTEX
  8
_0-0_
 10
101
 20
130
  0
VERTEX
  8
_0-0_
 10
102
 20
130
  0
VERTEX
  8
_0-0_
 10
102
 20
129
  0
VERTEX
  8
_0-0_
 10
102
 20
129
  0
VERTEX
  8
_0-0_
 10
103
 20
129
  0
VERTEX
  8
_0-0_
 10
104
 20
129
  0
VERTEX
  8
_0-0_
 10
104
 20
128
  0
VERTEX
  8
_0-0_
 10
104
 20
128
  0
VERTEX
  8
_0-0_
 10
105
 20
129
  0
VERTEX
  8
_0-0_
 10
105
 20
129
  0
VERTEX
  8
_0-0_
 10
106
 20
129
  0
VERTEX
  8
_0-0_
 10
107
 20
129
  0
VERTEX
  8
_0-0_
 10
107
 20
128
  0
VERTEX
  8
_0-0_
 10
107
 20
128
  0
SEQEND
  8
A
  0
POLYLINE
  8
_0-0_
 66
     1
 40
0.000000
 41
0.000000
  0
VERTEX
  8
_0-0_
 10
94
 20
143
  0
VERTEX
  8
_0-0_
 10
94
 20
143
  0
VERTEX
  8
_0-0_
 10
95
 20
143
  0
VERTEX
  8
_0-0_
 10
95
 20
143
  0
VERTEX
  8
_0-0_
 10
95
 20
142
  0
VERTEX
  8
_0-0_
 10
95
 20
139
  0
VERTEX
  8
_0-0_
 10
96
 20
139
  0
VERTEX
  8
_0-0_
 10
96
 20
139
  0
VERTEX
  8
_0-0_
 10
96
 20
138
  0
VERTEX
  8
_0-0_
 10
96
 20
138
  0
SEQEND
  8
A
  0
POINT
  8
_0-0_
 62
    7
 10
94
 20
65
  0
POLYLINE
  8
_0-0_
 66
     1
 40
0.000000
 41
0.000000
  0
VERTEX
  8
_0-0_
 10
95
 20
217
  0
VERTEX
  8
_0-0_
 10
95
 20
217
  0
VERTEX
  8
_0-0_
 10
94
 20
217
  0
VERTEX
  8
_0-0_
 10
94
 20
217
  0
VERTEX
  8
_0-0_
 10
95
 20
217
  0
VERTEX
  8
_0-0_
 10
95
 20
217
  0
VERTEX
  8
_0-0_
 10
94
 20
217
  0
VERTEX
  8
_0-0_
 10
94
 20
217
  0
SEQEND
  8
A
  0
POLYLINE
  8
_0-0_
 66
     1
 40
0.000000
 41
0.000000
  0
VERTEX
  8
_0-0_
 10
95
 20
146
  0
VERTEX
  8
_0-0_
 10
95
 20
146
  0
VERTEX
  8
_0-0_
 10
95
 20
145
  0
VERTEX
  8
_0-0_
 10
95
 20
143
  0
VERTEX
  8
_0-0_
 10
94
 20
143
  0
VERTEX
  8
_0-0_
 10
94
 20
143
  0
VERTEX
  8
_0-0_
 10
94
 20
144
  0
VERTEX
  8
_0-0_
 10
94
 20
144
  0
VERTEX
  8
_0-0_
 10
95
 20
145
  0
VERTEX
  8
_0-0_
 10
95
 20
145
  0
VERTEX
  8
_0-0_
 10
96
 20
145
  0
VERTEX
  8
_0-0_
 10
96
 20
145
  0
VERTEX
  8
_0-0_
 10
96
 20
146
  0
VERTEX
  8
_0-0_
 10
96
 20
148
  0
SEQEND
  8
A
  0
POLYLINE
  8
_0-0_
 66
     1
 40
0.000000
 41
0.000000
  0
VERTEX
  8
_0-0_
 10
96
 20
206
  0
VERTEX
  8
_0-0_
 10
96
 20
206
  0
VERTEX
  8
_0-0_
 10
97
 20
206
  0
VERTEX
  8
_0-0_
 10
97
 20
206
  0
VERTEX
  8
_0-0_
 10
97
 20
205
  0
VERTEX
  8
_0-0_
 10
97
 20
203
  0
VERTEX
  8
_0-0_
 10
98
 20
203
  0
VERTEX
  8
_0-0_
 10
98
 20
203
  0
VERTEX
  8
_0-0_
 10
98
 20
202
  0
VERTEX
  8
_0-0_
 10
98
 20
198
  0
VERTEX
  8
_0-0_
 10
99
 20
198
  0
VERTEX
  8
_0-0_
 10
99
 20
198
  0
VERTEX
  8
_0-0_
 10
99
 20
197
  0
VERTEX
  8
_0-0_
 10
99
 20
196
  0
SEQEND
  8
A
  0
POINT
  8
_0-0_
 62
    7
 10
96
 20
41
  0
POLYLINE
  8
_0-0_
 66
     1
 40
0.000000
 41
0.000000
  0
VERTEX
  8
_0-0_
 10
97
 20
206
  0
VERTEX
  8
_0-0_
 10
97
 20
206
  0
VERTEX
  8
_0-0_
 10
96
 20
206
  0
VERTEX
  8
_0-0_
 10
96
 20
206
  0
VERTEX
  8
_0-0_
 10
97
 20
206
  0
VERTEX
  8
_0-0_
 10
97
 20
206
  0
VERTEX
  8
_0-0_
 10
96
 20
206
  0
VERTEX
  8
_0-0_
 10
96
 20
206
  0
SEQEND
  8
A
  0
POLYLINE
  8
_0-0_
 66
     1
 40
0.000000
 41
0.000000
  0
VERTEX
  8
_0-0_
 10
97
 20
199
  0
VERTEX
  8
_0-0_
 10
97
 20
199
  0
VERTEX
  8
_0-0_
 10
97
 20
198
  0
VERTEX
  8
_0-0_
 10
97
 20
198
  0
VERTEX
  8
_0-0_
 10
97
 20
199
  0
VERTEX
  8
_0-0_
 10
97
 20
199
  0
VERTEX
  8
_0-0_
 10
97
 20
198
  0
VERTEX
  8
_0-0_
 10
97
 20
198
  0
SEQEND
  8
A
  0
POLYLINE
  8
_0-0_
 66
     1
 40
0.000000
 41
0.000000
  0
VERTEX
  8
_0-0_
 10
97
 20
136
  0
VERTEX
  8
_0-0_
 10
97
 20
136
  0
VERTEX
  8
_0-0_
 10
98
 20
135
  0
VERTEX
  8
_0-0_
 10
98
 20
135
  0
VERTEX
  8
_0-0_
 10
98
 20
134
  0
VERTEX
  8
_0-0_
 10
98
 20
134
  0
VERTEX
  8
_0-0_
 10
98
 20
135
  0
VERTEX
  8
_0-0_
 10
98
 20
135
  0
VERTEX
  8
_0-0_
 10
97
 20
136
  0
VERTEX
  8
_0-0_
 10
97
 20
136
  0
SEQEND
  8
A
  0
POINT
  8
_0-0_
 62
    7
 10
97
 20
45
  0
POLYLINE
  8
_0-0_
 66
     1
 40
0.000000
 41
0.000000
  0
VERTEX
  8
_0-0_
 10
99
 20
202
  0
VERTEX
  8
_0-0_
 10
99
 20
202
  0
VERTEX
  8
_0-0_
 10
99
 20
201
  0
VERTEX
  8
_0-0_
 10
99
 20
199
  0
VERTEX
  8
_0-0_
 10
100
 20
199
  0
VERTEX
  8
_0-0_
 10
100
 20
199
  0
VERTEX
  8
_0-0_
 10
100
 20
198
  0
VERTEX
  8
_0-0_
 10
100
 20
198
  0
SEQEND
  8
A
  0
POLYLINE
  8
_0-0_
 66
     1
 40
0.000000
 41
0.000000
  0
VERTEX
  8
_0-0_
 10
99
 20
201
  0
VERTEX
  8
_0-0_
 10
99
 20
201
  0
VERTEX
  8
_0-0_
 10
99
 20
202
  0
VERTEX
  8
_0-0_
 10
99
 20
202
  0
VERTEX
  8
_0-0_
 10
99
 20
201
  0
VERTEX
  8
_0-0_
 10
99
 20
201
  0
VERTEX
  8
_0-0_
 10
99
 20
202
  0
VERTEX
  8
_0-0_
 10
99
 20
202
  0
VERTEX
  8
_0-0_
 10
100
 20
202
  0
VERTEX
  8
_0-0_
 10
101
 20
202
  0
VERTEX
  8
_0-0_
 10
101
 20
201
  0
VERTEX
  8
_0-0_
 10
101
 20
201
  0
VERTEX
  8
_0-0_
 10
102
 20
201
  0
VERTEX
  8
_0-0_
 10
102
 20
201
  0
VERTEX
  8
_0-0_
 10
102
 20
200
  0
VERTEX
  8
_0-0_
 10
102
 20
199
  0
VERTEX
  8
_0-0_
 10
103
 20
199
  0
VERTEX
  8
_0-0_
 10
105
 20
199
  0
VERTEX
  8
_0-0_
 10
105
 20
200
  0
VERTEX
  8
_0-0_
 10
105
 20
203
  0
VERTEX
  8
_0-0_
 10
104
 20
203
  0
VERTEX
  8
_0-0_
 10
104
 20
203
  0
VERTEX
  8
_0-0_
 10
104
 20
204
  0
VERTEX
  8
_0-0_
 10
104
 20
204
  0
VERTEX
  8
_0-0_
 10
103
 20
204
  0
VERTEX
  8
_0-0_
 10
102
 20
204
  0
VERTEX
  8
_0-0_
 10
102
 20
205
  0
VERTEX
  8
_0-0_
 10
102
 20
207
  0
VERTEX
  8
_0-0_
 10
103
 20
207
  0
VERTEX
  8
_0-0_
 10
104
 20
207
  0
VERTEX
  8
_0-0_
 10
104
 20
206
  0
VERTEX
  8
_0-0_
 10
104
 20
206
  0
VERTEX
  8
_0-0_
 10
105
 20
206
  0
VERTEX
  8
_0-0_
 10
105
 20
206
  0
VERTEX
  8
_0-0_
 10
105
 20
205
  0
VERTEX
  8
_0-0_
 10
105
 20
205
  0
SEQEND
  8
A
  0
POLYLINE
  8
_0-0_
 66
     1
 40
0.000000
 41
0.000000
  0
VERTEX
  8
_0-0_
 10
99
 20
133
  0
VERTEX
  8
_0-0_
 10
99
 20
133
  0
VERTEX
  8
_0-0_
 10
100
 20
132
  0
VERTEX
  8
_0-0_
 10
100
 20
132
  0
VERTEX
  8
_0-0_
 10
101
 20
132
  0
VERTEX
  8
_0-0_
 10
101
 20
132
  0
VERTEX
  8
_0-0_
 10
101
 20
131
  0
VERTEX
  8
_0-0_
 10
101
 20
131
  0
VERTEX
  8
_0-0_
 10
102
 20
131
  0
VERTEX
  8
_0-0_
 10
102
 20
131
  0
VERTEX
  8
_0-0_
 10
103
 20
130
  0
VERTEX
  8
_0-0_
 10
103
 20
130
  0
VERTEX
  8
_0-0_
 10
104
 20
130
  0
VERTEX
  8
_0-0_
 10
104
 20
130
  0
SEQEND
  8
A
  0
POLYLINE
  8
_0-0_
 66
     1
 40
0.000000
 41
0.000000
  0
VERTEX
  8
_0-0_
 10
100
 20
132
  0
VERTEX
  8
_0-0_
 10
100
 20
132
  0
VERTEX
  8
_0-0_
 10
99
 20
133
  0
VERTEX
  8
_0-0_
 10
99
 20
133
  0
VERTEX
  8
_0-0_
 10
100
 20
132
  0
VERTEX
  8
_0-0_
 10
100
 20
132
  0
VERTEX
  8
_0-0_
 10
99
 20
133
  0
VERTEX
  8
_0-0_
 10
99
 20
133
  0
SEQEND
  8
A
  0
POLYLINE
  8
_0-0_
 66
     1
 40
0.000000
 41
0.000000
  0
VERTEX
  8
_0-0_
 10
100
 20
37
  0
VERTEX
  8
_0-0_
 10
100
 20
37
  0
VERTEX
  8
_0-0_
 10
101
 20
37
  0
VERTEX
  8
_0-0_
 10
101
 20
37
  0
VERTEX
  8
_0-0_
 10
101
 20
38
  0
VERTEX
  8
_0-0_
 10
101
 20
38
  0
VERTEX
  8
_0-0_
 10
101
 20
37
  0
VERTEX
  8
_0-0_
 10
101
 20
37
  0
VERTEX
  8
_0-0_
 10
100
 20
37
  0
VERTEX
  8
_0-0_
 10
100
 20
37
  0
SEQEND
  8
A
  0
POINT
  8
_0-0_
 62
    7
 10
101
 20
246
  0
POLYLINE
  8
_0-0_
 66
     1
 40
0.000000
 41
0.000000
  0
VERTEX
  8
_0-0_
 10
101
 20
39
  0
VERTEX
  8
_0-0_
 10
101
 20
39
  0
VERTEX
  8
_0-0_
 10
102
 20
39
  0
VERTEX
  8
_0-0_
 10
102
 20
39
  0
VERTEX
  8
_0-0_
 10
102
 20
40
  0
VERTEX
  8
_0-0_
 10
102
 20
40
  0
VERTEX
  8
_0-0_
 10
102
 20
39
  0
VERTEX
  8
_0-0_
 10
102
 20
39
  0
VERTEX
  8
_0-0_
 10
101
 20
39
  0
VERTEX
  8
_0-0_
 10
101
 20
39
  0
SEQEND
  8
A
  0
POINT
  8
_0-0_
 62
    7
 10
102
 20
271
  0
POLYLINE
  8
_0-0_
 66
     1
 40
0.000000
 41
0.000000
  0
VERTEX
  8
_0-0_
 10
102
 20
149
  0
VERTEX
  8
_0-0_
 10
102
 20
149
  0
VERTEX
  8
_0-0_
 10
102
 20
148
  0
VERTEX
  8
_0-0_
 10
102
 20
148
  0
VERTEX
  8
_0-0_
 10
102
 20
149
  0
VERTEX
  8
_0-0_
 10
102
 20
149
  0
VERTEX
  8
_0-0_
 10
102
 20
148
  0
VERTEX
  8
_0-0_
 10
102
 20
148
  0
SEQEND
  8
A
  0
POLYLINE
  8
_0-0_
 66
     1
 40
0.000000
 41
0.000000
  0
VERTEX
  8
_0-0_
 10
102
 20
41
  0
VERTEX
  8
_0-0_
 10
102
 20
41
  0
VERTEX
  8
_0-0_
 10
103
 20
41
  0
VERTEX
  8
_0-0_
 10
103
 20
41
  0
VERTEX
  8
_0-0_
 10
103
 20
42
  0
VERTEX
  8
_0-0_
 10
103
 20
42
  0
VERTEX
  8
_0-0_
 10
103
 20
41
  0
VERTEX
  8
_0-0_
 10
103
 20
41
  0
VERTEX
  8
_0-0_
 10
102
 20
41
  0
VERTEX
  8
_0-0_
 10
102
 20
41
  0
SEQEND
  8
A
  0
POLYLINE
  8
_0-0_
 66
     1
 40
0.000000
 41
0.000000
  0
VERTEX
  8
_0-0_
 10
103
 20
150
  0
VERTEX
  8
_0-0_
 10
103
 20
150
  0
VERTEX
  8
_0-0_
 10
104
 20
150
  0
VERTEX
  8
_0-0_
 10
107
 20
150
  0
VERTEX
  8
_0-0_
 10
107
 20
151
  0
VERTEX
  8
_0-0_
 10
107
 20
151
  0
VERTEX
  8
_0-0_
 10
108
 20
151
  0
VERTEX
  8
_0-0_
 10
109
 20
151
  0
VERTEX
  8
_0-0_
 10
109
 20
150
  0
VERTEX
  8
_0-0_
 10
109
 20
150
  0
VERTEX
  8
_0-0_
 10
110
 20
150
  0
VERTEX
  8
_0-0_
 10
112
 20
150
  0
VERTEX
  8
_0-0_
 10
112
 20
149
  0
VERTEX
  8
_0-0_
 10
112
 20
149
  0
VERTEX
  8
_0-0_
 10
113
 20
149
  0
VERTEX
  8
_0-0_
 10
113
 20
149
  0
VERTEX
  8
_0-0_
 10
113
 20
148
  0
VERTEX
  8
_0-0_
 10
113
 20
148
  0
VERTEX
  8
_0-0_
 10
114
 20
148
  0
VERTEX
  8
_0-0_
 10
114
 20
148
  0
VERTEX
  8
_0-0_
 10
114
 20
147
  0
VERTEX
  8
_0-0_
 10
114
 20
147
  0
VERTEX
  8
_0-0_
 10
115
 20
147
  0
VERTEX
  8
_0-0_
 10
115
 20
147
  0
VERTEX
  8
_0-0_
 10
115
 20
146
  0
VERTEX
  8
_0-0_
 10
115
 20
146
  0
VERTEX
  8
_0-0_
 10
116
 20
146
  0
VERTEX
  8
_0-0_
 10
116
 20
146
  0
VERTEX
  8
_0-0_
 10
116
 20
145
  0
VERTEX
  8
_0-0_
 10
116
 20
141
  0
VERTEX
  8
_0-0_
 10
117
 20
141
  0
VERTEX
  8
_0-0_
 10
117
 20
141
  0
VERTEX
  8
_0-0_
 10
117
 20
140
  0
VERTEX
  8
_0-0_
 10
117
 20
139
  0
VERTEX
  8
_0-0_
 10
116
 20
139
  0
VERTEX
  8
_0-0_
 10
116
 20
139
  0
VERTEX
  8
_0-0_
 10
116
 20
138
  0
VERTEX
  8
_0-0_
 10
116
 20
137
  0
VERTEX
  8
_0-0_
 10
115
 20
137
  0
VERTEX
  8
_0-0_
 10
115
 20
137
  0
VERTEX
  8
_0-0_
 10
115
 20
136
  0
VERTEX
  8
_0-0_
 10
115
 20
133
  0
VERTEX
  8
_0-0_
 10
116
 20
133
  0
VERTEX
  8
_0-0_
 10
117
 20
133
  0
VERTEX
  8
_0-0_
 10
117
 20
132
  0
VERTEX
  8
_0-0_
 10
117
 20
131
  0
SEQEND
  8
A
  0
POLYLINE
  8
_0-0_
 66
     1
 40
0.000000
 41
0.000000
  0
VERTEX
  8
_0-0_
 10
103
 20
44
  0
VERTEX
  8
_0-0_
 10
103
 20
44
  0
VERTEX
  8
_0-0_
 10
103
 20
43
  0
VERTEX
  8
_0-0_
 10
103
 20
43
  0
VERTEX
  8
_0-0_
 10
103
 20
44
  0
VERTEX
  8
_0-0_
 10
103
 20
44
  0
VERTEX
  8
_0-0_
 10
103
 20
43
  0
VERTEX
  8
_0-0_
 10
103
 20
43
  0
VERTEX
  8
_0-0_
 10
104
 20
44
  0
VERTEX
  8
_0-0_
 10
104
 20
44
  0
VERTEX
  8
_0-0_
 10
105
 20
44
  0
VERTEX
  8
_0-0_
 10
105
 20
44
  0
VERTEX
  8
_0-0_
 10
105
 20
45
  0
VERTEX
  8
_0-0_
 10
105
 20
46
  0
VERTEX
  8
_0-0_
 10
106
 20
46
  0
VERTEX
  8
_0-0_
 10
107
 20
46
  0
VERTEX
  8
_0-0_
 10
107
 20
45
  0
VERTEX
  8
_0-0_
 10
107
 20
44
  0
VERTEX
  8
_0-0_
 10
108
 20
44
  0
VERTEX
  8
_0-0_
 10
108
 20
44
  0
VERTEX
  8
_0-0_
 10
108
 20
45
  0
VERTEX
  8
_0-0_
 10
108
 20
45
  0
VERTEX
  8
_0-0_
 10
109
 20
45
  0
VERTEX
  8
_0-0_
 10
109
 20
45
  0
VERTEX
  8
_0-0_
 10
109
 20
46
  0
VERTEX
  8
_0-0_
 10
109
 20
46
  0
VERTEX
  8
_0-0_
 10
110
 20
46
  0
VERTEX
  8
_0-0_
 10
110
 20
46
  0
VERTEX
  8
_0-0_
 10
110
 20
47
  0
VERTEX
  8
_0-0_
 10
110
 20
47
  0
VERTEX
  8
_0-0_
 10
111
 20
47
  0
VERTEX
  8
_0-0_
 10
112
 20
47
  0
VERTEX
  8
_0-0_
 10
112
 20
46
  0
VERTEX
  8
_0-0_
 10
112
 20
43
  0
VERTEX
  8
_0-0_
 10
113
 20
43
  0
VERTEX
  8
_0-0_
 10
113
 20
43
  0
VERTEX
  8
_0-0_
 10
113
 20
42
  0
VERTEX
  8
_0-0_
 10
113
 20
42
  0
VERTEX
  8
_0-0_
 10
114
 20
42
  0
VERTEX
  8
_0-0_
 10
115
 20
42
  0
VERTEX
  8
_0-0_
 10
115
 20
41
  0
VERTEX
  8
_0-0_
 10
115
 20
41
  0
VERTEX
  8
_0-0_
 10
116
 20
41
  0
VERTEX
  8
_0-0_
 10
116
 20
41
  0
VERTEX
  8
_0-0_
 10
116
 20
40
  0
VERTEX
  8
_0-0_
 10
116
 20
38
  0
VERTEX
  8
_0-0_
 10
117
 20
38
  0
VERTEX
  8
_0-0_
 10
117
 20
38
  0
VERTEX
  8
_0-0_
 10
117
 20
37
  0
VERTEX
  8
_0-0_
 10
117
 20
37
  0
VERTEX
  8
_0-0_
 10
118
 20
37
  0
VERTEX
  8
_0-0_
 10
118
 20
37
  0
VERTEX
  8
_0-0_
 10
118
 20
36
  0
VERTEX
  8
_0-0_
 10
118
 20
36
  0
VERTEX
  8
_0-0_
 10
119
 20
36
  0
VERTEX
  8
_0-0_
 10
121
 20
36
  0
VERTEX
  8
_0-0_
 10
121
 20
35
  0
VERTEX
  8
_0-0_
 10
121
 20
35
  0
VERTEX
  8
_0-0_
 10
122
 20
35
  0
VERTEX
  8
_0-0_
 10
122
 20
35
  0
VERTEX
  8
_0-0_
 10
122
 20
34
  0
VERTEX
  8
_0-0_
 10
122
 20
32
  0
VERTEX
  8
_0-0_
 10
121
 20
32
  0
VERTEX
  8
_0-0_
 10
121
 20
32
  0
VERTEX
  8
_0-0_
 10
121
 20
31
  0
VERTEX
  8
_0-0_
 10
121
 20
28
  0
VERTEX
  8
_0-0_
 10
120
 20
28
  0
VERTEX
  8
_0-0_
 10
120
 20
28
  0
VERTEX
  8
_0-0_
 10
120
 20
29
  0
VERTEX
  8
_0-0_
 10
120
 20
30
  0
VERTEX
  8
_0-0_
 10
119
 20
29
  0
VERTEX
  8
_0-0_
 10
119
 20
29
  0
VERTEX
  8
_0-0_
 10
119
 20
28
  0
VERTEX
  8
_0-0_
 10
119
 20
27
  0
SEQEND
  8
A
  0
POLYLINE
  8
_0-0_
 66
     1
 40
0.000000
 41
0.000000
  0
VERTEX
  8
_0-0_
 10
104
 20
216
  0
VERTEX
  8
_0-0_
 10
104
 20
216
  0
VERTEX
  8
_0-0_
 10
105
 20
216
  0
VERTEX
  8
_0-0_
 10
105
 20
216
  0
VERTEX
  8
_0-0_
 10
105
 20
217
  0
VERTEX
  8
_0-0_
 10
105
 20
217
  0
VERTEX
  8
_0-0_
 10
105
 20
216
  0
VERTEX
  8
_0-0_
 10
105
 20
216
  0
VERTEX
  8
_0-0_
 10
104
 20
216
  0
VERTEX
  8
_0-0_
 10
104
 20
216
  0
SEQEND
  8
A
  0
POLYLINE
  8
_0-0_
 66
     1
 40
0.000000
 41
0.000000
  0
VERTEX
  8
_0-0_
 10
104
 20
151
  0
VERTEX
  8
_0-0_
 10
104
 20
151
  0
VERTEX
  8
_0-0_
 10
104
 20
150
  0
VERTEX
  8
_0-0_
 10
104
 20
150
  0
VERTEX
  8
_0-0_
 10
104
 20
151
  0
VERTEX
  8
_0-0_
 10
104
 20
151
  0
VERTEX
  8
_0-0_
 10
104
 20
150
  0
VERTEX
  8
_0-0_
 10
104
 20
150
  0
VERTEX
  8
_0-0_
 10
103
 20
150
  0
VERTEX
  8
_0-0_
 10
103
 20
150
  0
SEQEND
  8
A
  0
POLYLINE
  8
_0-0_
 66
     1
 40
0.000000
 41
0.000000
  0
VERTEX
  8
_0-0_
 10
105
 20
151
  0
VERTEX
  8
_0-0_
 10
105
 20
151
  0
VERTEX
  8
_0-0_
 10
106
 20
151
  0
VERTEX
  8
_0-0_
 10
106
 20
151
  0
VERTEX
  8
_0-0_
 10
105
 20
151
  0
VERTEX
  8
_0-0_
 10
105
 20
151
  0
VERTEX
  8
_0-0_
 10
106
 20
151
  0
VERTEX
  8
_0-0_
 10
106
 20
151
  0
SEQEND
  8
A
  0
POLYLINE
  8
_0-0_
 66
     1
 40
0.000000
 41
0.000000
  0
VERTEX
  8
_0-0_
 10
106
 20
219
  0
VERTEX
  8
_0-0_
 10
106
 20
219
  0
VERTEX
  8
_0-0_
 10
106
 20
218
  0
VERTEX
  8
_0-0_
 10
106
 20
217
  0
VERTEX
  8
_0-0_
 10
106
 20
218
  0
VERTEX
  8
_0-0_
 10
106
 20
219
  0
VERTEX
  8
_0-0_
 10
107
 20
219
  0
VERTEX
  8
_0-0_
 10
107
 20
219
  0
VERTEX
  8
_0-0_
 10
107
 20
220
  0
VERTEX
  8
_0-0_
 10
107
 20
220
  0
VERTEX
  8
_0-0_
 10
108
 20
220
  0
VERTEX
  8
_0-0_
 10
108
 20
220
  0
VERTEX
  8
_0-0_
 10
108
 20
221
  0
VERTEX
  8
_0-0_
 10
108
 20
221
  0
VERTEX
  8
_0-0_
 10
107
 20
221
  0
VERTEX
  8
_0-0_
 10
107
 20
221
  0
VERTEX
  8
_0-0_
 10
107
 20
222
  0
VERTEX
  8
_0-0_
 10
107
 20
224
  0
VERTEX
  8
_0-0_
 10
108
 20
224
  0
VERTEX
  8
_0-0_
 10
108
 20
224
  0
VERTEX
  8
_0-0_
 10
108
 20
225
  0
VERTEX
  8
_0-0_
 10
108
 20
226
  0
VERTEX
  8
_0-0_
 10
109
 20
226
  0
VERTEX
  8
_0-0_
 10
109
 20
226
  0
VERTEX
  8
_0-0_
 10
109
 20
227
  0
VERTEX
  8
_0-0_
 10
109
 20
229
  0
VERTEX
  8
_0-0_
 10
110
 20
229
  0
VERTEX
  8
_0-0_
 10
111
 20
229
  0
VERTEX
  8
_0-0_
 10
111
 20
230
  0
VERTEX
  8
_0-0_
 10
111
 20
230
  0
VERTEX
  8
_0-0_
 10
112
 20
230
  0
VERTEX
  8
_0-0_
 10
113
 20
230
  0
VERTEX
  8
_0-0_
 10
113
 20
231
  0
VERTEX
  8
_0-0_
 10
113
 20
231
  0
VERTEX
  8
_0-0_
 10
114
 20
231
  0
VERTEX
  8
_0-0_
 10
114
 20
231
  0
VERTEX
  8
_0-0_
 10
114
 20
232
  0
VERTEX
  8
_0-0_
 10
114
 20
233
  0
VERTEX
  8
_0-0_
 10
113
 20
233
  0
VERTEX
  8
_0-0_
 10
113
 20
233
  0
VERTEX
  8
_0-0_
 10
113
 20
234
  0
VERTEX
  8
_0-0_
 10
113
 20
236
  0
VERTEX
  8
_0-0_
 10
112
 20
237
  0
VERTEX
  8
_0-0_
 10
112
 20
237
  0
VERTEX
  8
_0-0_
 10
111
 20
236
  0
VERTEX
  8
_0-0_
 10
111
 20
236
  0
VERTEX
  8
_0-0_
 10
111
 20
235
  0
VERTEX
  8
_0-0_
 10
111
 20
235
  0
VERTEX
  8
_0-0_
 10
112
 20
235
  0
VERTEX
  8
_0-0_
 10
112
 20
235
  0
SEQEND
  8
A
  0
POINT
  8
_0-0_
 62
    7
 10
107
 20
131
  0
POLYLINE
  8
_0-0_
 66
     1
 40
0.000000
 41
0.000000
  0
VERTEX
  8
_0-0_
 10
109
 20
255
  0
VERTEX
  8
_0-0_
 10
109
 20
255
  0
VERTEX
  8
_0-0_
 10
109
 20
254
  0
VERTEX
  8
_0-0_
 10
109
 20
245
  0
VERTEX
  8
_0-0_
 10
110
 20
245
  0
VERTEX
  8
_0-0_
 10
110
 20
245
  0
VERTEX
  8
_0-0_
 10
110
 20
244
  0
VERTEX
  8
_0-0_
 10
110
 20
242
  0
VERTEX
  8
_0-0_
 10
109
 20
242
  0
VERTEX
  8
_0-0_
 10
109
 20
242
  0
VERTEX
  8
_0-0_
 10
109
 20
241
  0
VERTEX
  8
_0-0_
 10
109
 20
239
  0
VERTEX
  8
_0-0_
 10
110
 20
239
  0
VERTEX
  8
_0-0_
 10
110
 20
239
  0
VERTEX
  8
_0-0_
 10
110
 20
238
  0
VERTEX
  8
_0-0_
 10
110
 20
236
  0
SEQEND
  8
A
  0
POLYLINE
  8
_0-0_
 66
     1
 40
0.000000
 41
0.000000
  0
VERTEX
  8
_0-0_
 10
109
 20
254
  0
VERTEX
  8
_0-0_
 10
109
 20
254
  0
VERTEX
  8
_0-0_
 10
109
 20
255
  0
VERTEX
  8
_0-0_
 10
109
 20
255
  0
VERTEX
  8
_0-0_
 10
109
 20
254
  0
VERTEX
  8
_0-0_
 10
109
 20
254
  0
VERTEX
  8
_0-0_
 10
109
 20
255
  0
VERTEX
  8
_0-0_
 10
109
 20
255
  0
VERTEX
  8
_0-0_
 10
110
 20
255
  0
VERTEX
  8
_0-0_
 10
113
 20
255
  0
VERTEX
  8
_0-0_
 10
113
 20
254
  0
VERTEX
  8
_0-0_
 10
113
 20
254
  0
VERTEX
  8
_0-0_
 10
114
 20
254
  0
VERTEX
  8
_0-0_
 10
114
 20
254
  0
VERTEX
  8
_0-0_
 10
114
 20
253
  0
VERTEX
  8
_0-0_
 10
114
 20
253
  0
VERTEX
  8
_0-0_
 10
115
 20
253
  0
VERTEX
  8
_0-0_
 10
116
 20
253
  0
VERTEX
  8
_0-0_
 10
116
 20
252
  0
VERTEX
  8
_0-0_
 10
116
 20
252
  0
VERTEX
  8
_0-0_
 10
117
 20
252
  0
VERTEX
  8
_0-0_
 10
118
 20
252
  0
VERTEX
  8
_0-0_
 10
118
 20
251
  0
VERTEX
  8
_0-0_
 10
118
 20
251
  0
VERTEX
  8
_0-0_
 10
119
 20
251
  0
VERTEX
  8
_0-0_
 10
119
 20
251
  0
VERTEX
  8
_0-0_
 10
119
 20
250
  0
VERTEX
  8
_0-0_
 10
119
 20
250
  0
VERTEX
  8
_0-0_
 10
120
 20
250
  0
VERTEX
  8
_0-0_
 10
121
 20
250
  0
VERTEX
  8
_0-0_
 10
121
 20
249
  0
VERTEX
  8
_0-0_
 10
121
 20
249
  0
VERTEX
  8
_0-0_
 10
122
 20
249
  0
VERTEX
  8
_0-0_
 10
122
 20
249
  0
VERTEX
  8
_0-0_
 10
122
 20
248
  0
VERTEX
  8
_0-0_
 10
122
 20
242
  0
VERTEX
  8
_0-0_
 10
121
 20
242
  0
VERTEX
  8
_0-0_
 10
121
 20
242
  0
VERTEX
  8
_0-0_
 10
121
 20
241
  0
VERTEX
  8
_0-0_
 10
121
 20
203
  0
VERTEX
  8
_0-0_
 10
120
 20
203
  0
VERTEX
  8
_0-0_
 10
120
 20
203
  0
VERTEX
  8
_0-0_
 10
120
 20
202
  0
VERTEX
  8
_0-0_
 10
120
 20
164
  0
VERTEX
  8
_0-0_
 10
119
 20
164
  0
VERTEX
  8
_0-0_
 10
119
 20
164
  0
VERTEX
  8
_0-0_
 10
119
 20
163
  0
VERTEX
  8
_0-0_
 10
119
 20
144
  0
VERTEX
  8
_0-0_
 10
118
 20
144
  0
VERTEX
  8
_0-0_
 10
117
 20
144
  0
VERTEX
  8
_0-0_
 10
117
 20
145
  0
VERTEX
  8
_0-0_
 10
117
 20
146
  0
VERTEX
  8
_0-0_
 10
116
 20
147
  0
VERTEX
  8
_0-0_
 10
116
 20
147
  0
VERTEX
  8
_0-0_
 10
116
 20
148
  0
VERTEX
  8
_0-0_
 10
116
 20
148
  0
VERTEX
  8
_0-0_
 10
115
 20
148
  0
VERTEX
  8
_0-0_
 10
115
 20
148
  0
VERTEX
  8
_0-0_
 10
115
 20
149
  0
VERTEX
  8
_0-0_
 10
115
 20
149
  0
VERTEX
  8
_0-0_
 10
114
 20
149
  0
VERTEX
  8
_0-0_
 10
114
 20
149
  0
VERTEX
  8
_0-0_
 10
113
 20
150
  0
VERTEX
  8
_0-0_
 10
113
 20
150
  0
SEQEND
  8
A
  0
POLYLINE
  8
_0-0_
 66
     1
 40
0.000000
 41
0.000000
  0
VERTEX
  8
_0-0_
 10
110
 20
151
  0
VERTEX
  8
_0-0_
 10
110
 20
151
  0
VERTEX
  8
_0-0_
 10
111
 20
151
  0
VERTEX
  8
_0-0_
 10
111
 20
151
  0
VERTEX
  8
_0-0_
 10
110
 20
151
  0
VERTEX
  8
_0-0_
 10
110
 20
151
  0
VERTEX
  8
_0-0_
 10
111
 20
151
  0
VERTEX
  8
_0-0_
 10
111
 20
151
  0
SEQEND
  8
A
  0
POLYLINE
  8
_0-0_
 66
     1
 40
0.000000
 41
0.000000
  0
VERTEX
  8
_0-0_
 10
110
 20
132
  0
VERTEX
  8
_0-0_
 10
110
 20
132
  0
VERTEX
  8
_0-0_
 10
111
 20
133
  0
VERTEX
  8
_0-0_
 10
111
 20
133
  0
VERTEX
  8
_0-0_
 10
110
 20
132
  0
VERTEX
  8
_0-0_
 10
110
 20
132
  0
VERTEX
  8
_0-0_
 10
111
 20
133
  0
VERTEX
  8
_0-0_
 10
111
 20
133
  0
SEQEND
  8
A
  0
POLYLINE
  8
_0-0_
 66
     1
 40
0.000000
 41
0.000000
  0
VERTEX
  8
_0-0_
 10
111
 20
78
  0
VERTEX
  8
_0-0_
 10
112
 20
56
  0
VERTEX
  8
_0-0_
 10
113
 20
51
  0
VERTEX
  8
_0-0_
 10
116
 20
48
  0
VERTEX
  8
_0-0_
 10
121
 20
42
  0
VERTEX
  8
_0-0_
 10
127
 20
43
  0
VERTEX
  8
_0-0_
 10
128
 20
45
  0
VERTEX
  8
_0-0_
 10
129
 20
49
  0
VERTEX
  8
_0-0_
 10
127
 20
62
  0
VERTEX
  8
_0-0_
 10
128
 20
97
  0
VERTEX
  8
_0-0_
 10
127
 20
103
  0
VERTEX
  8
_0-0_
 10
126
 20
104
  0
VERTEX
  8
_0-0_
 10
124
 20
105
  0
VERTEX
  8
_0-0_
 10
123
 20
106
  0
VERTEX
  8
_0-0_
 10
121
 20
106
  0
VERTEX
  8
_0-0_
 10
119
 20
106
  0
VERTEX
  8
_0-0_
 10
116
 20
104
  0
VERTEX
  8
_0-0_
 10
115
 20
96
  0
VERTEX
  8
_0-0_
 10
113
 20
92
  0
VERTEX
  8
_0-0_
 10
112
 20
85
  0
VERTEX
  8
_0-0_
 10
111
 20
77
  0
VERTEX
  8
_0-0_
 10
111
 20
77
  0
SEQEND
  8
A
  0
POLYLINE
  8
_0-0_
 66
     1
 40
0.000000
 41
0.000000
  0
VERTEX
  8
_0-0_
 10
112
 20
117
  0
VERTEX
  8
_0-0_
 10
112
 20
117
  0
VERTEX
  8
_0-0_
 10
113
 20
116
  0
VERTEX
  8
_0-0_
 10
113
 20
116
  0
VERTEX
  8
_0-0_
 10
112
 20
117
  0
VERTEX
  8
_0-0_
 10
112
 20
117
  0
VERTEX
  8
_0-0_
 10
113
 20
116
  0
VERTEX
  8
_0-0_
 10
113
 20
116
  0
SEQEND
  8
A
  0
POLYLINE
  8
_0-0_
 66
     1
 40
0.000000
 41
0.000000
  0
VERTEX
  8
_0-0_
 10
113
 20
263
  0
VERTEX
  8
_0-0_
 10
113
 20
263
  0
VERTEX
  8
_0-0_
 10
113
 20
262
  0
VERTEX
  8
_0-0_
 10
113
 20
261
  0
VERTEX
  8
_0-0_
 10
114
 20
261
  0
VERTEX
  8
_0-0_
 10
114
 20
261
  0
VERTEX
  8
_0-0_
 10
114
 20
260
  0
VERTEX
  8
_0-0_
 10
114
 20
260
  0
VERTEX
  8
_0-0_
 10
115
 20
260
  0
VERTEX
  8
_0-0_
 10
116
 20
260
  0
VERTEX
  8
_0-0_
 10
116
 20
259
  0
VERTEX
  8
_0-0_
 10
116
 20
259
  0
VERTEX
  8
_0-0_
 10
117
 20
259
  0
VERTEX
  8
_0-0_
 10
117
 20
259
  0
VERTEX
  8
_0-0_
 10
117
 20
258
  0
VERTEX
  8
_0-0_
 10
117
 20
258
  0
VERTEX
  8
_0-0_
 10
118
 20
258
  0
VERTEX
  8
_0-0_
 10
119
 20
258
  0
VERTEX
  8
_0-0_
 10
119
 20
257
  0
VERTEX
  8
_0-0_
 10
119
 20
257
  0
VERTEX
  8
_0-0_
 10
120
 20
257
  0
VERTEX
  8
_0-0_
 10
120
 20
257
  0
VERTEX
  8
_0-0_
 10
120
 20
256
  0
VERTEX
  8
_0-0_
 10
120
 20
256
  0
VERTEX
  8
_0-0_
 10
121
 20
256
  0
VERTEX
  8
_0-0_
 10
122
 20
256
  0
VERTEX
  8
_0-0_
 10
122
 20
255
  0
VERTEX
  8
_0-0_
 10
122
 20
255
  0
VERTEX
  8
_0-0_
 10
123
 20
255
  0
VERTEX
  8
_0-0_
 10
123
 20
255
  0
VERTEX
  8
_0-0_
 10
123
 20
254
  0
VERTEX
  8
_0-0_
 10
123
 20
254
  0
VERTEX
  8
_0-0_
 10
124
 20
254
  0
VERTEX
  8
_0-0_
 10
125
 20
254
  0
VERTEX
  8
_0-0_
 10
125
 20
253
  0
VERTEX
  8
_0-0_
 10
125
 20
253
  0
VERTEX
  8
_0-0_
 10
126
 20
253
  0
VERTEX
  8
_0-0_
 10
126
 20
253
  0
VERTEX
  8
_0-0_
 10
126
 20
252
  0
VERTEX
  8
_0-0_
 10
126
 20
252
  0
VERTEX
  8
_0-0_
 10
127
 20
252
  0
VERTEX
  8
_0-0_
 10
128
 20
252
  0
VERTEX
  8
_0-0_
 10
128
 20
253
  0
VERTEX
  8
_0-0_
 10
128
 20
255
  0
VERTEX
  8
_0-0_
 10
127
 20
255
  0
VERTEX
  8
_0-0_
 10
127
 20
255
  0
VERTEX
  8
_0-0_
 10
127
 20
256
  0
VERTEX
  8
_0-0_
 10
127
 20
259
  0
VERTEX
  8
_0-0_
 10
126
 20
259
  0
VERTEX
  8
_0-0_
 10
126
 20
259
  0
VERTEX
  8
_0-0_
 10
126
 20
260
  0
VERTEX
  8
_0-0_
 10
126
 20
263
  0
VERTEX
  8
_0-0_
 10
125
 20
263
  0
VERTEX
  8
_0-0_
 10
125
 20
263
  0
VERTEX
  8
_0-0_
 10
125
 20
264
  0
VERTEX
  8
_0-0_
 10
125
 20
267
  0
VERTEX
  8
_0-0_
 10
124
 20
267
  0
VERTEX
  8
_0-0_
 10
124
 20
267
  0
VERTEX
  8
_0-0_
 10
124
 20
268
  0
VERTEX
  8
_0-0_
 10
124
 20
268
  0
VERTEX
  8
_0-0_
 10
123
 20
268
  0
VERTEX
  8
_0-0_
 10
121
 20
268
  0
VERTEX
  8
_0-0_
 10
121
 20
267
  0
VERTEX
  8
_0-0_
 10
121
 20
267
  0
VERTEX
  8
_0-0_
 10
120
 20
267
  0
VERTEX
  8
_0-0_
 10
119
 20
267
  0
VERTEX
  8
_0-0_
 10
119
 20
266
  0
VERTEX
  8
_0-0_
 10
119
 20
266
  0
VERTEX
  8
_0-0_
 10
118
 20
266
  0
VERTEX
  8
_0-0_
 10
118
 20
266
  0
VERTEX
  8
_0-0_
 10
118
 20
265
  0
VERTEX
  8
_0-0_
 10
118
 20
265
  0
VERTEX
  8
_0-0_
 10
117
 20
265
  0
VERTEX
  8
_0-0_
 10
116
 20
265
  0
VERTEX
  8
_0-0_
 10
116
 20
264
  0
VERTEX
  8
_0-0_
 10
116
 20
264
  0
VERTEX
  8
_0-0_
 10
115
 20
264
  0
VERTEX
  8
_0-0_
 10
114
 20
264
  0
VERTEX
  8
_0-0_
 10
114
 20
263
  0
VERTEX
  8
_0-0_
 10
114
 20
263
  0
VERTEX
  8
_0-0_
 10
113
 20
263
  0
VERTEX
  8
_0-0_
 10
113
 20
263
  0
VERTEX
  8
_0-0_
 10
113
 20
262
  0
VERTEX
  8
_0-0_
 10
113
 20
262
  0
SEQEND
  8
A
  0
POLYLINE
  8
_0-0_
 66
     1
 40
0.000000
 41
0.000000
  0
VERTEX
  8
_0-0_
 10
114
 20
135
  0
VERTEX
  8
_0-0_
 10
114
 20
135
  0
VERTEX
  8
_0-0_
 10
114
 20
134
  0
VERTEX
  8
_0-0_
 10
114
 20
134
  0
VERTEX
  8
_0-0_
 10
114
 20
135
  0
VERTEX
  8
_0-0_
 10
114
 20
135
  0
VERTEX
  8
_0-0_
 10
114
 20
134
  0
VERTEX
  8
_0-0_
 10
114
 20
134
  0
SEQEND
  8
A
  0
POINT
  8
_0-0_
 62
    7
 10
114
 20
113
  0
POLYLINE
  8
_0-0_
 66
     1
 40
0.000000
 41
0.000000
  0
VERTEX
  8
_0-0_
 10
115
 20
52
  0
VERTEX
  8
_0-0_
 10
115
 20
52
  0
VERTEX
  8
_0-0_
 10
116
 20
52
  0
VERTEX
  8
_0-0_
 10
117
 20
52
  0
VERTEX
  8
_0-0_
 10
117
 20
51
  0
VERTEX
  8
_0-0_
 10
117
 20
51
  0
VERTEX
  8
_0-0_
 10
118
 20
52
  0
VERTEX
  8
_0-0_
 10
118
 20
52
  0
VERTEX
  8
_0-0_
 10
119
 20
52
  0
VERTEX
  8
_0-0_
 10
119
 20
52
  0
VERTEX
  8
_0-0_
 10
119
 20
53
  0
VERTEX
  8
_0-0_
 10
119
 20
53
  0
VERTEX
  8
_0-0_
 10
118
 20
53
  0
VERTEX
  8
_0-0_
 10
116
 20
53
  0
VERTEX
  8
_0-0_
 10
116
 20
52
  0
VERTEX
  8
_0-0_
 10
116
 20
52
  0
VERTEX
  8
_0-0_
 10
115
 20
52
  0
VERTEX
  8
_0-0_
 10
115
 20
52
  0
SEQEND
  8
A
  0
POLYLINE
  8
_0-0_
 66
     1
 40
0.000000
 41
0.000000
  0
VERTEX
  8
_0-0_
 10
116
 20
101
  0
VERTEX
  8
_0-0_
 10
116
 20
101
  0
VERTEX
  8
_0-0_
 10
117
 20
101
  0
VERTEX
  8
_0-0_
 10
117
 20
101
  0
VERTEX
  8
_0-0_
 10
116
 20
101
  0
VERTEX
  8
_0-0_
 10
116
 20
101
  0
VERTEX
  8
_0-0_
 10
117
 20
101
  0
VERTEX
  8
_0-0_
 10
117
 20
101
  0
SEQEND
  8
A
  0
POINT
  8
_0-0_
 62
    7
 10
117
 20
291
  0
POLYLINE
  8
_0-0_
 66
     1
 40
0.000000
 41
0.000000
  0
VERTEX
  8
_0-0_
 10
118
 20
299
  0
VERTEX
  8
_0-0_
 10
118
 20
299
  0
VERTEX
  8
_0-0_
 10
119
 20
299
  0
VERTEX
  8
_0-0_
 10
119
 20
299
  0
VERTEX
  8
_0-0_
 10
119
 20
300
  0
VERTEX
  8
_0-0_
 10
119
 20
300
  0
VERTEX
  8
_0-0_
 10
119
 20
299
  0
VERTEX
  8
_0-0_
 10
119
 20
299
  0
VERTEX
  8
_0-0_
 10
118
 20
299
  0
VERTEX
  8
_0-0_
 10
118
 20
299
  0
SEQEND
  8
A
  0
POLYLINE
  8
_0-0_
 66
     1
 40
0.000000
 41
0.000000
  0
VERTEX
  8
_0-0_
 10
118
 20
49
  0
VERTEX
  8
_0-0_
 10
118
 20
49
  0
VERTEX
  8
_0-0_
 10
119
 20
49
  0
VERTEX
  8
_0-0_
 10
119
 20
49
  0
VERTEX
  8
_0-0_
 10
118
 20
49
  0
VERTEX
  8
_0-0_
 10
118
 20
49
  0
VERTEX
  8
_0-0_
 10
119
 20
49
  0
VERTEX
  8
_0-0_
 10
119
 20
49
  0
SEQEND
  8
A
  0
POINT
  8
_0-0_
 62
    7
 10
119
 20
166
  0
POLYLINE
  8
_0-0_
 66
     1
 40
0.000000
 41
0.000000
  0
VERTEX
  8
_0-0_
 10
120
 20
300
  0
VERTEX
  8
_0-0_
 10
120
 20
300
  0
VERTEX
  8
_0-0_
 10
121
 20
300
  0
VERTEX
  8
_0-0_
 10
121
 20
300
  0
VERTEX
  8
_0-0_
 10
120
 20
300
  0
VERTEX
  8
_0-0_
 10
120
 20
300
  0
VERTEX
  8
_0-0_
 10
121
 20
300
  0
VERTEX
  8
_0-0_
 10
121
 20
300
  0
SEQEND
  8
A
  0
POLYLINE
  8
_0-0_
 66
     1
 40
0.000000
 41
0.000000
  0
VERTEX
  8
_0-0_
 10
121
 20
263
  0
VERTEX
  8
_0-0_
 10
121
 20
263
  0
VERTEX
  8
_0-0_
 10
122
 20
264
  0
VERTEX
  8
_0-0_
 10
122
 20
264
  0
VERTEX
  8
_0-0_
 10
121
 20
263
  0
VERTEX
  8
_0-0_
 10
121
 20
263
  0
VERTEX
  8
_0-0_
 10
122
 20
264
  0
VERTEX
  8
_0-0_
 10
122
 20
264
  0
SEQEND
  8
A
  0
POLYLINE
  8
_0-0_
 66
     1
 40
0.000000
 41
0.000000
  0
VERTEX
  8
_0-0_
 10
122
 20
150
  0
VERTEX
  8
_0-0_
 10
122
 20
150
  0
VERTEX
  8
_0-0_
 10
122
 20
149
  0
VERTEX
  8
_0-0_
 10
122
 20
148
  0
VERTEX
  8
_0-0_
 10
123
 20
148
  0
VERTEX
  8
_0-0_
 10
124
 20
148
  0
VERTEX
  8
_0-0_
 10
124
 20
149
  0
VERTEX
  8
_0-0_
 10
124
 20
150
  0
VERTEX
  8
_0-0_
 10
123
 20
150
  0
VERTEX
  8
_0-0_
 10
122
 20
150
  0
VERTEX
  8
_0-0_
 10
122
 20
149
  0
VERTEX
  8
_0-0_
 10
122
 20
149
  0
SEQEND
  8
A
  0
POLYLINE
  8
_0-0_
 66
     1
 40
0.000000
 41
0.000000
  0
VERTEX
  8
_0-0_
 10
122
 20
29
  0
VERTEX
  8
_0-0_
 10
122
 20
29
  0
VERTEX
  8
_0-0_
 10
123
 20
29
  0
VERTEX
  8
_0-0_
 10
124
 20
29
  0
VERTEX
  8
_0-0_
 10
124
 20
30
  0
VERTEX
  8
_0-0_
 10
124
 20
30
  0
VERTEX
  8
_0-0_
 10
125
 20
30
  0
VERTEX
  8
_0-0_
 10
127
 20
30
  0
VERTEX
  8
_0-0_
 10
127
 20
31
  0
VERTEX
  8
_0-0_
 10
127
 20
31
  0
VERTEX
  8
_0-0_
 10
128
 20
31
  0
VERTEX
  8
_0-0_
 10
129
 20
31
  0
VERTEX
  8
_0-0_
 10
129
 20
30
  0
VERTEX
  8
_0-0_
 10
129
 20
23
  0
VERTEX
  8
_0-0_
 10
128
 20
23
  0
VERTEX
  8
_0-0_
 10
128
 20
23
  0
VERTEX
  8
_0-0_
 10
128
 20
22
  0
VERTEX
  8
_0-0_
 10
128
 20
22
  0
VERTEX
  8
_0-0_
 10
127
 20
22
  0
VERTEX
  8
_0-0_
 10
127
 20
22
  0
VERTEX
  8
_0-0_
 10
127
 20
21
  0
VERTEX
  8
_0-0_
 10
127
 20
21
  0
VERTEX
  8
_0-0_
 10
126
 20
21
  0
VERTEX
  8
_0-0_
 10
126
 20
21
  0
VERTEX
  8
_0-0_
 10
126
 20
20
  0
VERTEX
  8
_0-0_
 10
126
 20
16
  0
VERTEX
  8
_0-0_
 10
127
 20
16
  0
VERTEX
  8
_0-0_
 10
127
 20
16
  0
VERTEX
  8
_0-0_
 10
127
 20
15
  0
VERTEX
  8
_0-0_
 10
127
 20
14
  0
VERTEX
  8
_0-0_
 10
128
 20
14
  0
VERTEX
  8
_0-0_
 10
128
 20
14
  0
VERTEX
  8
_0-0_
 10
128
 20
13
  0
VERTEX
  8
_0-0_
 10
128
 20
13
  0
VERTEX
  8
_0-0_
 10
129
 20
13
  0
VERTEX
  8
_0-0_
 10
129
 20
13
  0
VERTEX
  8
_0-0_
 10
129
 20
12
  0
VERTEX
  8
_0-0_
 10
129
 20
12
  0
VERTEX
  8
_0-0_
 10
130
 20
12
  0
VERTEX
  8
_0-0_
 10
130
 20
12
  0
VERTEX
  8
_0-0_
 10
130
 20
11
  0
VERTEX
  8
_0-0_
 10
130
 20
4
  0
VERTEX
  8
_0-0_
 10
131
 20
4
  0
VERTEX
  8
_0-0_
 10
132
 20
4
  0
VERTEX
  8
_0-0_
 10
132
 20
3
  0
VERTEX
  8
_0-0_
 10
132
 20
2
  0
VERTEX
  8
_0-0_
 10
133
 20
2
  0
VERTEX
  8
_0-0_
 10
133
 20
2
  0
VERTEX
  8
_0-0_
 10
133
 20
1
  0
SEQEND
  8
A
  0
POLYLINE
  8
_0-0_
 66
     1
 40
0.000000
 41
0.000000
  0
VERTEX
  8
_0-0_
 10
123
 20
132
  0
VERTEX
  8
_0-0_
 10
123
 20
132
  0
VERTEX
  8
_0-0_
 10
123
 20
131
  0
VERTEX
  8
_0-0_
 10
123
 20
130
  0
VERTEX
  8
_0-0_
 10
124
 20
130
  0
VERTEX
  8
_0-0_
 10
124
 20
130
  0
VERTEX
  8
_0-0_
 10
124
 20
129
  0
VERTEX
  8
_0-0_
 10
124
 20
127
  0
VERTEX
  8
_0-0_
 10
125
 20
127
  0
VERTEX
  8
_0-0_
 10
125
 20
127
  0
SEQEND
  8
A
  0
POLYLINE
  8
_0-0_
 66
     1
 40
0.000000
 41
0.000000
  0
VERTEX
  8
_0-0_
 10
123
 20
131
  0
VERTEX
  8
_0-0_
 10
123
 20
131
  0
VERTEX
  8
_0-0_
 10
123
 20
132
  0
VERTEX
  8
_0-0_
 10
123
 20
132
  0
VERTEX
  8
_0-0_
 10
123
 20
131
  0
VERTEX
  8
_0-0_
 10
123
 20
131
  0
VERTEX
  8
_0-0_
 10
123
 20
132
  0
VERTEX
  8
_0-0_
 10
123
 20
132
  0
VERTEX
  8
_0-0_
 10
124
 20
132
  0
VERTEX
  8
_0-0_
 10
124
 20
132
  0
VERTEX
  8
_0-0_
 10
124
 20
133
  0
VERTEX
  8
_0-0_
 10
124
 20
133
  0
VERTEX
  8
_0-0_
 10
125
 20
133
  0
VERTEX
  8
_0-0_
 10
127
 20
133
  0
VERTEX
  8
_0-0_
 10
127
 20
132
  0
VERTEX
  8
_0-0_
 10
127
 20
132
  0
VERTEX
  8
_0-0_
 10
128
 20
132
  0
VERTEX
  8
_0-0_
 10
128
 20
132
  0
VERTEX
  8
_0-0_
 10
128
 20
131
  0
VERTEX
  8
_0-0_
 10
128
 20
129
  0
VERTEX
  8
_0-0_
 10
129
 20
129
  0
VERTEX
  8
_0-0_
 10
129
 20
129
  0
VERTEX
  8
_0-0_
 10
129
 20
128
  0
VERTEX
  8
_0-0_
 10
129
 20
126
  0
VERTEX
  8
_0-0_
 10
128
 20
126
  0
VERTEX
  8
_0-0_
 10
128
 20
126
  0
VERTEX
  8
_0-0_
 10
128
 20
125
  0
VERTEX
  8
_0-0_
 10
128
 20
125
  0
VERTEX
  8
_0-0_
 10
127
 20
125
  0
VERTEX
  8
_0-0_
 10
127
 20
125
  0
VERTEX
  8
_0-0_
 10
127
 20
124
  0
VERTEX
  8
_0-0_
 10
127
 20
124
  0
VERTEX
  8
_0-0_
 10
126
 20
124
  0
VERTEX
  8
_0-0_
 10
123
 20
124
  0
VERTEX
  8
_0-0_
 10
123
 20
125
  0
VERTEX
  8
_0-0_
 10
123
 20
127
  0
SEQEND
  8
A
  0
POLYLINE
  8
_0-0_
 66
     1
 40
0.000000
 41
0.000000
  0
VERTEX
  8
_0-0_
 10
123
 20
29
  0
VERTEX
  8
_0-0_
 10
123
 20
29
  0
VERTEX
  8
_0-0_
 10
122
 20
29
  0
VERTEX
  8
_0-0_
 10
122
 20
29
  0
VERTEX
  8
_0-0_
 10
123
 20
29
  0
VERTEX
  8
_0-0_
 10
123
 20
29
  0
VERTEX
  8
_0-0_
 10
122
 20
29
  0
VERTEX
  8
_0-0_
 10
122
 20
29
  0
SEQEND
  8
A
  0
POLYLINE
  8
_0-0_
 66
     1
 40
0.000000
 41
0.000000
  0
VERTEX
  8
_0-0_
 10
124
 20
258
  0
VERTEX
  8
_0-0_
 10
124
 20
258
  0
VERTEX
  8
_0-0_
 10
125
 20
257
  0
VERTEX
  8
_0-0_
 10
125
 20
257
  0
VERTEX
  8
_0-0_
 10
124
 20
258
  0
VERTEX
  8
_0-0_
 10
124
 20
258
  0
VERTEX
  8
_0-0_
 10
125
 20
257
  0
VERTEX
  8
_0-0_
 10
125
 20
257
  0
SEQEND
  8
A
  0
POLYLINE
  8
_0-0_
 66
     1
 40
0.000000
 41
0.000000
  0
VERTEX
  8
_0-0_
 10
125
 20
129
  0
VERTEX
  8
_0-0_
 10
125
 20
129
  0
VERTEX
  8
_0-0_
 10
126
 20
129
  0
VERTEX
  8
_0-0_
 10
126
 20
129
  0
VERTEX
  8
_0-0_
 10
125
 20
129
  0
VERTEX
  8
_0-0_
 10
125
 20
129
  0
VERTEX
  8
_0-0_
 10
126
 20
129
  0
VERTEX
  8
_0-0_
 10
126
 20
129
  0
SEQEND
  8
A
  0
POINT
  8
_0-0_
 62
    7
 10
125
 20
18
  0
POLYLINE
  8
_0-0_
 66
     1
 40
0.000000
 41
0.000000
  0
VERTEX
  8
_0-0_
 10
127
 20
152
  0
VERTEX
  8
_0-0_
 10
127
 20
152
  0
VERTEX
  8
_0-0_
 10
127
 20
151
  0
VERTEX
  8
_0-0_
 10
127
 20
150
  0
VERTEX
  8
_0-0_
 10
128
 20
150
  0
VERTEX
  8
_0-0_
 10
128
 20
150
  0
VERTEX
  8
_0-0_
 10
128
 20
149
  0
VERTEX
  8
_0-0_
 10
128
 20
141
  0
VERTEX
  8
_0-0_
 10
127
 20
141
  0
VERTEX
  8
_0-0_
 10
127
 20
141
  0
VERTEX
  8
_0-0_
 10
127
 20
140
  0
VERTEX
  8
_0-0_
 10
127
 20
138
  0
VERTEX
  8
_0-0_
 10
128
 20
138
  0
VERTEX
  8
_0-0_
 10
141
 20
138
  0
VERTEX
  8
_0-0_
 10
141
 20
139
  0
VERTEX
  8
_0-0_
 10
141
 20
149
  0
VERTEX
  8
_0-0_
 10
140
 20
149
  0
VERTEX
  8
_0-0_
 10
140
 20
149
  0
VERTEX
  8
_0-0_
 10
140
 20
150
  0
VERTEX
  8
_0-0_
 10
140
 20
151
  0
VERTEX
  8
_0-0_
 10
141
 20
151
  0
VERTEX
  8
_0-0_
 10
141
 20
151
  0
VERTEX
  8
_0-0_
 10
141
 20
152
  0
VERTEX
  8
_0-0_
 10
141
 20
198
  0
VERTEX
  8
_0-0_
 10
142
 20
198
  0
VERTEX
  8
_0-0_
 10
142
 20
198
  0
VERTEX
  8
_0-0_
 10
142
 20
199
  0
VERTEX
  8
_0-0_
 10
142
 20
242
  0
VERTEX
  8
_0-0_
 10
141
 20
242
  0
VERTEX
  8
_0-0_
 10
140
 20
242
  0
VERTEX
  8
_0-0_
 10
140
 20
241
  0
VERTEX
  8
_0-0_
 10
140
 20
240
  0
VERTEX
  8
_0-0_
 10
139
 20
240
  0
VERTEX
  8
_0-0_
 10
139
 20
240
  0
VERTEX
  8
_0-0_
 10
139
 20
239
  0
VERTEX
  8
_0-0_
 10
139
 20
237
  0
VERTEX
  8
_0-0_
 10
138
 20
237
  0
VERTEX
  8
_0-0_
 10
138
 20
237
  0
VERTEX
  8
_0-0_
 10
138
 20
236
  0
VERTEX
  8
_0-0_
 10
138
 20
235
  0
VERTEX
  8
_0-0_
 10
137
 20
235
  0
VERTEX
  8
_0-0_
 10
137
 20
235
  0
VERTEX
  8
_0-0_
 10
137
 20
234
  0
VERTEX
  8
_0-0_
 10
137
 20
232
  0
VERTEX
  8
_0-0_
 10
136
 20
232
  0
VERTEX
  8
_0-0_
 10
136
 20
232
  0
VERTEX
  8
_0-0_
 10
136
 20
231
  0
VERTEX
  8
_0-0_
 10
136
 20
231
  0
VERTEX
  8
_0-0_
 10
135
 20
231
  0
VERTEX
  8
_0-0_
 10
135
 20
231
  0
VERTEX
  8
_0-0_
 10
135
 20
230
  0
VERTEX
  8
_0-0_
 10
135
 20
230
  0
SEQEND
  8
A
  0
POLYLINE
  8
_0-0_
 66
     1
 40
0.000000
 41
0.000000
  0
VERTEX
  8
_0-0_
 10
127
 20
151
  0
VERTEX
  8
_0-0_
 10
127
 20
151
  0
VERTEX
  8
_0-0_
 10
127
 20
152
  0
VERTEX
  8
_0-0_
 10
127
 20
152
  0
VERTEX
  8
_0-0_
 10
127
 20
151
  0
VERTEX
  8
_0-0_
 10
127
 20
151
  0
VERTEX
  8
_0-0_
 10
127
 20
152
  0
VERTEX
  8
_0-0_
 10
127
 20
152
  0
VERTEX
  8
_0-0_
 10
128
 20
152
  0
VERTEX
  8
_0-0_
 10
128
 20
152
  0
VERTEX
  8
_0-0_
 10
128
 20
153
  0
VERTEX
  8
_0-0_
 10
128
 20
214
  0
VERTEX
  8
_0-0_
 10
129
 20
214
  0
VERTEX
  8
_0-0_
 10
129
 20
214
  0
VERTEX
  8
_0-0_
 10
129
 20
215
  0
VERTEX
  8
_0-0_
 10
129
 20
244
  0
VERTEX
  8
_0-0_
 10
130
 20
244
  0
VERTEX
  8
_0-0_
 10
131
 20
244
  0
VERTEX
  8
_0-0_
 10
131
 20
243
  0
VERTEX
  8
_0-0_
 10
131
 20
242
  0
VERTEX
  8
_0-0_
 10
132
 20
242
  0
VERTEX
  8
_0-0_
 10
132
 20
242
  0
VERTEX
  8
_0-0_
 10
132
 20
241
  0
VERTEX
  8
_0-0_
 10
132
 20
239
  0
VERTEX
  8
_0-0_
 10
133
 20
239
  0
VERTEX
  8
_0-0_
 10
133
 20
239
  0
VERTEX
  8
_0-0_
 10
133
 20
238
  0
VERTEX
  8
_0-0_
 10
133
 20
236
  0
VERTEX
  8
_0-0_
 10
134
 20
236
  0
VERTEX
  8
_0-0_
 10
134
 20
236
  0
VERTEX
  8
_0-0_
 10
134
 20
235
  0
VERTEX
  8
_0-0_
 10
134
 20
233
  0
VERTEX
  8
_0-0_
 10
135
 20
233
  0
VERTEX
  8
_0-0_
 10
135
 20
233
  0
VERTEX
  8
_0-0_
 10
135
 20
232
  0
VERTEX
  8
_0-0_
 10
135
 20
232
  0
SEQEND
  8
A
  0
POLYLINE
  8
_0-0_
 66
     1
 40
0.000000
 41
0.000000
  0
VERTEX
  8
_0-0_
 10
129
 20
148
  0
VERTEX
  8
_0-0_
 10
129
 20
148
  0
VERTEX
  8
_0-0_
 10
130
 20
149
  0
VERTEX
  8
_0-0_
 10
130
 20
149
  0
VERTEX
  8
_0-0_
 10
131
 20
149
  0
VERTEX
  8
_0-0_
 10
131
 20
149
  0
VERTEX
  8
_0-0_
 10
131
 20
150
  0
VERTEX
  8
_0-0_
 10
131
 20
150
  0
VERTEX
  8
_0-0_
 10
132
 20
150
  0
VERTEX
  8
_0-0_
 10
134
 20
150
  0
VERTEX
  8
_0-0_
 10
134
 20
151
  0
VERTEX
  8
_0-0_
 10
134
 20
151
  0
VERTEX
  8
_0-0_
 10
135
 20
151
  0
VERTEX
  8
_0-0_
 10
137
 20
151
  0
VERTEX
  8
_0-0_
 10
137
 20
150
  0
VERTEX
  8
_0-0_
 10
137
 20
150
  0
VERTEX
  8
_0-0_
 10
138
 20
150
  0
VERTEX
  8
_0-0_
 10
139
 20
150
  0
VERTEX
  8
_0-0_
 10
139
 20
151
  0
VERTEX
  8
_0-0_
 10
139
 20
151
  0
VERTEX
  8
_0-0_
 10
138
 20
151
  0
VERTEX
  8
_0-0_
 10
138
 20
151
  0
SEQEND
  8
A
  0
POINT
  8
_0-0_
 62
    7
 10
129
 20
10
  0
POINT
  8
_0-0_
 62
    7
 10
129
 20
7
  0
POLYLINE
  8
_0-0_
 66
     1
 40
0.000000
 41
0.000000
  0
VERTEX
  8
_0-0_
 10
130
 20
150
  0
VERTEX
  8
_0-0_
 10
130
 20
150
  0
VERTEX
  8
_0-0_
 10
130
 20
149
  0
VERTEX
  8
_0-0_
 10
130
 20
149
  0
VERTEX
  8
_0-0_
 10
130
 20
150
  0
VERTEX
  8
_0-0_
 10
130
 20
150
  0
VERTEX
  8
_0-0_
 10
130
 20
149
  0
VERTEX
  8
_0-0_
 10
130
 20
149
  0
VERTEX
  8
_0-0_
 10
129
 20
148
  0
VERTEX
  8
_0-0_
 10
129
 20
148
  0
SEQEND
  8
A
  0
POLYLINE
  8
_0-0_
 66
     1
 40
0.000000
 41
0.000000
  0
VERTEX
  8
_0-0_
 10
130
 20
123
  0
VERTEX
  8
_0-0_
 10
130
 20
123
  0
VERTEX
  8
_0-0_
 10
130
 20
122
  0
VERTEX
  8
_0-0_
 10
130
 20
121
  0
VERTEX
  8
_0-0_
 10
131
 20
121
  0
VERTEX
  8
_0-0_
 10
132
 20
121
  0
VERTEX
  8
_0-0_
 10
132
 20
122
  0
VERTEX
  8
_0-0_
 10
132
 20
123
  0
VERTEX
  8
_0-0_
 10
133
 20
123
  0
VERTEX
  8
_0-0_
 10
134
 20
123
  0
VERTEX
  8
_0-0_
 10
134
 20
122
  0
VERTEX
  8
_0-0_
 10
134
 20
122
  0
VERTEX
  8
_0-0_
 10
135
 20
122
  0
VERTEX
  8
_0-0_
 10
135
 20
122
  0
VERTEX
  8
_0-0_
 10
135
 20
121
  0
VERTEX
  8
_0-0_
 10
135
 20
120
  0
VERTEX
  8
_0-0_
 10
136
 20
120
  0
VERTEX
  8
_0-0_
 10
138
 20
120
  0
VERTEX
  8
_0-0_
 10
138
 20
121
  0
VERTEX
  8
_0-0_
 10
138
 20
122
  0
VERTEX
  8
_0-0_
 10
137
 20
122
  0
VERTEX
  8
_0-0_
 10
137
 20
122
  0
VERTEX
  8
_0-0_
 10
137
 20
123
  0
VERTEX
  8
_0-0_
 10
137
 20
123
  0
VERTEX
  8
_0-0_
 10
136
 20
123
  0
VERTEX
  8
_0-0_
 10
136
 20
123
  0
VERTEX
  8
_0-0_
 10
136
 20
124
  0
VERTEX
  8
_0-0_
 10
136
 20
124
  0
VERTEX
  8
_0-0_
 10
135
 20
124
  0
VERTEX
  8
_0-0_
 10
133
 20
124
  0
VERTEX
  8
_0-0_
 10
133
 20
125
  0
VERTEX
  8
_0-0_
 10
133
 20
125
  0
VERTEX
  8
_0-0_
 10
132
 20
125
  0
VERTEX
  8
_0-0_
 10
131
 20
125
  0
VERTEX
  8
_0-0_
 10
131
 20
124
  0
VERTEX
  8
_0-0_
 10
131
 20
123
  0
VERTEX
  8
_0-0_
 10
130
 20
123
  0
VERTEX
  8
_0-0_
 10
130
 20
123
  0
VERTEX
  8
_0-0_
 10
130
 20
122
  0
VERTEX
  8
_0-0_
 10
130
 20
122
  0
SEQEND
  8
A
  0
POLYLINE
  8
_0-0_
 66
     1
 40
0.000000
 41
0.000000
  0
VERTEX
  8
_0-0_
 10
130
 20
117
  0
VERTEX
  8
_0-0_
 10
130
 20
117
  0
VERTEX
  8
_0-0_
 10
130
 20
116
  0
VERTEX
  8
_0-0_
 10
130
 20
112
  0
VERTEX
  8
_0-0_
 10
131
 20
112
  0
VERTEX
  8
_0-0_
 10
131
 20
112
  0
VERTEX
  8
_0-0_
 10
131
 20
111
  0
VERTEX
  8
_0-0_
 10
131
 20
110
  0
VERTEX
  8
_0-0_
 10
132
 20
110
  0
VERTEX
  8
_0-0_
 10
132
 20
110
  0
VERTEX
  8
_0-0_
 10
132
 20
109
  0
VERTEX
  8
_0-0_
 10
132
 20
108
  0
VERTEX
  8
_0-0_
 10
133
 20
108
  0
VERTEX
  8
_0-0_
 10
134
 20
108
  0
VERTEX
  8
_0-0_
 10
134
 20
109
  0
VERTEX
  8
_0-0_
 10
134
 20
111
  0
VERTEX
  8
_0-0_
 10
135
 20
111
  0
VERTEX
  8
_0-0_
 10
137
 20
111
  0
VERTEX
  8
_0-0_
 10
137
 20
112
  0
VERTEX
  8
_0-0_
 10
137
 20
114
  0
VERTEX
  8
_0-0_
 10
138
 20
114
  0
VERTEX
  8
_0-0_
 10
138
 20
114
  0
VERTEX
  8
_0-0_
 10
138
 20
115
  0
VERTEX
  8
_0-0_
 10
138
 20
116
  0
VERTEX
  8
_0-0_
 10
137
 20
116
  0
VERTEX
  8
_0-0_
 10
137
 20
116
  0
VERTEX
  8
_0-0_
 10
137
 20
117
  0
VERTEX
  8
_0-0_
 10
137
 20
117
  0
VERTEX
  8
_0-0_
 10
136
 20
117
  0
VERTEX
  8
_0-0_
 10
134
 20
117
  0
VERTEX
  8
_0-0_
 10
134
 20
116
  0
VERTEX
  8
_0-0_
 10
134
 20
114
  0
VERTEX
  8
_0-0_
 10
135
 20
113
  0
VERTEX
  8
_0-0_
 10
135
 20
113
  0
VERTEX
  8
_0-0_
 10
135
 20
112
  0
VERTEX
  8
_0-0_
 10
135
 20
112
  0
VERTEX
  8
_0-0_
 10
134
 20
112
  0
VERTEX
  8
_0-0_
 10
134
 20
112
  0
VERTEX
  8
_0-0_
 10
133
 20
113
  0
VERTEX
  8
_0-0_
 10
133
 20
113
  0
VERTEX
  8
_0-0_
 10
132
 20
112
  0
VERTEX
  8
_0-0_
 10
132
 20
112
  0
SEQEND
  8
A
  0
POLYLINE
  8
_0-0_
 66
     1
 40
0.000000
 41
0.000000
  0
VERTEX
  8
_0-0_
 10
130
 20
116
  0
VERTEX
  8
_0-0_
 10
130
 20
116
  0
VERTEX
  8
_0-0_
 10
130
 20
117
  0
VERTEX
  8
_0-0_
 10
130
 20
117
  0
VERTEX
  8
_0-0_
 10
130
 20
116
  0
VERTEX
  8
_0-0_
 10
130
 20
116
  0
VERTEX
  8
_0-0_
 10
130
 20
117
  0
VERTEX
  8
_0-0_
 10
130
 20
117
  0
VERTEX
  8
_0-0_
 10
131
 20
117
  0
VERTEX
  8
_0-0_
 10
133
 20
117
  0
VERTEX
  8
_0-0_
 10
133
 20
116
  0
VERTEX
  8
_0-0_
 10
133
 20
116
  0
SEQEND
  8
A
  0
POLYLINE
  8
_0-0_
 66
     1
 40
0.000000
 41
0.000000
  0
VERTEX
  8
_0-0_
 10
131
 20
275
  0
VERTEX
  8
_0-0_
 10
131
 20
275
  0
VERTEX
  8
_0-0_
 10
131
 20
274
  0
VERTEX
  8
_0-0_
 10
131
 20
271
  0
VERTEX
  8
_0-0_
 10
132
 20
271
  0
VERTEX
  8
_0-0_
 10
132
 20
271
  0
VERTEX
  8
_0-0_
 10
132
 20
270
  0
VERTEX
  8
_0-0_
 10
132
 20
270
  0
VERTEX
  8
_0-0_
 10
133
 20
270
  0
VERTEX
  8
_0-0_
 10
134
 20
270
  0
VERTEX
  8
_0-0_
 10
134
 20
271
  0
VERTEX
  8
_0-0_
 10
134
 20
275
  0
VERTEX
  8
_0-0_
 10
133
 20
275
  0
VERTEX
  8
_0-0_
 10
131
 20
275
  0
VERTEX
  8
_0-0_
 10
131
 20
274
  0
VERTEX
  8
_0-0_
 10
131
 20
274
  0
SEQEND
  8
A
  0
POLYLINE
  8
_0-0_
 66
     1
 40
0.000000
 41
0.000000
  0
VERTEX
  8
_0-0_
 10
131
 20
134
  0
VERTEX
  8
_0-0_
 10
131
 20
134
  0
VERTEX
  8
_0-0_
 10
131
 20
133
  0
VERTEX
  8
_0-0_
 10
131
 20
131
  0
VERTEX
  8
_0-0_
 10
132
 20
131
  0
VERTEX
  8
_0-0_
 10
134
 20
131
  0
VERTEX
  8
_0-0_
 10
134
 20
130
  0
VERTEX
  8
_0-0_
 10
134
 20
129
  0
VERTEX
  8
_0-0_
 10
135
 20
129
  0
VERTEX
  8
_0-0_
 10
136
 20
129
  0
VERTEX
  8
_0-0_
 10
136
 20
130
  0
VERTEX
  8
_0-0_
 10
136
 20
131
  0
VERTEX
  8
_0-0_
 10
137
 20
131
  0
VERTEX
  8
_0-0_
 10
137
 20
131
  0
VERTEX
  8
_0-0_
 10
137
 20
132
  0
VERTEX
  8
_0-0_
 10
137
 20
134
  0
VERTEX
  8
_0-0_
 10
136
 20
134
  0
VERTEX
  8
_0-0_
 10
135
 20
134
  0
VERTEX
  8
_0-0_
 10
135
 20
133
  0
VERTEX
  8
_0-0_
 10
135
 20
132
  0
VERTEX
  8
_0-0_
 10
134
 20
132
  0
VERTEX
  8
_0-0_
 10
134
 20
132
  0
VERTEX
  8
_0-0_
 10
134
 20
133
  0
VERTEX
  8
_0-0_
 10
134
 20
134
  0
VERTEX
  8
_0-0_
 10
133
 20
134
  0
VERTEX
  8
_0-0_
 10
131
 20
134
  0
VERTEX
  8
_0-0_
 10
131
 20
133
  0
VERTEX
  8
_0-0_
 10
131
 20
133
  0
SEQEND
  8
A
  0
POINT
  8
_0-0_
 62
    7
 10
131
 20
2
  0
POLYLINE
  8
_0-0_
 66
     1
 40
0.000000
 41
0.000000
  0
VERTEX
  8
_0-0_
 10
132
 20
151
  0
VERTEX
  8
_0-0_
 10
132
 20
151
  0
VERTEX
  8
_0-0_
 10
133
 20
151
  0
VERTEX
  8
_0-0_
 10
133
 20
151
  0
VERTEX
  8
_0-0_
 10
132
 20
151
  0
VERTEX
  8
_0-0_
 10
132
 20
151
  0
VERTEX
  8
_0-0_
 10
133
 20
151
  0
VERTEX
  8
_0-0_
 10
133
 20
151
  0
SEQEND
  8
A
  0
POINT
  8
_0-0_
 62
    7
 10
133
 20
110
  0
POLYLINE
  8
_0-0_
 66
     1
 40
0.000000
 41
0.000000
  0
VERTEX
  8
_0-0_
 10
134
 20
254
  0
VERTEX
  8
_0-0_
 10
134
 20
254
  0
VERTEX
  8
_0-0_
 10
134
 20
253
  0
VERTEX
  8
_0-0_
 10
134
 20
251
  0
VERTEX
  8
_0-0_
 10
135
 20
251
  0
VERTEX
  8
_0-0_
 10
135
 20
251
  0
VERTEX
  8
_0-0_
 10
135
 20
250
  0
VERTEX
  8
_0-0_
 10
135
 20
248
  0
VERTEX
  8
_0-0_
 10
136
 20
248
  0
VERTEX
  8
_0-0_
 10
137
 20
248
  0
VERTEX
  8
_0-0_
 10
137
 20
249
  0
VERTEX
  8
_0-0_
 10
137
 20
253
  0
VERTEX
  8
_0-0_
 10
136
 20
253
  0
VERTEX
  8
_0-0_
 10
136
 20
253
  0
VERTEX
  8
_0-0_
 10
136
 20
254
  0
VERTEX
  8
_0-0_
 10
136
 20
254
  0
VERTEX
  8
_0-0_
 10
135
 20
254
  0
VERTEX
  8
_0-0_
 10
134
 20
254
  0
VERTEX
  8
_0-0_
 10
134
 20
253
  0
VERTEX
  8
_0-0_
 10
134
 20
253
  0
SEQEND
  8
A
  0
POLYLINE
  8
_0-0_
 66
     1
 40
0.000000
 41
0.000000
  0
VERTEX
  8
_0-0_
 10
134
 20
3
  0
VERTEX
  8
_0-0_
 10
134
 20
3
  0
VERTEX
  8
_0-0_
 10
134
 20
2
  0
VERTEX
  8
_0-0_
 10
134
 20
2
  0
VERTEX
  8
_0-0_
 10
134
 20
3
  0
VERTEX
  8
_0-0_
 10
134
 20
3
  0
VERTEX
  8
_0-0_
 10
134
 20
2
  0
VERTEX
  8
_0-0_
 10
134
 20
2
  0
VERTEX
  8
_0-0_
 10
135
 20
3
  0
VERTEX
  8
_0-0_
 10
135
 20
3
  0
VERTEX
  8
_0-0_
 10
135
 20
4
  0
VERTEX
  8
_0-0_
 10
135
 20
4
  0
VERTEX
  8
_0-0_
 10
136
 20
4
  0
VERTEX
  8
_0-0_
 10
136
 20
4
  0
VERTEX
  8
_0-0_
 10
136
 20
5
  0
VERTEX
  8
_0-0_
 10
136
 20
5
  0
VERTEX
  8
_0-0_
 10
137
 20
5
  0
VERTEX
  8
_0-0_
 10
138
 20
5
  0
VERTEX
  8
_0-0_
 10
138
 20
6
  0
VERTEX
  8
_0-0_
 10
138
 20
6
  0
VERTEX
  8
_0-0_
 10
139
 20
6
  0
VERTEX
  8
_0-0_
 10
140
 20
6
  0
VERTEX
  8
_0-0_
 10
140
 20
5
  0
VERTEX
  8
_0-0_
 10
140
 20
5
  0
SEQEND
  8
A
  0
POLYLINE
  8
_0-0_
 66
     1
 40
0.000000
 41
0.000000
  0
VERTEX
  8
_0-0_
 10
135
 20
115
  0
VERTEX
  8
_0-0_
 10
135
 20
115
  0
VERTEX
  8
_0-0_
 10
136
 20
114
  0
VERTEX
  8
_0-0_
 10
136
 20
114
  0
VERTEX
  8
_0-0_
 10
135
 20
115
  0
VERTEX
  8
_0-0_
 10
135
 20
115
  0
VERTEX
  8
_0-0_
 10
136
 20
114
  0
VERTEX
  8
_0-0_
 10
136
 20
114
  0
SEQEND
  8
A
  0
POLYLINE
  8
_0-0_
 66
     1
 40
0.000000
 41
0.000000
  0
VERTEX
  8
_0-0_
 10
135
 20
13
  0
VERTEX
  8
_0-0_
 10
135
 20
13
  0
VERTEX
  8
_0-0_
 10
135
 20
12
  0
VERTEX
  8
_0-0_
 10
135
 20
5
  0
SEQEND
  8
A
  0
POLYLINE
  8
_0-0_
 66
     1
 40
0.000000
 41
0.000000
  0
VERTEX
  8
_0-0_
 10
135
 20
12
  0
VERTEX
  8
_0-0_
 10
135
 20
12
  0
VERTEX
  8
_0-0_
 10
135
 20
13
  0
VERTEX
  8
_0-0_
 10
135
 20
13
  0
VERTEX
  8
_0-0_
 10
135
 20
12
  0
VERTEX
  8
_0-0_
 10
135
 20
12
  0
VERTEX
  8
_0-0_
 10
135
 20
13
  0
VERTEX
  8
_0-0_
 10
135
 20
13
  0
VERTEX
  8
_0-0_
 10
136
 20
13
  0
VERTEX
  8
_0-0_
 10
136
 20
13
  0
VERTEX
  8
_0-0_
 10
136
 20
14
  0
VERTEX
  8
_0-0_
 10
136
 20
14
  0
VERTEX
  8
_0-0_
 10
137
 20
14
  0
VERTEX
  8
_0-0_
 10
137
 20
14
  0
VERTEX
  8
_0-0_
 10
137
 20
15
  0
VERTEX
  8
_0-0_
 10
137
 20
16
  0
VERTEX
  8
_0-0_
 10
138
 20
16
  0
VERTEX
  8
_0-0_
 10
138
 20
16
  0
VERTEX
  8
_0-0_
 10
138
 20
17
  0
VERTEX
  8
_0-0_
 10
138
 20
18
  0
VERTEX
  8
_0-0_
 10
139
 20
18
  0
VERTEX
  8
_0-0_
 10
139
 20
18
  0
VERTEX
  8
_0-0_
 10
139
 20
19
  0
VERTEX
  8
_0-0_
 10
139
 20
21
  0
VERTEX
  8
_0-0_
 10
138
 20
21
  0
VERTEX
  8
_0-0_
 10
138
 20
21
  0
VERTEX
  8
_0-0_
 10
138
 20
22
  0
VERTEX
  8
_0-0_
 10
138
 20
22
  0
VERTEX
  8
_0-0_
 10
137
 20
22
  0
VERTEX
  8
_0-0_
 10
137
 20
22
  0
VERTEX
  8
_0-0_
 10
137
 20
23
  0
VERTEX
  8
_0-0_
 10
137
 20
24
  0
VERTEX
  8
_0-0_
 10
136
 20
24
  0
VERTEX
  8
_0-0_
 10
136
 20
24
  0
VERTEX
  8
_0-0_
 10
136
 20
25
  0
VERTEX
  8
_0-0_
 10
136
 20
31
  0
VERTEX
  8
_0-0_
 10
137
 20
31
  0
VERTEX
  8
_0-0_
 10
139
 20
31
  0
VERTEX
  8
_0-0_
 10
139
 20
30
  0
VERTEX
  8
_0-0_
 10
139
 20
30
  0
VERTEX
  8
_0-0_
 10
140
 20
30
  0
VERTEX
  8
_0-0_
 10
142
 20
30
  0
VERTEX
  8
_0-0_
 10
142
 20
29
  0
VERTEX
  8
_0-0_
 10
142
 20
29
  0
VERTEX
  8
_0-0_
 10
143
 20
29
  0
VERTEX
  8
_0-0_
 10
145
 20
29
  0
VERTEX
  8
_0-0_
 10
145
 20
28
  0
VERTEX
  8
_0-0_
 10
145
 20
28
  0
SEQEND
  8
A
  0
POINT
  8
_0-0_
 62
    7
 10
136
 20
152
  0
POLYLINE
  8
_0-0_
 66
     1
 40
0.000000
 41
0.000000
  0
VERTEX
  8
_0-0_
 10
136
 20
7
  0
VERTEX
  8
_0-0_
 10
136
 20
7
  0
VERTEX
  8
_0-0_
 10
137
 20
6
  0
VERTEX
  8
_0-0_
 10
137
 20
6
  0
VERTEX
  8
_0-0_
 10
136
 20
7
  0
VERTEX
  8
_0-0_
 10
136
 20
7
  0
VERTEX
  8
_0-0_
 10
137
 20
6
  0
VERTEX
  8
_0-0_
 10
137
 20
6
  0
SEQEND
  8
A
  0
POLYLINE
  8
_0-0_
 66
     1
 40
0.000000
 41
0.000000
  0
VERTEX
  8
_0-0_
 10
137
 20
272
  0
VERTEX
  8
_0-0_
 10
137
 20
272
  0
VERTEX
  8
_0-0_
 10
137
 20
271
  0
VERTEX
  8
_0-0_
 10
137
 20
269
  0
VERTEX
  8
_0-0_
 10
138
 20
269
  0
VERTEX
  8
_0-0_
 10
138
 20
269
  0
VERTEX
  8
_0-0_
 10
138
 20
268
  0
VERTEX
  8
_0-0_
 10
138
 20
268
  0
VERTEX
  8
_0-0_
 10
139
 20
268
  0
VERTEX
  8
_0-0_
 10
141
 20
268
  0
VERTEX
  8
_0-0_
 10
141
 20
267
  0
VERTEX
  8
_0-0_
 10
141
 20
265
  0
VERTEX
  8
_0-0_
 10
140
 20
266
  0
VERTEX
  8
_0-0_
 10
140
 20
266
  0
VERTEX
  8
_0-0_
 10
139
 20
266
  0
VERTEX
  8
_0-0_
 10
139
 20
266
  0
VERTEX
  8
_0-0_
 10
139
 20
265
  0
VERTEX
  8
_0-0_
 10
139
 20
265
  0
VERTEX
  8
_0-0_
 10
138
 20
265
  0
VERTEX
  8
_0-0_
 10
138
 20
265
  0
VERTEX
  8
_0-0_
 10
138
 20
264
  0
VERTEX
  8
_0-0_
 10
138
 20
262
  0
VERTEX
  8
_0-0_
 10
139
 20
262
  0
VERTEX
  8
_0-0_
 10
140
 20
262
  0
VERTEX
  8
_0-0_
 10
140
 20
261
  0
VERTEX
  8
_0-0_
 10
140
 20
261
  0
VERTEX
  8
_0-0_
 10
141
 20
261
  0
VERTEX
  8
_0-0_
 10
142
 20
261
  0
VERTEX
  8
_0-0_
 10
142
 20
262
  0
VERTEX
  8
_0-0_
 10
142
 20
262
  0
VERTEX
  8
_0-0_
 10
143
 20
262
  0
VERTEX
  8
_0-0_
 10
143
 20
262
  0
VERTEX
  8
_0-0_
 10
143
 20
263
  0
VERTEX
  8
_0-0_
 10
143
 20
264
  0
VERTEX
  8
_0-0_
 10
144
 20
264
  0
VERTEX
  8
_0-0_
 10
144
 20
264
  0
VERTEX
  8
_0-0_
 10
144
 20
265
  0
VERTEX
  8
_0-0_
 10
144
 20
266
  0
VERTEX
  8
_0-0_
 10
145
 20
266
  0
VERTEX
  8
_0-0_
 10
145
 20
266
  0
VERTEX
  8
_0-0_
 10
145
 20
267
  0
VERTEX
  8
_0-0_
 10
145
 20
274
  0
VERTEX
  8
_0-0_
 10
144
 20
274
  0
VERTEX
  8
_0-0_
 10
144
 20
274
  0
VERTEX
  8
_0-0_
 10
144
 20
275
  0
VERTEX
  8
_0-0_
 10
144
 20
275
  0
VERTEX
  8
_0-0_
 10
143
 20
275
  0
VERTEX
  8
_0-0_
 10
143
 20
275
  0
VERTEX
  8
_0-0_
 10
143
 20
276
  0
VERTEX
  8
_0-0_
 10
143
 20
276
  0
VERTEX
  8
_0-0_
 10
142
 20
276
  0
VERTEX
  8
_0-0_
 10
142
 20
276
  0
VERTEX
  8
_0-0_
 10
142
 20
277
  0
VERTEX
  8
_0-0_
 10
142
 20
277
  0
VERTEX
  8
_0-0_
 10
141
 20
277
  0
VERTEX
  8
_0-0_
 10
139
 20
277
  0
VERTEX
  8
_0-0_
 10
139
 20
276
  0
VERTEX
  8
_0-0_
 10
139
 20
275
  0
VERTEX
  8
_0-0_
 10
138
 20
275
  0
VERTEX
  8
_0-0_
 10
138
 20
275
  0
VERTEX
  8
_0-0_
 10
138
 20
274
  0
VERTEX
  8
_0-0_
 10
138
 20
272
  0
VERTEX
  8
_0-0_
 10
137
 20
272
  0
VERTEX
  8
_0-0_
 10
137
 20
272
  0
VERTEX
  8
_0-0_
 10
137
 20
271
  0
VERTEX
  8
_0-0_
 10
137
 20
271
  0
SEQEND
  8
A
  0
POLYLINE
  8
_0-0_
 66
     1
 40
0.000000
 41
0.000000
  0
VERTEX
  8
_0-0_
 10
137
 20
55
  0
VERTEX
  8
_0-0_
 10
138
 20
46
  0
VERTEX
  8
_0-0_
 10
139
 20
42
  0
VERTEX
  8
_0-0_
 10
141
 20
41
  0
VERTEX
  8
_0-0_
 10
144
 20
42
  0
VERTEX
  8
_0-0_
 10
145
 20
43
  0
VERTEX
  8
_0-0_
 10
146
 20
46
  0
VERTEX
  8
_0-0_
 10
150
 20
50
  0
VERTEX
  8
_0-0_
 10
150
 20
52
  0
VERTEX
  8
_0-0_
 10
153
 20
51
  0
VERTEX
  8
_0-0_
 10
154
 20
56
  0
VERTEX
  8
_0-0_
 10
153
 20
91
  0
VERTEX
  8
_0-0_
 10
151
 20
100
  0
VERTEX
  8
_0-0_
 10
150
 20
101
  0
VERTEX
  8
_0-0_
 10
149
 20
105
  0
VERTEX
  8
_0-0_
 10
147
 20
106
  0
VERTEX
  8
_0-0_
 10
145
 20
107
  0
VERTEX
  8
_0-0_
 10
142
 20
106
  0
VERTEX
  8
_0-0_
 10
141
 20
104
  0
VERTEX
  8
_0-0_
 10
140
 20
103
  0
VERTEX
  8
_0-0_
 10
138
 20
102
  0
VERTEX
  8
_0-0_
 10
139
 20
100
  0
VERTEX
  8
_0-0_
 10
138
 20
70
  0
VERTEX
  8
_0-0_
 10
137
 20
54
  0
VERTEX
  8
_0-0_
 10
137
 20
54
  0
SEQEND
  8
A
  0
POLYLINE
  8
_0-0_
 66
     1
 40
0.000000
 41
0.000000
  0
VERTEX
  8
_0-0_
 10
139
 20
131
  0
VERTEX
  8
_0-0_
 10
139
 20
131
  0
VERTEX
  8
_0-0_
 10
139
 20
130
  0
VERTEX
  8
_0-0_
 10
139
 20
125
  0
VERTEX
  8
_0-0_
 10
140
 20
125
  0
VERTEX
  8
_0-0_
 10
140
 20
125
  0
VERTEX
  8
_0-0_
 10
140
 20
124
  0
VERTEX
  8
_0-0_
 10
140
 20
124
  0
VERTEX
  8
_0-0_
 10
141
 20
124
  0
VERTEX
  8
_0-0_
 10
144
 20
124
  0
VERTEX
  8
_0-0_
 10
144
 20
125
  0
VERTEX
  8
_0-0_
 10
144
 20
133
  0
VERTEX
  8
_0-0_
 10
143
 20
133
  0
VERTEX
  8
_0-0_
 10
142
 20
133
  0
VERTEX
  8
_0-0_
 10
142
 20
132
  0
VERTEX
  8
_0-0_
 10
142
 20
132
  0
VERTEX
  8
_0-0_
 10
141
 20
132
  0
VERTEX
  8
_0-0_
 10
140
 20
132
  0
VERTEX
  8
_0-0_
 10
140
 20
131
  0
VERTEX
  8
_0-0_
 10
140
 20
131
  0
VERTEX
  8
_0-0_
 10
139
 20
131
  0
VERTEX
  8
_0-0_
 10
139
 20
131
  0
VERTEX
  8
_0-0_
 10
139
 20
130
  0
VERTEX
  8
_0-0_
 10
139
 20
130
  0
SEQEND
  8
A
  0
POINT
  8
_0-0_
 62
    7
 10
139
 20
69
  0
POLYLINE
  8
_0-0_
 66
     1
 40
0.000000
 41
0.000000
  0
VERTEX
  8
_0-0_
 10
139
 20
7
  0
VERTEX
  8
_0-0_
 10
142
 20
8
  0
VERTEX
  8
_0-0_
 10
144
 20
9
  0
VERTEX
  8
_0-0_
 10
147
 20
10
  0
VERTEX
  8
_0-0_
 10
149
 20
12
  0
VERTEX
  8
_0-0_
 10
150
 20
13
  0
VERTEX
  8
_0-0_
 10
153
 20
14
  0
VERTEX
  8
_0-0_
 10
155
 20
15
  0
VERTEX
  8
_0-0_
 10
157
 20
17
  0
VERTEX
  8
_0-0_
 10
159
 20
18
  0
VERTEX
  8
_0-0_
 10
162
 20
19
  0
VERTEX
  8
_0-0_
 10
164
 20
20
  0
VERTEX
  8
_0-0_
 10
166
 20
22
  0
VERTEX
  8
_0-0_
 10
168
 20
23
  0
VERTEX
  8
_0-0_
 10
171
 20
24
  0
VERTEX
  8
_0-0_
 10
174
 20
25
  0
VERTEX
  8
_0-0_
 10
176
 20
27
  0
VERTEX
  8
_0-0_
 10
178
 20
28
  0
VERTEX
  8
_0-0_
 10
181
 20
29
  0
VERTEX
  8
_0-0_
 10
184
 20
30
  0
VERTEX
  8
_0-0_
 10
186
 20
32
  0
VERTEX
  8
_0-0_
 10
187
 20
33
  0
VERTEX
  8
_0-0_
 10
190
 20
34
  0
VERTEX
  8
_0-0_
 10
194
 20
35
  0
VERTEX
  8
_0-0_
 10
195
 20
37
  0
VERTEX
  8
_0-0_
 10
198
 20
38
  0
VERTEX
  8
_0-0_
 10
203
 20
40
  0
VERTEX
  8
_0-0_
 10
207
 20
42
  0
VERTEX
  8
_0-0_
 10
211
 20
42
  0
VERTEX
  8
_0-0_
 10
213
 20
41
  0
VERTEX
  8
_0-0_
 10
215
 20
40
  0
VERTEX
  8
_0-0_
 10
216
 20
37
  0
VERTEX
  8
_0-0_
 10
218
 20
37
  0
VERTEX
  8
_0-0_
 10
219
 20
36
  0
VERTEX
  8
_0-0_
 10
219
 20
36
  0
SEQEND
  8
A
  0
POLYLINE
  8
_0-0_
 66
     1
 40
0.000000
 41
0.000000
  0
VERTEX
  8
_0-0_
 10
140
 20
8
  0
VERTEX
  8
_0-0_
 10
140
 20
8
  0
VERTEX
  8
_0-0_
 10
140
 20
7
  0
VERTEX
  8
_0-0_
 10
140
 20
7
  0
VERTEX
  8
_0-0_
 10
140
 20
8
  0
VERTEX
  8
_0-0_
 10
140
 20
8
  0
VERTEX
  8
_0-0_
 10
140
 20
7
  0
VERTEX
  8
_0-0_
 10
140
 20
7
  0
VERTEX
  8
_0-0_
 10
139
 20
7
  0
VERTEX
  8
_0-0_
 10
139
 20
7
  0
SEQEND
  8
A
  0
POLYLINE
  8
_0-0_
 66
     1
 40
0.000000
 41
0.000000
  0
VERTEX
  8
_0-0_
 10
141
 20
8
  0
VERTEX
  8
_0-0_
 10
141
 20
8
  0
VERTEX
  8
_0-0_
 10
142
 20
9
  0
VERTEX
  8
_0-0_
 10
143
 20
10
  0
VERTEX
  8
_0-0_
 10
144
 20
10
  0
VERTEX
  8
_0-0_
 10
144
 20
10
  0
VERTEX
  8
_0-0_
 10
145
 20
11
  0
VERTEX
  8
_0-0_
 10
145
 20
11
  0
VERTEX
  8
_0-0_
 10
146
 20
11
  0
VERTEX
  8
_0-0_
 10
146
 20
11
  0
VERTEX
  8
_0-0_
 10
147
 20
12
  0
VERTEX
  8
_0-0_
 10
147
 20
12
  0
VERTEX
  8
_0-0_
 10
148
 20
12
  0
VERTEX
  8
_0-0_
 10
148
 20
12
  0
VERTEX
  8
_0-0_
 10
149
 20
13
  0
VERTEX
  8
_0-0_
 10
150
 20
14
  0
VERTEX
  8
_0-0_
 10
151
 20
14
  0
VERTEX
  8
_0-0_
 10
151
 20
14
  0
VERTEX
  8
_0-0_
 10
152
 20
15
  0
VERTEX
  8
_0-0_
 10
152
 20
15
  0
SEQEND
  8
A
  0
POINT
  8
_0-0_
 62
    7
 10
142
 20
274
  0
POLYLINE
  8
_0-0_
 66
     1
 40
0.000000
 41
0.000000
  0
VERTEX
  8
_0-0_
 10
142
 20
9
  0
VERTEX
  8
_0-0_
 10
142
 20
9
  0
VERTEX
  8
_0-0_
 10
141
 20
8
  0
VERTEX
  8
_0-0_
 10
141
 20
8
  0
VERTEX
  8
_0-0_
 10
142
 20
9
  0
VERTEX
  8
_0-0_
 10
142
 20
9
  0
VERTEX
  8
_0-0_
 10
141
 20
8
  0
VERTEX
  8
_0-0_
 10
141
 20
8
  0
SEQEND
  8
A
  0
POLYLINE
  8
_0-0_
 66
     1
 40
0.000000
 41
0.000000
  0
VERTEX
  8
_0-0_
 10
143
 20
281
  0
VERTEX
  8
_0-0_
 10
143
 20
281
  0
VERTEX
  8
_0-0_
 10
144
 20
281
  0
VERTEX
  8
_0-0_
 10
144
 20
281
  0
VERTEX
  8
_0-0_
 10
143
 20
281
  0
VERTEX
  8
_0-0_
 10
143
 20
281
  0
VERTEX
  8
_0-0_
 10
144
 20
281
  0
VERTEX
  8
_0-0_
 10
144
 20
281
  0
SEQEND
  8
A
  0
POLYLINE
  8
_0-0_
 66
     1
 40
0.000000
 41
0.000000
  0
VERTEX
  8
_0-0_
 10
143
 20
129
  0
VERTEX
  8
_0-0_
 10
143
 20
129
  0
VERTEX
  8
_0-0_
 10
143
 20
128
  0
VERTEX
  8
_0-0_
 10
143
 20
128
  0
VERTEX
  8
_0-0_
 10
143
 20
129
  0
VERTEX
  8
_0-0_
 10
143
 20
129
  0
VERTEX
  8
_0-0_
 10
143
 20
128
  0
VERTEX
  8
_0-0_
 10
143
 20
128
  0
SEQEND
  8
A
  0
POLYLINE
  8
_0-0_
 66
     1
 40
0.000000
 41
0.000000
  0
VERTEX
  8
_0-0_
 10
143
 20
36
  0
VERTEX
  8
_0-0_
 10
143
 20
36
  0
VERTEX
  8
_0-0_
 10
143
 20
35
  0
VERTEX
  8
_0-0_
 10
143
 20
32
  0
VERTEX
  8
_0-0_
 10
144
 20
32
  0
VERTEX
  8
_0-0_
 10
144
 20
32
  0
VERTEX
  8
_0-0_
 10
144
 20
31
  0
VERTEX
  8
_0-0_
 10
144
 20
31
  0
VERTEX
  8
_0-0_
 10
145
 20
31
  0
VERTEX
  8
_0-0_
 10
145
 20
31
  0
VERTEX
  8
_0-0_
 10
145
 20
30
  0
VERTEX
  8
_0-0_
 10
145
 20
30
  0
SEQEND
  8
A
  0
POLYLINE
  8
_0-0_
 66
     1
 40
0.000000
 41
0.000000
  0
VERTEX
  8
_0-0_
 10
143
 20
35
  0
VERTEX
  8
_0-0_
 10
143
 20
35
  0
VERTEX
  8
_0-0_
 10
145
 20
37
  0
VERTEX
  8
_0-0_
 10
147
 20
38
  0
VERTEX
  8
_0-0_
 10
149
 20
39
  0
VERTEX
  8
_0-0_
 10
150
 20
41
  0
VERTEX
  8
_0-0_
 10
152
 20
43
  0
VERTEX
  8
_0-0_
 10
153
 20
47
  0
VERTEX
  8
_0-0_
 10
156
 20
46
  0
VERTEX
  8
_0-0_
 10
158
 20
45
  0
VERTEX
  8
_0-0_
 10
159
 20
46
  0
VERTEX
  8
_0-0_
 10
161
 20
44
  0
VERTEX
  8
_0-0_
 10
163
 20
41
  0
VERTEX
  8
_0-0_
 10
164
 20
39
  0
VERTEX
  8
_0-0_
 10
165
 20
37
  0
VERTEX
  8
_0-0_
 10
166
 20
36
  0
VERTEX
  8
_0-0_
 10
168
 20
35
  0
VERTEX
  8
_0-0_
 10
169
 20
34
  0
VERTEX
  8
_0-0_
 10
170
 20
32
  0
VERTEX
  8
_0-0_
 10
172
 20
31
  0
VERTEX
  8
_0-0_
 10
174
 20
30
  0
VERTEX
  8
_0-0_
 10
174
 20
30
  0
SEQEND
  8
A
  0
POLYLINE
  8
_0-0_
 66
     1
 40
0.000000
 41
0.000000
  0
VERTEX
  8
_0-0_
 10
144
 20
49
  0
VERTEX
  8
_0-0_
 10
144
 20
49
  0
VERTEX
  8
_0-0_
 10
145
 20
48
  0
VERTEX
  8
_0-0_
 10
145
 20
48
  0
VERTEX
  8
_0-0_
 10
145
 20
47
  0
VERTEX
  8
_0-0_
 10
145
 20
47
  0
VERTEX
  8
_0-0_
 10
145
 20
48
  0
VERTEX
  8
_0-0_
 10
145
 20
48
  0
VERTEX
  8
_0-0_
 10
146
 20
49
  0
VERTEX
  8
_0-0_
 10
146
 20
49
  0
VERTEX
  8
_0-0_
 10
147
 20
49
  0
VERTEX
  8
_0-0_
 10
147
 20
49
  0
SEQEND
  8
A
  0
POLYLINE
  8
_0-0_
 66
     1
 40
0.000000
 41
0.000000
  0
VERTEX
  8
_0-0_
 10
145
 20
141
  0
VERTEX
  8
_0-0_
 10
145
 20
141
  0
VERTEX
  8
_0-0_
 10
145
 20
140
  0
VERTEX
  8
_0-0_
 10
145
 20
136
  0
VERTEX
  8
_0-0_
 10
146
 20
136
  0
VERTEX
  8
_0-0_
 10
148
 20
136
  0
VERTEX
  8
_0-0_
 10
148
 20
137
  0
VERTEX
  8
_0-0_
 10
148
 20
140
  0
VERTEX
  8
_0-0_
 10
147
 20
140
  0
VERTEX
  8
_0-0_
 10
147
 20
140
  0
VERTEX
  8
_0-0_
 10
147
 20
141
  0
VERTEX
  8
_0-0_
 10
147
 20
141
  0
VERTEX
  8
_0-0_
 10
146
 20
141
  0
VERTEX
  8
_0-0_
 10
145
 20
141
  0
VERTEX
  8
_0-0_
 10
145
 20
140
  0
VERTEX
  8
_0-0_
 10
145
 20
140
  0
SEQEND
  8
A
  0
POLYLINE
  8
_0-0_
 66
     1
 40
0.000000
 41
0.000000
  0
VERTEX
  8
_0-0_
 10
145
 20
118
  0
VERTEX
  8
_0-0_
 10
146
 20
113
  0
VERTEX
  8
_0-0_
 10
147
 20
111
  0
VERTEX
  8
_0-0_
 10
152
 20
112
  0
VERTEX
  8
_0-0_
 10
155
 20
111
  0
VERTEX
  8
_0-0_
 10
157
 20
109
  0
VERTEX
  8
_0-0_
 10
158
 20
107
  0
VERTEX
  8
_0-0_
 10
159
 20
106
  0
VERTEX
  8
_0-0_
 10
161
 20
105
  0
VERTEX
  8
_0-0_
 10
162
 20
104
  0
VERTEX
  8
_0-0_
 10
163
 20
100
  0
VERTEX
  8
_0-0_
 10
164
 20
96
  0
VERTEX
  8
_0-0_
 10
166
 20
92
  0
VERTEX
  8
_0-0_
 10
167
 20
88
  0
VERTEX
  8
_0-0_
 10
169
 20
83
  0
VERTEX
  8
_0-0_
 10
170
 20
76
  0
VERTEX
  8
_0-0_
 10
172
 20
74
  0
VERTEX
  8
_0-0_
 10
173
 20
73
  0
VERTEX
  8
_0-0_
 10
174
 20
71
  0
VERTEX
  8
_0-0_
 10
175
 20
68
  0
VERTEX
  8
_0-0_
 10
177
 20
68
  0
VERTEX
  8
_0-0_
 10
176
 20
69
  0
VERTEX
  8
_0-0_
 10
176
 20
69
  0
SEQEND
  8
A
  0
POLYLINE
  8
_0-0_
 66
     1
 40
0.000000
 41
0.000000
  0
VERTEX
  8
_0-0_
 10
145
 20
117
  0
VERTEX
  8
_0-0_
 10
145
 20
117
  0
VERTEX
  8
_0-0_
 10
145
 20
118
  0
VERTEX
  8
_0-0_
 10
145
 20
118
  0
VERTEX
  8
_0-0_
 10
145
 20
117
  0
VERTEX
  8
_0-0_
 10
145
 20
117
  0
VERTEX
  8
_0-0_
 10
145
 20
118
  0
VERTEX
  8
_0-0_
 10
145
 20
118
  0
VERTEX
  8
_0-0_
 10
146
 20
118
  0
VERTEX
  8
_0-0_
 10
151
 20
118
  0
VERTEX
  8
_0-0_
 10
151
 20
117
  0
VERTEX
  8
_0-0_
 10
151
 20
116
  0
VERTEX
  8
_0-0_
 10
152
 20
116
  0
VERTEX
  8
_0-0_
 10
152
 20
116
  0
VERTEX
  8
_0-0_
 10
152
 20
117
  0
VERTEX
  8
_0-0_
 10
152
 20
118
  0
VERTEX
  8
_0-0_
 10
153
 20
118
  0
VERTEX
  8
_0-0_
 10
154
 20
118
  0
VERTEX
  8
_0-0_
 10
154
 20
119
  0
VERTEX
  8
_0-0_
 10
154
 20
120
  0
VERTEX
  8
_0-0_
 10
153
 20
120
  0
VERTEX
  8
_0-0_
 10
153
 20
120
  0
VERTEX
  8
_0-0_
 10
153
 20
121
  0
VERTEX
  8
_0-0_
 10
153
 20
123
  0
VERTEX
  8
_0-0_
 10
154
 20
123
  0
VERTEX
  8
_0-0_
 10
154
 20
123
  0
VERTEX
  8
_0-0_
 10
154
 20
124
  0
VERTEX
  8
_0-0_
 10
154
 20
125
  0
VERTEX
  8
_0-0_
 10
155
 20
125
  0
VERTEX
  8
_0-0_
 10
156
 20
125
  0
VERTEX
  8
_0-0_
 10
156
 20
126
  0
VERTEX
  8
_0-0_
 10
156
 20
126
  0
VERTEX
  8
_0-0_
 10
157
 20
126
  0
VERTEX
  8
_0-0_
 10
157
 20
126
  0
VERTEX
  8
_0-0_
 10
157
 20
127
  0
VERTEX
  8
_0-0_
 10
157
 20
127
  0
VERTEX
  8
_0-0_
 10
158
 20
127
  0
VERTEX
  8
_0-0_
 10
158
 20
127
  0
VERTEX
  8
_0-0_
 10
158
 20
128
  0
VERTEX
  8
_0-0_
 10
158
 20
128
  0
VERTEX
  8
_0-0_
 10
159
 20
128
  0
VERTEX
  8
_0-0_
 10
161
 20
128
  0
VERTEX
  8
_0-0_
 10
161
 20
129
  0
VERTEX
  8
_0-0_
 10
161
 20
129
  0
VERTEX
  8
_0-0_
 10
162
 20
129
  0
VERTEX
  8
_0-0_
 10
163
 20
129
  0
VERTEX
  8
_0-0_
 10
163
 20
128
  0
VERTEX
  8
_0-0_
 10
163
 20
128
  0
VERTEX
  8
_0-0_
 10
164
 20
128
  0
VERTEX
  8
_0-0_
 10
164
 20
128
  0
VERTEX
  8
_0-0_
 10
164
 20
129
  0
VERTEX
  8
_0-0_
 10
164
 20
129
  0
VERTEX
  8
_0-0_
 10
165
 20
129
  0
VERTEX
  8
_0-0_
 10
168
 20
129
  0
VERTEX
  8
_0-0_
 10
168
 20
130
  0
VERTEX
  8
_0-0_
 10
168
 20
130
  0
VERTEX
  8
_0-0_
 10
169
 20
130
  0
VERTEX
  8
_0-0_
 10
170
 20
130
  0
VERTEX
  8
_0-0_
 10
171
 20
131
  0
VERTEX
  8
_0-0_
 10
171
 20
131
  0
SEQEND
  8
A
  0
POLYLINE
  8
_0-0_
 66
     1
 40
0.000000
 41
0.000000
  0
VERTEX
  8
_0-0_
 10
146
 20
52
  0
VERTEX
  8
_0-0_
 10
146
 20
52
  0
VERTEX
  8
_0-0_
 10
147
 20
52
  0
VERTEX
  8
_0-0_
 10
148
 20
52
  0
VERTEX
  8
_0-0_
 10
148
 20
51
  0
VERTEX
  8
_0-0_
 10
148
 20
51
  0
VERTEX
  8
_0-0_
 10
147
 20
52
  0
VERTEX
  8
_0-0_
 10
147
 20
52
  0
VERTEX
  8
_0-0_
 10
147
 20
53
  0
VERTEX
  8
_0-0_
 10
147
 20
53
  0
VERTEX
  8
_0-0_
 10
148
 20
53
  0
VERTEX
  8
_0-0_
 10
149
 20
53
  0
SEQEND
  8
A
  0
POINT
  8
_0-0_
 62
    7
 10
148
 20
281
  0
POLYLINE
  8
_0-0_
 66
     1
 40
0.000000
 41
0.000000
  0
VERTEX
  8
_0-0_
 10
149
 20
260
  0
VERTEX
  8
_0-0_
 10
149
 20
260
  0
VERTEX
  8
_0-0_
 10
149
 20
259
  0
VERTEX
  8
_0-0_
 10
149
 20
259
  0
VERTEX
  8
_0-0_
 10
149
 20
260
  0
VERTEX
  8
_0-0_
 10
149
 20
260
  0
VERTEX
  8
_0-0_
 10
149
 20
259
  0
VERTEX
  8
_0-0_
 10
149
 20
259
  0
SEQEND
  8
A
  0
POLYLINE
  8
_0-0_
 66
     1
 40
0.000000
 41
0.000000
  0
VERTEX
  8
_0-0_
 10
150
 20
145
  0
VERTEX
  8
_0-0_
 10
150
 20
145
  0
VERTEX
  8
_0-0_
 10
151
 20
145
  0
VERTEX
  8
_0-0_
 10
151
 20
145
  0
VERTEX
  8
_0-0_
 10
151
 20
144
  0
VERTEX
  8
_0-0_
 10
151
 20
144
  0
VERTEX
  8
_0-0_
 10
151
 20
145
  0
VERTEX
  8
_0-0_
 10
151
 20
147
  0
VERTEX
  8
_0-0_
 10
152
 20
147
  0
VERTEX
  8
_0-0_
 10
152
 20
147
  0
VERTEX
  8
_0-0_
 10
152
 20
148
  0
VERTEX
  8
_0-0_
 10
152
 20
149
  0
SEQEND
  8
A
  0
POINT
  8
_0-0_
 62
    7
 10
151
 20
245
  0
POINT
  8
_0-0_
 62
    7
 10
154
 20
16
  0
POLYLINE
  8
_0-0_
 66
     1
 40
0.000000
 41
0.000000
  0
VERTEX
  8
_0-0_
 10
155
 20
133
  0
VERTEX
  8
_0-0_
 10
155
 20
133
  0
VERTEX
  8
_0-0_
 10
156
 20
132
  0
VERTEX
  8
_0-0_
 10
157
 20
131
  0
VERTEX
  8
_0-0_
 10
158
 20
131
  0
VERTEX
  8
_0-0_
 10
158
 20
131
  0
VERTEX
  8
_0-0_
 10
158
 20
130
  0
VERTEX
  8
_0-0_
 10
158
 20
130
  0
VERTEX
  8
_0-0_
 10
159
 20
130
  0
VERTEX
  8
_0-0_
 10
161
 20
130
  0
VERTEX
  8
_0-0_
 10
160
 20
131
  0
VERTEX
  8
_0-0_
 10
160
 20
131
  0
SEQEND
  8
A
  0
POLYLINE
  8
_0-0_
 66
     1
 40
0.000000
 41
0.000000
  0
VERTEX
  8
_0-0_
 10
156
 20
132
  0
VERTEX
  8
_0-0_
 10
156
 20
132
  0
VERTEX
  8
_0-0_
 10
155
 20
133
  0
VERTEX
  8
_0-0_
 10
155
 20
133
  0
VERTEX
  8
_0-0_
 10
156
 20
132
  0
VERTEX
  8
_0-0_
 10
156
 20
132
  0
VERTEX
  8
_0-0_
 10
155
 20
133
  0
VERTEX
  8
_0-0_
 10
155
 20
133
  0
SEQEND
  8
A
  0
POLYLINE
  8
_0-0_
 66
     1
 40
0.000000
 41
0.000000
  0
VERTEX
  8
_0-0_
 10
156
 20
17
  0
VERTEX
  8
_0-0_
 10
156
 20
17
  0
VERTEX
  8
_0-0_
 10
157
 20
18
  0
VERTEX
  8
_0-0_
 10
157
 20
18
  0
VERTEX
  8
_0-0_
 10
158
 20
18
  0
VERTEX
  8
_0-0_
 10
158
 20
18
  0
VERTEX
  8
_0-0_
 10
157
 20
18
  0
VERTEX
  8
_0-0_
 10
157
 20
18
  0
VERTEX
  8
_0-0_
 10
156
 20
17
  0
VERTEX
  8
_0-0_
 10
156
 20
17
  0
SEQEND
  8
A
  0
POLYLINE
  8
_0-0_
 66
     1
 40
0.000000
 41
0.000000
  0
VERTEX
  8
_0-0_
 10
157
 20
149
  0
VERTEX
  8
_0-0_
 10
157
 20
149
  0
VERTEX
  8
_0-0_
 10
158
 20
149
  0
VERTEX
  8
_0-0_
 10
158
 20
149
  0
VERTEX
  8
_0-0_
 10
157
 20
149
  0
VERTEX
  8
_0-0_
 10
157
 20
149
  0
VERTEX
  8
_0-0_
 10
158
 20
149
  0
VERTEX
  8
_0-0_
 10
158
 20
149
  0
VERTEX
  8
_0-0_
 10
159
 20
150
  0
VERTEX
  8
_0-0_
 10
159
 20
150
  0
VERTEX
  8
_0-0_
 10
160
 20
150
  0
VERTEX
  8
_0-0_
 10
161
 20
150
  0
VERTEX
  8
_0-0_
 10
161
 20
151
  0
VERTEX
  8
_0-0_
 10
161
 20
151
  0
VERTEX
  8
_0-0_
 10
162
 20
151
  0
VERTEX
  8
_0-0_
 10
164
 20
151
  0
VERTEX
  8
_0-0_
 10
164
 20
150
  0
VERTEX
  8
_0-0_
 10
164
 20
150
  0
VERTEX
  8
_0-0_
 10
165
 20
150
  0
VERTEX
  8
_0-0_
 10
168
 20
150
  0
VERTEX
  8
_0-0_
 10
168
 20
149
  0
VERTEX
  8
_0-0_
 10
168
 20
149
  0
VERTEX
  8
_0-0_
 10
169
 20
149
  0
VERTEX
  8
_0-0_
 10
169
 20
149
  0
VERTEX
  8
_0-0_
 10
169
 20
148
  0
VERTEX
  8
_0-0_
 10
169
 20
148
  0
VERTEX
  8
_0-0_
 10
170
 20
148
  0
VERTEX
  8
_0-0_
 10
170
 20
148
  0
VERTEX
  8
_0-0_
 10
170
 20
147
  0
VERTEX
  8
_0-0_
 10
170
 20
146
  0
VERTEX
  8
_0-0_
 10
171
 20
146
  0
VERTEX
  8
_0-0_
 10
171
 20
146
  0
VERTEX
  8
_0-0_
 10
171
 20
145
  0
VERTEX
  8
_0-0_
 10
171
 20
145
  0
VERTEX
  8
_0-0_
 10
172
 20
145
  0
VERTEX
  8
_0-0_
 10
172
 20
145
  0
VERTEX
  8
_0-0_
 10
172
 20
144
  0
VERTEX
  8
_0-0_
 10
172
 20
137
  0
VERTEX
  8
_0-0_
 10
171
 20
137
  0
VERTEX
  8
_0-0_
 10
171
 20
137
  0
VERTEX
  8
_0-0_
 10
171
 20
136
  0
VERTEX
  8
_0-0_
 10
171
 20
136
  0
VERTEX
  8
_0-0_
 10
170
 20
136
  0
VERTEX
  8
_0-0_
 10
170
 20
136
  0
VERTEX
  8
_0-0_
 10
169
 20
135
  0
VERTEX
  8
_0-0_
 10
169
 20
135
  0
VERTEX
  8
_0-0_
 10
169
 20
134
  0
VERTEX
  8
_0-0_
 10
169
 20
134
  0
VERTEX
  8
_0-0_
 10
168
 20
134
  0
VERTEX
  8
_0-0_
 10
168
 20
134
  0
SEQEND
  8
A
  0
POINT
  8
_0-0_
 62
    7
 10
158
 20
132
  0
POINT
  8
_0-0_
 62
    7
 10
158
 20
110
  0
POLYLINE
  8
_0-0_
 66
     1
 40
0.000000
 41
0.000000
  0
VERTEX
  8
_0-0_
 10
159
 20
19
  0
VERTEX
  8
_0-0_
 10
159
 20
19
  0
VERTEX
  8
_0-0_
 10
160
 20
19
  0
VERTEX
  8
_0-0_
 10
160
 20
19
  0
VERTEX
  8
_0-0_
 10
159
 20
19
  0
VERTEX
  8
_0-0_
 10
159
 20
19
  0
VERTEX
  8
_0-0_
 10
160
 20
19
  0
VERTEX
  8
_0-0_
 10
160
 20
19
  0
VERTEX
  8
_0-0_
 10
161
 20
20
  0
VERTEX
  8
_0-0_
 10
161
 20
20
  0
SEQEND
  8
A
  0
POINT
  8
_0-0_
 62
    7
 10
160
 20
151
  0
POLYLINE
  8
_0-0_
 66
     1
 40
0.000000
 41
0.000000
  0
VERTEX
  8
_0-0_
 10
163
 20
21
  0
VERTEX
  8
_0-0_
 10
163
 20
21
  0
VERTEX
  8
_0-0_
 10
164
 20
22
  0
VERTEX
  8
_0-0_
 10
164
 20
22
  0
VERTEX
  8
_0-0_
 10
165
 20
22
  0
VERTEX
  8
_0-0_
 10
165
 20
22
  0
VERTEX
  8
_0-0_
 10
164
 20
22
  0
VERTEX
  8
_0-0_
 10
164
 20
22
  0
VERTEX
  8
_0-0_
 10
163
 20
21
  0
VERTEX
  8
_0-0_
 10
163
 20
21
  0
SEQEND
  8
A
  0
POINT
  8
_0-0_
 62
    7
 10
164
 20
36
  0
POLYLINE
  8
_0-0_
 66
     1
 40
0.000000
 41
0.000000
  0
VERTEX
  8
_0-0_
 10
165
 20
151
  0
VERTEX
  8
_0-0_
 10
165
 20
151
  0
VERTEX
  8
_0-0_
 10
166
 20
151
  0
VERTEX
  8
_0-0_
 10
167
 20
151
  0
VERTEX
  8
_0-0_
 10
166
 20
151
  0
VERTEX
  8
_0-0_
 10
165
 20
151
  0
SEQEND
  8
A
  0
POLYLINE
  8
_0-0_
 66
     1
 40
0.000000
 41
0.000000
  0
VERTEX
  8
_0-0_
 10
166
 20
23
  0
VERTEX
  8
_0-0_
 10
166
 20
23
  0
VERTEX
  8
_0-0_
 10
167
 20
23
  0
VERTEX
  8
_0-0_
 10
167
 20
23
  0
VERTEX
  8
_0-0_
 10
166
 20
23
  0
VERTEX
  8
_0-0_
 10
166
 20
23
  0
VERTEX
  8
_0-0_
 10
167
 20
23
  0
VERTEX
  8
_0-0_
 10
167
 20
23
  0
VERTEX
  8
_0-0_
 10
168
 20
24
  0
VERTEX
  8
_0-0_
 10
168
 20
24
  0
VERTEX
  8
_0-0_
 10
169
 20
24
  0
VERTEX
  8
_0-0_
 10
169
 20
24
  0
VERTEX
  8
_0-0_
 10
170
 20
25
  0
VERTEX
  8
_0-0_
 10
170
 20
25
  0
VERTEX
  8
_0-0_
 10
171
 20
25
  0
VERTEX
  8
_0-0_
 10
171
 20
25
  0
VERTEX
  8
_0-0_
 10
172
 20
26
  0
VERTEX
  8
_0-0_
 10
172
 20
26
  0
VERTEX
  8
_0-0_
 10
173
 20
26
  0
VERTEX
  8
_0-0_
 10
173
 20
26
  0
VERTEX
  8
_0-0_
 10
174
 20
27
  0
VERTEX
  8
_0-0_
 10
174
 20
27
  0
VERTEX
  8
_0-0_
 10
175
 20
27
  0
VERTEX
  8
_0-0_
 10
175
 20
27
  0
VERTEX
  8
_0-0_
 10
176
 20
28
  0
VERTEX
  8
_0-0_
 10
176
 20
28
  0
VERTEX
  8
_0-0_
 10
177
 20
28
  0
VERTEX
  8
_0-0_
 10
177
 20
28
  0
VERTEX
  8
_0-0_
 10
178
 20
29
  0
VERTEX
  8
_0-0_
 10
178
 20
29
  0
VERTEX
  8
_0-0_
 10
179
 20
29
  0
VERTEX
  8
_0-0_
 10
179
 20
29
  0
VERTEX
  8
_0-0_
 10
180
 20
30
  0
VERTEX
  8
_0-0_
 10
180
 20
30
  0
VERTEX
  8
_0-0_
 10
181
 20
30
  0
VERTEX
  8
_0-0_
 10
181
 20
30
  0
VERTEX
  8
_0-0_
 10
182
 20
31
  0
VERTEX
  8
_0-0_
 10
182
 20
31
  0
VERTEX
  8
_0-0_
 10
183
 20
31
  0
VERTEX
  8
_0-0_
 10
183
 20
31
  0
VERTEX
  8
_0-0_
 10
184
 20
32
  0
VERTEX
  8
_0-0_
 10
184
 20
32
  0
VERTEX
  8
_0-0_
 10
185
 20
32
  0
VERTEX
  8
_0-0_
 10
185
 20
32
  0
VERTEX
  8
_0-0_
 10
186
 20
33
  0
VERTEX
  8
_0-0_
 10
186
 20
33
  0
SEQEND
  8
A
  0
POLYLINE
  8
_0-0_
 66
     1
 40
0.000000
 41
0.000000
  0
VERTEX
  8
_0-0_
 10
167
 20
50
  0
VERTEX
  8
_0-0_
 10
167
 20
50
  0
VERTEX
  8
_0-0_
 10
167
 20
49
  0
VERTEX
  8
_0-0_
 10
167
 20
46
  0
VERTEX
  8
_0-0_
 10
168
 20
46
  0
VERTEX
  8
_0-0_
 10
168
 20
46
  0
VERTEX
  8
_0-0_
 10
168
 20
45
  0
VERTEX
  8
_0-0_
 10
168
 20
43
  0
VERTEX
  8
_0-0_
 10
169
 20
43
  0
VERTEX
  8
_0-0_
 10
169
 20
43
  0
VERTEX
  8
_0-0_
 10
169
 20
42
  0
VERTEX
  8
_0-0_
 10
169
 20
41
  0
VERTEX
  8
_0-0_
 10
170
 20
41
  0
VERTEX
  8
_0-0_
 10
170
 20
41
  0
VERTEX
  8
_0-0_
 10
170
 20
40
  0
VERTEX
  8
_0-0_
 10
170
 20
37
  0
VERTEX
  8
_0-0_
 10
171
 20
37
  0
VERTEX
  8
_0-0_
 10
171
 20
37
  0
VERTEX
  8
_0-0_
 10
171
 20
36
  0
VERTEX
  8
_0-0_
 10
171
 20
35
  0
VERTEX
  8
_0-0_
 10
172
 20
35
  0
VERTEX
  8
_0-0_
 10
172
 20
35
  0
VERTEX
  8
_0-0_
 10
172
 20
34
  0
VERTEX
  8
_0-0_
 10
172
 20
32
  0
VERTEX
  8
_0-0_
 10
173
 20
32
  0
VERTEX
  8
_0-0_
 10
174
 20
32
  0
VERTEX
  8
_0-0_
 10
173
 20
33
  0
VERTEX
  8
_0-0_
 10
173
 20
33
  0
SEQEND
  8
A
  0
POLYLINE
  8
_0-0_
 66
     1
 40
0.000000
 41
0.000000
  0
VERTEX
  8
_0-0_
 10
167
 20
49
  0
VERTEX
  8
_0-0_
 10
167
 20
49
  0
VERTEX
  8
_0-0_
 10
167
 20
50
  0
VERTEX
  8
_0-0_
 10
167
 20
50
  0
VERTEX
  8
_0-0_
 10
167
 20
49
  0
VERTEX
  8
_0-0_
 10
167
 20
49
  0
VERTEX
  8
_0-0_
 10
167
 20
50
  0
VERTEX
  8
_0-0_
 10
167
 20
50
  0
VERTEX
  8
_0-0_
 10
168
 20
50
  0
VERTEX
  8
_0-0_
 10
170
 20
50
  0
VERTEX
  8
_0-0_
 10
170
 20
49
  0
VERTEX
  8
_0-0_
 10
170
 20
49
  0
VERTEX
  8
_0-0_
 10
171
 20
49
  0
VERTEX
  8
_0-0_
 10
171
 20
49
  0
VERTEX
  8
_0-0_
 10
171
 20
48
  0
VERTEX
  8
_0-0_
 10
171
 20
48
  0
VERTEX
  8
_0-0_
 10
172
 20
48
  0
VERTEX
  8
_0-0_
 10
174
 20
48
  0
VERTEX
  8
_0-0_
 10
174
 20
47
  0
VERTEX
  8
_0-0_
 10
174
 20
47
  0
VERTEX
  8
_0-0_
 10
175
 20
47
  0
VERTEX
  8
_0-0_
 10
177
 20
47
  0
VERTEX
  8
_0-0_
 10
177
 20
48
  0
VERTEX
  8
_0-0_
 10
177
 20
48
  0
VERTEX
  8
_0-0_
 10
178
 20
48
  0
VERTEX
  8
_0-0_
 10
179
 20
48
  0
VERTEX
  8
_0-0_
 10
179
 20
49
  0
VERTEX
  8
_0-0_
 10
179
 20
49
  0
VERTEX
  8
_0-0_
 10
180
 20
49
  0
VERTEX
  8
_0-0_
 10
182
 20
49
  0
VERTEX
  8
_0-0_
 10
182
 20
50
  0
VERTEX
  8
_0-0_
 10
182
 20
50
  0
VERTEX
  8
_0-0_
 10
183
 20
50
  0
VERTEX
  8
_0-0_
 10
183
 20
50
  0
VERTEX
  8
_0-0_
 10
183
 20
51
  0
VERTEX
  8
_0-0_
 10
183
 20
52
  0
VERTEX
  8
_0-0_
 10
182
 20
52
  0
VERTEX
  8
_0-0_
 10
180
 20
52
  0
VERTEX
  8
_0-0_
 10
180
 20
53
  0
VERTEX
  8
_0-0_
 10
180
 20
53
  0
VERTEX
  8
_0-0_
 10
179
 20
53
  0
VERTEX
  8
_0-0_
 10
177
 20
53
  0
VERTEX
  8
_0-0_
 10
177
 20
54
  0
VERTEX
  8
_0-0_
 10
177
 20
54
  0
VERTEX
  8
_0-0_
 10
176
 20
54
  0
VERTEX
  8
_0-0_
 10
176
 20
54
  0
VERTEX
  8
_0-0_
 10
176
 20
55
  0
VERTEX
  8
_0-0_
 10
176
 20
55
  0
VERTEX
  8
_0-0_
 10
175
 20
55
  0
VERTEX
  8
_0-0_
 10
175
 20
55
  0
VERTEX
  8
_0-0_
 10
175
 20
56
  0
VERTEX
  8
_0-0_
 10
175
 20
56
  0
VERTEX
  8
_0-0_
 10
174
 20
56
  0
VERTEX
  8
_0-0_
 10
174
 20
56
  0
VERTEX
  8
_0-0_
 10
174
 20
57
  0
VERTEX
  8
_0-0_
 10
174
 20
57
  0
VERTEX
  8
_0-0_
 10
173
 20
57
  0
VERTEX
  8
_0-0_
 10
173
 20
57
  0
VERTEX
  8
_0-0_
 10
173
 20
58
  0
VERTEX
  8
_0-0_
 10
173
 20
59
  0
VERTEX
  8
_0-0_
 10
172
 20
59
  0
VERTEX
  8
_0-0_
 10
172
 20
59
  0
VERTEX
  8
_0-0_
 10
172
 20
60
  0
VERTEX
  8
_0-0_
 10
172
 20
61
  0
VERTEX
  8
_0-0_
 10
173
 20
61
  0
VERTEX
  8
_0-0_
 10
173
 20
61
  0
VERTEX
  8
_0-0_
 10
173
 20
62
  0
VERTEX
  8
_0-0_
 10
173
 20
62
  0
SEQEND
  8
A
  0
POLYLINE
  8
_0-0_
 66
     1
 40
0.000000
 41
0.000000
  0
VERTEX
  8
_0-0_
 10
169
 20
150
  0
VERTEX
  8
_0-0_
 10
169
 20
150
  0
VERTEX
  8
_0-0_
 10
170
 20
149
  0
VERTEX
  8
_0-0_
 10
170
 20
149
  0
VERTEX
  8
_0-0_
 10
171
 20
149
  0
VERTEX
  8
_0-0_
 10
171
 20
149
  0
VERTEX
  8
_0-0_
 10
171
 20
148
  0
VERTEX
  8
_0-0_
 10
171
 20
147
  0
VERTEX
  8
_0-0_
 10
172
 20
147
  0
VERTEX
  8
_0-0_
 10
172
 20
147
  0
VERTEX
  8
_0-0_
 10
172
 20
146
  0
VERTEX
  8
_0-0_
 10
172
 20
146
  0
VERTEX
  8
_0-0_
 10
173
 20
145
  0
VERTEX
  8
_0-0_
 10
173
 20
145
  0
VERTEX
  8
_0-0_
 10
173
 20
144
  0
VERTEX
  8
_0-0_
 10
173
 20
139
  0
SEQEND
  8
A
  0
POLYLINE
  8
_0-0_
 66
     1
 40
0.000000
 41
0.000000
  0
VERTEX
  8
_0-0_
 10
170
 20
149
  0
VERTEX
  8
_0-0_
 10
170
 20
149
  0
VERTEX
  8
_0-0_
 10
169
 20
150
  0
VERTEX
  8
_0-0_
 10
169
 20
150
  0
VERTEX
  8
_0-0_
 10
170
 20
149
  0
VERTEX
  8
_0-0_
 10
170
 20
149
  0
VERTEX
  8
_0-0_
 10
169
 20
150
  0
VERTEX
  8
_0-0_
 10
169
 20
150
  0
SEQEND
  8
A
  0
POLYLINE
  8
_0-0_
 66
     1
 40
0.000000
 41
0.000000
  0
VERTEX
  8
_0-0_
 10
170
 20
70
  0
VERTEX
  8
_0-0_
 10
170
 20
70
  0
VERTEX
  8
_0-0_
 10
170
 20
69
  0
VERTEX
  8
_0-0_
 10
170
 20
64
  0
VERTEX
  8
_0-0_
 10
171
 20
64
  0
VERTEX
  8
_0-0_
 10
171
 20
64
  0
VERTEX
  8
_0-0_
 10
171
 20
63
  0
VERTEX
  8
_0-0_
 10
171
 20
61
  0
SEQEND
  8
A
  0
POLYLINE
  8
_0-0_
 66
     1
 40
0.000000
 41
0.000000
  0
VERTEX
  8
_0-0_
 10
170
 20
69
  0
VERTEX
  8
_0-0_
 10
170
 20
69
  0
VERTEX
  8
_0-0_
 10
170
 20
70
  0
VERTEX
  8
_0-0_
 10
170
 20
70
  0
VERTEX
  8
_0-0_
 10
170
 20
69
  0
VERTEX
  8
_0-0_
 10
170
 20
69
  0
VERTEX
  8
_0-0_
 10
170
 20
70
  0
VERTEX
  8
_0-0_
 10
170
 20
70
  0
VERTEX
  8
_0-0_
 10
171
 20
70
  0
VERTEX
  8
_0-0_
 10
172
 20
70
  0
VERTEX
  8
_0-0_
 10
172
 20
69
  0
VERTEX
  8
_0-0_
 10
172
 20
69
  0
VERTEX
  8
_0-0_
 10
173
 20
69
  0
VERTEX
  8
_0-0_
 10
174
 20
69
  0
VERTEX
  8
_0-0_
 10
174
 20
68
  0
VERTEX
  8
_0-0_
 10
174
 20
68
  0
SEQEND
  8
A
  0
POINT
  8
_0-0_
 62
    7
 10
171
 20
138
  0
POINT
  8
_0-0_
 62
    7
 10
171
 20
68
  0
POINT
  8
_0-0_
 62
    7
 10
171
 20
32
  0
POLYLINE
  8
_0-0_
 66
     1
 40
0.000000
 41
0.000000
  0
VERTEX
  8
_0-0_
 10
178
 20
145
  0
VERTEX
  8
_0-0_
 10
178
 20
145
  0
VERTEX
  8
_0-0_
 10
178
 20
144
  0
VERTEX
  8
_0-0_
 10
178
 20
137
  0
VERTEX
  8
_0-0_
 10
179
 20
137
  0
VERTEX
  8
_0-0_
 10
179
 20
137
  0
VERTEX
  8
_0-0_
 10
179
 20
136
  0
VERTEX
  8
_0-0_
 10
179
 20
135
  0
VERTEX
  8
_0-0_
 10
180
 20
135
  0
VERTEX
  8
_0-0_
 10
180
 20
135
  0
VERTEX
  8
_0-0_
 10
180
 20
134
  0
VERTEX
  8
_0-0_
 10
180
 20
134
  0
VERTEX
  8
_0-0_
 10
181
 20
134
  0
VERTEX
  8
_0-0_
 10
181
 20
134
  0
VERTEX
  8
_0-0_
 10
181
 20
133
  0
VERTEX
  8
_0-0_
 10
181
 20
132
  0
VERTEX
  8
_0-0_
 10
182
 20
132
  0
VERTEX
  8
_0-0_
 10
182
 20
132
  0
VERTEX
  8
_0-0_
 10
182
 20
131
  0
VERTEX
  8
_0-0_
 10
182
 20
131
  0
VERTEX
  8
_0-0_
 10
183
 20
131
  0
VERTEX
  8
_0-0_
 10
184
 20
131
  0
VERTEX
  8
_0-0_
 10
184
 20
130
  0
VERTEX
  8
_0-0_
 10
184
 20
130
  0
VERTEX
  8
_0-0_
 10
185
 20
130
  0
VERTEX
  8
_0-0_
 10
186
 20
130
  0
VERTEX
  8
_0-0_
 10
186
 20
129
  0
VERTEX
  8
_0-0_
 10
186
 20
129
  0
VERTEX
  8
_0-0_
 10
187
 20
129
  0
VERTEX
  8
_0-0_
 10
188
 20
129
  0
VERTEX
  8
_0-0_
 10
188
 20
128
  0
VERTEX
  8
_0-0_
 10
188
 20
128
  0
VERTEX
  8
_0-0_
 10
189
 20
128
  0
VERTEX
  8
_0-0_
 10
193
 20
128
  0
VERTEX
  8
_0-0_
 10
193
 20
129
  0
VERTEX
  8
_0-0_
 10
193
 20
129
  0
VERTEX
  8
_0-0_
 10
194
 20
129
  0
VERTEX
  8
_0-0_
 10
196
 20
129
  0
VERTEX
  8
_0-0_
 10
196
 20
130
  0
VERTEX
  8
_0-0_
 10
196
 20
130
  0
VERTEX
  8
_0-0_
 10
197
 20
130
  0
VERTEX
  8
_0-0_
 10
197
 20
130
  0
SEQEND
  8
A
  0
POLYLINE
  8
_0-0_
 66
     1
 40
0.000000
 41
0.000000
  0
VERTEX
  8
_0-0_
 10
178
 20
144
  0
VERTEX
  8
_0-0_
 10
178
 20
144
  0
VERTEX
  8
_0-0_
 10
179
 20
144
  0
VERTEX
  8
_0-0_
 10
179
 20
144
  0
VERTEX
  8
_0-0_
 10
179
 20
143
  0
VERTEX
  8
_0-0_
 10
179
 20
138
  0
VERTEX
  8
_0-0_
 10
180
 20
137
  0
VERTEX
  8
_0-0_
 10
180
 20
137
  0
VERTEX
  8
_0-0_
 10
180
 20
136
  0
VERTEX
  8
_0-0_
 10
180
 20
136
  0
VERTEX
  8
_0-0_
 10
181
 20
135
  0
VERTEX
  8
_0-0_
 10
182
 20
134
  0
VERTEX
  8
_0-0_
 10
182
 20
133
  0
VERTEX
  8
_0-0_
 10
182
 20
133
  0
VERTEX
  8
_0-0_
 10
183
 20
133
  0
VERTEX
  8
_0-0_
 10
183
 20
133
  0
VERTEX
  8
_0-0_
 10
183
 20
132
  0
VERTEX
  8
_0-0_
 10
183
 20
132
  0
VERTEX
  8
_0-0_
 10
184
 20
132
  0
VERTEX
  8
_0-0_
 10
184
 20
132
  0
VERTEX
  8
_0-0_
 10
185
 20
131
  0
VERTEX
  8
_0-0_
 10
185
 20
131
  0
SEQEND
  8
A
  0
POLYLINE
  8
_0-0_
 66
     1
 40
0.000000
 41
0.000000
  0
VERTEX
  8
_0-0_
 10
179
 20
147
  0
VERTEX
  8
_0-0_
 10
179
 20
147
  0
VERTEX
  8
_0-0_
 10
179
 20
146
  0
VERTEX
  8
_0-0_
 10
179
 20
144
  0
VERTEX
  8
_0-0_
 10
178
 20
144
  0
VERTEX
  8
_0-0_
 10
178
 20
144
  0
VERTEX
  8
_0-0_
 10
178
 20
145
  0
VERTEX
  8
_0-0_
 10
178
 20
145
  0
VERTEX
  8
_0-0_
 10
179
 20
146
  0
VERTEX
  8
_0-0_
 10
179
 20
146
  0
VERTEX
  8
_0-0_
 10
179
 20
147
  0
VERTEX
  8
_0-0_
 10
179
 20
147
  0
VERTEX
  8
_0-0_
 10
180
 20
147
  0
VERTEX
  8
_0-0_
 10
180
 20
147
  0
VERTEX
  8
_0-0_
 10
180
 20
148
  0
VERTEX
  8
_0-0_
 10
180
 20
149
  0
VERTEX
  8
_0-0_
 10
181
 20
149
  0
VERTEX
  8
_0-0_
 10
181
 20
149
  0
VERTEX
  8
_0-0_
 10
181
 20
150
  0
VERTEX
  8
_0-0_
 10
181
 20
150
  0
SEQEND
  8
A
  0
POLYLINE
  8
_0-0_
 66
     1
 40
0.000000
 41
0.000000
  0
VERTEX
  8
_0-0_
 10
185
 20
149
  0
VERTEX
  8
_0-0_
 10
185
 20
149
  0
VERTEX
  8
_0-0_
 10
185
 20
148
  0
VERTEX
  8
_0-0_
 10
185
 20
148
  0
VERTEX
  8
_0-0_
 10
185
 20
149
  0
VERTEX
  8
_0-0_
 10
185
 20
149
  0
VERTEX
  8
_0-0_
 10
185
 20
148
  0
VERTEX
  8
_0-0_
 10
185
 20
148
  0
VERTEX
  8
_0-0_
 10
186
 20
149
  0
VERTEX
  8
_0-0_
 10
186
 20
149
  0
VERTEX
  8
_0-0_
 10
186
 20
150
  0
VERTEX
  8
_0-0_
 10
186
 20
150
  0
VERTEX
  8
_0-0_
 10
187
 20
150
  0
VERTEX
  8
_0-0_
 10
190
 20
150
  0
VERTEX
  8
_0-0_
 10
190
 20
151
  0
VERTEX
  8
_0-0_
 10
190
 20
151
  0
VERTEX
  8
_0-0_
 10
191
 20
151
  0
VERTEX
  8
_0-0_
 10
192
 20
151
  0
VERTEX
  8
_0-0_
 10
192
 20
150
  0
VERTEX
  8
_0-0_
 10
192
 20
150
  0
VERTEX
  8
_0-0_
 10
193
 20
150
  0
VERTEX
  8
_0-0_
 10
195
 20
150
  0
VERTEX
  8
_0-0_
 10
195
 20
149
  0
VERTEX
  8
_0-0_
 10
195
 20
149
  0
VERTEX
  8
_0-0_
 10
196
 20
149
  0
VERTEX
  8
_0-0_
 10
197
 20
149
  0
VERTEX
  8
_0-0_
 10
197
 20
148
  0
VERTEX
  8
_0-0_
 10
197
 20
148
  0
VERTEX
  8
_0-0_
 10
198
 20
148
  0
VERTEX
  8
_0-0_
 10
198
 20
148
  0
VERTEX
  8
_0-0_
 10
198
 20
147
  0
VERTEX
  8
_0-0_
 10
198
 20
147
  0
VERTEX
  8
_0-0_
 10
199
 20
147
  0
VERTEX
  8
_0-0_
 10
199
 20
147
  0
VERTEX
  8
_0-0_
 10
199
 20
146
  0
VERTEX
  8
_0-0_
 10
199
 20
144
  0
VERTEX
  8
_0-0_
 10
200
 20
144
  0
VERTEX
  8
_0-0_
 10
200
 20
144
  0
VERTEX
  8
_0-0_
 10
200
 20
143
  0
VERTEX
  8
_0-0_
 10
200
 20
138
  0
VERTEX
  8
_0-0_
 10
199
 20
137
  0
VERTEX
  8
_0-0_
 10
199
 20
137
  0
VERTEX
  8
_0-0_
 10
199
 20
136
  0
VERTEX
  8
_0-0_
 10
199
 20
136
  0
VERTEX
  8
_0-0_
 10
198
 20
136
  0
VERTEX
  8
_0-0_
 10
198
 20
136
  0
SEQEND
  8
A
  0
POLYLINE
  8
_0-0_
 66
     1
 40
0.000000
 41
0.000000
  0
VERTEX
  8
_0-0_
 10
187
 20
130
  0
VERTEX
  8
_0-0_
 10
187
 20
130
  0
VERTEX
  8
_0-0_
 10
188
 20
130
  0
VERTEX
  8
_0-0_
 10
188
 20
130
  0
VERTEX
  8
_0-0_
 10
187
 20
130
  0
VERTEX
  8
_0-0_
 10
187
 20
130
  0
VERTEX
  8
_0-0_
 10
188
 20
130
  0
VERTEX
  8
_0-0_
 10
188
 20
130
  0
VERTEX
  8
_0-0_
 10
189
 20
129
  0
VERTEX
  8
_0-0_
 10
189
 20
129
  0
VERTEX
  8
_0-0_
 10
190
 20
129
  0
VERTEX
  8
_0-0_
 10
192
 20
129
  0
SEQEND
  8
A
  0
POLYLINE
  8
_0-0_
 66
     1
 40
0.000000
 41
0.000000
  0
VERTEX
  8
_0-0_
 10
188
 20
151
  0
VERTEX
  8
_0-0_
 10
188
 20
151
  0
VERTEX
  8
_0-0_
 10
189
 20
151
  0
VERTEX
  8
_0-0_
 10
189
 20
151
  0
VERTEX
  8
_0-0_
 10
188
 20
151
  0
VERTEX
  8
_0-0_
 10
188
 20
151
  0
VERTEX
  8
_0-0_
 10
189
 20
151
  0
VERTEX
  8
_0-0_
 10
189
 20
151
  0
SEQEND
  8
A
  0
POINT
  8
_0-0_
 62
    7
 10
188
 20
34
  0
POLYLINE
  8
_0-0_
 66
     1
 40
0.000000
 41
0.000000
  0
VERTEX
  8
_0-0_
 10
190
 20
35
  0
VERTEX
  8
_0-0_
 10
190
 20
35
  0
VERTEX
  8
_0-0_
 10
191
 20
35
  0
VERTEX
  8
_0-0_
 10
191
 20
35
  0
VERTEX
  8
_0-0_
 10
190
 20
35
  0
VERTEX
  8
_0-0_
 10
190
 20
35
  0
VERTEX
  8
_0-0_
 10
191
 20
35
  0
VERTEX
  8
_0-0_
 10
191
 20
35
  0
VERTEX
  8
_0-0_
 10
192
 20
36
  0
VERTEX
  8
_0-0_
 10
192
 20
36
  0
VERTEX
  8
_0-0_
 10
193
 20
36
  0
VERTEX
  8
_0-0_
 10
193
 20
36
  0
VERTEX
  8
_0-0_
 10
194
 20
37
  0
VERTEX
  8
_0-0_
 10
194
 20
37
  0
SEQEND
  8
A
  0
POLYLINE
  8
_0-0_
 66
     1
 40
0.000000
 41
0.000000
  0
VERTEX
  8
_0-0_
 10
191
 20
152
  0
VERTEX
  8
_0-0_
 10
191
 20
152
  0
VERTEX
  8
_0-0_
 10
192
 20
152
  0
VERTEX
  8
_0-0_
 10
192
 20
152
  0
VERTEX
  8
_0-0_
 10
191
 20
152
  0
VERTEX
  8
_0-0_
 10
191
 20
152
  0
VERTEX
  8
_0-0_
 10
192
 20
152
  0
VERTEX
  8
_0-0_
 10
192
 20
152
  0
VERTEX
  8
_0-0_
 10
193
 20
151
  0
VERTEX
  8
_0-0_
 10
193
 20
151
  0
VERTEX
  8
_0-0_
 10
194
 20
151
  0
VERTEX
  8
_0-0_
 10
196
 20
151
  0
VERTEX
  8
_0-0_
 10
196
 20
150
  0
VERTEX
  8
_0-0_
 10
196
 20
150
  0
VERTEX
  8
_0-0_
 10
197
 20
150
  0
VERTEX
  8
_0-0_
 10
197
 20
150
  0
VERTEX
  8
_0-0_
 10
198
 20
149
  0
VERTEX
  8
_0-0_
 10
200
 20
147
  0
VERTEX
  8
_0-0_
 10
200
 20
146
  0
VERTEX
  8
_0-0_
 10
200
 20
145
  0
VERTEX
  8
_0-0_
 10
201
 20
144
  0
VERTEX
  8
_0-0_
 10
201
 20
144
  0
VERTEX
  8
_0-0_
 10
201
 20
143
  0
VERTEX
  8
_0-0_
 10
201
 20
140
  0
SEQEND
  8
A
  0
POLYLINE
  8
_0-0_
 66
     1
 40
0.000000
 41
0.000000
  0
VERTEX
  8
_0-0_
 10
193
 20
58
  0
VERTEX
  8
_0-0_
 10
193
 20
58
  0
VERTEX
  8
_0-0_
 10
193
 20
57
  0
VERTEX
  8
_0-0_
 10
193
 20
57
  0
VERTEX
  8
_0-0_
 10
194
 20
57
  0
VERTEX
  8
_0-0_
 10
194
 20
57
  0
VERTEX
  8
_0-0_
 10
194
 20
56
  0
VERTEX
  8
_0-0_
 10
194
 20
54
  0
VERTEX
  8
_0-0_
 10
195
 20
54
  0
VERTEX
  8
_0-0_
 10
197
 20
54
  0
VERTEX
  8
_0-0_
 10
197
 20
53
  0
VERTEX
  8
_0-0_
 10
197
 20
53
  0
VERTEX
  8
_0-0_
 10
198
 20
53
  0
VERTEX
  8
_0-0_
 10
198
 20
53
  0
VERTEX
  8
_0-0_
 10
198
 20
52
  0
VERTEX
  8
_0-0_
 10
198
 20
52
  0
VERTEX
  8
_0-0_
 10
199
 20
52
  0
VERTEX
  8
_0-0_
 10
199
 20
52
  0
VERTEX
  8
_0-0_
 10
199
 20
51
  0
VERTEX
  8
_0-0_
 10
199
 20
51
  0
VERTEX
  8
_0-0_
 10
200
 20
51
  0
VERTEX
  8
_0-0_
 10
200
 20
51
  0
VERTEX
  8
_0-0_
 10
200
 20
50
  0
VERTEX
  8
_0-0_
 10
200
 20
50
  0
VERTEX
  8
_0-0_
 10
201
 20
50
  0
VERTEX
  8
_0-0_
 10
201
 20
50
  0
VERTEX
  8
_0-0_
 10
201
 20
49
  0
VERTEX
  8
_0-0_
 10
201
 20
45
  0
VERTEX
  8
_0-0_
 10
200
 20
45
  0
VERTEX
  8
_0-0_
 10
200
 20
45
  0
VERTEX
  8
_0-0_
 10
200
 20
44
  0
VERTEX
  8
_0-0_
 10
200
 20
43
  0
VERTEX
  8
_0-0_
 10
199
 20
43
  0
VERTEX
  8
_0-0_
 10
199
 20
43
  0
VERTEX
  8
_0-0_
 10
199
 20
42
  0
VERTEX
  8
_0-0_
 10
199
 20
42
  0
VERTEX
  8
_0-0_
 10
198
 20
42
  0
VERTEX
  8
_0-0_
 10
198
 20
42
  0
VERTEX
  8
_0-0_
 10
198
 20
41
  0
VERTEX
  8
_0-0_
 10
198
 20
39
  0
VERTEX
  8
_0-0_
 10
197
 20
39
  0
VERTEX
  8
_0-0_
 10
197
 20
39
  0
VERTEX
  8
_0-0_
 10
197
 20
38
  0
VERTEX
  8
_0-0_
 10
197
 20
38
  0
VERTEX
  8
_0-0_
 10
196
 20
38
  0
VERTEX
  8
_0-0_
 10
196
 20
38
  0
VERTEX
  8
_0-0_
 10
195
 20
39
  0
VERTEX
  8
_0-0_
 10
194
 20
40
  0
SEQEND
  8
A
  0
POLYLINE
  8
_0-0_
 66
     1
 40
0.000000
 41
0.000000
  0
VERTEX
  8
_0-0_
 10
193
 20
57
  0
VERTEX
  8
_0-0_
 10
193
 20
57
  0
VERTEX
  8
_0-0_
 10
193
 20
58
  0
VERTEX
  8
_0-0_
 10
193
 20
58
  0
VERTEX
  8
_0-0_
 10
193
 20
57
  0
VERTEX
  8
_0-0_
 10
193
 20
57
  0
VERTEX
  8
_0-0_
 10
193
 20
58
  0
VERTEX
  8
_0-0_
 10
193
 20
58
  0
VERTEX
  8
_0-0_
 10
194
 20
58
  0
VERTEX
  8
_0-0_
 10
195
 20
58
  0
VERTEX
  8
_0-0_
 10
195
 20
59
  0
VERTEX
  8
_0-0_
 10
195
 20
59
  0
VERTEX
  8
_0-0_
 10
196
 20
59
  0
VERTEX
  8
_0-0_
 10
198
 20
59
  0
VERTEX
  8
_0-0_
 10
198
 20
58
  0
VERTEX
  8
_0-0_
 10
198
 20
58
  0
VERTEX
  8
_0-0_
 10
199
 20
58
  0
VERTEX
  8
_0-0_
 10
206
 20
58
  0
VERTEX
  8
_0-0_
 10
206
 20
59
  0
VERTEX
  8
_0-0_
 10
206
 20
59
  0
VERTEX
  8
_0-0_
 10
207
 20
59
  0
VERTEX
  8
_0-0_
 10
207
 20
59
  0
VERTEX
  8
_0-0_
 10
207
 20
60
  0
VERTEX
  8
_0-0_
 10
207
 20
61
  0
VERTEX
  8
_0-0_
 10
208
 20
61
  0
VERTEX
  8
_0-0_
 10
208
 20
61
  0
VERTEX
  8
_0-0_
 10
208
 20
62
  0
VERTEX
  8
_0-0_
 10
208
 20
63
  0
VERTEX
  8
_0-0_
 10
209
 20
63
  0
VERTEX
  8
_0-0_
 10
209
 20
63
  0
VERTEX
  8
_0-0_
 10
209
 20
64
  0
VERTEX
  8
_0-0_
 10
209
 20
65
  0
VERTEX
  8
_0-0_
 10
208
 20
65
  0
VERTEX
  8
_0-0_
 10
208
 20
65
  0
VERTEX
  8
_0-0_
 10
208
 20
66
  0
VERTEX
  8
_0-0_
 10
208
 20
67
  0
VERTEX
  8
_0-0_
 10
209
 20
67
  0
VERTEX
  8
_0-0_
 10
210
 20
67
  0
VERTEX
  8
_0-0_
 10
210
 20
68
  0
VERTEX
  8
_0-0_
 10
210
 20
68
  0
VERTEX
  8
_0-0_
 10
211
 20
68
  0
VERTEX
  8
_0-0_
 10
213
 20
68
  0
VERTEX
  8
_0-0_
 10
213
 20
67
  0
VERTEX
  8
_0-0_
 10
213
 20
67
  0
VERTEX
  8
_0-0_
 10
214
 20
67
  0
VERTEX
  8
_0-0_
 10
214
 20
67
  0
VERTEX
  8
_0-0_
 10
214
 20
66
  0
VERTEX
  8
_0-0_
 10
214
 20
64
  0
VERTEX
  8
_0-0_
 10
213
 20
64
  0
VERTEX
  8
_0-0_
 10
213
 20
64
  0
VERTEX
  8
_0-0_
 10
213
 20
63
  0
VERTEX
  8
_0-0_
 10
213
 20
62
  0
VERTEX
  8
_0-0_
 10
214
 20
62
  0
VERTEX
  8
_0-0_
 10
214
 20
62
  0
VERTEX
  8
_0-0_
 10
214
 20
61
  0
VERTEX
  8
_0-0_
 10
214
 20
61
  0
VERTEX
  8
_0-0_
 10
215
 20
61
  0
VERTEX
  8
_0-0_
 10
215
 20
61
  0
VERTEX
  8
_0-0_
 10
215
 20
60
  0
VERTEX
  8
_0-0_
 10
215
 20
57
  0
VERTEX
  8
_0-0_
 10
216
 20
57
  0
VERTEX
  8
_0-0_
 10
223
 20
57
  0
VERTEX
  8
_0-0_
 10
223
 20
58
  0
VERTEX
  8
_0-0_
 10
223
 20
58
  0
VERTEX
  8
_0-0_
 10
224
 20
58
  0
VERTEX
  8
_0-0_
 10
226
 20
58
  0
VERTEX
  8
_0-0_
 10
226
 20
57
  0
SEQEND
  8
A
  0
POINT
  8
_0-0_
 62
    7
 10
195
 20
130
  0
POLYLINE
  8
_0-0_
 66
     1
 40
0.000000
 41
0.000000
  0
VERTEX
  8
_0-0_
 10
196
 20
41
  0
VERTEX
  8
_0-0_
 10
196
 20
41
  0
VERTEX
  8
_0-0_
 10
197
 20
41
  0
VERTEX
  8
_0-0_
 10
197
 20
41
  0
VERTEX
  8
_0-0_
 10
197
 20
42
  0
VERTEX
  8
_0-0_
 10
197
 20
42
  0
VERTEX
  8
_0-0_
 10
197
 20
41
  0
VERTEX
  8
_0-0_
 10
197
 20
41
  0
VERTEX
  8
_0-0_
 10
196
 20
41
  0
VERTEX
  8
_0-0_
 10
196
 20
41
  0
SEQEND
  8
A
  0
POINT
  8
_0-0_
 62
    7
 10
197
 20
60
  0
POINT
  8
_0-0_
 62
    7
 10
198
 20
44
  0
POINT
  8
_0-0_
 62
    7
 10
211
 20
69
  0
POINT
  8
_0-0_
 62
    7
 10
214
 20
37
  0
POINT
  8
_0-0_
 62
    7
 10
215
 20
67
  0
POLYLINE
  8
_0-0_
 66
     1
 40
0.000000
 41
0.000000
  0
VERTEX
  8
_0-0_
 10
217
 20
49
  0
VERTEX
  8
_0-0_
 10
217
 20
49
  0
VERTEX
  8
_0-0_
 10
217
 20
48
  0
VERTEX
  8
_0-0_
 10
217
 20
46
  0
VERTEX
  8
_0-0_
 10
218
 20
46
  0
VERTEX
  8
_0-0_
 10
218
 20
46
  0
VERTEX
  8
_0-0_
 10
218
 20
45
  0
VERTEX
  8
_0-0_
 10
218
 20
42
  0
VERTEX
  8
_0-0_
 10
219
 20
42
  0
VERTEX
  8
_0-0_
 10
219
 20
42
  0
VERTEX
  8
_0-0_
 10
219
 20
41
  0
VERTEX
  8
_0-0_
 10
219
 20
38
  0
SEQEND
  8
A
  0
POLYLINE
  8
_0-0_
 66
     1
 40
0.000000
 41
0.000000
  0
VERTEX
  8
_0-0_
 10
217
 20
48
  0
VERTEX
  8
_0-0_
 10
217
 20
48
  0
VERTEX
  8
_0-0_
 10
217
 20
49
  0
VERTEX
  8
_0-0_
 10
217
 20
49
  0
VERTEX
  8
_0-0_
 10
217
 20
48
  0
VERTEX
  8
_0-0_
 10
217
 20
48
  0
VERTEX
  8
_0-0_
 10
217
 20
49
  0
VERTEX
  8
_0-0_
 10
217
 20
49
  0
VERTEX
  8
_0-0_
 10
218
 20
49
  0
VERTEX
  8
_0-0_
 10
218
 20
49
  0
VERTEX
  8
_0-0_
 10
218
 20
50
  0
VERTEX
  8
_0-0_
 10
218
 20
50
  0
VERTEX
  8
_0-0_
 10
219
 20
50
  0
VERTEX
  8
_0-0_
 10
220
 20
50
  0
VERTEX
  8
_0-0_
 10
220
 20
49
  0
VERTEX
  8
_0-0_
 10
220
 20
49
  0
VERTEX
  8
_0-0_
 10
221
 20
49
  0
VERTEX
  8
_0-0_
 10
221
 20
49
  0
SEQEND
  8
A
  0
POINT
  8
_0-0_
 62
    7
 10
218
 20
58
  0
POINT
  8
_0-0_
 62
    7
 10
220
 20
58
  0
POLYLINE
  8
_0-0_
 66
     1
 40
0.000000
 41
0.000000
  0
VERTEX
  8
_0-0_
 10
220
 20
51
  0
VERTEX
  8
_0-0_
 10
220
 20
51
  0
VERTEX
  8
_0-0_
 10
221
 20
51
  0
VERTEX
  8
_0-0_
 10
222
 20
51
  0
VERTEX
  8
_0-0_
 10
222
 20
52
  0
VERTEX
  8
_0-0_
 10
222
 20
52
  0
VERTEX
  8
_0-0_
 10
223
 20
52
  0
VERTEX
  8
_0-0_
 10
223
 20
52
  0
VERTEX
  8
_0-0_
 10
223
 20
53
  0
VERTEX
  8
_0-0_
 10
223
 20
53
  0
VERTEX
  8
_0-0_
 10
224
 20
53
  0
VERTEX
  8
_0-0_
 10
225
 20
53
  0
VERTEX
  8
_0-0_
 10
225
 20
52
  0
VERTEX
  8
_0-0_
 10
225
 20
52
  0
VERTEX
  8
_0-0_
 10
226
 20
52
  0
VERTEX
  8
_0-0_
 10
226
 20
52
  0
VERTEX
  8
_0-0_
 10
226
 20
51
  0
SEQEND
  8
A
  0
POLYLINE
  8
_0-0_
 66
     1
 40
0.000000
 41
0.000000
  0
VERTEX
  8
_0-0_
 10
220
 20
41
  0
VERTEX
  8
_0-0_
 10
220
 20
41
  0
VERTEX
  8
_0-0_
 10
220
 20
40
  0
VERTEX
  8
_0-0_
 10
220
 20
40
  0
VERTEX
  8
_0-0_
 10
220
 20
41
  0
VERTEX
  8
_0-0_
 10
220
 20
41
  0
VERTEX
  8
_0-0_
 10
220
 20
40
  0
VERTEX
  8
_0-0_
 10
220
 20
40
  0
SEQEND
  8
A
  0
POLYLINE
  8
_0-0_
 66
     1
 40
0.000000
 41
0.000000
  0
VERTEX
  8
_0-0_
 10
221
 20
51
  0
VERTEX
  8
_0-0_
 10
221
 20
51
  0
VERTEX
  8
_0-0_
 10
220
 20
51
  0
VERTEX
  8
_0-0_
 10
220
 20
51
  0
VERTEX
  8
_0-0_
 10
221
 20
51
  0
VERTEX
  8
_0-0_
 10
221
 20
51
  0
VERTEX
  8
_0-0_
 10
220
 20
51
  0
VERTEX
  8
_0-0_
 10
220
 20
51
  0
SEQEND
  8
A
  0
ENDSEC
  0
EOF
