  0
SECTION
  2
HEADER
  9
$ACADVER
  1
AC1009
  9
$INSBASE
 10
0
 20
0
 30
0
  9
$EXTMIN
 10
0
 20
0
  9
$EXTMAX
 10
841
 20
594
  9
$LIMMIN
 10
0
 20
0
  9
$LIMMAX
 10
841
 20
594
  9
$LTSCALE
 40
1
  0
ENDSEC
  0
SECTION
  2
TABLES
  0
TABLE
  2
LTYPE
 70
     9
  0
LTYPE
  2
CONTINUOUS
 70
    64
  3
é¿ê¸
 72
    65
 73
     0
 40
0.0
  0
LTYPE
  2
DASHED1
 70
    64
  3
--  --  --  --  --  --  --  --  
 72
    65
 73
     2
 40
2.5
 49
1.25
 49
-1.25
  0
LTYPE
  2
DASHED2
 70
    64
  3
----    ----    ----    ----    
 72
    65
 73
     2
 40
5.0
 49
2.5
 49
-2.5
  0
LTYPE
  2
DASHED3
 70
    64
  3
------  ------  ------  ------  
 72
    65
 73
     2
 40
5.0
 49
3.75
 49
-1.25
  0
LTYPE
  2
CENTER1
 70
    64
  3
----- - ----- - ----- - ----- - 
 72
    65
 73
     4
 40
10.0
 49
6.25
 49
-1.25
 49
1.25
 49
-1.25
  0
LTYPE
  2
CENTER2
 70
    64
  3
----------  --  ----------  --  
 72
    65
 73
     4
 40
20.0
 49
12.5
 49
-2.5
 49
2.5
 49
-2.5
  0
LTYPE
  2
PHANTOM1
 70
    64
  3
--- - - --- - - --- - - --- - - 
 72
    65
 73
     6
 40
10.0
 49
3.25
 49
-1.25
 49
1.25
 49
-1.25
 49
1.25
 49
-1.25
  0
LTYPE
  2
PHANTOM2
 70
    64
  3
--------  -  -  --------  -  -  
 72
    65
 73
     6
 40
20.0
 49
10.0
 49
-2.5
 49
1.25
 49
-2.5
 49
1.25
 49
-2.5
  0
LTYPE
  2
DOT
 70
    64
  3
-   -   -   -   -   -   -   -   
 72
    65
 73
     2
 40
2.5
 49
0.625
 49
-1.875
  0
LTYPE
  2
DUMMY
 70
    64
  3
É_É~Å[
 72
    65
 73
     0
 40
0.0
  0
LTYPE
  2
RAND1
 70
    64
  3
----- - ----- - ----- - ----- - 
 72
    65
 73
     4
 40
10.0
 49
6.25
 49
-1.25
 49
1.25
 49
-1.25
  0
LTYPE
  2
RAND2
 70
    64
  3
----------  --  ----------  --  
 72
    65
 73
     4
 40
20.0
 49
12.5
 49
-2.5
 49
2.5
 49
-2.5
  0
LTYPE
  2
RAND3
 70
    64
  3
--- - - --- - - --- - - --- - - 
 72
    65
 73
     6
 40
10.0
 49
3.25
 49
-1.25
 49
1.25
 49
-1.25
 49
1.25
 49
-1.25
  0
LTYPE
  2
RAND4
 70
    64
  3
--------  -  -  --------  -  -  
 72
    65
 73
     6
 40
20.0
 49
10.0
 49
-2.5
 49
1.25
 49
-2.5
 49
1.25
 49
-2.5
  0
LTYPE
  2
RAND5
 70
    64
  3
----- - ----- - ----- - ----- - 
 72
    65
 73
     4
 40
10.0
 49
6.25
 49
-1.25
 49
1.25
 49
-1.25
  0
LTYPE
  2
LONG1
 70
    64
  3
----------  --  ----------  --  
 72
    65
 73
     4
 40
20.0
 49
12.5
 49
-2.5
 49
2.5
 49
-2.5
  0
LTYPE
  2
LONG2
 70
    64
  3
--- - - --- - - --- - - --- - - 
 72
    65
 73
     6
 40
10.0
 49
3.25
 49
-1.25
 49
1.25
 49
-1.25
 49
1.25
 49
-1.25
  0
LTYPE
  2
LONG3
 70
    64
  3
--------  -  -  --------  -  -  
 72
    65
 73
     6
 40
20.0
 49
10.0
 49
-2.5
 49
1.25
 49
-2.5
 49
1.25
 49
-2.5
  0
LTYPE
  2
LONG4
 70
    64
  3
----- - ----- - ----- - ----- - 
 72
    65
 73
     4
 40
10.0
 49
6.25
 49
-1.25
 49
1.25
 49
-1.25
  0
LTYPE
  2
LONG5
 70
    64
  3
----------  --  ----------  --  
 72
    65
 73
     4
 40
20.0
 49
12.5
 49
-2.5
 49
2.5
 49
-2.5
  0
ENDTAB
  0
TABLE
  2
STYLE
  5
3
100
AcDbSymbolTable
 70
     1
  0
STYLE
  5
10
100
AcDbSymbolTableRecord
100
AcDbTextStyleTableRecord
  2
STANDARD
 70
     0
 40
0.0
 41
1.0
 50
0.0
 71
     0
 42
0.2
  3
txt
  4
bigfont.shx
  0
ENDTAB
  0
TABLE
  2
LAYER
 70
    2
  0
LAYER
  2
_0-0_
 70
   64
 62
    7
  6
CONTINUOUS
  0
LAYER
  2
ADD_LINE
 70
   64
 62
    7
  6
CONTINUOUS
  0
ENDTAB
  0
ENDSEC
  0
SECTION
  2
BLOCKS
  0
ENDSEC
  0
SECTION
  2
ENTITIES
  0
POINT
  8
_0-0_
 62
    7
 10
3
 20
152
  0
LINE
  8
_0-0_
  6
CONTINUOUS
 62
    7
 10
4
 20
152
 11
4
 21
151
  0
LINE
  8
_0-0_
  6
CONTINUOUS
 62
    7
 10
5
 20
161
 11
5
 21
160
  0
POINT
  8
_0-0_
 62
    7
 10
5
 20
153
  0
POINT
  8
_0-0_
 62
    7
 10
5
 20
151
  0
POINT
  8
_0-0_
 62
    7
 10
5
 20
131
  0
POINT
  8
_0-0_
 62
    7
 10
6
 20
160
  0
POINT
  8
_0-0_
 62
    7
 10
6
 20
153
  0
POINT
  8
_0-0_
 62
    7
 10
6
 20
151
  0
LINE
  8
_0-0_
  6
CONTINUOUS
 62
    7
 10
6
 20
132
 11
6
 21
131
  0
POINT
  8
_0-0_
 62
    7
 10
7
 20
160
  0
LINE
  8
_0-0_
  6
CONTINUOUS
 62
    7
 10
7
 20
154
 11
7
 21
153
  0
POINT
  8
_0-0_
 62
    7
 10
7
 20
151
  0
POINT
  8
_0-0_
 62
    7
 10
7
 20
132
  0
POINT
  8
_0-0_
 62
    7
 10
8
 20
160
  0
POINT
  8
_0-0_
 62
    7
 10
8
 20
154
  0
POINT
  8
_0-0_
 62
    7
 10
8
 20
151
  0
POINT
  8
_0-0_
 62
    7
 10
8
 20
133
  0
POINT
  8
_0-0_
 62
    7
 10
9
 20
160
  0
POINT
  8
_0-0_
 62
    7
 10
9
 20
155
  0
POINT
  8
_0-0_
 62
    7
 10
9
 20
151
  0
POINT
  8
_0-0_
 62
    7
 10
9
 20
133
  0
POINT
  8
_0-0_
 62
    7
 10
10
 20
160
  0
POINT
  8
_0-0_
 62
    7
 10
10
 20
151
  0
LINE
  8
_0-0_
  6
CONTINUOUS
 62
    7
 10
10
 20
145
 11
10
 21
139
  0
LINE
  8
_0-0_
  6
CONTINUOUS
 62
    7
 10
10
 20
134
 11
10
 21
133
  0
POINT
  8
_0-0_
 62
    7
 10
11
 20
160
  0
POINT
  8
_0-0_
 62
    7
 10
11
 20
151
  0
LINE
  8
_0-0_
  6
CONTINUOUS
 62
    7
 10
11
 20
145
 11
11
 21
144
  0
POINT
  8
_0-0_
 62
    7
 10
11
 20
141
  0
POINT
  8
_0-0_
 62
    7
 10
11
 20
138
  0
POINT
  8
_0-0_
 62
    7
 10
11
 20
134
  0
POINT
  8
_0-0_
 62
    7
 10
12
 20
161
  0
POINT
  8
_0-0_
 62
    7
 10
12
 20
145
  0
POINT
  8
_0-0_
 62
    7
 10
12
 20
137
  0
POINT
  8
_0-0_
 62
    7
 10
12
 20
135
  0
POINT
  8
_0-0_
 62
    7
 10
12
 20
133
  0
POINT
  8
_0-0_
 62
    7
 10
13
 20
162
  0
LINE
  8
_0-0_
  6
CONTINUOUS
 62
    7
 10
13
 20
146
 11
13
 21
145
  0
POINT
  8
_0-0_
 62
    7
 10
13
 20
136
  0
LINE
  8
_0-0_
  6
CONTINUOUS
 62
    7
 10
14
 20
163
 11
14
 21
162
  0
POINT
  8
_0-0_
 62
    7
 10
14
 20
146
  0
LINE
  8
_0-0_
  6
CONTINUOUS
 62
    7
 10
14
 20
144
 11
14
 21
143
  0
POINT
  8
_0-0_
 62
    7
 10
15
 20
163
  0
LINE
  8
_0-0_
  6
CONTINUOUS
 62
    7
 10
15
 20
153
 11
15
 21
151
  0
POINT
  8
_0-0_
 62
    7
 10
15
 20
147
  0
POINT
  8
_0-0_
 62
    7
 10
15
 20
142
  0
POINT
  8
_0-0_
 62
    7
 10
16
 20
164
  0
POINT
  8
_0-0_
 62
    7
 10
16
 20
142
  0
POINT
  8
_0-0_
 62
    7
 10
17
 20
165
  0
POINT
  8
_0-0_
 62
    7
 10
17
 20
142
  0
POINT
  8
_0-0_
 62
    7
 10
18
 20
157
  0
POINT
  8
_0-0_
 62
    7
 10
18
 20
143
  0
POINT
  8
_0-0_
 62
    7
 10
18
 20
134
  0
POINT
  8
_0-0_
 62
    7
 10
19
 20
158
  0
LINE
  8
_0-0_
  6
CONTINUOUS
 62
    7
 10
19
 20
145
 11
19
 21
144
  0
LINE
  8
_0-0_
  6
CONTINUOUS
 62
    7
 10
19
 20
138
 11
19
 21
137
  0
POINT
  8
_0-0_
 62
    7
 10
19
 20
134
  0
POINT
  8
_0-0_
 62
    7
 10
20
 20
159
  0
POINT
  8
_0-0_
 62
    7
 10
20
 20
146
  0
POINT
  8
_0-0_
 62
    7
 10
20
 20
140
  0
POINT
  8
_0-0_
 62
    7
 10
20
 20
136
  0
POINT
  8
_0-0_
 62
    7
 10
20
 20
134
  0
POINT
  8
_0-0_
 62
    7
 10
21
 20
160
  0
POINT
  8
_0-0_
 62
    7
 10
21
 20
147
  0
POINT
  8
_0-0_
 62
    7
 10
21
 20
141
  0
POINT
  8
_0-0_
 62
    7
 10
21
 20
134
  0
POINT
  8
_0-0_
 62
    7
 10
22
 20
161
  0
POINT
  8
_0-0_
 62
    7
 10
22
 20
142
  0
POINT
  8
_0-0_
 62
    7
 10
22
 20
134
  0
LINE
  8
_0-0_
  6
CONTINUOUS
 62
    7
 10
23
 20
163
 11
23
 21
162
  0
POINT
  8
_0-0_
 62
    7
 10
23
 20
149
  0
POINT
  8
_0-0_
 62
    7
 10
24
 20
163
  0
POINT
  8
_0-0_
 62
    7
 10
24
 20
150
  0
POINT
  8
_0-0_
 62
    7
 10
25
 20
164
  0
LINE
  8
_0-0_
  6
CONTINUOUS
 62
    7
 10
25
 20
152
 11
25
 21
151
  0
LINE
  8
_0-0_
  6
CONTINUOUS
 62
    7
 10
26
 20
128
 11
26
 21
122
  0
POINT
  8
_0-0_
 62
    7
 10
27
 20
157
  0
LINE
  8
_0-0_
  6
CONTINUOUS
 62
    7
 10
27
 20
126
 11
27
 21
124
  0
LINE
  8
_0-0_
  6
CONTINUOUS
 62
    7
 10
28
 20
157
 11
28
 21
156
  0
LINE
  8
_0-0_
  6
CONTINUOUS
 62
    7
 10
28
 20
129
 11
28
 21
127
  0
LINE
  8
_0-0_
  6
CONTINUOUS
 62
    7
 10
28
 20
83
 11
28
 21
79
  0
LINE
  8
_0-0_
  6
CONTINUOUS
 62
    7
 10
29
 20
159
 11
29
 21
158
  0
POINT
  8
_0-0_
 62
    7
 10
29
 20
150
  0
LINE
  8
_0-0_
  6
CONTINUOUS
 62
    7
 10
29
 20
138
 11
29
 21
137
  0
POINT
  8
_0-0_
 62
    7
 10
29
 20
130
  0
LINE
  8
_0-0_
  6
CONTINUOUS
 62
    7
 10
29
 20
92
 11
29
 21
70
  0
POINT
  8
_0-0_
 62
    7
 10
30
 20
168
  0
LINE
  8
_0-0_
  6
CONTINUOUS
 62
    7
 10
30
 20
162
 11
30
 21
161
  0
POINT
  8
_0-0_
 62
    7
 10
30
 20
150
  0
POINT
  8
_0-0_
 62
    7
 10
30
 20
139
  0
LINE
  8
_0-0_
  6
CONTINUOUS
 62
    7
 10
30
 20
97
 11
30
 21
92
  0
LINE
  8
_0-0_
  6
CONTINUOUS
 62
    7
 10
30
 20
70
 11
30
 21
68
  0
POINT
  8
_0-0_
 62
    7
 10
31
 20
168
  0
LINE
  8
_0-0_
  6
CONTINUOUS
 62
    7
 10
31
 20
164
 11
31
 21
163
  0
POINT
  8
_0-0_
 62
    7
 10
31
 20
161
  0
POINT
  8
_0-0_
 62
    7
 10
31
 20
150
  0
LINE
  8
_0-0_
  6
CONTINUOUS
 62
    7
 10
31
 20
98
 11
31
 21
97
  0
POINT
  8
_0-0_
 62
    7
 10
31
 20
68
  0
LINE
  8
_0-0_
  6
CONTINUOUS
 62
    7
 10
32
 20
170
 11
32
 21
169
  0
LINE
  8
_0-0_
  6
CONTINUOUS
 62
    7
 10
32
 20
164
 11
32
 21
162
  0
POINT
  8
_0-0_
 62
    7
 10
32
 20
150
  0
LINE
  8
_0-0_
  6
CONTINUOUS
 62
    7
 10
32
 20
141
 11
32
 21
140
  0
LINE
  8
_0-0_
  6
CONTINUOUS
 62
    7
 10
32
 20
129
 11
32
 21
127
  0
POINT
  8
_0-0_
 62
    7
 10
32
 20
99
  0
POINT
  8
_0-0_
 62
    7
 10
32
 20
68
  0
LINE
  8
_0-0_
  6
CONTINUOUS
 62
    7
 10
33
 20
166
 11
33
 21
165
  0
POINT
  8
_0-0_
 62
    7
 10
33
 20
163
  0
POINT
  8
_0-0_
 62
    7
 10
33
 20
161
  0
POINT
  8
_0-0_
 62
    7
 10
33
 20
150
  0
LINE
  8
_0-0_
  6
CONTINUOUS
 62
    7
 10
33
 20
142
 11
33
 21
141
  0
LINE
  8
_0-0_
  6
CONTINUOUS
 62
    7
 10
33
 20
132
 11
33
 21
131
  0
LINE
  8
_0-0_
  6
CONTINUOUS
 62
    7
 10
33
 20
127
 11
33
 21
126
  0
POINT
  8
_0-0_
 62
    7
 10
33
 20
100
  0
POINT
  8
_0-0_
 62
    7
 10
33
 20
68
  0
LINE
  8
_0-0_
  6
CONTINUOUS
 62
    7
 10
34
 20
166
 11
34
 21
164
  0
POINT
  8
_0-0_
 62
    7
 10
34
 20
150
  0
LINE
  8
_0-0_
  6
CONTINUOUS
 62
    7
 10
34
 20
143
 11
34
 21
142
  0
POINT
  8
_0-0_
 62
    7
 10
34
 20
133
  0
POINT
  8
_0-0_
 62
    7
 10
34
 20
101
  0
POINT
  8
_0-0_
 62
    7
 10
34
 20
68
  0
POINT
  8
_0-0_
 62
    7
 10
35
 20
165
  0
LINE
  8
_0-0_
  6
CONTINUOUS
 62
    7
 10
35
 20
153
 11
35
 21
150
  0
POINT
  8
_0-0_
 62
    7
 10
35
 20
144
  0
LINE
  8
_0-0_
  6
CONTINUOUS
 62
    7
 10
35
 20
135
 11
35
 21
134
  0
POINT
  8
_0-0_
 62
    7
 10
35
 20
102
  0
POINT
  8
_0-0_
 62
    7
 10
35
 20
68
  0
LINE
  8
_0-0_
  6
CONTINUOUS
 62
    7
 10
36
 20
176
 11
36
 21
175
  0
POINT
  8
_0-0_
 62
    7
 10
36
 20
164
  0
POINT
  8
_0-0_
 62
    7
 10
36
 20
150
  0
LINE
  8
_0-0_
  6
CONTINUOUS
 62
    7
 10
36
 20
137
 11
36
 21
136
  0
POINT
  8
_0-0_
 62
    7
 10
36
 20
103
  0
POINT
  8
_0-0_
 62
    7
 10
36
 20
68
  0
LINE
  8
_0-0_
  6
CONTINUOUS
 62
    7
 10
37
 20
176
 11
37
 21
175
  0
POINT
  8
_0-0_
 62
    7
 10
37
 20
172
  0
POINT
  8
_0-0_
 62
    7
 10
37
 20
165
  0
POINT
  8
_0-0_
 62
    7
 10
37
 20
150
  0
LINE
  8
_0-0_
  6
CONTINUOUS
 62
    7
 10
37
 20
105
 11
37
 21
104
  0
POINT
  8
_0-0_
 62
    7
 10
37
 20
68
  0
LINE
  8
_0-0_
  6
CONTINUOUS
 62
    7
 10
38
 20
182
 11
38
 21
179
  0
POINT
  8
_0-0_
 62
    7
 10
38
 20
177
  0
LINE
  8
_0-0_
  6
CONTINUOUS
 62
    7
 10
38
 20
174
 11
38
 21
173
  0
LINE
  8
_0-0_
  6
CONTINUOUS
 62
    7
 10
38
 20
171
 11
38
 21
170
  0
LINE
  8
_0-0_
  6
CONTINUOUS
 62
    7
 10
38
 20
167
 11
38
 21
166
  0
LINE
  8
_0-0_
  6
CONTINUOUS
 62
    7
 10
38
 20
107
 11
38
 21
106
  0
POINT
  8
_0-0_
 62
    7
 10
38
 20
68
  0
LINE
  8
_0-0_
  6
CONTINUOUS
 62
    7
 10
39
 20
186
 11
39
 21
181
  0
LINE
  8
_0-0_
  6
CONTINUOUS
 62
    7
 10
39
 20
179
 11
39
 21
178
  0
LINE
  8
_0-0_
  6
CONTINUOUS
 62
    7
 10
39
 20
170
 11
39
 21
168
  0
LINE
  8
_0-0_
  6
CONTINUOUS
 62
    7
 10
39
 20
162
 11
39
 21
160
  0
LINE
  8
_0-0_
  6
CONTINUOUS
 62
    7
 10
39
 20
109
 11
39
 21
108
  0
POINT
  8
_0-0_
 62
    7
 10
39
 20
68
  0
LINE
  8
_0-0_
  6
CONTINUOUS
 62
    7
 10
40
 20
186
 11
40
 21
184
  0
POINT
  8
_0-0_
 62
    7
 10
40
 20
167
  0
LINE
  8
_0-0_
  6
CONTINUOUS
 62
    7
 10
40
 20
162
 11
40
 21
160
  0
LINE
  8
_0-0_
  6
CONTINUOUS
 62
    7
 10
40
 20
111
 11
40
 21
110
  0
POINT
  8
_0-0_
 62
    7
 10
40
 20
68
  0
LINE
  8
_0-0_
  6
CONTINUOUS
 62
    7
 10
41
 20
185
 11
41
 21
184
  0
LINE
  8
_0-0_
  6
CONTINUOUS
 62
    7
 10
41
 20
161
 11
41
 21
160
  0
LINE
  8
_0-0_
  6
CONTINUOUS
 62
    7
 10
41
 20
112
 11
41
 21
111
  0
POINT
  8
_0-0_
 62
    7
 10
41
 20
68
  0
POINT
  8
_0-0_
 62
    7
 10
42
 20
184
  0
POINT
  8
_0-0_
 62
    7
 10
42
 20
147
  0
LINE
  8
_0-0_
  6
CONTINUOUS
 62
    7
 10
42
 20
114
 11
42
 21
113
  0
POINT
  8
_0-0_
 62
    7
 10
42
 20
68
  0
LINE
  8
_0-0_
  6
CONTINUOUS
 62
    7
 10
43
 20
188
 11
43
 21
185
  0
LINE
  8
_0-0_
  6
CONTINUOUS
 62
    7
 10
43
 20
160
 11
43
 21
159
  0
POINT
  8
_0-0_
 62
    7
 10
43
 20
147
  0
LINE
  8
_0-0_
  6
CONTINUOUS
 62
    7
 10
43
 20
116
 11
43
 21
115
  0
POINT
  8
_0-0_
 62
    7
 10
43
 20
68
  0
LINE
  8
_0-0_
  6
CONTINUOUS
 62
    7
 10
44
 20
187
 11
44
 21
186
  0
POINT
  8
_0-0_
 62
    7
 10
44
 20
159
  0
POINT
  8
_0-0_
 62
    7
 10
44
 20
147
  0
LINE
  8
_0-0_
  6
CONTINUOUS
 62
    7
 10
44
 20
118
 11
44
 21
116
  0
POINT
  8
_0-0_
 62
    7
 10
44
 20
68
  0
LINE
  8
_0-0_
  6
CONTINUOUS
 62
    7
 10
45
 20
186
 11
45
 21
185
  0
POINT
  8
_0-0_
 62
    7
 10
45
 20
147
  0
LINE
  8
_0-0_
  6
CONTINUOUS
 62
    7
 10
45
 20
120
 11
45
 21
118
  0
POINT
  8
_0-0_
 62
    7
 10
45
 20
68
  0
LINE
  8
_0-0_
  6
CONTINUOUS
 62
    7
 10
46
 20
185
 11
46
 21
184
  0
LINE
  8
_0-0_
  6
CONTINUOUS
 62
    7
 10
46
 20
147
 11
46
 21
146
  0
LINE
  8
_0-0_
  6
CONTINUOUS
 62
    7
 10
46
 20
122
 11
46
 21
120
  0
POINT
  8
_0-0_
 62
    7
 10
46
 20
68
  0
LINE
  8
_0-0_
  6
CONTINUOUS
 62
    7
 10
47
 20
186
 11
47
 21
185
  0
LINE
  8
_0-0_
  6
CONTINUOUS
 62
    7
 10
47
 20
147
 11
47
 21
146
  0
LINE
  8
_0-0_
  6
CONTINUOUS
 62
    7
 10
47
 20
124
 11
47
 21
122
  0
POINT
  8
_0-0_
 62
    7
 10
47
 20
68
  0
LINE
  8
_0-0_
  6
CONTINUOUS
 62
    7
 10
48
 20
185
 11
48
 21
184
  0
LINE
  8
_0-0_
  6
CONTINUOUS
 62
    7
 10
48
 20
146
 11
48
 21
136
  0
LINE
  8
_0-0_
  6
CONTINUOUS
 62
    7
 10
48
 20
126
 11
48
 21
124
  0
POINT
  8
_0-0_
 62
    7
 10
48
 20
68
  0
LINE
  8
_0-0_
  6
CONTINUOUS
 62
    7
 10
49
 20
185
 11
49
 21
184
  0
LINE
  8
_0-0_
  6
CONTINUOUS
 62
    7
 10
49
 20
144
 11
49
 21
137
  0
LINE
  8
_0-0_
  6
CONTINUOUS
 62
    7
 10
49
 20
135
 11
49
 21
126
  0
LINE
  8
_0-0_
  6
CONTINUOUS
 62
    7
 10
49
 20
107
 11
49
 21
105
  0
POINT
  8
_0-0_
 62
    7
 10
49
 20
68
  0
LINE
  8
_0-0_
  6
CONTINUOUS
 62
    7
 10
50
 20
186
 11
50
 21
185
  0
POINT
  8
_0-0_
 62
    7
 10
50
 20
182
  0
POINT
  8
_0-0_
 62
    7
 10
50
 20
159
  0
LINE
  8
_0-0_
  6
CONTINUOUS
 62
    7
 10
50
 20
129
 11
50
 21
128
  0
POINT
  8
_0-0_
 62
    7
 10
50
 20
68
  0
POINT
  8
_0-0_
 62
    7
 10
51
 20
187
  0
LINE
  8
_0-0_
  6
CONTINUOUS
 62
    7
 10
51
 20
183
 11
51
 21
180
  0
POINT
  8
_0-0_
 62
    7
 10
51
 20
160
  0
POINT
  8
_0-0_
 62
    7
 10
51
 20
68
  0
POINT
  8
_0-0_
 62
    7
 10
52
 20
188
  0
POINT
  8
_0-0_
 62
    7
 10
52
 20
184
  0
LINE
  8
_0-0_
  6
CONTINUOUS
 62
    7
 10
52
 20
180
 11
52
 21
179
  0
POINT
  8
_0-0_
 62
    7
 10
52
 20
161
  0
POINT
  8
_0-0_
 62
    7
 10
52
 20
68
  0
POINT
  8
_0-0_
 62
    7
 10
53
 20
189
  0
POINT
  8
_0-0_
 62
    7
 10
53
 20
185
  0
LINE
  8
_0-0_
  6
CONTINUOUS
 62
    7
 10
53
 20
179
 11
53
 21
177
  0
POINT
  8
_0-0_
 62
    7
 10
53
 20
163
  0
POINT
  8
_0-0_
 62
    7
 10
53
 20
149
  0
POINT
  8
_0-0_
 62
    7
 10
53
 20
135
  0
POINT
  8
_0-0_
 62
    7
 10
53
 20
68
  0
POINT
  8
_0-0_
 62
    7
 10
54
 20
190
  0
POINT
  8
_0-0_
 62
    7
 10
54
 20
186
  0
LINE
  8
_0-0_
  6
CONTINUOUS
 62
    7
 10
54
 20
177
 11
54
 21
176
  0
LINE
  8
_0-0_
  6
CONTINUOUS
 62
    7
 10
54
 20
173
 11
54
 21
172
  0
POINT
  8
_0-0_
 62
    7
 10
54
 20
164
  0
LINE
  8
_0-0_
  6
CONTINUOUS
 62
    7
 10
54
 20
150
 11
54
 21
149
  0
POINT
  8
_0-0_
 62
    7
 10
54
 20
135
  0
POINT
  8
_0-0_
 62
    7
 10
54
 20
68
  0
POINT
  8
_0-0_
 62
    7
 10
55
 20
191
  0
POINT
  8
_0-0_
 62
    7
 10
55
 20
187
  0
POINT
  8
_0-0_
 62
    7
 10
55
 20
177
  0
LINE
  8
_0-0_
  6
CONTINUOUS
 62
    7
 10
55
 20
174
 11
55
 21
171
  0
LINE
  8
_0-0_
  6
CONTINUOUS
 62
    7
 10
55
 20
169
 11
55
 21
167
  0
POINT
  8
_0-0_
 62
    7
 10
55
 20
165
  0
POINT
  8
_0-0_
 62
    7
 10
55
 20
150
  0
POINT
  8
_0-0_
 62
    7
 10
55
 20
148
  0
POINT
  8
_0-0_
 62
    7
 10
55
 20
135
  0
POINT
  8
_0-0_
 62
    7
 10
55
 20
68
  0
POINT
  8
_0-0_
 62
    7
 10
56
 20
192
  0
POINT
  8
_0-0_
 62
    7
 10
56
 20
188
  0
POINT
  8
_0-0_
 62
    7
 10
56
 20
178
  0
POINT
  8
_0-0_
 62
    7
 10
56
 20
174
  0
POINT
  8
_0-0_
 62
    7
 10
56
 20
170
  0
POINT
  8
_0-0_
 62
    7
 10
56
 20
167
  0
POINT
  8
_0-0_
 62
    7
 10
56
 20
165
  0
POINT
  8
_0-0_
 62
    7
 10
56
 20
150
  0
POINT
  8
_0-0_
 62
    7
 10
56
 20
148
  0
POINT
  8
_0-0_
 62
    7
 10
56
 20
68
  0
LINE
  8
_0-0_
  6
CONTINUOUS
 62
    7
 10
57
 20
190
 11
57
 21
189
  0
POINT
  8
_0-0_
 62
    7
 10
57
 20
179
  0
POINT
  8
_0-0_
 62
    7
 10
57
 20
175
  0
POINT
  8
_0-0_
 62
    7
 10
57
 20
167
  0
POINT
  8
_0-0_
 62
    7
 10
57
 20
165
  0
POINT
  8
_0-0_
 62
    7
 10
57
 20
149
  0
POINT
  8
_0-0_
 62
    7
 10
57
 20
130
  0
POINT
  8
_0-0_
 62
    7
 10
57
 20
68
  0
POINT
  8
_0-0_
 62
    7
 10
58
 20
191
  0
POINT
  8
_0-0_
 62
    7
 10
58
 20
180
  0
LINE
  8
_0-0_
  6
CONTINUOUS
 62
    7
 10
58
 20
177
 11
58
 21
176
  0
LINE
  8
_0-0_
  6
CONTINUOUS
 62
    7
 10
58
 20
167
 11
58
 21
166
  0
POINT
  8
_0-0_
 62
    7
 10
58
 20
136
  0
POINT
  8
_0-0_
 62
    7
 10
58
 20
130
  0
POINT
  8
_0-0_
 62
    7
 10
58
 20
68
  0
POINT
  8
_0-0_
 62
    7
 10
59
 20
192
  0
POINT
  8
_0-0_
 62
    7
 10
59
 20
181
  0
POINT
  8
_0-0_
 62
    7
 10
59
 20
178
  0
POINT
  8
_0-0_
 62
    7
 10
59
 20
166
  0
POINT
  8
_0-0_
 62
    7
 10
59
 20
136
  0
POINT
  8
_0-0_
 62
    7
 10
59
 20
130
  0
POINT
  8
_0-0_
 62
    7
 10
59
 20
68
  0
POINT
  8
_0-0_
 62
    7
 10
60
 20
193
  0
LINE
  8
_0-0_
  6
CONTINUOUS
 62
    7
 10
60
 20
183
 11
60
 21
182
  0
POINT
  8
_0-0_
 62
    7
 10
60
 20
179
  0
POINT
  8
_0-0_
 62
    7
 10
60
 20
164
  0
POINT
  8
_0-0_
 62
    7
 10
60
 20
136
  0
POINT
  8
_0-0_
 62
    7
 10
60
 20
130
  0
POINT
  8
_0-0_
 62
    7
 10
60
 20
68
  0
POINT
  8
_0-0_
 62
    7
 10
61
 20
194
  0
POINT
  8
_0-0_
 62
    7
 10
61
 20
184
  0
POINT
  8
_0-0_
 62
    7
 10
61
 20
180
  0
POINT
  8
_0-0_
 62
    7
 10
61
 20
163
  0
POINT
  8
_0-0_
 62
    7
 10
61
 20
136
  0
POINT
  8
_0-0_
 62
    7
 10
61
 20
130
  0
POINT
  8
_0-0_
 62
    7
 10
61
 20
68
  0
POINT
  8
_0-0_
 62
    7
 10
62
 20
195
  0
POINT
  8
_0-0_
 62
    7
 10
62
 20
185
  0
POINT
  8
_0-0_
 62
    7
 10
62
 20
181
  0
POINT
  8
_0-0_
 62
    7
 10
62
 20
162
  0
LINE
  8
_0-0_
  6
CONTINUOUS
 62
    7
 10
62
 20
154
 11
62
 21
149
  0
POINT
  8
_0-0_
 62
    7
 10
62
 20
130
  0
POINT
  8
_0-0_
 62
    7
 10
62
 20
68
  0
POINT
  8
_0-0_
 62
    7
 10
63
 20
196
  0
POINT
  8
_0-0_
 62
    7
 10
63
 20
186
  0
POINT
  8
_0-0_
 62
    7
 10
63
 20
182
  0
LINE
  8
_0-0_
  6
CONTINUOUS
 62
    7
 10
63
 20
160
 11
63
 21
155
  0
LINE
  8
_0-0_
  6
CONTINUOUS
 62
    7
 10
63
 20
148
 11
63
 21
147
  0
LINE
  8
_0-0_
  6
CONTINUOUS
 62
    7
 10
63
 20
93
 11
63
 21
89
  0
POINT
  8
_0-0_
 62
    7
 10
63
 20
68
  0
POINT
  8
_0-0_
 62
    7
 10
64
 20
201
  0
POINT
  8
_0-0_
 62
    7
 10
64
 20
197
  0
POINT
  8
_0-0_
 62
    7
 10
64
 20
187
  0
LINE
  8
_0-0_
  6
CONTINUOUS
 62
    7
 10
64
 20
95
 11
64
 21
94
  0
LINE
  8
_0-0_
  6
CONTINUOUS
 62
    7
 10
64
 20
89
 11
64
 21
84
  0
POINT
  8
_0-0_
 62
    7
 10
64
 20
68
  0
POINT
  8
_0-0_
 62
    7
 10
65
 20
202
  0
LINE
  8
_0-0_
  6
CONTINUOUS
 62
    7
 10
65
 20
199
 11
65
 21
198
  0
POINT
  8
_0-0_
 62
    7
 10
65
 20
188
  0
POINT
  8
_0-0_
 62
    7
 10
65
 20
185
  0
LINE
  8
_0-0_
  6
CONTINUOUS
 62
    7
 10
65
 20
145
 11
65
 21
144
  0
POINT
  8
_0-0_
 62
    7
 10
65
 20
137
  0
POINT
  8
_0-0_
 62
    7
 10
65
 20
131
  0
LINE
  8
_0-0_
  6
CONTINUOUS
 62
    7
 10
65
 20
96
 11
65
 21
95
  0
LINE
  8
_0-0_
  6
CONTINUOUS
 62
    7
 10
65
 20
85
 11
65
 21
68
  0
POINT
  8
_0-0_
 62
    7
 10
66
 20
203
  0
POINT
  8
_0-0_
 62
    7
 10
66
 20
200
  0
POINT
  8
_0-0_
 62
    7
 10
66
 20
189
  0
POINT
  8
_0-0_
 62
    7
 10
66
 20
186
  0
LINE
  8
_0-0_
  6
CONTINUOUS
 62
    7
 10
66
 20
143
 11
66
 21
142
  0
LINE
  8
_0-0_
  6
CONTINUOUS
 62
    7
 10
66
 20
138
 11
66
 21
135
  0
POINT
  8
_0-0_
 62
    7
 10
66
 20
131
  0
LINE
  8
_0-0_
  6
CONTINUOUS
 62
    7
 10
66
 20
98
 11
66
 21
97
  0
LINE
  8
_0-0_
  6
CONTINUOUS
 62
    7
 10
66
 20
75
 11
66
 21
68
  0
POINT
  8
_0-0_
 62
    7
 10
67
 20
204
  0
POINT
  8
_0-0_
 62
    7
 10
67
 20
201
  0
POINT
  8
_0-0_
 62
    7
 10
67
 20
190
  0
POINT
  8
_0-0_
 62
    7
 10
67
 20
187
  0
LINE
  8
_0-0_
  6
CONTINUOUS
 62
    7
 10
67
 20
141
 11
67
 21
139
  0
LINE
  8
_0-0_
  6
CONTINUOUS
 62
    7
 10
67
 20
136
 11
67
 21
135
  0
LINE
  8
_0-0_
  6
CONTINUOUS
 62
    7
 10
67
 20
131
 11
67
 21
129
  0
LINE
  8
_0-0_
  6
CONTINUOUS
 62
    7
 10
67
 20
99
 11
67
 21
98
  0
POINT
  8
_0-0_
 62
    7
 10
68
 20
205
  0
POINT
  8
_0-0_
 62
    7
 10
68
 20
202
  0
POINT
  8
_0-0_
 62
    7
 10
68
 20
191
  0
POINT
  8
_0-0_
 62
    7
 10
68
 20
188
  0
LINE
  8
_0-0_
  6
CONTINUOUS
 62
    7
 10
68
 20
140
 11
68
 21
139
  0
LINE
  8
_0-0_
  6
CONTINUOUS
 62
    7
 10
68
 20
134
 11
68
 21
132
  0
LINE
  8
_0-0_
  6
CONTINUOUS
 62
    7
 10
68
 20
130
 11
68
 21
126
  0
LINE
  8
_0-0_
  6
CONTINUOUS
 62
    7
 10
68
 20
101
 11
68
 21
100
  0
POINT
  8
_0-0_
 62
    7
 10
69
 20
206
  0
POINT
  8
_0-0_
 62
    7
 10
69
 20
203
  0
LINE
  8
_0-0_
  6
CONTINUOUS
 62
    7
 10
69
 20
193
 11
69
 21
192
  0
POINT
  8
_0-0_
 62
    7
 10
69
 20
189
  0
LINE
  8
_0-0_
  6
CONTINUOUS
 62
    7
 10
69
 20
133
 11
69
 21
132
  0
LINE
  8
_0-0_
  6
CONTINUOUS
 62
    7
 10
69
 20
127
 11
69
 21
121
  0
LINE
  8
_0-0_
  6
CONTINUOUS
 62
    7
 10
69
 20
105
 11
69
 21
101
  0
POINT
  8
_0-0_
 62
    7
 10
70
 20
204
  0
POINT
  8
_0-0_
 62
    7
 10
70
 20
194
  0
LINE
  8
_0-0_
  6
CONTINUOUS
 62
    7
 10
70
 20
191
 11
70
 21
190
  0
LINE
  8
_0-0_
  6
CONTINUOUS
 62
    7
 10
70
 20
123
 11
70
 21
105
  0
POINT
  8
_0-0_
 62
    7
 10
71
 20
205
  0
POINT
  8
_0-0_
 62
    7
 10
71
 20
195
  0
POINT
  8
_0-0_
 62
    7
 10
71
 20
192
  0
LINE
  8
_0-0_
  6
CONTINUOUS
 62
    7
 10
71
 20
115
 11
71
 21
110
  0
LINE
  8
_0-0_
  6
CONTINUOUS
 62
    7
 10
72
 20
264
 11
72
 21
263
  0
POINT
  8
_0-0_
 62
    7
 10
72
 20
210
  0
POINT
  8
_0-0_
 62
    7
 10
72
 20
206
  0
POINT
  8
_0-0_
 62
    7
 10
72
 20
196
  0
POINT
  8
_0-0_
 62
    7
 10
72
 20
193
  0
LINE
  8
_0-0_
  6
CONTINUOUS
 62
    7
 10
73
 20
264
 11
73
 21
263
  0
POINT
  8
_0-0_
 62
    7
 10
73
 20
211
  0
POINT
  8
_0-0_
 62
    7
 10
73
 20
207
  0
POINT
  8
_0-0_
 62
    7
 10
73
 20
197
  0
POINT
  8
_0-0_
 62
    7
 10
73
 20
194
  0
LINE
  8
_0-0_
  6
CONTINUOUS
 62
    7
 10
74
 20
265
 11
74
 21
263
  0
POINT
  8
_0-0_
 62
    7
 10
74
 20
212
  0
LINE
  8
_0-0_
  6
CONTINUOUS
 62
    7
 10
74
 20
209
 11
74
 21
208
  0
POINT
  8
_0-0_
 62
    7
 10
74
 20
198
  0
POINT
  8
_0-0_
 62
    7
 10
75
 20
265
  0
LINE
  8
_0-0_
  6
CONTINUOUS
 62
    7
 10
75
 20
263
 11
75
 21
262
  0
POINT
  8
_0-0_
 62
    7
 10
75
 20
213
  0
POINT
  8
_0-0_
 62
    7
 10
75
 20
210
  0
POINT
  8
_0-0_
 62
    7
 10
75
 20
199
  0
LINE
  8
_0-0_
  6
CONTINUOUS
 62
    7
 10
75
 20
197
 11
75
 21
196
  0
POINT
  8
_0-0_
 62
    7
 10
76
 20
265
  0
POINT
  8
_0-0_
 62
    7
 10
76
 20
262
  0
POINT
  8
_0-0_
 62
    7
 10
76
 20
214
  0
POINT
  8
_0-0_
 62
    7
 10
76
 20
211
  0
LINE
  8
_0-0_
  6
CONTINUOUS
 62
    7
 10
76
 20
201
 11
76
 21
200
  0
POINT
  8
_0-0_
 62
    7
 10
76
 20
198
  0
LINE
  8
_0-0_
  6
CONTINUOUS
 62
    7
 10
77
 20
266
 11
77
 21
265
  0
LINE
  8
_0-0_
  6
CONTINUOUS
 62
    7
 10
77
 20
262
 11
77
 21
261
  0
POINT
  8
_0-0_
 62
    7
 10
77
 20
215
  0
POINT
  8
_0-0_
 62
    7
 10
77
 20
212
  0
LINE
  8
_0-0_
  6
CONTINUOUS
 62
    7
 10
77
 20
202
 11
77
 21
201
  0
POINT
  8
_0-0_
 62
    7
 10
77
 20
199
  0
POINT
  8
_0-0_
 62
    7
 10
78
 20
266
  0
POINT
  8
_0-0_
 62
    7
 10
78
 20
261
  0
POINT
  8
_0-0_
 62
    7
 10
78
 20
216
  0
POINT
  8
_0-0_
 62
    7
 10
78
 20
213
  0
POINT
  8
_0-0_
 62
    7
 10
78
 20
203
  0
POINT
  8
_0-0_
 62
    7
 10
78
 20
200
  0
LINE
  8
_0-0_
  6
CONTINUOUS
 62
    7
 10
79
 20
267
 11
79
 21
266
  0
LINE
  8
_0-0_
  6
CONTINUOUS
 62
    7
 10
79
 20
260
 11
79
 21
259
  0
LINE
  8
_0-0_
  6
CONTINUOUS
 62
    7
 10
79
 20
215
 11
79
 21
214
  0
POINT
  8
_0-0_
 62
    7
 10
79
 20
204
  0
POINT
  8
_0-0_
 62
    7
 10
79
 20
201
  0
LINE
  8
_0-0_
  6
CONTINUOUS
 62
    7
 10
80
 20
269
 11
80
 21
267
  0
LINE
  8
_0-0_
  6
CONTINUOUS
 62
    7
 10
80
 20
259
 11
80
 21
258
  0
LINE
  8
_0-0_
  6
CONTINUOUS
 62
    7
 10
80
 20
248
 11
80
 21
247
  0
POINT
  8
_0-0_
 62
    7
 10
80
 20
218
  0
POINT
  8
_0-0_
 62
    7
 10
80
 20
215
  0
POINT
  8
_0-0_
 62
    7
 10
80
 20
205
  0
POINT
  8
_0-0_
 62
    7
 10
80
 20
202
  0
POINT
  8
_0-0_
 62
    7
 10
81
 20
270
  0
POINT
  8
_0-0_
 62
    7
 10
81
 20
258
  0
POINT
  8
_0-0_
 62
    7
 10
81
 20
255
  0
LINE
  8
_0-0_
  6
CONTINUOUS
 62
    7
 10
81
 20
249
 11
81
 21
247
  0
LINE
  8
_0-0_
  6
CONTINUOUS
 62
    7
 10
81
 20
220
 11
81
 21
219
  0
LINE
  8
_0-0_
  6
CONTINUOUS
 62
    7
 10
81
 20
217
 11
81
 21
216
  0
POINT
  8
_0-0_
 62
    7
 10
81
 20
206
  0
POINT
  8
_0-0_
 62
    7
 10
81
 20
203
  0
LINE
  8
_0-0_
  6
CONTINUOUS
 62
    7
 10
82
 20
280
 11
82
 21
279
  0
POINT
  8
_0-0_
 62
    7
 10
82
 20
273
  0
LINE
  8
_0-0_
  6
CONTINUOUS
 62
    7
 10
82
 20
270
 11
82
 21
269
  0
POINT
  8
_0-0_
 62
    7
 10
82
 20
259
  0
LINE
  8
_0-0_
  6
CONTINUOUS
 62
    7
 10
82
 20
255
 11
82
 21
253
  0
POINT
  8
_0-0_
 62
    7
 10
82
 20
250
  0
POINT
  8
_0-0_
 62
    7
 10
82
 20
248
  0
POINT
  8
_0-0_
 62
    7
 10
82
 20
221
  0
LINE
  8
_0-0_
  6
CONTINUOUS
 62
    7
 10
82
 20
218
 11
82
 21
217
  0
POINT
  8
_0-0_
 62
    7
 10
82
 20
207
  0
POINT
  8
_0-0_
 62
    7
 10
82
 20
52
  0
LINE
  8
_0-0_
  6
CONTINUOUS
 62
    7
 10
83
 20
280
 11
83
 21
277
  0
LINE
  8
_0-0_
  6
CONTINUOUS
 62
    7
 10
83
 20
275
 11
83
 21
273
  0
LINE
  8
_0-0_
  6
CONTINUOUS
 62
    7
 10
83
 20
269
 11
83
 21
268
  0
LINE
  8
_0-0_
  6
CONTINUOUS
 62
    7
 10
83
 20
260
 11
83
 21
259
  0
POINT
  8
_0-0_
 62
    7
 10
83
 20
255
  0
LINE
  8
_0-0_
  6
CONTINUOUS
 62
    7
 10
83
 20
253
 11
83
 21
251
  0
POINT
  8
_0-0_
 62
    7
 10
83
 20
248
  0
LINE
  8
_0-0_
  6
CONTINUOUS
 62
    7
 10
83
 20
219
 11
83
 21
218
  0
POINT
  8
_0-0_
 62
    7
 10
83
 20
208
  0
LINE
  8
_0-0_
  6
CONTINUOUS
 62
    7
 10
83
 20
206
 11
83
 21
205
  0
LINE
  8
_0-0_
  6
CONTINUOUS
 62
    7
 10
83
 20
52
 11
83
 21
51
  0
POINT
  8
_0-0_
 62
    7
 10
84
 20
279
  0
LINE
  8
_0-0_
  6
CONTINUOUS
 62
    7
 10
84
 20
277
 11
84
 21
275
  0
POINT
  8
_0-0_
 62
    7
 10
84
 20
273
  0
POINT
  8
_0-0_
 62
    7
 10
84
 20
268
  0
POINT
  8
_0-0_
 62
    7
 10
84
 20
260
  0
POINT
  8
_0-0_
 62
    7
 10
84
 20
255
  0
POINT
  8
_0-0_
 62
    7
 10
84
 20
252
  0
LINE
  8
_0-0_
  6
CONTINUOUS
 62
    7
 10
84
 20
249
 11
84
 21
248
  0
POINT
  8
_0-0_
 62
    7
 10
84
 20
222
  0
LINE
  8
_0-0_
  6
CONTINUOUS
 62
    7
 10
84
 20
220
 11
84
 21
219
  0
LINE
  8
_0-0_
  6
CONTINUOUS
 62
    7
 10
84
 20
215
 11
84
 21
214
  0
LINE
  8
_0-0_
  6
CONTINUOUS
 62
    7
 10
84
 20
210
 11
84
 21
209
  0
LINE
  8
_0-0_
  6
CONTINUOUS
 62
    7
 10
84
 20
52
 11
84
 21
51
  0
POINT
  8
_0-0_
 62
    7
 10
85
 20
279
  0
POINT
  8
_0-0_
 62
    7
 10
85
 20
273
  0
POINT
  8
_0-0_
 62
    7
 10
85
 20
267
  0
LINE
  8
_0-0_
  6
CONTINUOUS
 62
    7
 10
85
 20
261
 11
85
 21
260
  0
POINT
  8
_0-0_
 62
    7
 10
85
 20
255
  0
LINE
  8
_0-0_
  6
CONTINUOUS
 62
    7
 10
85
 20
249
 11
85
 21
248
  0
LINE
  8
_0-0_
  6
CONTINUOUS
 62
    7
 10
85
 20
223
 11
85
 21
221
  0
LINE
  8
_0-0_
  6
CONTINUOUS
 62
    7
 10
85
 20
217
 11
85
 21
214
  0
LINE
  8
_0-0_
  6
CONTINUOUS
 62
    7
 10
85
 20
211
 11
85
 21
210
  0
POINT
  8
_0-0_
 62
    7
 10
85
 20
208
  0
LINE
  8
_0-0_
  6
CONTINUOUS
 62
    7
 10
85
 20
53
 11
85
 21
52
  0
POINT
  8
_0-0_
 62
    7
 10
85
 20
50
  0
LINE
  8
_0-0_
  6
CONTINUOUS
 62
    7
 10
86
 20
279
 11
86
 21
278
  0
POINT
  8
_0-0_
 62
    7
 10
86
 20
273
  0
LINE
  8
_0-0_
  6
CONTINUOUS
 62
    7
 10
86
 20
267
 11
86
 21
266
  0
POINT
  8
_0-0_
 62
    7
 10
86
 20
261
  0
POINT
  8
_0-0_
 62
    7
 10
86
 20
255
  0
POINT
  8
_0-0_
 62
    7
 10
86
 20
248
  0
POINT
  8
_0-0_
 62
    7
 10
86
 20
223
  0
LINE
  8
_0-0_
  6
CONTINUOUS
 62
    7
 10
86
 20
219
 11
86
 21
218
  0
POINT
  8
_0-0_
 62
    7
 10
86
 20
215
  0
POINT
  8
_0-0_
 62
    7
 10
86
 20
212
  0
POINT
  8
_0-0_
 62
    7
 10
86
 20
209
  0
POINT
  8
_0-0_
 62
    7
 10
86
 20
53
  0
POINT
  8
_0-0_
 62
    7
 10
86
 20
50
  0
LINE
  8
_0-0_
  6
CONTINUOUS
 62
    7
 10
87
 20
279
 11
87
 21
278
  0
POINT
  8
_0-0_
 62
    7
 10
87
 20
273
  0
LINE
  8
_0-0_
  6
CONTINUOUS
 62
    7
 10
87
 20
267
 11
87
 21
266
  0
LINE
  8
_0-0_
  6
CONTINUOUS
 62
    7
 10
87
 20
262
 11
87
 21
261
  0
POINT
  8
_0-0_
 62
    7
 10
87
 20
255
  0
POINT
  8
_0-0_
 62
    7
 10
87
 20
247
  0
POINT
  8
_0-0_
 62
    7
 10
87
 20
223
  0
LINE
  8
_0-0_
  6
CONTINUOUS
 62
    7
 10
87
 20
220
 11
87
 21
218
  0
POINT
  8
_0-0_
 62
    7
 10
87
 20
215
  0
POINT
  8
_0-0_
 62
    7
 10
87
 20
213
  0
POINT
  8
_0-0_
 62
    7
 10
87
 20
210
  0
POINT
  8
_0-0_
 62
    7
 10
87
 20
199
  0
POINT
  8
_0-0_
 62
    7
 10
87
 20
53
  0
POINT
  8
_0-0_
 62
    7
 10
87
 20
50
  0
LINE
  8
_0-0_
  6
CONTINUOUS
 62
    7
 10
88
 20
280
 11
88
 21
279
  0
POINT
  8
_0-0_
 62
    7
 10
88
 20
273
  0
LINE
  8
_0-0_
  6
CONTINUOUS
 62
    7
 10
88
 20
267
 11
88
 21
266
  0
POINT
  8
_0-0_
 62
    7
 10
88
 20
261
  0
POINT
  8
_0-0_
 62
    7
 10
88
 20
255
  0
LINE
  8
_0-0_
  6
CONTINUOUS
 62
    7
 10
88
 20
247
 11
88
 21
246
  0
POINT
  8
_0-0_
 62
    7
 10
88
 20
224
  0
LINE
  8
_0-0_
  6
CONTINUOUS
 62
    7
 10
88
 20
217
 11
88
 21
216
  0
POINT
  8
_0-0_
 62
    7
 10
88
 20
214
  0
LINE
  8
_0-0_
  6
CONTINUOUS
 62
    7
 10
88
 20
202
 11
88
 21
199
  0
POINT
  8
_0-0_
 62
    7
 10
88
 20
53
  0
POINT
  8
_0-0_
 62
    7
 10
88
 20
49
  0
LINE
  8
_0-0_
  6
CONTINUOUS
 62
    7
 10
89
 20
281
 11
89
 21
280
  0
LINE
  8
_0-0_
  6
CONTINUOUS
 62
    7
 10
89
 20
273
 11
89
 21
272
  0
LINE
  8
_0-0_
  6
CONTINUOUS
 62
    7
 10
89
 20
267
 11
89
 21
266
  0
POINT
  8
_0-0_
 62
    7
 10
89
 20
261
  0
LINE
  8
_0-0_
  6
CONTINUOUS
 62
    7
 10
89
 20
256
 11
89
 21
255
  0
LINE
  8
_0-0_
  6
CONTINUOUS
 62
    7
 10
89
 20
249
 11
89
 21
248
  0
LINE
  8
_0-0_
  6
CONTINUOUS
 62
    7
 10
89
 20
227
 11
89
 21
223
  0
LINE
  8
_0-0_
  6
CONTINUOUS
 62
    7
 10
89
 20
221
 11
89
 21
220
  0
POINT
  8
_0-0_
 62
    7
 10
89
 20
217
  0
POINT
  8
_0-0_
 62
    7
 10
89
 20
212
  0
POINT
  8
_0-0_
 62
    7
 10
89
 20
203
  0
LINE
  8
_0-0_
  6
CONTINUOUS
 62
    7
 10
89
 20
200
 11
89
 21
199
  0
POINT
  8
_0-0_
 62
    7
 10
89
 20
69
  0
LINE
  8
_0-0_
  6
CONTINUOUS
 62
    7
 10
89
 20
55
 11
89
 21
54
  0
POINT
  8
_0-0_
 62
    7
 10
89
 20
49
  0
LINE
  8
_0-0_
  6
CONTINUOUS
 62
    7
 10
90
 20
282
 11
90
 21
279
  0
POINT
  8
_0-0_
 62
    7
 10
90
 20
272
  0
LINE
  8
_0-0_
  6
CONTINUOUS
 62
    7
 10
90
 20
267
 11
90
 21
266
  0
POINT
  8
_0-0_
 62
    7
 10
90
 20
261
  0
POINT
  8
_0-0_
 62
    7
 10
90
 20
256
  0
LINE
  8
_0-0_
  6
CONTINUOUS
 62
    7
 10
90
 20
251
 11
90
 21
250
  0
LINE
  8
_0-0_
  6
CONTINUOUS
 62
    7
 10
90
 20
228
 11
90
 21
225
  0
POINT
  8
_0-0_
 62
    7
 10
90
 20
222
  0
POINT
  8
_0-0_
 62
    7
 10
90
 20
220
  0
LINE
  8
_0-0_
  6
CONTINUOUS
 62
    7
 10
90
 20
218
 11
90
 21
216
  0
POINT
  8
_0-0_
 62
    7
 10
90
 20
213
  0
POINT
  8
_0-0_
 62
    7
 10
90
 20
204
  0
LINE
  8
_0-0_
  6
CONTINUOUS
 62
    7
 10
90
 20
201
 11
90
 21
199
  0
LINE
  8
_0-0_
  6
CONTINUOUS
 62
    7
 10
90
 20
70
 11
90
 21
69
  0
LINE
  8
_0-0_
  6
CONTINUOUS
 62
    7
 10
90
 20
56
 11
90
 21
55
  0
LINE
  8
_0-0_
  6
CONTINUOUS
 62
    7
 10
90
 20
50
 11
90
 21
49
  0
LINE
  8
_0-0_
  6
CONTINUOUS
 62
    7
 10
91
 20
279
 11
91
 21
276
  0
POINT
  8
_0-0_
 62
    7
 10
91
 20
271
  0
LINE
  8
_0-0_
  6
CONTINUOUS
 62
    7
 10
91
 20
267
 11
91
 21
266
  0
POINT
  8
_0-0_
 62
    7
 10
91
 20
261
  0
POINT
  8
_0-0_
 62
    7
 10
91
 20
257
  0
POINT
  8
_0-0_
 62
    7
 10
91
 20
252
  0
LINE
  8
_0-0_
  6
CONTINUOUS
 62
    7
 10
91
 20
230
 11
91
 21
227
  0
POINT
  8
_0-0_
 62
    7
 10
91
 20
222
  0
POINT
  8
_0-0_
 62
    7
 10
91
 20
220
  0
LINE
  8
_0-0_
  6
CONTINUOUS
 62
    7
 10
91
 20
218
 11
91
 21
217
  0
POINT
  8
_0-0_
 62
    7
 10
91
 20
215
  0
POINT
  8
_0-0_
 62
    7
 10
91
 20
213
  0
LINE
  8
_0-0_
  6
CONTINUOUS
 62
    7
 10
91
 20
205
 11
91
 21
204
  0
LINE
  8
_0-0_
  6
CONTINUOUS
 62
    7
 10
91
 20
202
 11
91
 21
201
  0
LINE
  8
_0-0_
  6
CONTINUOUS
 62
    7
 10
91
 20
71
 11
91
 21
70
  0
LINE
  8
_0-0_
  6
CONTINUOUS
 62
    7
 10
91
 20
57
 11
91
 21
56
  0
POINT
  8
_0-0_
 62
    7
 10
91
 20
50
  0
LINE
  8
_0-0_
  6
CONTINUOUS
 62
    7
 10
92
 20
276
 11
92
 21
275
  0
LINE
  8
_0-0_
  6
CONTINUOUS
 62
    7
 10
92
 20
271
 11
92
 21
270
  0
LINE
  8
_0-0_
  6
CONTINUOUS
 62
    7
 10
92
 20
267
 11
92
 21
266
  0
POINT
  8
_0-0_
 62
    7
 10
92
 20
261
  0
LINE
  8
_0-0_
  6
CONTINUOUS
 62
    7
 10
92
 20
258
 11
92
 21
257
  0
LINE
  8
_0-0_
  6
CONTINUOUS
 62
    7
 10
92
 20
253
 11
92
 21
252
  0
LINE
  8
_0-0_
  6
CONTINUOUS
 62
    7
 10
92
 20
230
 11
92
 21
229
  0
POINT
  8
_0-0_
 62
    7
 10
92
 20
222
  0
LINE
  8
_0-0_
  6
CONTINUOUS
 62
    7
 10
92
 20
219
 11
92
 21
217
  0
POINT
  8
_0-0_
 62
    7
 10
92
 20
215
  0
POINT
  8
_0-0_
 62
    7
 10
92
 20
213
  0
LINE
  8
_0-0_
  6
CONTINUOUS
 62
    7
 10
92
 20
206
 11
92
 21
205
  0
LINE
  8
_0-0_
  6
CONTINUOUS
 62
    7
 10
92
 20
203
 11
92
 21
202
  0
LINE
  8
_0-0_
  6
CONTINUOUS
 62
    7
 10
92
 20
73
 11
92
 21
72
  0
POINT
  8
_0-0_
 62
    7
 10
92
 20
70
  0
LINE
  8
_0-0_
  6
CONTINUOUS
 62
    7
 10
92
 20
59
 11
92
 21
58
  0
POINT
  8
_0-0_
 62
    7
 10
92
 20
50
  0
POINT
  8
_0-0_
 62
    7
 10
93
 20
275
  0
LINE
  8
_0-0_
  6
CONTINUOUS
 62
    7
 10
93
 20
270
 11
93
 21
269
  0
LINE
  8
_0-0_
  6
CONTINUOUS
 62
    7
 10
93
 20
267
 11
93
 21
266
  0
POINT
  8
_0-0_
 62
    7
 10
93
 20
261
  0
LINE
  8
_0-0_
  6
CONTINUOUS
 62
    7
 10
93
 20
259
 11
93
 21
258
  0
POINT
  8
_0-0_
 62
    7
 10
93
 20
253
  0
LINE
  8
_0-0_
  6
CONTINUOUS
 62
    7
 10
93
 20
231
 11
93
 21
230
  0
POINT
  8
_0-0_
 62
    7
 10
93
 20
221
  0
POINT
  8
_0-0_
 62
    7
 10
93
 20
218
  0
LINE
  8
_0-0_
  6
CONTINUOUS
 62
    7
 10
93
 20
214
 11
93
 21
213
  0
LINE
  8
_0-0_
  6
CONTINUOUS
 62
    7
 10
93
 20
207
 11
93
 21
206
  0
POINT
  8
_0-0_
 62
    7
 10
93
 20
204
  0
LINE
  8
_0-0_
  6
CONTINUOUS
 62
    7
 10
93
 20
74
 11
93
 21
73
  0
POINT
  8
_0-0_
 62
    7
 10
93
 20
71
  0
LINE
  8
_0-0_
  6
CONTINUOUS
 62
    7
 10
93
 20
60
 11
93
 21
59
  0
POINT
  8
_0-0_
 62
    7
 10
93
 20
51
  0
POINT
  8
_0-0_
 62
    7
 10
93
 20
33
  0
POINT
  8
_0-0_
 62
    7
 10
94
 20
274
  0
LINE
  8
_0-0_
  6
CONTINUOUS
 62
    7
 10
94
 20
269
 11
94
 21
268
  0
LINE
  8
_0-0_
  6
CONTINUOUS
 62
    7
 10
94
 20
261
 11
94
 21
259
  0
LINE
  8
_0-0_
  6
CONTINUOUS
 62
    7
 10
94
 20
254
 11
94
 21
253
  0
LINE
  8
_0-0_
  6
CONTINUOUS
 62
    7
 10
94
 20
231
 11
94
 21
230
  0
POINT
  8
_0-0_
 62
    7
 10
94
 20
221
  0
LINE
  8
_0-0_
  6
CONTINUOUS
 62
    7
 10
94
 20
219
 11
94
 21
218
  0
LINE
  8
_0-0_
  6
CONTINUOUS
 62
    7
 10
94
 20
214
 11
94
 21
213
  0
LINE
  8
_0-0_
  6
CONTINUOUS
 62
    7
 10
94
 20
208
 11
94
 21
207
  0
POINT
  8
_0-0_
 62
    7
 10
94
 20
205
  0
POINT
  8
_0-0_
 62
    7
 10
94
 20
75
  0
POINT
  8
_0-0_
 62
    7
 10
94
 20
71
  0
LINE
  8
_0-0_
  6
CONTINUOUS
 62
    7
 10
94
 20
62
 11
94
 21
61
  0
POINT
  8
_0-0_
 62
    7
 10
94
 20
51
  0
LINE
  8
_0-0_
  6
CONTINUOUS
 62
    7
 10
94
 20
35
 11
94
 21
33
  0
LINE
  8
_0-0_
  6
CONTINUOUS
 62
    7
 10
95
 20
274
 11
95
 21
273
  0
POINT
  8
_0-0_
 62
    7
 10
95
 20
268
  0
POINT
  8
_0-0_
 62
    7
 10
95
 20
260
  0
POINT
  8
_0-0_
 62
    7
 10
95
 20
254
  0
LINE
  8
_0-0_
  6
CONTINUOUS
 62
    7
 10
95
 20
229
 11
95
 21
225
  0
POINT
  8
_0-0_
 62
    7
 10
95
 20
221
  0
POINT
  8
_0-0_
 62
    7
 10
95
 20
219
  0
LINE
  8
_0-0_
  6
CONTINUOUS
 62
    7
 10
95
 20
213
 11
95
 21
212
  0
POINT
  8
_0-0_
 62
    7
 10
95
 20
209
  0
LINE
  8
_0-0_
  6
CONTINUOUS
 62
    7
 10
95
 20
207
 11
95
 21
206
  0
LINE
  8
_0-0_
  6
CONTINUOUS
 62
    7
 10
95
 20
77
 11
95
 21
76
  0
POINT
  8
_0-0_
 62
    7
 10
95
 20
72
  0
LINE
  8
_0-0_
  6
CONTINUOUS
 62
    7
 10
95
 20
65
 11
95
 21
62
  0
LINE
  8
_0-0_
  6
CONTINUOUS
 62
    7
 10
95
 20
52
 11
95
 21
51
  0
LINE
  8
_0-0_
  6
CONTINUOUS
 62
    7
 10
95
 20
37
 11
95
 21
36
  0
POINT
  8
_0-0_
 62
    7
 10
95
 20
34
  0
POINT
  8
_0-0_
 62
    7
 10
96
 20
273
  0
POINT
  8
_0-0_
 62
    7
 10
96
 20
255
  0
LINE
  8
_0-0_
  6
CONTINUOUS
 62
    7
 10
96
 20
226
 11
96
 21
225
  0
LINE
  8
_0-0_
  6
CONTINUOUS
 62
    7
 10
96
 20
221
 11
96
 21
219
  0
POINT
  8
_0-0_
 62
    7
 10
96
 20
213
  0
LINE
  8
_0-0_
  6
CONTINUOUS
 62
    7
 10
96
 20
211
 11
96
 21
210
  0
LINE
  8
_0-0_
  6
CONTINUOUS
 62
    7
 10
96
 20
79
 11
96
 21
78
  0
LINE
  8
_0-0_
  6
CONTINUOUS
 62
    7
 10
96
 20
70
 11
96
 21
65
  0
POINT
  8
_0-0_
 62
    7
 10
96
 20
52
  0
LINE
  8
_0-0_
  6
CONTINUOUS
 62
    7
 10
96
 20
39
 11
96
 21
38
  0
POINT
  8
_0-0_
 62
    7
 10
96
 20
35
  0
LINE
  8
_0-0_
  6
CONTINUOUS
 62
    7
 10
97
 20
273
 11
97
 21
272
  0
LINE
  8
_0-0_
  6
CONTINUOUS
 62
    7
 10
97
 20
256
 11
97
 21
255
  0
LINE
  8
_0-0_
  6
CONTINUOUS
 62
    7
 10
97
 20
234
 11
97
 21
232
  0
POINT
  8
_0-0_
 62
    7
 10
97
 20
226
  0
LINE
  8
_0-0_
  6
CONTINUOUS
 62
    7
 10
97
 20
224
 11
97
 21
223
  0
LINE
  8
_0-0_
  6
CONTINUOUS
 62
    7
 10
97
 20
218
 11
97
 21
214
  0
POINT
  8
_0-0_
 62
    7
 10
97
 20
211
  0
POINT
  8
_0-0_
 62
    7
 10
97
 20
209
  0
LINE
  8
_0-0_
  6
CONTINUOUS
 62
    7
 10
97
 20
82
 11
97
 21
80
  0
POINT
  8
_0-0_
 62
    7
 10
97
 20
52
  0
LINE
  8
_0-0_
  6
CONTINUOUS
 62
    7
 10
97
 20
41
 11
97
 21
40
  0
POINT
  8
_0-0_
 62
    7
 10
97
 20
36
  0
LINE
  8
_0-0_
  6
CONTINUOUS
 62
    7
 10
98
 20
272
 11
98
 21
271
  0
POINT
  8
_0-0_
 62
    7
 10
98
 20
256
  0
LINE
  8
_0-0_
  6
CONTINUOUS
 62
    7
 10
98
 20
235
 11
98
 21
234
  0
POINT
  8
_0-0_
 62
    7
 10
98
 20
232
  0
LINE
  8
_0-0_
  6
CONTINUOUS
 62
    7
 10
98
 20
226
 11
98
 21
224
  0
LINE
  8
_0-0_
  6
CONTINUOUS
 62
    7
 10
98
 20
222
 11
98
 21
215
  0
LINE
  8
_0-0_
  6
CONTINUOUS
 62
    7
 10
98
 20
208
 11
98
 21
200
  0
LINE
  8
_0-0_
  6
CONTINUOUS
 62
    7
 10
98
 20
84
 11
98
 21
82
  0
POINT
  8
_0-0_
 62
    7
 10
98
 20
52
  0
LINE
  8
_0-0_
  6
CONTINUOUS
 62
    7
 10
98
 20
46
 11
98
 21
41
  0
POINT
  8
_0-0_
 62
    7
 10
98
 20
37
  0
POINT
  8
_0-0_
 62
    7
 10
99
 20
271
  0
LINE
  8
_0-0_
  6
CONTINUOUS
 62
    7
 10
99
 20
257
 11
99
 21
256
  0
LINE
  8
_0-0_
  6
CONTINUOUS
 62
    7
 10
99
 20
236
 11
99
 21
235
  0
LINE
  8
_0-0_
  6
CONTINUOUS
 62
    7
 10
99
 20
232
 11
99
 21
231
  0
LINE
  8
_0-0_
  6
CONTINUOUS
 62
    7
 10
99
 20
227
 11
99
 21
226
  0
LINE
  8
_0-0_
  6
CONTINUOUS
 62
    7
 10
99
 20
223
 11
99
 21
222
  0
POINT
  8
_0-0_
 62
    7
 10
99
 20
214
  0
POINT
  8
_0-0_
 62
    7
 10
99
 20
212
  0
POINT
  8
_0-0_
 62
    7
 10
99
 20
205
  0
LINE
  8
_0-0_
  6
CONTINUOUS
 62
    7
 10
99
 20
202
 11
99
 21
200
  0
LINE
  8
_0-0_
  6
CONTINUOUS
 62
    7
 10
99
 20
87
 11
99
 21
85
  0
LINE
  8
_0-0_
  6
CONTINUOUS
 62
    7
 10
99
 20
51
 11
99
 21
46
  0
LINE
  8
_0-0_
  6
CONTINUOUS
 62
    7
 10
99
 20
38
 11
99
 21
37
  0
LINE
  8
_0-0_
  6
CONTINUOUS
 62
    7
 10
100
 20
291
 11
100
 21
290
  0
LINE
  8
_0-0_
  6
CONTINUOUS
 62
    7
 10
100
 20
271
 11
100
 21
270
  0
POINT
  8
_0-0_
 62
    7
 10
100
 20
257
  0
POINT
  8
_0-0_
 62
    7
 10
100
 20
237
  0
POINT
  8
_0-0_
 62
    7
 10
100
 20
231
  0
LINE
  8
_0-0_
  6
CONTINUOUS
 62
    7
 10
100
 20
228
 11
100
 21
227
  0
POINT
  8
_0-0_
 62
    7
 10
100
 20
224
  0
LINE
  8
_0-0_
  6
CONTINUOUS
 62
    7
 10
100
 20
215
 11
100
 21
213
  0
POINT
  8
_0-0_
 62
    7
 10
100
 20
211
  0
LINE
  8
_0-0_
  6
CONTINUOUS
 62
    7
 10
100
 20
207
 11
100
 21
206
  0
LINE
  8
_0-0_
  6
CONTINUOUS
 62
    7
 10
100
 20
90
 11
100
 21
88
  0
POINT
  8
_0-0_
 62
    7
 10
100
 20
39
  0
POINT
  8
_0-0_
 62
    7
 10
101
 20
291
  0
LINE
  8
_0-0_
  6
CONTINUOUS
 62
    7
 10
101
 20
289
 11
101
 21
288
  0
POINT
  8
_0-0_
 62
    7
 10
101
 20
270
  0
LINE
  8
_0-0_
  6
CONTINUOUS
 62
    7
 10
101
 20
258
 11
101
 21
257
  0
POINT
  8
_0-0_
 62
    7
 10
101
 20
238
  0
LINE
  8
_0-0_
  6
CONTINUOUS
 62
    7
 10
101
 20
231
 11
101
 21
228
  0
LINE
  8
_0-0_
  6
CONTINUOUS
 62
    7
 10
101
 20
216
 11
101
 21
214
  0
POINT
  8
_0-0_
 62
    7
 10
101
 20
211
  0
LINE
  8
_0-0_
  6
CONTINUOUS
 62
    7
 10
101
 20
207
 11
101
 21
205
  0
LINE
  8
_0-0_
  6
CONTINUOUS
 62
    7
 10
101
 20
93
 11
101
 21
91
  0
LINE
  8
_0-0_
  6
CONTINUOUS
 62
    7
 10
101
 20
41
 11
101
 21
39
  0
LINE
  8
_0-0_
  6
CONTINUOUS
 62
    7
 10
102
 20
292
 11
102
 21
291
  0
LINE
  8
_0-0_
  6
CONTINUOUS
 62
    7
 10
102
 20
288
 11
102
 21
287
  0
LINE
  8
_0-0_
  6
CONTINUOUS
 62
    7
 10
102
 20
270
 11
102
 21
269
  0
POINT
  8
_0-0_
 62
    7
 10
102
 20
258
  0
POINT
  8
_0-0_
 62
    7
 10
102
 20
256
  0
LINE
  8
_0-0_
  6
CONTINUOUS
 62
    7
 10
102
 20
254
 11
102
 21
239
  0
POINT
  8
_0-0_
 62
    7
 10
102
 20
230
  0
LINE
  8
_0-0_
  6
CONTINUOUS
 62
    7
 10
102
 20
228
 11
102
 21
227
  0
LINE
  8
_0-0_
  6
CONTINUOUS
 62
    7
 10
102
 20
217
 11
102
 21
216
  0
POINT
  8
_0-0_
 62
    7
 10
102
 20
211
  0
POINT
  8
_0-0_
 62
    7
 10
102
 20
209
  0
LINE
  8
_0-0_
  6
CONTINUOUS
 62
    7
 10
102
 20
205
 11
102
 21
202
  0
LINE
  8
_0-0_
  6
CONTINUOUS
 62
    7
 10
102
 20
96
 11
102
 21
94
  0
LINE
  8
_0-0_
  6
CONTINUOUS
 62
    7
 10
102
 20
44
 11
102
 21
41
  0
POINT
  8
_0-0_
 62
    7
 10
103
 20
292
  0
LINE
  8
_0-0_
  6
CONTINUOUS
 62
    7
 10
103
 20
286
 11
103
 21
285
  0
LINE
  8
_0-0_
  6
CONTINUOUS
 62
    7
 10
103
 20
278
 11
103
 21
270
  0
LINE
  8
_0-0_
  6
CONTINUOUS
 62
    7
 10
103
 20
257
 11
103
 21
244
  0
LINE
  8
_0-0_
  6
CONTINUOUS
 62
    7
 10
103
 20
227
 11
103
 21
224
  0
LINE
  8
_0-0_
  6
CONTINUOUS
 62
    7
 10
103
 20
218
 11
103
 21
217
  0
LINE
  8
_0-0_
  6
CONTINUOUS
 62
    7
 10
103
 20
210
 11
103
 21
209
  0
LINE
  8
_0-0_
  6
CONTINUOUS
 62
    7
 10
103
 20
204
 11
103
 21
202
  0
LINE
  8
_0-0_
  6
CONTINUOUS
 62
    7
 10
103
 20
98
 11
103
 21
96
  0
LINE
  8
_0-0_
  6
CONTINUOUS
 62
    7
 10
103
 20
46
 11
103
 21
44
  0
LINE
  8
_0-0_
  6
CONTINUOUS
 62
    7
 10
104
 20
294
 11
104
 21
293
  0
LINE
  8
_0-0_
  6
CONTINUOUS
 62
    7
 10
104
 20
285
 11
104
 21
272
  0
LINE
  8
_0-0_
  6
CONTINUOUS
 62
    7
 10
104
 20
223
 11
104
 21
218
  0
LINE
  8
_0-0_
  6
CONTINUOUS
 62
    7
 10
104
 20
209
 11
104
 21
208
  0
POINT
  8
_0-0_
 62
    7
 10
104
 20
201
  0
LINE
  8
_0-0_
  6
CONTINUOUS
 62
    7
 10
104
 20
101
 11
104
 21
99
  0
LINE
  8
_0-0_
  6
CONTINUOUS
 62
    7
 10
104
 20
48
 11
104
 21
47
  0
LINE
  8
_0-0_
  6
CONTINUOUS
 62
    7
 10
105
 20
296
 11
105
 21
294
  0
POINT
  8
_0-0_
 62
    7
 10
105
 20
222
  0
LINE
  8
_0-0_
  6
CONTINUOUS
 62
    7
 10
105
 20
220
 11
105
 21
218
  0
POINT
  8
_0-0_
 62
    7
 10
105
 20
209
  0
POINT
  8
_0-0_
 62
    7
 10
105
 20
207
  0
LINE
  8
_0-0_
  6
CONTINUOUS
 62
    7
 10
105
 20
103
 11
105
 21
102
  0
POINT
  8
_0-0_
 62
    7
 10
105
 20
49
  0
LINE
  8
_0-0_
  6
CONTINUOUS
 62
    7
 10
106
 20
298
 11
106
 21
296
  0
LINE
  8
_0-0_
  6
CONTINUOUS
 62
    7
 10
106
 20
225
 11
106
 21
223
  0
POINT
  8
_0-0_
 62
    7
 10
106
 20
221
  0
POINT
  8
_0-0_
 62
    7
 10
106
 20
208
  0
LINE
  8
_0-0_
  6
CONTINUOUS
 62
    7
 10
106
 20
105
 11
106
 21
104
  0
POINT
  8
_0-0_
 62
    7
 10
106
 20
50
  0
LINE
  8
_0-0_
  6
CONTINUOUS
 62
    7
 10
107
 20
301
 11
107
 21
298
  0
LINE
  8
_0-0_
  6
CONTINUOUS
 62
    7
 10
107
 20
228
 11
107
 21
226
  0
LINE
  8
_0-0_
  6
CONTINUOUS
 62
    7
 10
107
 20
107
 11
107
 21
106
  0
LINE
  8
_0-0_
  6
CONTINUOUS
 62
    7
 10
107
 20
49
 11
107
 21
46
  0
LINE
  8
_0-0_
  6
CONTINUOUS
 62
    7
 10
108
 20
301
 11
108
 21
298
  0
LINE
  8
_0-0_
  6
CONTINUOUS
 62
    7
 10
108
 20
249
 11
108
 21
239
  0
LINE
  8
_0-0_
  6
CONTINUOUS
 62
    7
 10
108
 20
230
 11
108
 21
229
  0
POINT
  8
_0-0_
 62
    7
 10
108
 20
131
  0
POINT
  8
_0-0_
 62
    7
 10
108
 20
108
  0
POINT
  8
_0-0_
 62
    7
 10
108
 20
46
  0
LINE
  8
_0-0_
  6
CONTINUOUS
 62
    7
 10
109
 20
298
 11
109
 21
295
  0
LINE
  8
_0-0_
  6
CONTINUOUS
 62
    7
 10
109
 20
283
 11
109
 21
280
  0
LINE
  8
_0-0_
  6
CONTINUOUS
 62
    7
 10
109
 20
256
 11
109
 21
245
  0
LINE
  8
_0-0_
  6
CONTINUOUS
 62
    7
 10
109
 20
238
 11
109
 21
237
  0
POINT
  8
_0-0_
 62
    7
 10
109
 20
231
  0
POINT
  8
_0-0_
 62
    7
 10
109
 20
130
  0
POINT
  8
_0-0_
 62
    7
 10
109
 20
109
  0
POINT
  8
_0-0_
 62
    7
 10
109
 20
47
  0
LINE
  8
_0-0_
  6
CONTINUOUS
 62
    7
 10
110
 20
295
 11
110
 21
293
  0
LINE
  8
_0-0_
  6
CONTINUOUS
 62
    7
 10
110
 20
285
 11
110
 21
271
  0
POINT
  8
_0-0_
 62
    7
 10
110
 20
257
  0
LINE
  8
_0-0_
  6
CONTINUOUS
 62
    7
 10
110
 20
237
 11
110
 21
236
  0
POINT
  8
_0-0_
 62
    7
 10
110
 20
231
  0
LINE
  8
_0-0_
  6
CONTINUOUS
 62
    7
 10
110
 20
130
 11
110
 21
129
  0
POINT
  8
_0-0_
 62
    7
 10
110
 20
110
  0
LINE
  8
_0-0_
  6
CONTINUOUS
 62
    7
 10
110
 20
74
 11
110
 21
61
  0
POINT
  8
_0-0_
 62
    7
 10
110
 20
48
  0
POINT
  8
_0-0_
 62
    7
 10
111
 20
292
  0
LINE
  8
_0-0_
  6
CONTINUOUS
 62
    7
 10
111
 20
286
 11
111
 21
285
  0
POINT
  8
_0-0_
 62
    7
 10
111
 20
270
  0
POINT
  8
_0-0_
 62
    7
 10
111
 20
257
  0
LINE
  8
_0-0_
  6
CONTINUOUS
 62
    7
 10
111
 20
236
 11
111
 21
235
  0
POINT
  8
_0-0_
 62
    7
 10
111
 20
231
  0
POINT
  8
_0-0_
 62
    7
 10
111
 20
130
  0
POINT
  8
_0-0_
 62
    7
 10
111
 20
128
  0
POINT
  8
_0-0_
 62
    7
 10
111
 20
111
  0
LINE
  8
_0-0_
  6
CONTINUOUS
 62
    7
 10
111
 20
84
 11
111
 21
73
  0
LINE
  8
_0-0_
  6
CONTINUOUS
 62
    7
 10
111
 20
62
 11
111
 21
54
  0
POINT
  8
_0-0_
 62
    7
 10
111
 20
49
  0
LINE
  8
_0-0_
  6
CONTINUOUS
 62
    7
 10
112
 20
292
 11
112
 21
291
  0
LINE
  8
_0-0_
  6
CONTINUOUS
 62
    7
 10
112
 20
287
 11
112
 21
286
  0
POINT
  8
_0-0_
 62
    7
 10
112
 20
270
  0
POINT
  8
_0-0_
 62
    7
 10
112
 20
263
  0
LINE
  8
_0-0_
  6
CONTINUOUS
 62
    7
 10
112
 20
257
 11
112
 21
256
  0
LINE
  8
_0-0_
  6
CONTINUOUS
 62
    7
 10
112
 20
234
 11
112
 21
232
  0
POINT
  8
_0-0_
 62
    7
 10
112
 20
130
  0
LINE
  8
_0-0_
  6
CONTINUOUS
 62
    7
 10
112
 20
127
 11
112
 21
126
  0
POINT
  8
_0-0_
 62
    7
 10
112
 20
112
  0
LINE
  8
_0-0_
  6
CONTINUOUS
 62
    7
 10
112
 20
90
 11
112
 21
83
  0
LINE
  8
_0-0_
  6
CONTINUOUS
 62
    7
 10
112
 20
54
 11
112
 21
52
  0
LINE
  8
_0-0_
  6
CONTINUOUS
 62
    7
 10
112
 20
47
 11
112
 21
45
  0
POINT
  8
_0-0_
 62
    7
 10
113
 20
291
  0
POINT
  8
_0-0_
 62
    7
 10
113
 20
288
  0
LINE
  8
_0-0_
  6
CONTINUOUS
 62
    7
 10
113
 20
271
 11
113
 21
270
  0
POINT
  8
_0-0_
 62
    7
 10
113
 20
264
  0
POINT
  8
_0-0_
 62
    7
 10
113
 20
262
  0
LINE
  8
_0-0_
  6
CONTINUOUS
 62
    7
 10
113
 20
256
 11
113
 21
255
  0
LINE
  8
_0-0_
  6
CONTINUOUS
 62
    7
 10
113
 20
233
 11
113
 21
232
  0
POINT
  8
_0-0_
 62
    7
 10
113
 20
129
  0
POINT
  8
_0-0_
 62
    7
 10
113
 20
126
  0
LINE
  8
_0-0_
  6
CONTINUOUS
 62
    7
 10
113
 20
120
 11
113
 21
119
  0
POINT
  8
_0-0_
 62
    7
 10
113
 20
113
  0
LINE
  8
_0-0_
  6
CONTINUOUS
 62
    7
 10
113
 20
97
 11
113
 21
90
  0
POINT
  8
_0-0_
 62
    7
 10
113
 20
51
  0
LINE
  8
_0-0_
  6
CONTINUOUS
 62
    7
 10
113
 20
48
 11
113
 21
43
  0
POINT
  8
_0-0_
 62
    7
 10
114
 20
291
  0
POINT
  8
_0-0_
 62
    7
 10
114
 20
289
  0
POINT
  8
_0-0_
 62
    7
 10
114
 20
271
  0
LINE
  8
_0-0_
  6
CONTINUOUS
 62
    7
 10
114
 20
265
 11
114
 21
264
  0
LINE
  8
_0-0_
  6
CONTINUOUS
 62
    7
 10
114
 20
262
 11
114
 21
261
  0
POINT
  8
_0-0_
 62
    7
 10
114
 20
255
  0
POINT
  8
_0-0_
 62
    7
 10
114
 20
129
  0
LINE
  8
_0-0_
  6
CONTINUOUS
 62
    7
 10
114
 20
125
 11
114
 21
121
  0
POINT
  8
_0-0_
 62
    7
 10
114
 20
119
  0
POINT
  8
_0-0_
 62
    7
 10
114
 20
113
  0
LINE
  8
_0-0_
  6
CONTINUOUS
 62
    7
 10
114
 20
102
 11
114
 21
97
  0
POINT
  8
_0-0_
 62
    7
 10
114
 20
52
  0
POINT
  8
_0-0_
 62
    7
 10
114
 20
43
  0
POINT
  8
_0-0_
 62
    7
 10
115
 20
290
  0
LINE
  8
_0-0_
  6
CONTINUOUS
 62
    7
 10
115
 20
272
 11
115
 21
271
  0
POINT
  8
_0-0_
 62
    7
 10
115
 20
265
  0
LINE
  8
_0-0_
  6
CONTINUOUS
 62
    7
 10
115
 20
261
 11
115
 21
260
  0
LINE
  8
_0-0_
  6
CONTINUOUS
 62
    7
 10
115
 20
255
 11
115
 21
254
  0
LINE
  8
_0-0_
  6
CONTINUOUS
 62
    7
 10
115
 20
137
 11
115
 21
135
  0
POINT
  8
_0-0_
 62
    7
 10
115
 20
129
  0
POINT
  8
_0-0_
 62
    7
 10
115
 20
119
  0
POINT
  8
_0-0_
 62
    7
 10
115
 20
112
  0
LINE
  8
_0-0_
  6
CONTINUOUS
 62
    7
 10
115
 20
105
 11
115
 21
103
  0
LINE
  8
_0-0_
  6
CONTINUOUS
 62
    7
 10
115
 20
52
 11
115
 21
49
  0
POINT
  8
_0-0_
 62
    7
 10
115
 20
43
  0
POINT
  8
_0-0_
 62
    7
 10
116
 20
272
  0
POINT
  8
_0-0_
 62
    7
 10
116
 20
266
  0
POINT
  8
_0-0_
 62
    7
 10
116
 20
260
  0
POINT
  8
_0-0_
 62
    7
 10
116
 20
254
  0
LINE
  8
_0-0_
  6
CONTINUOUS
 62
    7
 10
116
 20
139
 11
116
 21
138
  0
POINT
  8
_0-0_
 62
    7
 10
116
 20
135
  0
POINT
  8
_0-0_
 62
    7
 10
116
 20
128
  0
LINE
  8
_0-0_
  6
CONTINUOUS
 62
    7
 10
116
 20
120
 11
116
 21
119
  0
POINT
  8
_0-0_
 62
    7
 10
116
 20
110
  0
POINT
  8
_0-0_
 62
    7
 10
116
 20
106
  0
LINE
  8
_0-0_
  6
CONTINUOUS
 62
    7
 10
116
 20
53
 11
116
 21
51
  0
LINE
  8
_0-0_
  6
CONTINUOUS
 62
    7
 10
116
 20
42
 11
116
 21
41
  0
POINT
  8
_0-0_
 62
    7
 10
117
 20
272
  0
LINE
  8
_0-0_
  6
CONTINUOUS
 62
    7
 10
117
 20
267
 11
117
 21
266
  0
LINE
  8
_0-0_
  6
CONTINUOUS
 62
    7
 10
117
 20
260
 11
117
 21
259
  0
LINE
  8
_0-0_
  6
CONTINUOUS
 62
    7
 10
117
 20
254
 11
117
 21
253
  0
LINE
  8
_0-0_
  6
CONTINUOUS
 62
    7
 10
117
 20
141
 11
117
 21
140
  0
POINT
  8
_0-0_
 62
    7
 10
117
 20
135
  0
POINT
  8
_0-0_
 62
    7
 10
117
 20
128
  0
POINT
  8
_0-0_
 62
    7
 10
117
 20
119
  0
POINT
  8
_0-0_
 62
    7
 10
117
 20
111
  0
POINT
  8
_0-0_
 62
    7
 10
117
 20
107
  0
POINT
  8
_0-0_
 62
    7
 10
117
 20
53
  0
POINT
  8
_0-0_
 62
    7
 10
117
 20
48
  0
LINE
  8
_0-0_
  6
CONTINUOUS
 62
    7
 10
117
 20
40
 11
117
 21
39
  0
LINE
  8
_0-0_
  6
CONTINUOUS
 62
    7
 10
118
 20
273
 11
118
 21
272
  0
POINT
  8
_0-0_
 62
    7
 10
118
 20
267
  0
LINE
  8
_0-0_
  6
CONTINUOUS
 62
    7
 10
118
 20
259
 11
118
 21
258
  0
LINE
  8
_0-0_
  6
CONTINUOUS
 62
    7
 10
118
 20
253
 11
118
 21
252
  0
POINT
  8
_0-0_
 62
    7
 10
118
 20
128
  0
LINE
  8
_0-0_
  6
CONTINUOUS
 62
    7
 10
118
 20
120
 11
118
 21
119
  0
POINT
  8
_0-0_
 62
    7
 10
118
 20
111
  0
POINT
  8
_0-0_
 62
    7
 10
118
 20
107
  0
POINT
  8
_0-0_
 62
    7
 10
118
 20
53
  0
POINT
  8
_0-0_
 62
    7
 10
118
 20
48
  0
POINT
  8
_0-0_
 62
    7
 10
118
 20
38
  0
POINT
  8
_0-0_
 62
    7
 10
119
 20
300
  0
POINT
  8
_0-0_
 62
    7
 10
119
 20
273
  0
LINE
  8
_0-0_
  6
CONTINUOUS
 62
    7
 10
119
 20
268
 11
119
 21
267
  0
POINT
  8
_0-0_
 62
    7
 10
119
 20
258
  0
POINT
  8
_0-0_
 62
    7
 10
119
 20
252
  0
LINE
  8
_0-0_
  6
CONTINUOUS
 62
    7
 10
119
 20
152
 11
119
 21
145
  0
POINT
  8
_0-0_
 62
    7
 10
119
 20
129
  0
POINT
  8
_0-0_
 62
    7
 10
119
 20
120
  0
POINT
  8
_0-0_
 62
    7
 10
119
 20
112
  0
POINT
  8
_0-0_
 62
    7
 10
119
 20
108
  0
LINE
  8
_0-0_
  6
CONTINUOUS
 62
    7
 10
119
 20
49
 11
119
 21
45
  0
POINT
  8
_0-0_
 62
    7
 10
119
 20
38
  0
LINE
  8
_0-0_
  6
CONTINUOUS
 62
    7
 10
120
 20
300
 11
120
 21
299
  0
LINE
  8
_0-0_
  6
CONTINUOUS
 62
    7
 10
120
 20
274
 11
120
 21
273
  0
POINT
  8
_0-0_
 62
    7
 10
120
 20
268
  0
LINE
  8
_0-0_
  6
CONTINUOUS
 62
    7
 10
120
 20
258
 11
120
 21
257
  0
LINE
  8
_0-0_
  6
CONTINUOUS
 62
    7
 10
120
 20
252
 11
120
 21
251
  0
LINE
  8
_0-0_
  6
CONTINUOUS
 62
    7
 10
120
 20
192
 11
120
 21
148
  0
POINT
  8
_0-0_
 62
    7
 10
120
 20
130
  0
POINT
  8
_0-0_
 62
    7
 10
120
 20
120
  0
POINT
  8
_0-0_
 62
    7
 10
120
 20
112
  0
POINT
  8
_0-0_
 62
    7
 10
120
 20
108
  0
LINE
  8
_0-0_
  6
CONTINUOUS
 62
    7
 10
120
 20
44
 11
120
 21
43
  0
POINT
  8
_0-0_
 62
    7
 10
120
 20
37
  0
LINE
  8
_0-0_
  6
CONTINUOUS
 62
    7
 10
120
 20
31
 11
120
 21
30
  0
POINT
  8
_0-0_
 62
    7
 10
121
 20
300
  0
LINE
  8
_0-0_
  6
CONTINUOUS
 62
    7
 10
121
 20
298
 11
121
 21
297
  0
LINE
  8
_0-0_
  6
CONTINUOUS
 62
    7
 10
121
 20
287
 11
121
 21
274
  0
LINE
  8
_0-0_
  6
CONTINUOUS
 62
    7
 10
121
 20
269
 11
121
 21
268
  0
LINE
  8
_0-0_
  6
CONTINUOUS
 62
    7
 10
121
 20
257
 11
121
 21
256
  0
POINT
  8
_0-0_
 62
    7
 10
121
 20
251
  0
LINE
  8
_0-0_
  6
CONTINUOUS
 62
    7
 10
121
 20
232
 11
121
 21
189
  0
POINT
  8
_0-0_
 62
    7
 10
121
 20
137
  0
POINT
  8
_0-0_
 62
    7
 10
121
 20
134
  0
POINT
  8
_0-0_
 62
    7
 10
121
 20
131
  0
POINT
  8
_0-0_
 62
    7
 10
121
 20
120
  0
POINT
  8
_0-0_
 62
    7
 10
121
 20
113
  0
POINT
  8
_0-0_
 62
    7
 10
121
 20
108
  0
POINT
  8
_0-0_
 62
    7
 10
121
 20
42
  0
POINT
  8
_0-0_
 62
    7
 10
121
 20
37
  0
LINE
  8
_0-0_
  6
CONTINUOUS
 62
    7
 10
121
 20
32
 11
121
 21
30
  0
POINT
  8
_0-0_
 62
    7
 10
122
 20
300
  0
LINE
  8
_0-0_
  6
CONTINUOUS
 62
    7
 10
122
 20
297
 11
122
 21
296
  0
LINE
  8
_0-0_
  6
CONTINUOUS
 62
    7
 10
122
 20
292
 11
122
 21
275
  0
POINT
  8
_0-0_
 62
    7
 10
122
 20
269
  0
POINT
  8
_0-0_
 62
    7
 10
122
 20
256
  0
LINE
  8
_0-0_
  6
CONTINUOUS
 62
    7
 10
122
 20
250
 11
122
 21
223
  0
LINE
  8
_0-0_
  6
CONTINUOUS
 62
    7
 10
122
 20
175
 11
122
 21
146
  0
POINT
  8
_0-0_
 62
    7
 10
122
 20
137
  0
POINT
  8
_0-0_
 62
    7
 10
122
 20
134
  0
POINT
  8
_0-0_
 62
    7
 10
122
 20
130
  0
POINT
  8
_0-0_
 62
    7
 10
122
 20
119
  0
POINT
  8
_0-0_
 62
    7
 10
122
 20
113
  0
POINT
  8
_0-0_
 62
    7
 10
122
 20
109
  0
POINT
  8
_0-0_
 62
    7
 10
122
 20
42
  0
POINT
  8
_0-0_
 62
    7
 10
122
 20
37
  0
LINE
  8
_0-0_
  6
CONTINUOUS
 62
    7
 10
122
 20
34
 11
122
 21
33
  0
POINT
  8
_0-0_
 62
    7
 10
122
 20
30
  0
LINE
  8
_0-0_
  6
CONTINUOUS
 62
    7
 10
123
 20
300
 11
123
 21
299
  0
LINE
  8
_0-0_
  6
CONTINUOUS
 62
    7
 10
123
 20
295
 11
123
 21
293
  0
LINE
  8
_0-0_
  6
CONTINUOUS
 62
    7
 10
123
 20
270
 11
123
 21
269
  0
POINT
  8
_0-0_
 62
    7
 10
123
 20
255
  0
LINE
  8
_0-0_
  6
CONTINUOUS
 62
    7
 10
123
 20
207
 11
123
 21
186
  0
LINE
  8
_0-0_
  6
CONTINUOUS
 62
    7
 10
123
 20
182
 11
123
 21
177
  0
POINT
  8
_0-0_
 62
    7
 10
123
 20
137
  0
POINT
  8
_0-0_
 62
    7
 10
123
 20
134
  0
POINT
  8
_0-0_
 62
    7
 10
123
 20
130
  0
LINE
  8
_0-0_
  6
CONTINUOUS
 62
    7
 10
123
 20
128
 11
123
 21
125
  0
LINE
  8
_0-0_
  6
CONTINUOUS
 62
    7
 10
123
 20
118
 11
123
 21
117
  0
POINT
  8
_0-0_
 62
    7
 10
123
 20
114
  0
POINT
  8
_0-0_
 62
    7
 10
123
 20
108
  0
POINT
  8
_0-0_
 62
    7
 10
123
 20
42
  0
LINE
  8
_0-0_
  6
CONTINUOUS
 62
    7
 10
123
 20
36
 11
123
 21
35
  0
LINE
  8
_0-0_
  6
CONTINUOUS
 62
    7
 10
123
 20
31
 11
123
 21
30
  0
POINT
  8
_0-0_
 62
    7
 10
124
 20
299
  0
POINT
  8
_0-0_
 62
    7
 10
124
 20
294
  0
LINE
  8
_0-0_
  6
CONTINUOUS
 62
    7
 10
124
 20
269
 11
124
 21
268
  0
LINE
  8
_0-0_
  6
CONTINUOUS
 62
    7
 10
124
 20
255
 11
124
 21
254
  0
POINT
  8
_0-0_
 62
    7
 10
124
 20
134
  0
POINT
  8
_0-0_
 62
    7
 10
124
 20
130
  0
POINT
  8
_0-0_
 62
    7
 10
124
 20
124
  0
LINE
  8
_0-0_
  6
CONTINUOUS
 62
    7
 10
124
 20
116
 11
124
 21
115
  0
POINT
  8
_0-0_
 62
    7
 10
124
 20
107
  0
POINT
  8
_0-0_
 62
    7
 10
124
 20
42
  0
POINT
  8
_0-0_
 62
    7
 10
124
 20
31
  0
POINT
  8
_0-0_
 62
    7
 10
125
 20
299
  0
LINE
  8
_0-0_
  6
CONTINUOUS
 62
    7
 10
125
 20
268
 11
125
 21
265
  0
POINT
  8
_0-0_
 62
    7
 10
125
 20
254
  0
LINE
  8
_0-0_
  6
CONTINUOUS
 62
    7
 10
125
 20
198
 11
125
 21
157
  0
LINE
  8
_0-0_
  6
CONTINUOUS
 62
    7
 10
125
 20
154
 11
125
 21
150
  0
POINT
  8
_0-0_
 62
    7
 10
125
 20
134
  0
POINT
  8
_0-0_
 62
    7
 10
125
 20
124
  0
LINE
  8
_0-0_
  6
CONTINUOUS
 62
    7
 10
125
 20
111
 11
125
 21
110
  0
POINT
  8
_0-0_
 62
    7
 10
125
 20
106
  0
POINT
  8
_0-0_
 62
    7
 10
125
 20
42
  0
POINT
  8
_0-0_
 62
    7
 10
125
 20
31
  0
LINE
  8
_0-0_
  6
CONTINUOUS
 62
    7
 10
126
 20
299
 11
126
 21
298
  0
LINE
  8
_0-0_
  6
CONTINUOUS
 62
    7
 10
126
 20
265
 11
126
 21
261
  0
POINT
  8
_0-0_
 62
    7
 10
126
 20
253
  0
POINT
  8
_0-0_
 62
    7
 10
126
 20
134
  0
POINT
  8
_0-0_
 62
    7
 10
126
 20
124
  0
POINT
  8
_0-0_
 62
    7
 10
126
 20
111
  0
POINT
  8
_0-0_
 62
    7
 10
126
 20
109
  0
POINT
  8
_0-0_
 62
    7
 10
126
 20
105
  0
POINT
  8
_0-0_
 62
    7
 10
126
 20
43
  0
POINT
  8
_0-0_
 62
    7
 10
126
 20
32
  0
LINE
  8
_0-0_
  6
CONTINUOUS
 62
    7
 10
126
 20
22
 11
126
 21
17
  0
LINE
  8
_0-0_
  6
CONTINUOUS
 62
    7
 10
127
 20
298
 11
127
 21
297
  0
LINE
  8
_0-0_
  6
CONTINUOUS
 62
    7
 10
127
 20
261
 11
127
 21
257
  0
LINE
  8
_0-0_
  6
CONTINUOUS
 62
    7
 10
127
 20
253
 11
127
 21
252
  0
LINE
  8
_0-0_
  6
CONTINUOUS
 62
    7
 10
127
 20
174
 11
127
 21
140
  0
POINT
  8
_0-0_
 62
    7
 10
127
 20
134
  0
POINT
  8
_0-0_
 62
    7
 10
127
 20
125
  0
POINT
  8
_0-0_
 62
    7
 10
127
 20
120
  0
POINT
  8
_0-0_
 62
    7
 10
127
 20
111
  0
POINT
  8
_0-0_
 62
    7
 10
127
 20
108
  0
POINT
  8
_0-0_
 62
    7
 10
127
 20
104
  0
LINE
  8
_0-0_
  6
CONTINUOUS
 62
    7
 10
127
 20
92
 11
127
 21
68
  0
POINT
  8
_0-0_
 62
    7
 10
127
 20
44
  0
POINT
  8
_0-0_
 62
    7
 10
127
 20
32
  0
LINE
  8
_0-0_
  6
CONTINUOUS
 62
    7
 10
127
 20
23
 11
127
 21
22
  0
LINE
  8
_0-0_
  6
CONTINUOUS
 62
    7
 10
127
 20
17
 11
127
 21
16
  0
LINE
  8
_0-0_
  6
CONTINUOUS
 62
    7
 10
128
 20
297
 11
128
 21
296
  0
LINE
  8
_0-0_
  6
CONTINUOUS
 62
    7
 10
128
 20
257
 11
128
 21
254
  0
POINT
  8
_0-0_
 62
    7
 10
128
 20
252
  0
LINE
  8
_0-0_
  6
CONTINUOUS
 62
    7
 10
128
 20
232
 11
128
 21
175
  0
LINE
  8
_0-0_
  6
CONTINUOUS
 62
    7
 10
128
 20
139
 11
128
 21
138
  0
LINE
  8
_0-0_
  6
CONTINUOUS
 62
    7
 10
128
 20
133
 11
128
 21
132
  0
POINT
  8
_0-0_
 62
    7
 10
128
 20
126
  0
POINT
  8
_0-0_
 62
    7
 10
128
 20
122
  0
POINT
  8
_0-0_
 62
    7
 10
128
 20
120
  0
POINT
  8
_0-0_
 62
    7
 10
128
 20
111
  0
POINT
  8
_0-0_
 62
    7
 10
128
 20
107
  0
LINE
  8
_0-0_
  6
CONTINUOUS
 62
    7
 10
128
 20
103
 11
128
 21
91
  0
LINE
  8
_0-0_
  6
CONTINUOUS
 62
    7
 10
128
 20
88
 11
128
 21
83
  0
LINE
  8
_0-0_
  6
CONTINUOUS
 62
    7
 10
128
 20
78
 11
128
 21
55
  0
LINE
  8
_0-0_
  6
CONTINUOUS
 62
    7
 10
128
 20
46
 11
128
 21
45
  0
LINE
  8
_0-0_
  6
CONTINUOUS
 62
    7
 10
128
 20
33
 11
128
 21
32
  0
LINE
  8
_0-0_
  6
CONTINUOUS
 62
    7
 10
128
 20
24
 11
128
 21
23
  0
POINT
  8
_0-0_
 62
    7
 10
128
 20
15
  0
LINE
  8
_0-0_
  6
CONTINUOUS
 62
    7
 10
129
 20
296
 11
129
 21
295
  0
POINT
  8
_0-0_
 62
    7
 10
129
 20
253
  0
LINE
  8
_0-0_
  6
CONTINUOUS
 62
    7
 10
129
 20
245
 11
129
 21
229
  0
LINE
  8
_0-0_
  6
CONTINUOUS
 62
    7
 10
129
 20
139
 11
129
 21
138
  0
LINE
  8
_0-0_
  6
CONTINUOUS
 62
    7
 10
129
 20
131
 11
129
 21
127
  0
POINT
  8
_0-0_
 62
    7
 10
129
 20
123
  0
POINT
  8
_0-0_
 62
    7
 10
129
 20
120
  0
LINE
  8
_0-0_
  6
CONTINUOUS
 62
    7
 10
129
 20
117
 11
129
 21
114
  0
LINE
  8
_0-0_
  6
CONTINUOUS
 62
    7
 10
129
 20
111
 11
129
 21
110
  0
POINT
  8
_0-0_
 62
    7
 10
129
 20
106
  0
LINE
  8
_0-0_
  6
CONTINUOUS
 62
    7
 10
129
 20
57
 11
129
 21
46
  0
LINE
  8
_0-0_
  6
CONTINUOUS
 62
    7
 10
129
 20
31
 11
129
 21
25
  0
POINT
  8
_0-0_
 62
    7
 10
129
 20
14
  0
LINE
  8
_0-0_
  6
CONTINUOUS
 62
    7
 10
130
 20
294
 11
130
 21
283
  0
LINE
  8
_0-0_
  6
CONTINUOUS
 62
    7
 10
130
 20
276
 11
130
 21
271
  0
POINT
  8
_0-0_
 62
    7
 10
130
 20
138
  0
LINE
  8
_0-0_
  6
CONTINUOUS
 62
    7
 10
130
 20
135
 11
130
 21
133
  0
POINT
  8
_0-0_
 62
    7
 10
130
 20
124
  0
POINT
  8
_0-0_
 62
    7
 10
130
 20
121
  0
LINE
  8
_0-0_
  6
CONTINUOUS
 62
    7
 10
130
 20
118
 11
130
 21
117
  0
LINE
  8
_0-0_
  6
CONTINUOUS
 62
    7
 10
130
 20
114
 11
130
 21
112
  0
POINT
  8
_0-0_
 62
    7
 10
130
 20
109
  0
POINT
  8
_0-0_
 62
    7
 10
130
 20
105
  0
POINT
  8
_0-0_
 62
    7
 10
130
 20
31
  0
LINE
  8
_0-0_
  6
CONTINUOUS
 62
    7
 10
130
 20
29
 11
130
 21
26
  0
LINE
  8
_0-0_
  6
CONTINUOUS
 62
    7
 10
130
 20
13
 11
130
 21
6
  0
LINE
  8
_0-0_
  6
CONTINUOUS
 62
    7
 10
131
 20
292
 11
131
 21
290
  0
POINT
  8
_0-0_
 62
    7
 10
131
 20
282
  0
POINT
  8
_0-0_
 62
    7
 10
131
 20
277
  0
POINT
  8
_0-0_
 62
    7
 10
131
 20
270
  0
LINE
  8
_0-0_
  6
CONTINUOUS
 62
    7
 10
131
 20
245
 11
131
 21
244
  0
POINT
  8
_0-0_
 62
    7
 10
131
 20
138
  0
POINT
  8
_0-0_
 62
    7
 10
131
 20
136
  0
LINE
  8
_0-0_
  6
CONTINUOUS
 62
    7
 10
131
 20
133
 11
131
 21
131
  0
LINE
  8
_0-0_
  6
CONTINUOUS
 62
    7
 10
131
 20
125
 11
131
 21
124
  0
POINT
  8
_0-0_
 62
    7
 10
131
 20
121
  0
POINT
  8
_0-0_
 62
    7
 10
131
 20
119
  0
LINE
  8
_0-0_
  6
CONTINUOUS
 62
    7
 10
131
 20
111
 11
131
 21
108
  0
LINE
  8
_0-0_
  6
CONTINUOUS
 62
    7
 10
131
 20
11
 11
131
 21
5
  0
LINE
  8
_0-0_
  6
CONTINUOUS
 62
    7
 10
132
 20
282
 11
132
 21
281
  0
LINE
  8
_0-0_
  6
CONTINUOUS
 62
    7
 10
132
 20
278
 11
132
 21
277
  0
POINT
  8
_0-0_
 62
    7
 10
132
 20
269
  0
LINE
  8
_0-0_
  6
CONTINUOUS
 62
    7
 10
132
 20
257
 11
132
 21
256
  0
LINE
  8
_0-0_
  6
CONTINUOUS
 62
    7
 10
132
 20
243
 11
132
 21
241
  0
POINT
  8
_0-0_
 62
    7
 10
132
 20
138
  0
POINT
  8
_0-0_
 62
    7
 10
132
 20
136
  0
LINE
  8
_0-0_
  6
CONTINUOUS
 62
    7
 10
132
 20
130
 11
132
 21
128
  0
POINT
  8
_0-0_
 62
    7
 10
132
 20
122
  0
POINT
  8
_0-0_
 62
    7
 10
132
 20
119
  0
LINE
  8
_0-0_
  6
CONTINUOUS
 62
    7
 10
132
 20
109
 11
132
 21
106
  0
LINE
  8
_0-0_
  6
CONTINUOUS
 62
    7
 10
132
 20
5
 11
132
 21
4
  0
LINE
  8
_0-0_
  6
CONTINUOUS
 62
    7
 10
133
 20
281
 11
133
 21
280
  0
POINT
  8
_0-0_
 62
    7
 10
133
 20
277
  0
POINT
  8
_0-0_
 62
    7
 10
133
 20
268
  0
POINT
  8
_0-0_
 62
    7
 10
133
 20
258
  0
LINE
  8
_0-0_
  6
CONTINUOUS
 62
    7
 10
133
 20
256
 11
133
 21
253
  0
LINE
  8
_0-0_
  6
CONTINUOUS
 62
    7
 10
133
 20
240
 11
133
 21
239
  0
POINT
  8
_0-0_
 62
    7
 10
133
 20
138
  0
POINT
  8
_0-0_
 62
    7
 10
133
 20
136
  0
LINE
  8
_0-0_
  6
CONTINUOUS
 62
    7
 10
133
 20
124
 11
133
 21
123
  0
POINT
  8
_0-0_
 62
    7
 10
133
 20
119
  0
LINE
  8
_0-0_
  6
CONTINUOUS
 62
    7
 10
133
 20
106
 11
133
 21
60
  0
LINE
  8
_0-0_
  6
CONTINUOUS
 62
    7
 10
133
 20
4
 11
133
 21
3
  0
POINT
  8
_0-0_
 62
    7
 10
134
 20
280
  0
POINT
  8
_0-0_
 62
    7
 10
134
 20
276
  0
POINT
  8
_0-0_
 62
    7
 10
134
 20
271
  0
LINE
  8
_0-0_
  6
CONTINUOUS
 62
    7
 10
134
 20
268
 11
134
 21
267
  0
POINT
  8
_0-0_
 62
    7
 10
134
 20
257
  0
LINE
  8
_0-0_
  6
CONTINUOUS
 62
    7
 10
134
 20
254
 11
134
 21
251
  0
LINE
  8
_0-0_
  6
CONTINUOUS
 62
    7
 10
134
 20
238
 11
134
 21
236
  0
POINT
  8
_0-0_
 62
    7
 10
134
 20
138
  0
LINE
  8
_0-0_
  6
CONTINUOUS
 62
    7
 10
134
 20
135
 11
134
 21
122
  0
LINE
  8
_0-0_
  6
CONTINUOUS
 62
    7
 10
134
 20
119
 11
134
 21
118
  0
POINT
  8
_0-0_
 62
    7
 10
134
 20
107
  0
POINT
  8
_0-0_
 62
    7
 10
134
 20
105
  0
LINE
  8
_0-0_
  6
CONTINUOUS
 62
    7
 10
134
 20
13
 11
134
 21
6
  0
POINT
  8
_0-0_
 62
    7
 10
134
 20
4
  0
LINE
  8
_0-0_
  6
CONTINUOUS
 62
    7
 10
135
 20
279
 11
135
 21
278
  0
LINE
  8
_0-0_
  6
CONTINUOUS
 62
    7
 10
135
 20
275
 11
135
 21
271
  0
POINT
  8
_0-0_
 62
    7
 10
135
 20
268
  0
LINE
  8
_0-0_
  6
CONTINUOUS
 62
    7
 10
135
 20
266
 11
135
 21
265
  0
POINT
  8
_0-0_
 62
    7
 10
135
 20
256
  0
LINE
  8
_0-0_
  6
CONTINUOUS
 62
    7
 10
135
 20
251
 11
135
 21
249
  0
LINE
  8
_0-0_
  6
CONTINUOUS
 62
    7
 10
135
 20
234
 11
135
 21
233
  0
POINT
  8
_0-0_
 62
    7
 10
135
 20
138
  0
POINT
  8
_0-0_
 62
    7
 10
135
 20
136
  0
LINE
  8
_0-0_
  6
CONTINUOUS
 62
    7
 10
135
 20
122
 11
135
 21
121
  0
POINT
  8
_0-0_
 62
    7
 10
135
 20
119
  0
LINE
  8
_0-0_
  6
CONTINUOUS
 62
    7
 10
135
 20
109
 11
135
 21
106
  0
LINE
  8
_0-0_
  6
CONTINUOUS
 62
    7
 10
135
 20
28
 11
135
 21
26
  0
LINE
  8
_0-0_
  6
CONTINUOUS
 62
    7
 10
135
 20
14
 11
135
 21
13
  0
LINE
  8
_0-0_
  6
CONTINUOUS
 62
    7
 10
135
 20
5
 11
135
 21
4
  0
LINE
  8
_0-0_
  6
CONTINUOUS
 62
    7
 10
136
 20
279
 11
136
 21
278
  0
LINE
  8
_0-0_
  6
CONTINUOUS
 62
    7
 10
136
 20
274
 11
136
 21
272
  0
POINT
  8
_0-0_
 62
    7
 10
136
 20
268
  0
LINE
  8
_0-0_
  6
CONTINUOUS
 62
    7
 10
136
 20
266
 11
136
 21
264
  0
LINE
  8
_0-0_
  6
CONTINUOUS
 62
    7
 10
136
 20
255
 11
136
 21
254
  0
LINE
  8
_0-0_
  6
CONTINUOUS
 62
    7
 10
136
 20
249
 11
136
 21
248
  0
LINE
  8
_0-0_
  6
CONTINUOUS
 62
    7
 10
136
 20
234
 11
136
 21
233
  0
POINT
  8
_0-0_
 62
    7
 10
136
 20
138
  0
POINT
  8
_0-0_
 62
    7
 10
136
 20
136
  0
LINE
  8
_0-0_
  6
CONTINUOUS
 62
    7
 10
136
 20
131
 11
136
 21
130
  0
LINE
  8
_0-0_
  6
CONTINUOUS
 62
    7
 10
136
 20
127
 11
136
 21
125
  0
POINT
  8
_0-0_
 62
    7
 10
136
 20
121
  0
POINT
  8
_0-0_
 62
    7
 10
136
 20
119
  0
LINE
  8
_0-0_
  6
CONTINUOUS
 62
    7
 10
136
 20
111
 11
136
 21
107
  0
LINE
  8
_0-0_
  6
CONTINUOUS
 62
    7
 10
136
 20
93
 11
136
 21
87
  0
LINE
  8
_0-0_
  6
CONTINUOUS
 62
    7
 10
136
 20
52
 11
136
 21
49
  0
LINE
  8
_0-0_
  6
CONTINUOUS
 62
    7
 10
136
 20
31
 11
136
 21
25
  0
LINE
  8
_0-0_
  6
CONTINUOUS
 62
    7
 10
136
 20
16
 11
136
 21
15
  0
LINE
  8
_0-0_
  6
CONTINUOUS
 62
    7
 10
136
 20
6
 11
136
 21
5
  0
POINT
  8
_0-0_
 62
    7
 10
137
 20
279
  0
LINE
  8
_0-0_
  6
CONTINUOUS
 62
    7
 10
137
 20
275
 11
137
 21
274
  0
LINE
  8
_0-0_
  6
CONTINUOUS
 62
    7
 10
137
 20
269
 11
137
 21
267
  0
LINE
  8
_0-0_
  6
CONTINUOUS
 62
    7
 10
137
 20
264
 11
137
 21
263
  0
LINE
  8
_0-0_
  6
CONTINUOUS
 62
    7
 10
137
 20
254
 11
137
 21
253
  0
LINE
  8
_0-0_
  6
CONTINUOUS
 62
    7
 10
137
 20
250
 11
137
 21
249
  0
LINE
  8
_0-0_
  6
CONTINUOUS
 62
    7
 10
137
 20
236
 11
137
 21
235
  0
POINT
  8
_0-0_
 62
    7
 10
137
 20
138
  0
POINT
  8
_0-0_
 62
    7
 10
137
 20
136
  0
LINE
  8
_0-0_
  6
CONTINUOUS
 62
    7
 10
137
 20
134
 11
137
 21
132
  0
POINT
  8
_0-0_
 62
    7
 10
137
 20
124
  0
POINT
  8
_0-0_
 62
    7
 10
137
 20
121
  0
LINE
  8
_0-0_
  6
CONTINUOUS
 62
    7
 10
137
 20
119
 11
137
 21
118
  0
LINE
  8
_0-0_
  6
CONTINUOUS
 62
    7
 10
137
 20
113
 11
137
 21
111
  0
POINT
  8
_0-0_
 62
    7
 10
137
 20
109
  0
POINT
  8
_0-0_
 62
    7
 10
137
 20
106
  0
LINE
  8
_0-0_
  6
CONTINUOUS
 62
    7
 10
137
 20
65
 11
137
 21
46
  0
LINE
  8
_0-0_
  6
CONTINUOUS
 62
    7
 10
137
 20
33
 11
137
 21
32
  0
LINE
  8
_0-0_
  6
CONTINUOUS
 62
    7
 10
137
 20
24
 11
137
 21
23
  0
LINE
  8
_0-0_
  6
CONTINUOUS
 62
    7
 10
137
 20
17
 11
137
 21
16
  0
POINT
  8
_0-0_
 62
    7
 10
137
 20
6
  0
LINE
  8
_0-0_
  6
CONTINUOUS
 62
    7
 10
138
 20
280
 11
138
 21
279
  0
LINE
  8
_0-0_
  6
CONTINUOUS
 62
    7
 10
138
 20
277
 11
138
 21
276
  0
LINE
  8
_0-0_
  6
CONTINUOUS
 62
    7
 10
138
 20
269
 11
138
 21
267
  0
LINE
  8
_0-0_
  6
CONTINUOUS
 62
    7
 10
138
 20
263
 11
138
 21
262
  0
LINE
  8
_0-0_
  6
CONTINUOUS
 62
    7
 10
138
 20
253
 11
138
 21
250
  0
LINE
  8
_0-0_
  6
CONTINUOUS
 62
    7
 10
138
 20
239
 11
138
 21
238
  0
POINT
  8
_0-0_
 62
    7
 10
138
 20
138
  0
POINT
  8
_0-0_
 62
    7
 10
138
 20
135
  0
LINE
  8
_0-0_
  6
CONTINUOUS
 62
    7
 10
138
 20
129
 11
138
 21
127
  0
POINT
  8
_0-0_
 62
    7
 10
138
 20
123
  0
POINT
  8
_0-0_
 62
    7
 10
138
 20
121
  0
LINE
  8
_0-0_
  6
CONTINUOUS
 62
    7
 10
138
 20
118
 11
138
 21
113
  0
POINT
  8
_0-0_
 62
    7
 10
138
 20
110
  0
POINT
  8
_0-0_
 62
    7
 10
138
 20
107
  0
LINE
  8
_0-0_
  6
CONTINUOUS
 62
    7
 10
138
 20
103
 11
138
 21
62
  0
LINE
  8
_0-0_
  6
CONTINUOUS
 62
    7
 10
138
 20
45
 11
138
 21
44
  0
POINT
  8
_0-0_
 62
    7
 10
138
 20
32
  0
LINE
  8
_0-0_
  6
CONTINUOUS
 62
    7
 10
138
 20
23
 11
138
 21
17
  0
POINT
  8
_0-0_
 62
    7
 10
138
 20
7
  0
POINT
  8
_0-0_
 62
    7
 10
139
 20
280
  0
POINT
  8
_0-0_
 62
    7
 10
139
 20
278
  0
LINE
  8
_0-0_
  6
CONTINUOUS
 62
    7
 10
139
 20
269
 11
139
 21
267
  0
LINE
  8
_0-0_
  6
CONTINUOUS
 62
    7
 10
139
 20
262
 11
139
 21
261
  0
LINE
  8
_0-0_
  6
CONTINUOUS
 62
    7
 10
139
 20
241
 11
139
 21
240
  0
POINT
  8
_0-0_
 62
    7
 10
139
 20
138
  0
LINE
  8
_0-0_
  6
CONTINUOUS
 62
    7
 10
139
 20
133
 11
139
 21
130
  0
POINT
  8
_0-0_
 62
    7
 10
139
 20
126
  0
POINT
  8
_0-0_
 62
    7
 10
139
 20
122
  0
LINE
  8
_0-0_
  6
CONTINUOUS
 62
    7
 10
139
 20
117
 11
139
 21
114
  0
LINE
  8
_0-0_
  6
CONTINUOUS
 62
    7
 10
139
 20
111
 11
139
 21
110
  0
POINT
  8
_0-0_
 62
    7
 10
139
 20
107
  0
POINT
  8
_0-0_
 62
    7
 10
139
 20
104
  0
LINE
  8
_0-0_
  6
CONTINUOUS
 62
    7
 10
139
 20
91
 11
139
 21
78
  0
POINT
  8
_0-0_
 62
    7
 10
139
 20
43
  0
POINT
  8
_0-0_
 62
    7
 10
139
 20
32
  0
POINT
  8
_0-0_
 62
    7
 10
139
 20
20
  0
POINT
  8
_0-0_
 62
    7
 10
139
 20
7
  0
LINE
  8
_0-0_
  6
CONTINUOUS
 62
    7
 10
140
 20
281
 11
140
 21
280
  0
POINT
  8
_0-0_
 62
    7
 10
140
 20
278
  0
LINE
  8
_0-0_
  6
CONTINUOUS
 62
    7
 10
140
 20
268
 11
140
 21
267
  0
LINE
  8
_0-0_
  6
CONTINUOUS
 62
    7
 10
140
 20
261
 11
140
 21
260
  0
LINE
  8
_0-0_
  6
CONTINUOUS
 62
    7
 10
140
 20
244
 11
140
 21
242
  0
POINT
  8
_0-0_
 62
    7
 10
140
 20
138
  0
POINT
  8
_0-0_
 62
    7
 10
140
 20
125
  0
POINT
  8
_0-0_
 62
    7
 10
140
 20
110
  0
POINT
  8
_0-0_
 62
    7
 10
140
 20
108
  0
POINT
  8
_0-0_
 62
    7
 10
140
 20
105
  0
POINT
  8
_0-0_
 62
    7
 10
140
 20
42
  0
LINE
  8
_0-0_
  6
CONTINUOUS
 62
    7
 10
140
 20
32
 11
140
 21
31
  0
POINT
  8
_0-0_
 62
    7
 10
140
 20
8
  0
LINE
  8
_0-0_
  6
CONTINUOUS
 62
    7
 10
141
 20
281
 11
141
 21
280
  0
POINT
  8
_0-0_
 62
    7
 10
141
 20
278
  0
LINE
  8
_0-0_
  6
CONTINUOUS
 62
    7
 10
141
 20
261
 11
141
 21
260
  0
LINE
  8
_0-0_
  6
CONTINUOUS
 62
    7
 10
141
 20
163
 11
141
 21
159
  0
LINE
  8
_0-0_
  6
CONTINUOUS
 62
    7
 10
141
 20
157
 11
141
 21
140
  0
POINT
  8
_0-0_
 62
    7
 10
141
 20
134
  0
LINE
  8
_0-0_
  6
CONTINUOUS
 62
    7
 10
141
 20
125
 11
141
 21
124
  0
POINT
  8
_0-0_
 62
    7
 10
141
 20
109
  0
POINT
  8
_0-0_
 62
    7
 10
141
 20
106
  0
POINT
  8
_0-0_
 62
    7
 10
141
 20
42
  0
LINE
  8
_0-0_
  6
CONTINUOUS
 62
    7
 10
141
 20
32
 11
141
 21
31
  0
LINE
  8
_0-0_
  6
CONTINUOUS
 62
    7
 10
141
 20
9
 11
141
 21
8
  0
POINT
  8
_0-0_
 62
    7
 10
142
 20
281
  0
POINT
  8
_0-0_
 62
    7
 10
142
 20
278
  0
LINE
  8
_0-0_
  6
CONTINUOUS
 62
    7
 10
142
 20
263
 11
142
 21
261
  0
POINT
  8
_0-0_
 62
    7
 10
142
 20
231
  0
LINE
  8
_0-0_
  6
CONTINUOUS
 62
    7
 10
142
 20
229
 11
142
 21
164
  0
POINT
  8
_0-0_
 62
    7
 10
142
 20
158
  0
POINT
  8
_0-0_
 62
    7
 10
142
 20
134
  0
POINT
  8
_0-0_
 62
    7
 10
142
 20
107
  0
POINT
  8
_0-0_
 62
    7
 10
142
 20
42
  0
LINE
  8
_0-0_
  6
CONTINUOUS
 62
    7
 10
142
 20
36
 11
142
 21
34
  0
POINT
  8
_0-0_
 62
    7
 10
142
 20
31
  0
POINT
  8
_0-0_
 62
    7
 10
142
 20
9
  0
POINT
  8
_0-0_
 62
    7
 10
143
 20
281
  0
LINE
  8
_0-0_
  6
CONTINUOUS
 62
    7
 10
143
 20
278
 11
143
 21
277
  0
LINE
  8
_0-0_
  6
CONTINUOUS
 62
    7
 10
143
 20
264
 11
143
 21
263
  0
LINE
  8
_0-0_
  6
CONTINUOUS
 62
    7
 10
143
 20
246
 11
143
 21
228
  0
POINT
  8
_0-0_
 62
    7
 10
143
 20
134
  0
LINE
  8
_0-0_
  6
CONTINUOUS
 62
    7
 10
143
 20
108
 11
143
 21
107
  0
POINT
  8
_0-0_
 62
    7
 10
143
 20
42
  0
POINT
  8
_0-0_
 62
    7
 10
143
 20
37
  0
LINE
  8
_0-0_
  6
CONTINUOUS
 62
    7
 10
143
 20
34
 11
143
 21
33
  0
POINT
  8
_0-0_
 62
    7
 10
143
 20
31
  0
POINT
  8
_0-0_
 62
    7
 10
143
 20
10
  0
POINT
  8
_0-0_
 62
    7
 10
144
 20
281
  0
LINE
  8
_0-0_
  6
CONTINUOUS
 62
    7
 10
144
 20
277
 11
144
 21
276
  0
LINE
  8
_0-0_
  6
CONTINUOUS
 62
    7
 10
144
 20
266
 11
144
 21
265
  0
POINT
  8
_0-0_
 62
    7
 10
144
 20
256
  0
LINE
  8
_0-0_
  6
CONTINUOUS
 62
    7
 10
144
 20
182
 11
144
 21
159
  0
LINE
  8
_0-0_
  6
CONTINUOUS
 62
    7
 10
144
 20
156
 11
144
 21
152
  0
LINE
  8
_0-0_
  6
CONTINUOUS
 62
    7
 10
144
 20
149
 11
144
 21
147
  0
LINE
  8
_0-0_
  6
CONTINUOUS
 62
    7
 10
144
 20
145
 11
144
 21
138
  0
POINT
  8
_0-0_
 62
    7
 10
144
 20
134
  0
LINE
  8
_0-0_
  6
CONTINUOUS
 62
    7
 10
144
 20
129
 11
144
 21
128
  0
LINE
  8
_0-0_
  6
CONTINUOUS
 62
    7
 10
144
 20
118
 11
144
 21
114
  0
POINT
  8
_0-0_
 62
    7
 10
144
 20
108
  0
POINT
  8
_0-0_
 62
    7
 10
144
 20
42
  0
POINT
  8
_0-0_
 62
    7
 10
144
 20
37
  0
LINE
  8
_0-0_
  6
CONTINUOUS
 62
    7
 10
144
 20
32
 11
144
 21
30
  0
POINT
  8
_0-0_
 62
    7
 10
144
 20
10
  0
POINT
  8
_0-0_
 62
    7
 10
145
 20
281
  0
LINE
  8
_0-0_
  6
CONTINUOUS
 62
    7
 10
145
 20
276
 11
145
 21
266
  0
LINE
  8
_0-0_
  6
CONTINUOUS
 62
    7
 10
145
 20
259
 11
145
 21
254
  0
POINT
  8
_0-0_
 62
    7
 10
145
 20
137
  0
POINT
  8
_0-0_
 62
    7
 10
145
 20
134
  0
POINT
  8
_0-0_
 62
    7
 10
145
 20
129
  0
POINT
  8
_0-0_
 62
    7
 10
145
 20
119
  0
POINT
  8
_0-0_
 62
    7
 10
145
 20
108
  0
LINE
  8
_0-0_
  6
CONTINUOUS
 62
    7
 10
145
 20
44
 11
145
 21
43
  0
POINT
  8
_0-0_
 62
    7
 10
145
 20
38
  0
POINT
  8
_0-0_
 62
    7
 10
145
 20
30
  0
POINT
  8
_0-0_
 62
    7
 10
145
 20
11
  0
POINT
  8
_0-0_
 62
    7
 10
146
 20
281
  0
LINE
  8
_0-0_
  6
CONTINUOUS
 62
    7
 10
146
 20
274
 11
146
 21
269
  0
LINE
  8
_0-0_
  6
CONTINUOUS
 62
    7
 10
146
 20
261
 11
146
 21
259
  0
LINE
  8
_0-0_
  6
CONTINUOUS
 62
    7
 10
146
 20
254
 11
146
 21
253
  0
LINE
  8
_0-0_
  6
CONTINUOUS
 62
    7
 10
146
 20
173
 11
146
 21
159
  0
LINE
  8
_0-0_
  6
CONTINUOUS
 62
    7
 10
146
 20
156
 11
146
 21
151
  0
POINT
  8
_0-0_
 62
    7
 10
146
 20
134
  0
POINT
  8
_0-0_
 62
    7
 10
146
 20
120
  0
POINT
  8
_0-0_
 62
    7
 10
146
 20
108
  0
LINE
  8
_0-0_
  6
CONTINUOUS
 62
    7
 10
146
 20
49
 11
146
 21
45
  0
POINT
  8
_0-0_
 62
    7
 10
146
 20
38
  0
LINE
  8
_0-0_
  6
CONTINUOUS
 62
    7
 10
146
 20
12
 11
146
 21
11
  0
LINE
  8
_0-0_
  6
CONTINUOUS
 62
    7
 10
147
 20
281
 11
147
 21
280
  0
LINE
  8
_0-0_
  6
CONTINUOUS
 62
    7
 10
147
 20
265
 11
147
 21
262
  0
LINE
  8
_0-0_
  6
CONTINUOUS
 62
    7
 10
147
 20
252
 11
147
 21
251
  0
POINT
  8
_0-0_
 62
    7
 10
147
 20
134
  0
POINT
  8
_0-0_
 62
    7
 10
147
 20
130
  0
POINT
  8
_0-0_
 62
    7
 10
147
 20
120
  0
POINT
  8
_0-0_
 62
    7
 10
147
 20
107
  0
POINT
  8
_0-0_
 62
    7
 10
147
 20
53
  0
LINE
  8
_0-0_
  6
CONTINUOUS
 62
    7
 10
147
 20
49
 11
147
 21
48
  0
POINT
  8
_0-0_
 62
    7
 10
147
 20
39
  0
POINT
  8
_0-0_
 62
    7
 10
147
 20
12
  0
LINE
  8
_0-0_
  6
CONTINUOUS
 62
    7
 10
148
 20
280
 11
148
 21
278
  0
LINE
  8
_0-0_
  6
CONTINUOUS
 62
    7
 10
148
 20
268
 11
148
 21
265
  0
LINE
  8
_0-0_
  6
CONTINUOUS
 62
    7
 10
148
 20
251
 11
148
 21
250
  0
LINE
  8
_0-0_
  6
CONTINUOUS
 62
    7
 10
148
 20
192
 11
148
 21
191
  0
LINE
  8
_0-0_
  6
CONTINUOUS
 62
    7
 10
148
 20
180
 11
148
 21
146
  0
POINT
  8
_0-0_
 62
    7
 10
148
 20
140
  0
POINT
  8
_0-0_
 62
    7
 10
148
 20
129
  0
POINT
  8
_0-0_
 62
    7
 10
148
 20
120
  0
POINT
  8
_0-0_
 62
    7
 10
148
 20
111
  0
POINT
  8
_0-0_
 62
    7
 10
148
 20
107
  0
POINT
  8
_0-0_
 62
    7
 10
148
 20
53
  0
LINE
  8
_0-0_
  6
CONTINUOUS
 62
    7
 10
148
 20
41
 11
148
 21
40
  0
LINE
  8
_0-0_
  6
CONTINUOUS
 62
    7
 10
148
 20
13
 11
148
 21
12
  0
LINE
  8
_0-0_
  6
CONTINUOUS
 62
    7
 10
149
 20
278
 11
149
 21
269
  0
LINE
  8
_0-0_
  6
CONTINUOUS
 62
    7
 10
149
 20
250
 11
149
 21
178
  0
LINE
  8
_0-0_
  6
CONTINUOUS
 62
    7
 10
149
 20
144
 11
149
 21
143
  0
LINE
  8
_0-0_
  6
CONTINUOUS
 62
    7
 10
149
 20
139
 11
149
 21
138
  0
POINT
  8
_0-0_
 62
    7
 10
149
 20
128
  0
POINT
  8
_0-0_
 62
    7
 10
149
 20
120
  0
POINT
  8
_0-0_
 62
    7
 10
149
 20
110
  0
POINT
  8
_0-0_
 62
    7
 10
149
 20
106
  0
LINE
  8
_0-0_
  6
CONTINUOUS
 62
    7
 10
149
 20
53
 11
149
 21
52
  0
LINE
  8
_0-0_
  6
CONTINUOUS
 62
    7
 10
149
 20
42
 11
149
 21
41
  0
POINT
  8
_0-0_
 62
    7
 10
149
 20
13
  0
LINE
  8
_0-0_
  6
CONTINUOUS
 62
    7
 10
150
 20
142
 11
150
 21
141
  0
POINT
  8
_0-0_
 62
    7
 10
150
 20
128
  0
POINT
  8
_0-0_
 62
    7
 10
150
 20
119
  0
POINT
  8
_0-0_
 62
    7
 10
150
 20
110
  0
POINT
  8
_0-0_
 62
    7
 10
150
 20
106
  0
POINT
  8
_0-0_
 62
    7
 10
150
 20
53
  0
LINE
  8
_0-0_
  6
CONTINUOUS
 62
    7
 10
150
 20
51
 11
150
 21
49
  0
POINT
  8
_0-0_
 62
    7
 10
150
 20
43
  0
POINT
  8
_0-0_
 62
    7
 10
150
 20
14
  0
LINE
  8
_0-0_
  6
CONTINUOUS
 62
    7
 10
151
 20
140
 11
151
 21
139
  0
POINT
  8
_0-0_
 62
    7
 10
151
 20
134
  0
POINT
  8
_0-0_
 62
    7
 10
151
 20
121
  0
POINT
  8
_0-0_
 62
    7
 10
151
 20
119
  0
POINT
  8
_0-0_
 62
    7
 10
151
 20
111
  0
POINT
  8
_0-0_
 62
    7
 10
151
 20
52
  0
LINE
  8
_0-0_
  6
CONTINUOUS
 62
    7
 10
151
 20
44
 11
151
 21
43
  0
POINT
  8
_0-0_
 62
    7
 10
151
 20
14
  0
LINE
  8
_0-0_
  6
CONTINUOUS
 62
    7
 10
152
 20
138
 11
152
 21
137
  0
POINT
  8
_0-0_
 62
    7
 10
152
 20
134
  0
POINT
  8
_0-0_
 62
    7
 10
152
 20
129
  0
POINT
  8
_0-0_
 62
    7
 10
152
 20
123
  0
POINT
  8
_0-0_
 62
    7
 10
152
 20
120
  0
POINT
  8
_0-0_
 62
    7
 10
152
 20
112
  0
LINE
  8
_0-0_
  6
CONTINUOUS
 62
    7
 10
152
 20
104
 11
152
 21
98
  0
POINT
  8
_0-0_
 62
    7
 10
152
 20
51
  0
LINE
  8
_0-0_
  6
CONTINUOUS
 62
    7
 10
152
 20
47
 11
152
 21
44
  0
POINT
  8
_0-0_
 62
    7
 10
152
 20
15
  0
LINE
  8
_0-0_
  6
CONTINUOUS
 62
    7
 10
153
 20
136
 11
153
 21
135
  0
POINT
  8
_0-0_
 62
    7
 10
153
 20
129
  0
LINE
  8
_0-0_
  6
CONTINUOUS
 62
    7
 10
153
 20
124
 11
153
 21
120
  0
POINT
  8
_0-0_
 62
    7
 10
153
 20
112
  0
LINE
  8
_0-0_
  6
CONTINUOUS
 62
    7
 10
153
 20
98
 11
153
 21
91
  0
POINT
  8
_0-0_
 62
    7
 10
153
 20
52
  0
LINE
  8
_0-0_
  6
CONTINUOUS
 62
    7
 10
153
 20
48
 11
153
 21
47
  0
POINT
  8
_0-0_
 62
    7
 10
153
 20
16
  0
POINT
  8
_0-0_
 62
    7
 10
154
 20
129
  0
POINT
  8
_0-0_
 62
    7
 10
154
 20
125
  0
POINT
  8
_0-0_
 62
    7
 10
154
 20
112
  0
LINE
  8
_0-0_
  6
CONTINUOUS
 62
    7
 10
154
 20
91
 11
154
 21
82
  0
LINE
  8
_0-0_
  6
CONTINUOUS
 62
    7
 10
154
 20
57
 11
154
 21
53
  0
POINT
  8
_0-0_
 62
    7
 10
154
 20
49
  0
POINT
  8
_0-0_
 62
    7
 10
154
 20
16
  0
POINT
  8
_0-0_
 62
    7
 10
155
 20
130
  0
POINT
  8
_0-0_
 62
    7
 10
155
 20
126
  0
POINT
  8
_0-0_
 62
    7
 10
155
 20
111
  0
LINE
  8
_0-0_
  6
CONTINUOUS
 62
    7
 10
155
 20
82
 11
155
 21
57
  0
POINT
  8
_0-0_
 62
    7
 10
155
 20
48
  0
POINT
  8
_0-0_
 62
    7
 10
155
 20
17
  0
POINT
  8
_0-0_
 62
    7
 10
156
 20
130
  0
POINT
  8
_0-0_
 62
    7
 10
156
 20
127
  0
POINT
  8
_0-0_
 62
    7
 10
156
 20
110
  0
LINE
  8
_0-0_
  6
CONTINUOUS
 62
    7
 10
156
 20
48
 11
156
 21
47
  0
POINT
  8
_0-0_
 62
    7
 10
156
 20
17
  0
POINT
  8
_0-0_
 62
    7
 10
157
 20
130
  0
POINT
  8
_0-0_
 62
    7
 10
157
 20
128
  0
POINT
  8
_0-0_
 62
    7
 10
157
 20
47
  0
POINT
  8
_0-0_
 62
    7
 10
157
 20
18
  0
POINT
  8
_0-0_
 62
    7
 10
158
 20
129
  0
LINE
  8
_0-0_
  6
CONTINUOUS
 62
    7
 10
158
 20
48
 11
158
 21
46
  0
LINE
  8
_0-0_
  6
CONTINUOUS
 62
    7
 10
158
 20
19
 11
158
 21
18
  0
LINE
  8
_0-0_
  6
CONTINUOUS
 62
    7
 10
159
 20
131
 11
159
 21
130
  0
POINT
  8
_0-0_
 62
    7
 10
159
 20
48
  0
POINT
  8
_0-0_
 62
    7
 10
159
 20
19
  0
POINT
  8
_0-0_
 62
    7
 10
160
 20
131
  0
POINT
  8
_0-0_
 62
    7
 10
160
 20
50
  0
POINT
  8
_0-0_
 62
    7
 10
160
 20
20
  0
LINE
  8
_0-0_
  6
CONTINUOUS
 62
    7
 10
161
 20
105
 11
161
 21
104
  0
LINE
  8
_0-0_
  6
CONTINUOUS
 62
    7
 10
161
 20
49
 11
161
 21
47
  0
POINT
  8
_0-0_
 62
    7
 10
161
 20
20
  0
LINE
  8
_0-0_
  6
CONTINUOUS
 62
    7
 10
162
 20
103
 11
162
 21
101
  0
LINE
  8
_0-0_
  6
CONTINUOUS
 62
    7
 10
162
 20
47
 11
162
 21
45
  0
POINT
  8
_0-0_
 62
    7
 10
162
 20
21
  0
LINE
  8
_0-0_
  6
CONTINUOUS
 62
    7
 10
163
 20
100
 11
163
 21
97
  0
LINE
  8
_0-0_
  6
CONTINUOUS
 62
    7
 10
163
 20
44
 11
163
 21
42
  0
POINT
  8
_0-0_
 62
    7
 10
163
 20
21
  0
LINE
  8
_0-0_
  6
CONTINUOUS
 62
    7
 10
164
 20
96
 11
164
 21
93
  0
LINE
  8
_0-0_
  6
CONTINUOUS
 62
    7
 10
164
 20
41
 11
164
 21
40
  0
POINT
  8
_0-0_
 62
    7
 10
164
 20
22
  0
LINE
  8
_0-0_
  6
CONTINUOUS
 62
    7
 10
165
 20
93
 11
165
 21
90
  0
POINT
  8
_0-0_
 62
    7
 10
165
 20
39
  0
LINE
  8
_0-0_
  6
CONTINUOUS
 62
    7
 10
165
 20
23
 11
165
 21
22
  0
LINE
  8
_0-0_
  6
CONTINUOUS
 62
    7
 10
166
 20
89
 11
166
 21
87
  0
LINE
  8
_0-0_
  6
CONTINUOUS
 62
    7
 10
166
 20
51
 11
166
 21
50
  0
POINT
  8
_0-0_
 62
    7
 10
166
 20
38
  0
POINT
  8
_0-0_
 62
    7
 10
166
 20
23
  0
LINE
  8
_0-0_
  6
CONTINUOUS
 62
    7
 10
167
 20
86
 11
167
 21
83
  0
POINT
  8
_0-0_
 62
    7
 10
167
 20
53
  0
LINE
  8
_0-0_
  6
CONTINUOUS
 62
    7
 10
167
 20
50
 11
167
 21
42
  0
POINT
  8
_0-0_
 62
    7
 10
167
 20
37
  0
LINE
  8
_0-0_
  6
CONTINUOUS
 62
    7
 10
167
 20
24
 11
167
 21
23
  0
LINE
  8
_0-0_
  6
CONTINUOUS
 62
    7
 10
168
 20
82
 11
168
 21
80
  0
POINT
  8
_0-0_
 62
    7
 10
168
 20
52
  0
LINE
  8
_0-0_
  6
CONTINUOUS
 62
    7
 10
168
 20
42
 11
168
 21
39
  0
POINT
  8
_0-0_
 62
    7
 10
168
 20
36
  0
POINT
  8
_0-0_
 62
    7
 10
168
 20
24
  0
LINE
  8
_0-0_
  6
CONTINUOUS
 62
    7
 10
169
 20
79
 11
169
 21
77
  0
LINE
  8
_0-0_
  6
CONTINUOUS
 62
    7
 10
169
 20
71
 11
169
 21
66
  0
POINT
  8
_0-0_
 62
    7
 10
169
 20
52
  0
LINE
  8
_0-0_
  6
CONTINUOUS
 62
    7
 10
169
 20
39
 11
169
 21
38
  0
POINT
  8
_0-0_
 62
    7
 10
169
 20
35
  0
POINT
  8
_0-0_
 62
    7
 10
169
 20
24
  0
POINT
  8
_0-0_
 62
    7
 10
170
 20
76
  0
POINT
  8
_0-0_
 62
    7
 10
170
 20
72
  0
LINE
  8
_0-0_
  6
CONTINUOUS
 62
    7
 10
170
 20
66
 11
170
 21
63
  0
LINE
  8
_0-0_
  6
CONTINUOUS
 62
    7
 10
170
 20
52
 11
170
 21
51
  0
LINE
  8
_0-0_
  6
CONTINUOUS
 62
    7
 10
170
 20
37
 11
170
 21
36
  0
POINT
  8
_0-0_
 62
    7
 10
170
 20
34
  0
POINT
  8
_0-0_
 62
    7
 10
170
 20
25
  0
POINT
  8
_0-0_
 62
    7
 10
171
 20
75
  0
POINT
  8
_0-0_
 62
    7
 10
171
 20
72
  0
LINE
  8
_0-0_
  6
CONTINUOUS
 62
    7
 10
171
 20
62
 11
171
 21
61
  0
POINT
  8
_0-0_
 62
    7
 10
171
 20
51
  0
LINE
  8
_0-0_
  6
CONTINUOUS
 62
    7
 10
171
 20
35
 11
171
 21
33
  0
LINE
  8
_0-0_
  6
CONTINUOUS
 62
    7
 10
171
 20
26
 11
171
 21
25
  0
POINT
  8
_0-0_
 62
    7
 10
172
 20
74
  0
POINT
  8
_0-0_
 62
    7
 10
172
 20
71
  0
LINE
  8
_0-0_
  6
CONTINUOUS
 62
    7
 10
172
 20
60
 11
172
 21
59
  0
LINE
  8
_0-0_
  6
CONTINUOUS
 62
    7
 10
172
 20
51
 11
172
 21
50
  0
POINT
  8
_0-0_
 62
    7
 10
172
 20
33
  0
POINT
  8
_0-0_
 62
    7
 10
172
 20
26
  0
POINT
  8
_0-0_
 62
    7
 10
173
 20
73
  0
POINT
  8
_0-0_
 62
    7
 10
173
 20
71
  0
LINE
  8
_0-0_
  6
CONTINUOUS
 62
    7
 10
173
 20
59
 11
173
 21
58
  0
POINT
  8
_0-0_
 62
    7
 10
173
 20
50
  0
POINT
  8
_0-0_
 62
    7
 10
173
 20
27
  0
POINT
  8
_0-0_
 62
    7
 10
174
 20
72
  0
POINT
  8
_0-0_
 62
    7
 10
174
 20
70
  0
POINT
  8
_0-0_
 62
    7
 10
174
 20
57
  0
POINT
  8
_0-0_
 62
    7
 10
174
 20
50
  0
POINT
  8
_0-0_
 62
    7
 10
174
 20
27
  0
LINE
  8
_0-0_
  6
CONTINUOUS
 62
    7
 10
175
 20
71
 11
175
 21
70
  0
LINE
  8
_0-0_
  6
CONTINUOUS
 62
    7
 10
175
 20
56
 11
175
 21
55
  0
POINT
  8
_0-0_
 62
    7
 10
175
 20
49
  0
POINT
  8
_0-0_
 62
    7
 10
175
 20
28
  0
POINT
  8
_0-0_
 62
    7
 10
176
 20
55
  0
POINT
  8
_0-0_
 62
    7
 10
176
 20
49
  0
POINT
  8
_0-0_
 62
    7
 10
176
 20
28
  0
POINT
  8
_0-0_
 62
    7
 10
177
 20
54
  0
POINT
  8
_0-0_
 62
    7
 10
177
 20
50
  0
LINE
  8
_0-0_
  6
CONTINUOUS
 62
    7
 10
177
 20
29
 11
177
 21
28
  0
POINT
  8
_0-0_
 62
    7
 10
178
 20
53
  0
POINT
  8
_0-0_
 62
    7
 10
178
 20
50
  0
POINT
  8
_0-0_
 62
    7
 10
179
 20
53
  0
POINT
  8
_0-0_
 62
    7
 10
179
 20
51
  0
POINT
  8
_0-0_
 62
    7
 10
179
 20
30
  0
POINT
  8
_0-0_
 62
    7
 10
180
 20
53
  0
POINT
  8
_0-0_
 62
    7
 10
180
 20
51
  0
POINT
  8
_0-0_
 62
    7
 10
180
 20
30
  0
LINE
  8
_0-0_
  6
CONTINUOUS
 62
    7
 10
181
 20
53
 11
181
 21
52
  0
POINT
  8
_0-0_
 62
    7
 10
181
 20
31
  0
POINT
  8
_0-0_
 62
    7
 10
182
 20
52
  0
POINT
  8
_0-0_
 62
    7
 10
182
 20
31
  0
POINT
  8
_0-0_
 62
    7
 10
186
 20
33
  0
POINT
  8
_0-0_
 62
    7
 10
187
 20
34
  0
POINT
  8
_0-0_
 62
    7
 10
188
 20
34
  0
POINT
  8
_0-0_
 62
    7
 10
194
 20
58
  0
LINE
  8
_0-0_
  6
CONTINUOUS
 62
    7
 10
195
 20
58
 11
195
 21
55
  0
POINT
  8
_0-0_
 62
    7
 10
196
 20
59
  0
POINT
  8
_0-0_
 62
    7
 10
196
 20
56
  0
POINT
  8
_0-0_
 62
    7
 10
196
 20
38
  0
LINE
  8
_0-0_
  6
CONTINUOUS
 62
    7
 10
197
 20
60
 11
197
 21
59
  0
POINT
  8
_0-0_
 62
    7
 10
197
 20
56
  0
LINE
  8
_0-0_
  6
CONTINUOUS
 62
    7
 10
197
 20
39
 11
197
 21
38
  0
POINT
  8
_0-0_
 62
    7
 10
198
 20
58
  0
POINT
  8
_0-0_
 62
    7
 10
198
 20
55
  0
LINE
  8
_0-0_
  6
CONTINUOUS
 62
    7
 10
198
 20
42
 11
198
 21
39
  0
POINT
  8
_0-0_
 62
    7
 10
199
 20
58
  0
POINT
  8
_0-0_
 62
    7
 10
199
 20
54
  0
LINE
  8
_0-0_
  6
CONTINUOUS
 62
    7
 10
199
 20
42
 11
199
 21
39
  0
POINT
  8
_0-0_
 62
    7
 10
200
 20
58
  0
POINT
  8
_0-0_
 62
    7
 10
200
 20
53
  0
POINT
  8
_0-0_
 62
    7
 10
200
 20
43
  0
POINT
  8
_0-0_
 62
    7
 10
200
 20
40
  0
POINT
  8
_0-0_
 62
    7
 10
201
 20
58
  0
POINT
  8
_0-0_
 62
    7
 10
201
 20
52
  0
LINE
  8
_0-0_
  6
CONTINUOUS
 62
    7
 10
201
 20
46
 11
201
 21
44
  0
LINE
  8
_0-0_
  6
CONTINUOUS
 62
    7
 10
201
 20
41
 11
201
 21
40
  0
POINT
  8
_0-0_
 62
    7
 10
202
 20
58
  0
LINE
  8
_0-0_
  6
CONTINUOUS
 62
    7
 10
202
 20
51
 11
202
 21
46
  0
POINT
  8
_0-0_
 62
    7
 10
202
 20
42
  0
LINE
  8
_0-0_
  6
CONTINUOUS
 62
    7
 10
202
 20
40
 11
202
 21
39
  0
POINT
  8
_0-0_
 62
    7
 10
203
 20
58
  0
POINT
  8
_0-0_
 62
    7
 10
203
 20
50
  0
POINT
  8
_0-0_
 62
    7
 10
203
 20
42
  0
POINT
  8
_0-0_
 62
    7
 10
204
 20
58
  0
POINT
  8
_0-0_
 62
    7
 10
204
 20
43
  0
POINT
  8
_0-0_
 62
    7
 10
205
 20
58
  0
POINT
  8
_0-0_
 62
    7
 10
205
 20
44
  0
POINT
  8
_0-0_
 62
    7
 10
206
 20
58
  0
POINT
  8
_0-0_
 62
    7
 10
206
 20
44
  0
LINE
  8
_0-0_
  6
CONTINUOUS
 62
    7
 10
207
 20
60
 11
207
 21
59
  0
POINT
  8
_0-0_
 62
    7
 10
207
 20
45
  0
LINE
  8
_0-0_
  6
CONTINUOUS
 62
    7
 10
208
 20
62
 11
208
 21
61
  0
POINT
  8
_0-0_
 62
    7
 10
208
 20
45
  0
LINE
  8
_0-0_
  6
CONTINUOUS
 62
    7
 10
209
 20
67
 11
209
 21
63
  0
LINE
  8
_0-0_
  6
CONTINUOUS
 62
    7
 10
209
 20
46
 11
209
 21
45
  0
LINE
  8
_0-0_
  6
CONTINUOUS
 62
    7
 10
210
 20
67
 11
210
 21
66
  0
POINT
  8
_0-0_
 62
    7
 10
210
 20
45
  0
LINE
  8
_0-0_
  6
CONTINUOUS
 62
    7
 10
211
 20
69
 11
211
 21
68
  0
LINE
  8
_0-0_
  6
CONTINUOUS
 62
    7
 10
211
 20
45
 11
211
 21
44
  0
LINE
  8
_0-0_
  6
CONTINUOUS
 62
    7
 10
212
 20
66
 11
212
 21
64
  0
POINT
  8
_0-0_
 62
    7
 10
212
 20
44
  0
POINT
  8
_0-0_
 62
    7
 10
213
 20
67
  0
LINE
  8
_0-0_
  6
CONTINUOUS
 62
    7
 10
213
 20
64
 11
213
 21
61
  0
POINT
  8
_0-0_
 62
    7
 10
213
 20
43
  0
LINE
  8
_0-0_
  6
CONTINUOUS
 62
    7
 10
214
 20
60
 11
214
 21
59
  0
POINT
  8
_0-0_
 62
    7
 10
214
 20
42
  0
LINE
  8
_0-0_
  6
CONTINUOUS
 62
    7
 10
215
 20
58
 11
215
 21
57
  0
LINE
  8
_0-0_
  6
CONTINUOUS
 62
    7
 10
215
 20
42
 11
215
 21
41
  0
POINT
  8
_0-0_
 62
    7
 10
215
 20
39
  0
POINT
  8
_0-0_
 62
    7
 10
216
 20
57
  0
LINE
  8
_0-0_
  6
CONTINUOUS
 62
    7
 10
216
 20
50
 11
216
 21
49
  0
LINE
  8
_0-0_
  6
CONTINUOUS
 62
    7
 10
216
 20
41
 11
216
 21
39
  0
POINT
  8
_0-0_
 62
    7
 10
217
 20
57
  0
LINE
  8
_0-0_
  6
CONTINUOUS
 62
    7
 10
217
 20
51
 11
217
 21
43
  0
LINE
  8
_0-0_
  6
CONTINUOUS
 62
    7
 10
217
 20
40
 11
217
 21
39
  0
POINT
  8
_0-0_
 62
    7
 10
218
 20
57
  0
POINT
  8
_0-0_
 62
    7
 10
218
 20
51
  0
LINE
  8
_0-0_
  6
CONTINUOUS
 62
    7
 10
218
 20
41
 11
218
 21
39
  0
POINT
  8
_0-0_
 62
    7
 10
219
 20
57
  0
POINT
  8
_0-0_
 62
    7
 10
219
 20
52
  0
LINE
  8
_0-0_
  6
CONTINUOUS
 62
    7
 10
219
 20
42
 11
219
 21
41
  0
POINT
  8
_0-0_
 62
    7
 10
220
 20
57
  0
POINT
  8
_0-0_
 62
    7
 10
220
 20
53
  0
POINT
  8
_0-0_
 62
    7
 10
221
 20
57
  0
LINE
  8
_0-0_
  6
CONTINUOUS
 62
    7
 10
221
 20
54
 11
221
 21
53
  0
POINT
  8
_0-0_
 62
    7
 10
222
 20
57
  0
POINT
  8
_0-0_
 62
    7
 10
222
 20
54
  0
POINT
  8
_0-0_
 62
    7
 10
223
 20
55
  0
POINT
  8
_0-0_
 62
    7
 10
224
 20
55
  0
POINT
  8
_0-0_
 62
    7
 10
225
 20
54
  0
ENDSEC
  0
EOF
